<?xml version="1.0" standalone="no"?><svg xmlns:xlink="http://www.w3.org/1999/xlink" xmlns="http://www.w3.org/2000/svg" viewBox="0 0 900 990.0227011574788" preserveAspectRatio="xMaxYMax slice"><g transform="scale(2.101959025812057)"><rect x="0" y="0" width="428.1818181818182" height="471" fill="#f7f4ee"/><rect x="85.63636363636364" y="0" width="42.81818181818182" height="42.81818181818182" fill="#f7f4ee"/><path d="M 85.64 0 A 21.41 21.41 0 0 1  107.05 21.41 L 85.64 0 A 21.41 21.41 0 0 0 107.05 21.41" fill="#d1495b"/><path d="M 107.05 21.41 A 21.41 21.41 0 0 1  128.46 0 L 107.05 21.41 A 21.41 21.41 0 0 0 128.46 0" fill="#33798d"/><path d="M 107.05 21.41 A 21.41 21.41 0 0 1  128.46 42.82 L 107.05 21.41 A 21.41 21.41 0 0 0 128.46 42.82" fill="#30638e"/><path d="M 171.27 0 A 42.82 42.82 0 0 1  214.09 42.82 L 171.27 0 A 42.82 42.82 0 0 0 214.09 42.82" fill="#4c963d"/><rect x="256.90909090909093" y="0" width="42.81818181818182" height="42.81818181818182" fill="#f7f4ee"/><g transform="translate(278.32,0) scale(1.0705) rotate(0)"><path d="M10 0L20 10L10 20L0 10L10 0Z" fill="#30638e"/></g><circle cx="289.025" cy="32.115" r="10.705" fill="#30638e"/><circle cx="321.14000000000004" cy="21.41" r="21.41" fill="#33798d"/><path d="M 385.36 42.82 A 42.82 42.82 0 0 0 428.18 0 L 385.36 0" fill="#4c963d"/><g transform="translate(0,42.82) scale(2.141) rotate(0)"><path fill-rule="evenodd" clip-rule="evenodd" d="M10 20C15.5228 20 20 15.5228 20 10C20 4.47715 15.5228 0 10 0C4.47715 0 0 4.47715 0 10C0 15.5228 4.47715 20 10 20ZM10 17C13.866 17 17 13.866 17 10C17 6.13401 13.866 3 10 3C6.13401 3 3 6.13401 3 10C3 13.866 6.13401 17 10 17Z" fill="#33798d"/></g><circle cx="64.23" cy="64.23" r="21.41" fill="#edae49"/><rect x="171.27272727272728" y="42.81818181818182" width="42.81818181818182" height="42.81818181818182" fill="#f7f4ee"/><g transform="translate(171.27,42.82) scale(1.0705) rotate(0)"><path fill-rule="evenodd" clip-rule="evenodd" d="M10 20C15.5228 20 20 15.5228 20 10C20 4.47715 15.5228 0 10 0C4.47715 0 0 4.47715 0 10C0 15.5228 4.47715 20 10 20ZM10 17C13.866 17 17 13.866 17 10C17 6.13401 13.866 3 10 3C6.13401 3 3 6.13401 3 10C3 13.866 6.13401 17 10 17Z" fill="#33798d"/></g><g transform="translate(171.27,64.23) scale(1.0705) rotate(0)"><path fill-rule="evenodd" clip-rule="evenodd" d="M10 20C15.5228 20 20 15.5228 20 10C20 4.47715 15.5228 0 10 0C4.47715 0 0 4.47715 0 10C0 15.5228 4.47715 20 10 20ZM10 17C13.866 17 17 13.866 17 10C17 6.13401 13.866 3 10 3C6.13401 3 3 6.13401 3 10C3 13.866 6.13401 17 10 17Z" fill="#33798d"/></g><circle cx="235.5" cy="64.23" r="21.41" fill="#30638e"/><g transform="translate(256.91,42.82) scale(2.141) rotate(0)"><path fill-rule="evenodd" clip-rule="evenodd" d="M10 20C15.5228 20 20 15.5228 20 10C20 4.47715 15.5228 0 10 0C4.47715 0 0 4.47715 0 10C0 15.5228 4.47715 20 10 20ZM10 17C13.866 17 17 13.866 17 10C17 6.13401 13.866 3 10 3C6.13401 3 3 6.13401 3 10C3 13.866 6.13401 17 10 17Z" fill="#edae49"/></g><rect x="299.72727272727275" y="42.81818181818182" width="42.81818181818182" height="42.81818181818182" fill="#f7f4ee"/><g transform="translate(299.73,42.82) scale(1.0705) rotate(0)"><path fill-rule="evenodd" clip-rule="evenodd" d="M10 20C15.5228 20 20 15.5228 20 10C20 4.47715 15.5228 0 10 0C4.47715 0 0 4.47715 0 10C0 15.5228 4.47715 20 10 20ZM10 17C13.866 17 17 13.866 17 10C17 6.13401 13.866 3 10 3C6.13401 3 3 6.13401 3 10C3 13.866 6.13401 17 10 17Z" fill="#30638e"/></g><g transform="translate(321.14,42.82) scale(1.0705) rotate(0)"><path fill-rule="evenodd" clip-rule="evenodd" d="M10 20C15.5228 20 20 15.5228 20 10C20 4.47715 15.5228 0 10 0C4.47715 0 0 4.47715 0 10C0 15.5228 4.47715 20 10 20ZM10 17C13.866 17 17 13.866 17 10C17 6.13401 13.866 3 10 3C6.13401 3 3 6.13401 3 10C3 13.866 6.13401 17 10 17Z" fill="#4c963d"/></g><path d="M 299.73 64.23 A 21.41 21.41 0 0 1  321.14000000000004 85.64 L 299.73 64.23 A 21.41 21.41 0 0 0 321.14000000000004 85.64" fill="#4c963d"/><circle cx="21.41" cy="107.05" r="21.41" fill="#d1495b"/><g transform="translate(42.82,85.64) scale(2.141) rotate(0)"><path fill-rule="evenodd" clip-rule="evenodd" d="M10 20C15.5228 20 20 15.5228 20 10C20 4.47715 15.5228 0 10 0C4.47715 0 0 4.47715 0 10C0 15.5228 4.47715 20 10 20ZM10 17C13.866 17 17 13.866 17 10C17 6.13401 13.866 3 10 3C6.13401 3 3 6.13401 3 10C3 13.866 6.13401 17 10 17Z" fill="#33798d"/></g><circle cx="149.85999999999999" cy="107.05" r="21.41" fill="#33798d"/><path d="M 171.27 85.64 A 42.82 42.82 0 0 1  214.09 128.46 L 171.27 85.64 A 42.82 42.82 0 0 0 214.09 128.46" fill="#30638e"/><g transform="translate(256.91,85.64) scale(2.141) rotate(0)"><path d="M10 0L20 10L10 20L0 10L10 0Z" fill="#33798d"/></g><rect x="342.54545454545456" y="85.63636363636364" width="42.81818181818182" height="42.81818181818182" fill="#f7f4ee"/><g transform="translate(363.95,85.64) scale(1.0705) rotate(0)"><path d="M10 0L20 10L10 20L0 10L10 0Z" fill="#33798d"/></g><g transform="translate(363.95,107.05) scale(1.0705) rotate(0)"><path d="M10 0L20 10L10 20L0 10L10 0Z" fill="#edae49"/></g><path d="M 0 128.45 A 42.82 42.82 0 0 1  42.82 171.26999999999998 L 0 128.45 A 42.82 42.82 0 0 0 42.82 171.26999999999998" fill="#edae49"/><g transform="translate(42.82,128.45) scale(2.141) rotate(0)"><path d="M10 0L20 10L10 20L0 10L10 0Z" fill="#30638e"/></g><path d="M 85.64 128.45 A 42.82 42.82 0 0 1  128.46 171.26999999999998 L 85.64 128.45 A 42.82 42.82 0 0 0 128.46 171.26999999999998" fill="#30638e"/><g transform="translate(214.09,128.45) scale(2.141) rotate(0)"><path d="M10 0L20 10L10 20L0 10L10 0Z" fill="#33798d"/></g><rect x="256.90909090909093" y="128.45454545454547" width="42.81818181818182" height="42.81818181818182" fill="#f7f4ee"/><path d="M 278.32 149.85999999999999 A 21.41 21.41 0 0 1  299.73 128.45 L 278.32 149.85999999999999 A 21.41 21.41 0 0 0 299.73 128.45" fill="#4c963d"/><path d="M 256.91 149.86 A 21.41 21.41 0 0 1  278.32000000000005 171.27 L 256.91 149.86 A 21.41 21.41 0 0 0 278.32000000000005 171.27" fill="#33798d"/><circle cx="289.025" cy="160.56500000000003" r="10.705" fill="#30638e"/><path d="M 299.73 171.26999999999998 A 42.82 42.82 0 0 1  342.55 128.45 L 299.73 171.26999999999998 A 42.82 42.82 0 0 0 342.55 128.45" fill="#33798d"/><rect x="342.54545454545456" y="128.45454545454547" width="42.81818181818182" height="42.81818181818182" fill="#f7f4ee"/><circle cx="353.255" cy="139.155" r="10.705" fill="#edae49"/><circle cx="353.255" cy="160.56500000000003" r="10.705" fill="#d1495b"/><path d="M 385.36 128.45 A 42.82 42.82 0 0 1  428.18 171.26999999999998 L 385.36 128.45 A 42.82 42.82 0 0 0 428.18 171.26999999999998" fill="#30638e"/><path d="M 0 171.27 A 42.82 42.82 0 0 1  42.82 214.09 L 0 171.27 A 42.82 42.82 0 0 0 42.82 214.09" fill="#d1495b"/><path d="M 42.82 171.27 A 42.82 42.82 0 0 0 85.64 214.09 L 85.64 171.27" fill="#4c963d"/><circle cx="107.05" cy="192.68" r="21.41" fill="#30638e"/><rect x="171.27272727272728" y="171.27272727272728" width="42.81818181818182" height="42.81818181818182" fill="#f7f4ee"/><path d="M 171.27 171.27 A 21.41 21.41 0 0 1  192.68 192.68 L 171.27 171.27 A 21.41 21.41 0 0 0 192.68 192.68" fill="#33798d"/><g transform="translate(171.27,192.68) scale(1.0705) rotate(0)"><path d="M10 0L20 10L10 20L0 10L10 0Z" fill="#30638e"/></g><g transform="translate(192.68,192.68) scale(1.0705) rotate(0)"><path d="M10 0L20 10L10 20L0 10L10 0Z" fill="#d1495b"/></g><path d="M 214.09 171.27 A 42.82 42.82 0 0 1 256.91 214.09 L 214.09 214.09" fill="#4c963d"/><path d="M 256.91 214.09 A 42.82 42.82 0 0 1  299.73 171.27 L 256.91 214.09 A 42.82 42.82 0 0 0 299.73 171.27" fill="#30638e"/><g transform="translate(299.73,171.27) scale(2.141) rotate(0)"><path fill-rule="evenodd" clip-rule="evenodd" d="M10 20C15.5228 20 20 15.5228 20 10C20 4.47715 15.5228 0 10 0C4.47715 0 0 4.47715 0 10C0 15.5228 4.47715 20 10 20ZM10 17C13.866 17 17 13.866 17 10C17 6.13401 13.866 3 10 3C6.13401 3 3 6.13401 3 10C3 13.866 6.13401 17 10 17Z" fill="#edae49"/></g><rect x="342.54545454545456" y="171.27272727272728" width="42.81818181818182" height="42.81818181818182" fill="#f7f4ee"/><path d="M 342.55 171.27 A 21.41 21.41 0 0 1  363.96000000000004 192.68 L 342.55 171.27 A 21.41 21.41 0 0 0 363.96000000000004 192.68" fill="#edae49"/><path d="M 363.95 171.27 A 21.41 21.41 0 0 0 385.36 192.68 L 385.36 171.27" fill="#edae49"/><circle cx="353.255" cy="203.38500000000002" r="10.705" fill="#d1495b"/><path d="M 363.95 192.68 A 21.41 21.41 0 0 1  385.36 214.09 L 363.95 192.68 A 21.41 21.41 0 0 0 385.36 214.09" fill="#30638e"/><path d="M 385.36 214.09 A 42.82 42.82 0 0 1  428.18 171.27 L 385.36 214.09 A 42.82 42.82 0 0 0 428.18 171.27" fill="#4c963d"/><rect x="0" y="214.0909090909091" width="42.81818181818182" height="42.81818181818182" fill="#f7f4ee"/><circle cx="10.705" cy="224.79500000000002" r="10.705" fill="#d1495b"/><path d="M 21.41 235.5 A 21.41 21.41 0 0 1  42.82 214.09 L 21.41 235.5 A 21.41 21.41 0 0 0 42.82 214.09" fill="#edae49"/><circle cx="10.705" cy="246.205" r="10.705" fill="#d1495b"/><circle cx="32.115" cy="246.205" r="10.705" fill="#33798d"/><rect x="85.63636363636364" y="214.0909090909091" width="42.81818181818182" height="42.81818181818182" fill="#f7f4ee"/><circle cx="96.345" cy="224.79500000000002" r="10.705" fill="#4c963d"/><circle cx="96.345" cy="246.205" r="10.705" fill="#d1495b"/><path d="M 107.05 256.91 A 21.41 21.41 0 0 1  128.46 235.5 L 107.05 256.91 A 21.41 21.41 0 0 0 128.46 235.5" fill="#4c963d"/><path d="M 128.45 214.09 A 42.82 42.82 0 0 1  171.26999999999998 256.91 L 128.45 214.09 A 42.82 42.82 0 0 0 171.26999999999998 256.91" fill="#edae49"/><g transform="translate(214.09,214.09) scale(2.141) rotate(0)"><path d="M10 0L20 10L10 20L0 10L10 0Z" fill="#33798d"/></g><g transform="translate(299.73,214.09) scale(2.141) rotate(0)"><path fill-rule="evenodd" clip-rule="evenodd" d="M10 20C15.5228 20 20 15.5228 20 10C20 4.47715 15.5228 0 10 0C4.47715 0 0 4.47715 0 10C0 15.5228 4.47715 20 10 20ZM10 17C13.866 17 17 13.866 17 10C17 6.13401 13.866 3 10 3C6.13401 3 3 6.13401 3 10C3 13.866 6.13401 17 10 17Z" fill="#33798d"/></g><g transform="translate(342.55,214.09) scale(2.141) rotate(0)"><path fill-rule="evenodd" clip-rule="evenodd" d="M10 20C15.5228 20 20 15.5228 20 10C20 4.47715 15.5228 0 10 0C4.47715 0 0 4.47715 0 10C0 15.5228 4.47715 20 10 20ZM10 17C13.866 17 17 13.866 17 10C17 6.13401 13.866 3 10 3C6.13401 3 3 6.13401 3 10C3 13.866 6.13401 17 10 17Z" fill="#4c963d"/></g><circle cx="21.41" cy="278.32000000000005" r="21.41" fill="#edae49"/><circle cx="64.23" cy="278.32000000000005" r="21.41" fill="#4c963d"/><path d="M 85.64 256.91 A 42.82 42.82 0 0 1 128.46 299.73 L 85.64 299.73" fill="#d1495b"/><path d="M 171.27 299.73 A 42.82 42.82 0 0 0 214.09 256.91 L 171.27 256.91" fill="#edae49"/><g transform="translate(214.09,256.91) scale(2.141) rotate(0)"><path fill-rule="evenodd" clip-rule="evenodd" d="M10 20C15.5228 20 20 15.5228 20 10C20 4.47715 15.5228 0 10 0C4.47715 0 0 4.47715 0 10C0 15.5228 4.47715 20 10 20ZM10 17C13.866 17 17 13.866 17 10C17 6.13401 13.866 3 10 3C6.13401 3 3 6.13401 3 10C3 13.866 6.13401 17 10 17Z" fill="#30638e"/></g><g transform="translate(256.91,256.91) scale(2.141) rotate(0)"><path fill-rule="evenodd" clip-rule="evenodd" d="M10 20C15.5228 20 20 15.5228 20 10C20 4.47715 15.5228 0 10 0C4.47715 0 0 4.47715 0 10C0 15.5228 4.47715 20 10 20ZM10 17C13.866 17 17 13.866 17 10C17 6.13401 13.866 3 10 3C6.13401 3 3 6.13401 3 10C3 13.866 6.13401 17 10 17Z" fill="#33798d"/></g><g transform="translate(342.55,256.91) scale(2.141) rotate(0)"><path d="M10 0L20 10L10 20L0 10L10 0Z" fill="#33798d"/></g><g transform="translate(385.36,256.91) scale(2.141) rotate(0)"><path fill-rule="evenodd" clip-rule="evenodd" d="M10 20C15.5228 20 20 15.5228 20 10C20 4.47715 15.5228 0 10 0C4.47715 0 0 4.47715 0 10C0 15.5228 4.47715 20 10 20ZM10 17C13.866 17 17 13.866 17 10C17 6.13401 13.866 3 10 3C6.13401 3 3 6.13401 3 10C3 13.866 6.13401 17 10 17Z" fill="#33798d"/></g><g transform="translate(0,299.73) scale(2.141) rotate(0)"><path d="M10 0L20 10L10 20L0 10L10 0Z" fill="#edae49"/></g><g transform="translate(42.82,299.73) scale(2.141) rotate(0)"><path d="M10 0L20 10L10 20L0 10L10 0Z" fill="#33798d"/></g><path d="M 85.64 342.55 A 42.82 42.82 0 0 0 128.46 299.73 L 85.64 299.73" fill="#d1495b"/><rect x="128.45454545454547" y="299.72727272727275" width="42.81818181818182" height="42.81818181818182" fill="#f7f4ee"/><g transform="translate(149.86,299.73) scale(1.0705) rotate(0)"><path d="M10 0L20 10L10 20L0 10L10 0Z" fill="#d1495b"/></g><g transform="translate(128.45,321.14) scale(1.0705) rotate(0)"><path d="M10 0L20 10L10 20L0 10L10 0Z" fill="#4c963d"/></g><g transform="translate(149.86,321.14) scale(1.0705) rotate(0)"><path fill-rule="evenodd" clip-rule="evenodd" d="M10 20C15.5228 20 20 15.5228 20 10C20 4.47715 15.5228 0 10 0C4.47715 0 0 4.47715 0 10C0 15.5228 4.47715 20 10 20ZM10 17C13.866 17 17 13.866 17 10C17 6.13401 13.866 3 10 3C6.13401 3 3 6.13401 3 10C3 13.866 6.13401 17 10 17Z" fill="#30638e"/></g><g transform="translate(171.27,299.73) scale(2.141) rotate(0)"><path d="M10 0L20 10L10 20L0 10L10 0Z" fill="#4c963d"/></g><circle cx="406.77000000000004" cy="321.14000000000004" r="21.41" fill="#edae49"/><g transform="translate(85.64,342.55) scale(2.141) rotate(0)"><path d="M10 0L20 10L10 20L0 10L10 0Z" fill="#edae49"/></g><rect x="171.27272727272728" y="342.54545454545456" width="42.81818181818182" height="42.81818181818182" fill="#f7f4ee"/><circle cx="181.97500000000002" cy="353.255" r="10.705" fill="#4c963d"/><g transform="translate(192.68,342.55) scale(1.0705) rotate(0)"><path fill-rule="evenodd" clip-rule="evenodd" d="M10 20C15.5228 20 20 15.5228 20 10C20 4.47715 15.5228 0 10 0C4.47715 0 0 4.47715 0 10C0 15.5228 4.47715 20 10 20ZM10 17C13.866 17 17 13.866 17 10C17 6.13401 13.866 3 10 3C6.13401 3 3 6.13401 3 10C3 13.866 6.13401 17 10 17Z" fill="#edae49"/></g><g transform="translate(171.27,363.95) scale(1.0705) rotate(0)"><path d="M10 0L20 10L10 20L0 10L10 0Z" fill="#4c963d"/></g><path d="M 214.09 385.37 A 42.82 42.82 0 0 1  256.91 342.55 L 214.09 385.37 A 42.82 42.82 0 0 0 256.91 342.55" fill="#d1495b"/><g transform="translate(256.91,342.55) scale(2.141) rotate(0)"><path d="M10 0L20 10L10 20L0 10L10 0Z" fill="#30638e"/></g><rect x="299.72727272727275" y="342.54545454545456" width="42.81818181818182" height="42.81818181818182" fill="#f7f4ee"/><g transform="translate(321.14,342.55) scale(1.0705) rotate(0)"><path fill-rule="evenodd" clip-rule="evenodd" d="M10 20C15.5228 20 20 15.5228 20 10C20 4.47715 15.5228 0 10 0C4.47715 0 0 4.47715 0 10C0 15.5228 4.47715 20 10 20ZM10 17C13.866 17 17 13.866 17 10C17 6.13401 13.866 3 10 3C6.13401 3 3 6.13401 3 10C3 13.866 6.13401 17 10 17Z" fill="#edae49"/></g><path d="M 299.73 363.95 A 21.41 21.41 0 0 1  321.14000000000004 385.36 L 299.73 363.95 A 21.41 21.41 0 0 0 321.14000000000004 385.36" fill="#33798d"/><rect x="342.54545454545456" y="342.54545454545456" width="42.81818181818182" height="42.81818181818182" fill="#f7f4ee"/><path d="M 363.95 342.55 A 21.41 21.41 0 0 0 385.36 363.96000000000004 L 385.36 342.55" fill="#d1495b"/><g transform="translate(363.95,363.95) scale(1.0705) rotate(0)"><path d="M10 0L20 10L10 20L0 10L10 0Z" fill="#33798d"/></g><path d="M 385.36 385.37 A 42.82 42.82 0 0 1  428.18 342.55 L 385.36 385.37 A 42.82 42.82 0 0 0 428.18 342.55" fill="#30638e"/><path d="M 0 385.36 A 42.82 42.82 0 0 1  42.82 428.18 L 0 385.36 A 42.82 42.82 0 0 0 42.82 428.18" fill="#edae49"/><g transform="translate(42.82,385.36) scale(2.141) rotate(0)"><path fill-rule="evenodd" clip-rule="evenodd" d="M10 20C15.5228 20 20 15.5228 20 10C20 4.47715 15.5228 0 10 0C4.47715 0 0 4.47715 0 10C0 15.5228 4.47715 20 10 20ZM10 17C13.866 17 17 13.866 17 10C17 6.13401 13.866 3 10 3C6.13401 3 3 6.13401 3 10C3 13.866 6.13401 17 10 17Z" fill="#33798d"/></g><path d="M 85.64 428.18 A 42.82 42.82 0 0 0 128.46 385.36 L 85.64 385.36" fill="#33798d"/><path d="M 128.45 385.36 A 42.82 42.82 0 0 1 171.26999999999998 428.18 L 128.45 428.18" fill="#33798d"/><path d="M 171.27 385.36 A 42.82 42.82 0 0 1  214.09 428.18 L 171.27 385.36 A 42.82 42.82 0 0 0 214.09 428.18" fill="#33798d"/><path d="M 342.55 428.18 A 42.82 42.82 0 0 1  385.37 385.36 L 342.55 428.18 A 42.82 42.82 0 0 0 385.37 385.36" fill="#33798d"/><rect x="42.81818181818182" y="428.1818181818182" width="42.81818181818182" height="42.81818181818182" fill="#f7f4ee"/><path d="M 64.23 449.59000000000003 A 21.41 21.41 0 0 1  85.64 428.18 L 64.23 449.59000000000003 A 21.41 21.41 0 0 0 85.64 428.18" fill="#d1495b"/><path d="M 64.23 449.59 A 21.41 21.41 0 0 1  85.64 471 L 64.23 449.59 A 21.41 21.41 0 0 0 85.64 471" fill="#4c963d"/><rect x="85.63636363636364" y="428.1818181818182" width="42.81818181818182" height="42.81818181818182" fill="#f7f4ee"/><path d="M 85.64 471 A 21.41 21.41 0 0 1  107.05 449.59 L 85.64 471 A 21.41 21.41 0 0 0 107.05 449.59" fill="#33798d"/><path d="M 107.05 471 A 21.41 21.41 0 0 1  128.46 449.59 L 107.05 471 A 21.41 21.41 0 0 0 128.46 449.59" fill="#33798d"/><g transform="translate(128.45,428.18) scale(2.141) rotate(0)"><path fill-rule="evenodd" clip-rule="evenodd" d="M10 20C15.5228 20 20 15.5228 20 10C20 4.47715 15.5228 0 10 0C4.47715 0 0 4.47715 0 10C0 15.5228 4.47715 20 10 20ZM10 17C13.866 17 17 13.866 17 10C17 6.13401 13.866 3 10 3C6.13401 3 3 6.13401 3 10C3 13.866 6.13401 17 10 17Z" fill="#33798d"/></g><circle cx="235.5" cy="449.59000000000003" r="21.41" fill="#30638e"/><circle cx="278.32000000000005" cy="449.59000000000003" r="21.41" fill="#30638e"/><rect x="342.54545454545456" y="428.1818181818182" width="42.81818181818182" height="42.81818181818182" fill="#f7f4ee"/><path d="M 363.95 449.59000000000003 A 21.41 21.41 0 0 1  385.36 428.18 L 385.36 449.59000000000003" fill="#d1495b"/><path d="M 385.36 471 A 42.82 42.82 0 0 1  428.18 428.18 L 385.36 471 A 42.82 42.82 0 0 0 428.18 428.18" fill="#d1495b"/></g></svg>