<?xml version="1.0" standalone="no"?><svg xmlns:xlink="http://www.w3.org/1999/xlink" xmlns="http://www.w3.org/2000/svg" viewBox="0 0 600 490.91818725071926" preserveAspectRatio="xMaxYMax slice"><g transform="scale(1.0422891449059857)"><rect x="0" y="0" width="575.6666666666667" height="471" fill="#f7f4ee"/><path d="M 104.67 0 A 52.33 52.33 0 0 1  157 52.33 L 104.67 0 A 52.33 52.33 0 0 0 157 52.33" fill="#30638e"/><circle cx="183.165" cy="26.165" r="26.165" fill="#30638e"/><g transform="translate(209.33,0) scale(2.6165) rotate(0)"><path fill-rule="evenodd" clip-rule="evenodd" d="M10 20C15.5228 20 20 15.5228 20 10C20 4.47715 15.5228 0 10 0C4.47715 0 0 4.47715 0 10C0 15.5228 4.47715 20 10 20ZM10 17C13.866 17 17 13.866 17 10C17 6.13401 13.866 3 10 3C6.13401 3 3 6.13401 3 10C3 13.866 6.13401 17 10 17Z" fill="#edae49"/></g><g transform="translate(261.67,0) scale(2.6165) rotate(0)"><path d="M10 0L20 10L10 20L0 10L10 0Z" fill="#4c963d"/></g><rect x="314" y="0" width="52.333333333333336" height="52.333333333333336" fill="#f7f4ee"/><circle cx="327.085" cy="13.085" r="13.085" fill="#30638e"/><path d="M 340.17 0 A 26.17 26.17 0 0 1  366.34000000000003 26.17 L 340.17 0 A 26.17 26.17 0 0 0 366.34000000000003 26.17" fill="#edae49"/><g transform="translate(314,26.17) scale(1.3085) rotate(0)"><path d="M10 0L20 10L10 20L0 10L10 0Z" fill="#4c963d"/></g><path d="M 366.33 0 A 52.33 52.33 0 0 1  418.65999999999997 52.33 L 366.33 0 A 52.33 52.33 0 0 0 418.65999999999997 52.33" fill="#33798d"/><circle cx="444.83500000000004" cy="26.165" r="26.165" fill="#d1495b"/><rect x="471" y="0" width="52.333333333333336" height="52.333333333333336" fill="#f7f4ee"/><path d="M 471 26.17 A 26.17 26.17 0 0 1  497.17 0 L 471 26.17 A 26.17 26.17 0 0 0 497.17 0" fill="#d1495b"/><g transform="translate(497.17,0) scale(1.3085) rotate(0)"><path fill-rule="evenodd" clip-rule="evenodd" d="M10 20C15.5228 20 20 15.5228 20 10C20 4.47715 15.5228 0 10 0C4.47715 0 0 4.47715 0 10C0 15.5228 4.47715 20 10 20ZM10 17C13.866 17 17 13.866 17 10C17 6.13401 13.866 3 10 3C6.13401 3 3 6.13401 3 10C3 13.866 6.13401 17 10 17Z" fill="#edae49"/></g><g transform="translate(497.17,26.17) scale(1.3085) rotate(0)"><path fill-rule="evenodd" clip-rule="evenodd" d="M10 20C15.5228 20 20 15.5228 20 10C20 4.47715 15.5228 0 10 0C4.47715 0 0 4.47715 0 10C0 15.5228 4.47715 20 10 20ZM10 17C13.866 17 17 13.866 17 10C17 6.13401 13.866 3 10 3C6.13401 3 3 6.13401 3 10C3 13.866 6.13401 17 10 17Z" fill="#33798d"/></g><path d="M 523.33 0 A 52.33 52.33 0 0 1  575.6600000000001 52.33 L 523.33 0 A 52.33 52.33 0 0 0 575.6600000000001 52.33" fill="#4c963d"/><rect x="52.333333333333336" y="52.333333333333336" width="52.333333333333336" height="52.333333333333336" fill="#f7f4ee"/><path d="M 52.33 52.33 A 26.17 26.17 0 0 1 78.5 78.5 L 52.33 78.5" fill="#edae49"/><circle cx="65.41499999999999" cy="91.58500000000001" r="13.085" fill="#33798d"/><g transform="translate(78.5,78.5) scale(1.3085) rotate(0)"><path fill-rule="evenodd" clip-rule="evenodd" d="M10 20C15.5228 20 20 15.5228 20 10C20 4.47715 15.5228 0 10 0C4.47715 0 0 4.47715 0 10C0 15.5228 4.47715 20 10 20ZM10 17C13.866 17 17 13.866 17 10C17 6.13401 13.866 3 10 3C6.13401 3 3 6.13401 3 10C3 13.866 6.13401 17 10 17Z" fill="#edae49"/></g><rect x="157" y="52.333333333333336" width="52.333333333333336" height="52.333333333333336" fill="#f7f4ee"/><path d="M 157 78.5 A 26.17 26.17 0 0 1  183.17000000000002 52.33 L 157 78.5 A 26.17 26.17 0 0 0 183.17000000000002 52.33" fill="#30638e"/><circle cx="196.255" cy="65.41499999999999" r="13.085" fill="#30638e"/><circle cx="196.255" cy="91.58500000000001" r="13.085" fill="#edae49"/><g transform="translate(209.33,52.33) scale(2.6165) rotate(0)"><path fill-rule="evenodd" clip-rule="evenodd" d="M10 20C15.5228 20 20 15.5228 20 10C20 4.47715 15.5228 0 10 0C4.47715 0 0 4.47715 0 10C0 15.5228 4.47715 20 10 20ZM10 17C13.866 17 17 13.866 17 10C17 6.13401 13.866 3 10 3C6.13401 3 3 6.13401 3 10C3 13.866 6.13401 17 10 17Z" fill="#d1495b"/></g><g transform="translate(261.67,52.33) scale(2.6165) rotate(0)"><path fill-rule="evenodd" clip-rule="evenodd" d="M10 20C15.5228 20 20 15.5228 20 10C20 4.47715 15.5228 0 10 0C4.47715 0 0 4.47715 0 10C0 15.5228 4.47715 20 10 20ZM10 17C13.866 17 17 13.866 17 10C17 6.13401 13.866 3 10 3C6.13401 3 3 6.13401 3 10C3 13.866 6.13401 17 10 17Z" fill="#edae49"/></g><path d="M 366.33 52.33 A 52.33 52.33 0 0 1  418.65999999999997 104.66 L 366.33 52.33 A 52.33 52.33 0 0 0 418.65999999999997 104.66" fill="#d1495b"/><g transform="translate(418.67,52.33) scale(2.6165) rotate(0)"><path fill-rule="evenodd" clip-rule="evenodd" d="M10 20C15.5228 20 20 15.5228 20 10C20 4.47715 15.5228 0 10 0C4.47715 0 0 4.47715 0 10C0 15.5228 4.47715 20 10 20ZM10 17C13.866 17 17 13.866 17 10C17 6.13401 13.866 3 10 3C6.13401 3 3 6.13401 3 10C3 13.866 6.13401 17 10 17Z" fill="#edae49"/></g><circle cx="497.165" cy="78.495" r="26.165" fill="#30638e"/><path d="M 0 157 A 52.33 52.33 0 0 1  52.33 104.67 L 0 157 A 52.33 52.33 0 0 0 52.33 104.67" fill="#d1495b"/><rect x="157" y="104.66666666666667" width="52.333333333333336" height="52.333333333333336" fill="#f7f4ee"/><circle cx="170.085" cy="143.91500000000002" r="13.085" fill="#edae49"/><g transform="translate(183.17,130.83) scale(1.3085) rotate(0)"><path d="M10 0L20 10L10 20L0 10L10 0Z" fill="#d1495b"/></g><path d="M 209.33 104.67 A 52.33 52.33 0 0 1  261.66 157 L 209.33 104.67 A 52.33 52.33 0 0 0 261.66 157" fill="#33798d"/><g transform="translate(314,104.67) scale(2.6165) rotate(0)"><path d="M10 0L20 10L10 20L0 10L10 0Z" fill="#edae49"/></g><path d="M 366.33 157 A 52.33 52.33 0 0 1  418.65999999999997 104.67 L 366.33 157 A 52.33 52.33 0 0 0 418.65999999999997 104.67" fill="#edae49"/><path d="M 418.67 104.67 A 52.33 52.33 0 0 1  471 157 L 418.67 104.67 A 52.33 52.33 0 0 0 471 157" fill="#33798d"/><rect x="471" y="104.66666666666667" width="52.333333333333336" height="52.333333333333336" fill="#f7f4ee"/><g transform="translate(497.17,104.67) scale(1.3085) rotate(0)"><path fill-rule="evenodd" clip-rule="evenodd" d="M10 20C15.5228 20 20 15.5228 20 10C20 4.47715 15.5228 0 10 0C4.47715 0 0 4.47715 0 10C0 15.5228 4.47715 20 10 20ZM10 17C13.866 17 17 13.866 17 10C17 6.13401 13.866 3 10 3C6.13401 3 3 6.13401 3 10C3 13.866 6.13401 17 10 17Z" fill="#edae49"/></g><circle cx="484.085" cy="143.91500000000002" r="13.085" fill="#edae49"/><g transform="translate(497.17,130.83) scale(1.3085) rotate(0)"><path d="M10 0L20 10L10 20L0 10L10 0Z" fill="#d1495b"/></g><rect x="523.3333333333334" y="104.66666666666667" width="52.333333333333336" height="52.333333333333336" fill="#f7f4ee"/><circle cx="562.585" cy="117.755" r="13.085" fill="#30638e"/><circle cx="562.585" cy="143.91500000000002" r="13.085" fill="#d1495b"/><circle cx="26.165" cy="183.165" r="26.165" fill="#4c963d"/><path d="M 209.33 209.32999999999998 A 52.33 52.33 0 0 1  261.66 157 L 209.33 209.32999999999998 A 52.33 52.33 0 0 0 261.66 157" fill="#4c963d"/><rect x="261.6666666666667" y="157" width="52.333333333333336" height="52.333333333333336" fill="#f7f4ee"/><path d="M 261.67 157 A 26.17 26.17 0 0 1  287.84000000000003 183.17000000000002 L 261.67 157 A 26.17 26.17 0 0 0 287.84000000000003 183.17000000000002" fill="#edae49"/><path d="M 287.83 157 A 26.17 26.17 0 0 0 314 183.17000000000002 L 314 157" fill="#d1495b"/><circle cx="274.755" cy="196.255" r="13.085" fill="#33798d"/><path d="M 314 157 A 52.33 52.33 0 0 1 366.33 209.32999999999998 L 314 209.32999999999998" fill="#edae49"/><g transform="translate(418.67,157) scale(2.6165) rotate(0)"><path fill-rule="evenodd" clip-rule="evenodd" d="M10 20C15.5228 20 20 15.5228 20 10C20 4.47715 15.5228 0 10 0C4.47715 0 0 4.47715 0 10C0 15.5228 4.47715 20 10 20ZM10 17C13.866 17 17 13.866 17 10C17 6.13401 13.866 3 10 3C6.13401 3 3 6.13401 3 10C3 13.866 6.13401 17 10 17Z" fill="#d1495b"/></g><circle cx="497.165" cy="183.165" r="26.165" fill="#4c963d"/><circle cx="549.495" cy="183.165" r="26.165" fill="#edae49"/><rect x="0" y="209.33333333333334" width="52.333333333333336" height="52.333333333333336" fill="#f7f4ee"/><g transform="translate(0,209.33) scale(1.3085) rotate(0)"><path fill-rule="evenodd" clip-rule="evenodd" d="M10 20C15.5228 20 20 15.5228 20 10C20 4.47715 15.5228 0 10 0C4.47715 0 0 4.47715 0 10C0 15.5228 4.47715 20 10 20ZM10 17C13.866 17 17 13.866 17 10C17 6.13401 13.866 3 10 3C6.13401 3 3 6.13401 3 10C3 13.866 6.13401 17 10 17Z" fill="#33798d"/></g><path d="M 0 235.5 A 26.17 26.17 0 0 1  26.17 261.67 L 0 235.5 A 26.17 26.17 0 0 0 26.17 261.67" fill="#4c963d"/><circle cx="39.255" cy="248.585" r="13.085" fill="#edae49"/><circle cx="78.495" cy="235.495" r="26.165" fill="#d1495b"/><rect x="104.66666666666667" y="209.33333333333334" width="52.333333333333336" height="52.333333333333336" fill="#f7f4ee"/><g transform="translate(104.67,209.33) scale(1.3085) rotate(0)"><path d="M10 0L20 10L10 20L0 10L10 0Z" fill="#33798d"/></g><circle cx="143.91500000000002" cy="222.41500000000002" r="13.085" fill="#33798d"/><g transform="translate(104.67,235.5) scale(1.3085) rotate(0)"><path fill-rule="evenodd" clip-rule="evenodd" d="M10 20C15.5228 20 20 15.5228 20 10C20 4.47715 15.5228 0 10 0C4.47715 0 0 4.47715 0 10C0 15.5228 4.47715 20 10 20ZM10 17C13.866 17 17 13.866 17 10C17 6.13401 13.866 3 10 3C6.13401 3 3 6.13401 3 10C3 13.866 6.13401 17 10 17Z" fill="#d1495b"/></g><circle cx="143.91500000000002" cy="248.585" r="13.085" fill="#33798d"/><path d="M 157 261.66 A 52.33 52.33 0 0 1  209.32999999999998 209.33 L 157 261.66 A 52.33 52.33 0 0 0 209.32999999999998 209.33" fill="#30638e"/><rect x="261.6666666666667" y="209.33333333333334" width="52.333333333333336" height="52.333333333333336" fill="#f7f4ee"/><path d="M 261.67 209.33 A 26.17 26.17 0 0 1 287.84000000000003 235.5 L 261.67 235.5" fill="#d1495b"/><path d="M 287.83 209.33 A 26.17 26.17 0 0 1  314 235.5 L 287.83 209.33 A 26.17 26.17 0 0 0 314 235.5" fill="#30638e"/><rect x="366.33333333333337" y="209.33333333333334" width="52.333333333333336" height="52.333333333333336" fill="#f7f4ee"/><path d="M 366.33 235.5 A 26.17 26.17 0 0 1  392.5 209.33 L 366.33 235.5 A 26.17 26.17 0 0 0 392.5 209.33" fill="#d1495b"/><g transform="translate(392.5,209.33) scale(1.3085) rotate(0)"><path d="M10 0L20 10L10 20L0 10L10 0Z" fill="#d1495b"/></g><path d="M 366.33 261.67 A 26.17 26.17 0 0 1  392.5 235.5 L 366.33 261.67 A 26.17 26.17 0 0 0 392.5 235.5" fill="#d1495b"/><circle cx="405.585" cy="248.585" r="13.085" fill="#30638e"/><path d="M 418.67 261.66 A 52.33 52.33 0 0 1  471 209.33 L 418.67 261.66 A 52.33 52.33 0 0 0 471 209.33" fill="#30638e"/><path d="M 471 261.66 A 52.33 52.33 0 0 1  523.33 209.33 L 523.33 261.66" fill="#edae49"/><g transform="translate(0,261.67) scale(2.6165) rotate(0)"><path d="M10 0L20 10L10 20L0 10L10 0Z" fill="#30638e"/></g><g transform="translate(52.33,261.67) scale(2.6165) rotate(0)"><path fill-rule="evenodd" clip-rule="evenodd" d="M10 20C15.5228 20 20 15.5228 20 10C20 4.47715 15.5228 0 10 0C4.47715 0 0 4.47715 0 10C0 15.5228 4.47715 20 10 20ZM10 17C13.866 17 17 13.866 17 10C17 6.13401 13.866 3 10 3C6.13401 3 3 6.13401 3 10C3 13.866 6.13401 17 10 17Z" fill="#30638e"/></g><path d="M 104.67 261.67 A 52.33 52.33 0 0 1  157 314 L 104.67 261.67 A 52.33 52.33 0 0 0 157 314" fill="#edae49"/><rect x="157" y="261.6666666666667" width="52.333333333333336" height="52.333333333333336" fill="#f7f4ee"/><path d="M 183.17 261.67 A 26.17 26.17 0 0 1 209.33999999999997 287.84000000000003 L 183.17 287.84000000000003" fill="#4c963d"/><path d="M 157 287.83 A 26.17 26.17 0 0 1  183.17000000000002 314 L 157 287.83 A 26.17 26.17 0 0 0 183.17000000000002 314" fill="#d1495b"/><g transform="translate(183.17,287.83) scale(1.3085) rotate(0)"><path d="M10 0L20 10L10 20L0 10L10 0Z" fill="#4c963d"/></g><circle cx="235.495" cy="287.83500000000004" r="26.165" fill="#edae49"/><circle cx="392.495" cy="287.83500000000004" r="26.165" fill="#4c963d"/><g transform="translate(471,261.67) scale(2.6165) rotate(0)"><path fill-rule="evenodd" clip-rule="evenodd" d="M10 20C15.5228 20 20 15.5228 20 10C20 4.47715 15.5228 0 10 0C4.47715 0 0 4.47715 0 10C0 15.5228 4.47715 20 10 20ZM10 17C13.866 17 17 13.866 17 10C17 6.13401 13.866 3 10 3C6.13401 3 3 6.13401 3 10C3 13.866 6.13401 17 10 17Z" fill="#33798d"/></g><g transform="translate(523.33,261.67) scale(2.6165) rotate(0)"><path fill-rule="evenodd" clip-rule="evenodd" d="M10 20C15.5228 20 20 15.5228 20 10C20 4.47715 15.5228 0 10 0C4.47715 0 0 4.47715 0 10C0 15.5228 4.47715 20 10 20ZM10 17C13.866 17 17 13.866 17 10C17 6.13401 13.866 3 10 3C6.13401 3 3 6.13401 3 10C3 13.866 6.13401 17 10 17Z" fill="#33798d"/></g><g transform="translate(0,314) scale(2.6165) rotate(0)"><path d="M10 0L20 10L10 20L0 10L10 0Z" fill="#33798d"/></g><path d="M 104.67 366.33 A 52.33 52.33 0 0 1  157 314 L 104.67 366.33 A 52.33 52.33 0 0 0 157 314" fill="#33798d"/><path d="M 157 366.33 A 52.33 52.33 0 0 1  209.32999999999998 314 L 157 366.33 A 52.33 52.33 0 0 0 209.32999999999998 314" fill="#4c963d"/><path d="M 209.33 366.33 A 52.33 52.33 0 0 1  261.66 314 L 209.33 366.33 A 52.33 52.33 0 0 0 261.66 314" fill="#4c963d"/><path d="M 261.67 314 A 52.33 52.33 0 0 0 314 366.33 L 314 314" fill="#33798d"/><path d="M 314 366.33 A 52.33 52.33 0 0 1  366.33 314 L 366.33 366.33" fill="#edae49"/><circle cx="26.165" cy="392.495" r="26.165" fill="#d1495b"/><g transform="translate(52.33,366.33) scale(2.6165) rotate(0)"><path d="M10 0L20 10L10 20L0 10L10 0Z" fill="#33798d"/></g><circle cx="130.835" cy="392.495" r="26.165" fill="#edae49"/><rect x="209.33333333333334" y="366.33333333333337" width="52.333333333333336" height="52.333333333333336" fill="#f7f4ee"/><g transform="translate(235.5,366.33) scale(1.3085) rotate(0)"><path fill-rule="evenodd" clip-rule="evenodd" d="M10 20C15.5228 20 20 15.5228 20 10C20 4.47715 15.5228 0 10 0C4.47715 0 0 4.47715 0 10C0 15.5228 4.47715 20 10 20ZM10 17C13.866 17 17 13.866 17 10C17 6.13401 13.866 3 10 3C6.13401 3 3 6.13401 3 10C3 13.866 6.13401 17 10 17Z" fill="#33798d"/></g><g transform="translate(209.33,392.5) scale(1.3085) rotate(0)"><path fill-rule="evenodd" clip-rule="evenodd" d="M10 20C15.5228 20 20 15.5228 20 10C20 4.47715 15.5228 0 10 0C4.47715 0 0 4.47715 0 10C0 15.5228 4.47715 20 10 20ZM10 17C13.866 17 17 13.866 17 10C17 6.13401 13.866 3 10 3C6.13401 3 3 6.13401 3 10C3 13.866 6.13401 17 10 17Z" fill="#33798d"/></g><g transform="translate(235.5,392.5) scale(1.3085) rotate(0)"><path fill-rule="evenodd" clip-rule="evenodd" d="M10 20C15.5228 20 20 15.5228 20 10C20 4.47715 15.5228 0 10 0C4.47715 0 0 4.47715 0 10C0 15.5228 4.47715 20 10 20ZM10 17C13.866 17 17 13.866 17 10C17 6.13401 13.866 3 10 3C6.13401 3 3 6.13401 3 10C3 13.866 6.13401 17 10 17Z" fill="#d1495b"/></g><path d="M 261.67 418.65999999999997 A 52.33 52.33 0 0 0 314 366.33 L 261.67 366.33" fill="#33798d"/><path d="M 314 366.33 A 52.33 52.33 0 0 1  366.33 418.65999999999997 L 314 366.33 A 52.33 52.33 0 0 0 366.33 418.65999999999997" fill="#30638e"/><circle cx="444.83500000000004" cy="392.495" r="26.165" fill="#4c963d"/><g transform="translate(471,366.33) scale(2.6165) rotate(0)"><path fill-rule="evenodd" clip-rule="evenodd" d="M10 20C15.5228 20 20 15.5228 20 10C20 4.47715 15.5228 0 10 0C4.47715 0 0 4.47715 0 10C0 15.5228 4.47715 20 10 20ZM10 17C13.866 17 17 13.866 17 10C17 6.13401 13.866 3 10 3C6.13401 3 3 6.13401 3 10C3 13.866 6.13401 17 10 17Z" fill="#d1495b"/></g><g transform="translate(523.33,366.33) scale(2.6165) rotate(0)"><path fill-rule="evenodd" clip-rule="evenodd" d="M10 20C15.5228 20 20 15.5228 20 10C20 4.47715 15.5228 0 10 0C4.47715 0 0 4.47715 0 10C0 15.5228 4.47715 20 10 20ZM10 17C13.866 17 17 13.866 17 10C17 6.13401 13.866 3 10 3C6.13401 3 3 6.13401 3 10C3 13.866 6.13401 17 10 17Z" fill="#30638e"/></g><path d="M 0 418.67 A 52.33 52.33 0 0 1  52.33 471 L 0 418.67 A 52.33 52.33 0 0 0 52.33 471" fill="#4c963d"/><path d="M 104.67 471 A 52.33 52.33 0 0 1  157 418.67 L 104.67 471 A 52.33 52.33 0 0 0 157 418.67" fill="#d1495b"/><rect x="157" y="418.6666666666667" width="52.333333333333336" height="52.333333333333336" fill="#f7f4ee"/><g transform="translate(183.17,444.83) scale(1.3085) rotate(0)"><path d="M10 0L20 10L10 20L0 10L10 0Z" fill="#4c963d"/></g><path d="M 366.33 418.67 A 52.33 52.33 0 0 1 418.65999999999997 471 L 366.33 471" fill="#edae49"/><circle cx="444.83500000000004" cy="444.83500000000004" r="26.165" fill="#d1495b"/><path d="M 523.33 471 A 52.33 52.33 0 0 1  575.6600000000001 418.67 L 523.33 471 A 52.33 52.33 0 0 0 575.6600000000001 418.67" fill="#edae49"/></g></svg>