<?xml version="1.0" standalone="no"?><svg xmlns:xlink="http://www.w3.org/1999/xlink" xmlns="http://www.w3.org/2000/svg" viewBox="0 0 700 800" preserveAspectRatio="xMaxYMax slice"><g transform="scale(1.5151515151515151)"><rect x="0" y="0" width="462" height="528" fill="#f7f4ee"/><g transform="translate(0,0) scale(3.3) rotate(0)"><path fill-rule="evenodd" clip-rule="evenodd" d="M10 20C15.5228 20 20 15.5228 20 10C20 4.47715 15.5228 0 10 0C4.47715 0 0 4.47715 0 10C0 15.5228 4.47715 20 10 20ZM10 17C13.866 17 17 13.866 17 10C17 6.13401 13.866 3 10 3C6.13401 3 3 6.13401 3 10C3 13.866 6.13401 17 10 17Z" fill="#4c963d"/></g><path d="M 66 66 A 66 66 0 0 1  132 0 L 66 66 A 66 66 0 0 0 132 0" fill="#d1495b"/><g transform="translate(132,0) scale(3.3) rotate(0)"><path d="M10 0L20 10L10 20L0 10L10 0Z" fill="#edae49"/></g><g transform="translate(198,0) scale(3.3) rotate(0)"><path fill-rule="evenodd" clip-rule="evenodd" d="M10 20C15.5228 20 20 15.5228 20 10C20 4.47715 15.5228 0 10 0C4.47715 0 0 4.47715 0 10C0 15.5228 4.47715 20 10 20ZM10 17C13.866 17 17 13.866 17 10C17 6.13401 13.866 3 10 3C6.13401 3 3 6.13401 3 10C3 13.866 6.13401 17 10 17Z" fill="#d1495b"/></g><rect x="264" y="0" width="66" height="66" fill="#f7f4ee"/><circle cx="280.5" cy="16.5" r="16.5" fill="#edae49"/><path d="M 297 0 A 33 33 0 0 0 330 33 L 330 0" fill="#edae49"/><path d="M 330 66 A 66 66 0 0 1  396 0 L 396 66" fill="#4c963d"/><path d="M 396 66 A 66 66 0 0 1  462 0 L 396 66 A 66 66 0 0 0 462 0" fill="#edae49"/><rect x="0" y="66" width="66" height="66" fill="#f7f4ee"/><g transform="translate(33,66) scale(1.65) rotate(0)"><path d="M10 0L20 10L10 20L0 10L10 0Z" fill="#30638e"/></g><g transform="translate(0,99) scale(1.65) rotate(0)"><path d="M10 0L20 10L10 20L0 10L10 0Z" fill="#edae49"/></g><polygon points="33,99 66,132 33,132" fill="#33798d"/><path d="M 66 66 A 66 66 0 0 1  132 132 L 66 66 A 66 66 0 0 0 132 132" fill="#33798d"/><polygon points="198,66 198,132 132,132" fill="#edae49"/><path d="M 198 66 A 66 66 0 0 1  264 132 L 198 66 A 66 66 0 0 0 264 132" fill="#30638e"/><g transform="translate(264,66) scale(3.3) rotate(0)"><path d="M10 0L20 10L10 20L0 10L10 0Z" fill="#d1495b"/></g><g transform="translate(330,66) scale(3.3) rotate(0)"><path fill-rule="evenodd" clip-rule="evenodd" d="M10 20C15.5228 20 20 15.5228 20 10C20 4.47715 15.5228 0 10 0C4.47715 0 0 4.47715 0 10C0 15.5228 4.47715 20 10 20ZM10 17C13.866 17 17 13.866 17 10C17 6.13401 13.866 3 10 3C6.13401 3 3 6.13401 3 10C3 13.866 6.13401 17 10 17Z" fill="#30638e"/></g><path d="M 396 66 A 66 66 0 0 1 462 132 L 396 132" fill="#4c963d"/><g transform="translate(0,132) scale(3.3) rotate(0)"><path fill-rule="evenodd" clip-rule="evenodd" d="M10 20C15.5228 20 20 15.5228 20 10C20 4.47715 15.5228 0 10 0C4.47715 0 0 4.47715 0 10C0 15.5228 4.47715 20 10 20ZM10 17C13.866 17 17 13.866 17 10C17 6.13401 13.866 3 10 3C6.13401 3 3 6.13401 3 10C3 13.866 6.13401 17 10 17Z" fill="#30638e"/></g><rect x="66" y="132" width="66" height="66" fill="#f7f4ee"/><circle cx="115.5" cy="148.5" r="16.5" fill="#d1495b"/><path d="M 66 198 A 33 33 0 0 0 99 165 L 66 165" fill="#30638e"/><g transform="translate(99,165) scale(1.65) rotate(0)"><path fill-rule="evenodd" clip-rule="evenodd" d="M10 20C15.5228 20 20 15.5228 20 10C20 4.47715 15.5228 0 10 0C4.47715 0 0 4.47715 0 10C0 15.5228 4.47715 20 10 20ZM10 17C13.866 17 17 13.866 17 10C17 6.13401 13.866 3 10 3C6.13401 3 3 6.13401 3 10C3 13.866 6.13401 17 10 17Z" fill="#30638e"/></g><rect x="132" y="132" width="66" height="66" fill="#f7f4ee"/><path d="M 165 132 A 33 33 0 0 1  198 165 L 165 132 A 33 33 0 0 0 198 165" fill="#4c963d"/><circle cx="148.5" cy="181.5" r="16.5" fill="#4c963d"/><rect x="198" y="132" width="66" height="66" fill="#f7f4ee"/><g transform="translate(231,132) scale(1.65) rotate(0)"><path fill-rule="evenodd" clip-rule="evenodd" d="M10 20C15.5228 20 20 15.5228 20 10C20 4.47715 15.5228 0 10 0C4.47715 0 0 4.47715 0 10C0 15.5228 4.47715 20 10 20ZM10 17C13.866 17 17 13.866 17 10C17 6.13401 13.866 3 10 3C6.13401 3 3 6.13401 3 10C3 13.866 6.13401 17 10 17Z" fill="#d1495b"/></g><polygon points="264,165 264,198 231,198" fill="#4c963d"/><rect x="330" y="132" width="66" height="66" fill="#f7f4ee"/><g transform="translate(396,132) scale(3.3) rotate(0)"><path fill-rule="evenodd" clip-rule="evenodd" d="M10 20C15.5228 20 20 15.5228 20 10C20 4.47715 15.5228 0 10 0C4.47715 0 0 4.47715 0 10C0 15.5228 4.47715 20 10 20ZM10 17C13.866 17 17 13.866 17 10C17 6.13401 13.866 3 10 3C6.13401 3 3 6.13401 3 10C3 13.866 6.13401 17 10 17Z" fill="#edae49"/></g><g transform="translate(0,198) scale(3.3) rotate(0)"><path fill-rule="evenodd" clip-rule="evenodd" d="M10 20C15.5228 20 20 15.5228 20 10C20 4.47715 15.5228 0 10 0C4.47715 0 0 4.47715 0 10C0 15.5228 4.47715 20 10 20ZM10 17C13.866 17 17 13.866 17 10C17 6.13401 13.866 3 10 3C6.13401 3 3 6.13401 3 10C3 13.866 6.13401 17 10 17Z" fill="#d1495b"/></g><polygon points="132,198 198,198 132,264" fill="#d1495b"/><path d="M 198 264 A 66 66 0 0 1  264 198 L 198 264 A 66 66 0 0 0 264 198" fill="#33798d"/><path d="M 264 198 A 66 66 0 0 1 330 264 L 264 264" fill="#4c963d"/><g transform="translate(396,198) scale(3.3) rotate(0)"><path d="M10 0L20 10L10 20L0 10L10 0Z" fill="#30638e"/></g><polygon points="66,264 66,330 0,330" fill="#d1495b"/><path d="M 66 264 A 66 66 0 0 1  132 330 L 66 264 A 66 66 0 0 0 132 330" fill="#edae49"/><path d="M 132 264 A 66 66 0 0 1  198 330 L 132 264 A 66 66 0 0 0 198 330" fill="#d1495b"/><polygon points="198,264 264,264 198,330" fill="#edae49"/><g transform="translate(330,264) scale(3.3) rotate(0)"><path fill-rule="evenodd" clip-rule="evenodd" d="M10 20C15.5228 20 20 15.5228 20 10C20 4.47715 15.5228 0 10 0C4.47715 0 0 4.47715 0 10C0 15.5228 4.47715 20 10 20ZM10 17C13.866 17 17 13.866 17 10C17 6.13401 13.866 3 10 3C6.13401 3 3 6.13401 3 10C3 13.866 6.13401 17 10 17Z" fill="#d1495b"/></g><rect x="396" y="264" width="66" height="66" fill="#f7f4ee"/><path d="M 429 264 A 33 33 0 0 0 462 297 L 462 264" fill="#30638e"/><circle cx="412.5" cy="313.5" r="16.5" fill="#33798d"/><path d="M 429 297 A 33 33 0 0 0 462 330 L 462 297" fill="#4c963d"/><g transform="translate(0,330) scale(3.3) rotate(0)"><path fill-rule="evenodd" clip-rule="evenodd" d="M10 20C15.5228 20 20 15.5228 20 10C20 4.47715 15.5228 0 10 0C4.47715 0 0 4.47715 0 10C0 15.5228 4.47715 20 10 20ZM10 17C13.866 17 17 13.866 17 10C17 6.13401 13.866 3 10 3C6.13401 3 3 6.13401 3 10C3 13.866 6.13401 17 10 17Z" fill="#30638e"/></g><path d="M 132 396 A 66 66 0 0 1  198 330 L 132 396 A 66 66 0 0 0 198 330" fill="#33798d"/><g transform="translate(198,330) scale(3.3) rotate(0)"><path d="M10 0L20 10L10 20L0 10L10 0Z" fill="#33798d"/></g><polygon points="0,396 66,396 66,462" fill="#d1495b"/><polygon points="66,396 132,396 132,462" fill="#edae49"/><g transform="translate(198,396) scale(3.3) rotate(0)"><path d="M10 0L20 10L10 20L0 10L10 0Z" fill="#edae49"/></g><rect x="264" y="396" width="66" height="66" fill="#f7f4ee"/><g transform="translate(264,396) scale(1.65) rotate(0)"><path d="M10 0L20 10L10 20L0 10L10 0Z" fill="#33798d"/></g><path d="M 264 462 A 33 33 0 0 1  297 429 L 264 462 A 33 33 0 0 0 297 429" fill="#d1495b"/><circle cx="313.5" cy="445.5" r="16.5" fill="#30638e"/><path d="M 330 462 A 66 66 0 0 1  396 396 L 330 462 A 66 66 0 0 0 396 396" fill="#d1495b"/><rect x="132" y="462" width="66" height="66" fill="#f7f4ee"/><g transform="translate(132,462) scale(1.65) rotate(0)"><path d="M10 0L20 10L10 20L0 10L10 0Z" fill="#30638e"/></g><path d="M 165 462 A 33 33 0 0 1 198 495 L 165 495" fill="#edae49"/><path d="M 165 528 A 33 33 0 0 1  198 495 L 198 528" fill="#edae49"/><path d="M 198 528 A 66 66 0 0 1  264 462 L 264 528" fill="#33798d"/><rect x="264" y="462" width="66" height="66" fill="#f7f4ee"/><polygon points="264,462 297,495 264,495" fill="#d1495b"/><path d="M 297 495 A 33 33 0 0 1  330 462 L 297 495 A 33 33 0 0 0 330 462" fill="#d1495b"/><circle cx="313.5" cy="511.5" r="16.5" fill="#30638e"/></g></svg>