<?xml version="1.0" encoding="iso-8859-1"?>
<!-- Uploaded to: SVG Repo, www.svgrepo.com, Generator: SVG Repo Mixer Tools -->
<!DOCTYPE svg PUBLIC "-//W3C//DTD SVG 1.1//EN" "http://www.w3.org/Graphics/SVG/1.1/DTD/svg11.dtd">
<svg fill="#000000" version="1.1" id="Capa_1" xmlns="http://www.w3.org/2000/svg" xmlns:xlink="http://www.w3.org/1999/xlink" 
	 width="800px" height="800px" viewBox="0 0 274.057 274.058"
	 xml:space="preserve">
<g>
	<g>
		<path d="M211.441,96.415l33.548,29.986c0.66,0.596,1.499,0.894,2.333,0.894c0.897,0,1.797-0.348,2.479-1.027l23.229-23.226
			c1.313-1.314,1.376-3.428,0.137-4.815l-28.958-32.397c3.035-3.066,4.996-5.063,6.159-6.384c0.268-0.154,0.613-0.414,0.825-0.628
			c2.471-2.471,3.032-6.28,1.574-10.734c-1.194-3.648-3.683-7.481-7.002-10.8c-7.18-7.18-16.382-9.798-21.05-5.869
			c-0.612,0.151-1.181,0.466-1.639,0.924l-4.651,4.654l-28.694-32.1c-0.64-0.717-1.547-1.138-2.512-1.167
			c-0.955-0.038-1.896,0.344-2.573,1.023l-33.134,33.137c-0.681,0.681-1.054,1.612-1.026,2.577c0.027,0.963,0.451,1.874,1.17,2.515
			l30.813,27.543l-41.511,41.513l-38.556-38.561c6.5-18.928,1.629-40.212-12.496-54.337C79.965,9.192,66.747,3.719,52.684,3.719
			c-6.878,0-13.586,1.314-19.933,3.905c-1.086,0.441-1.878,1.401-2.113,2.551c-0.231,1.148,0.13,2.341,0.956,3.17l24.895,24.901
			l-1.107,20.834l-20.833,1.111L9.648,35.293c-0.832-0.83-2.016-1.184-3.172-0.957c-1.15,0.231-2.11,1.023-2.552,2.113
			c-8.032,19.692-3.511,42.125,11.512,57.151c9.907,9.909,23.089,15.366,37.127,15.366l0,0c5.877,0,11.625-1.016,17.176-2.922
			l38.599,38.605l-69.98,69.977c-0.642,0.643-1.041,1.481-1.086,2.361c-3.896,7.463-2.551,16.806,3.508,22.853
			c3.694,3.696,8.603,5.729,13.824,5.729l0,0c3.256,0,6.423-0.804,9.255-2.327c0.806-0.071,1.578-0.421,2.167-1.013l2.144-2.159
			c0.08-0.072,0.173-0.15,0.246-0.223c0.027-0.027,0.058-0.059,0.087-0.089c1.134-1.136,30.789-30.868,67.391-67.563l28.366,28.366
			c-6.529,18.979-1.762,40.084,12.512,54.357c9.945,9.944,23.165,15.42,37.229,15.42c14.062,0,27.285-5.472,37.229-15.42
			c20.526-20.526,20.526-53.93,0-74.459c-9.944-9.945-23.168-15.417-37.229-15.417c-5.931,0-11.693,1.03-17.145,2.902
			l-28.397-28.408C183.064,124.884,197.766,110.138,211.441,96.415z M227.234,38.093c1.048-0.409,1.787-1.107,1.965-1.285
			c0.191-0.197,0.637-0.306,1.215-0.306c2.323,0,6.44,1.774,10.403,5.737c2.525,2.516,4.452,5.441,5.298,8.022
			c0.602,1.839,0.489,3.006,0.201,3.494c-0.146,0.122-0.28,0.252-0.403,0.392c-0.425,0.445-2.677,2.715-6.372,6.444l-16.423-18.368
			L227.234,38.093z M246.279,185.408c17.795,17.795,17.795,46.757,0,64.549c-8.621,8.624-20.085,13.367-32.274,13.367
			c-12.193,0-23.654-4.743-32.274-13.367c-12.728-12.724-16.762-31.71-10.369-48.513c0.105-0.191,0.205-0.39,0.273-0.605
			c0.116-0.322,0.257-0.641,0.394-0.955l0.332-0.794c2.313-5.178,5.469-9.78,9.37-13.682c8.62-8.617,20.081-13.363,32.274-13.363
			C226.194,172.045,237.658,176.791,246.279,185.408z M177.401,178.804c-4.229,4.226-7.683,9.185-10.267,14.718l-25.498-25.498
			l22.668-22.733l24.749,24.753C184.765,172.41,180.864,175.347,177.401,178.804z M186.986,12.325l78.748,88.102l-18.542,18.542
			l-33.523-29.966c-0.01-0.007-0.01-0.017-0.021-0.027l-23.726-21.214c-0.014-0.01-0.038-0.015-0.052-0.029L159.099,40.22
			L186.986,12.325z M52.569,101.958c-12.164,0-23.589-4.731-32.17-13.312C8.659,76.91,4.322,59.957,8.669,44.225l22.032,22.032
			c0.705,0.705,1.682,1.073,2.664,1.023l25.538-1.364c1.792-0.094,3.217-1.523,3.312-3.311l1.359-25.54
			c0.053-0.991-0.318-1.962-1.023-2.663L40.524,12.372c3.942-1.086,8.013-1.637,12.156-1.637c12.188,0,23.647,4.746,32.268,13.363
			c12.332,12.333,16.538,30.967,10.703,47.5c-0.084,0.243-0.19,0.474-0.291,0.708l-0.32,0.76
			c-2.341,5.985-5.739,11.231-10.095,15.584c-4.002,4.004-8.722,7.21-14.101,9.556c-0.253,0.115-0.512,0.214-0.771,0.308
			l-0.676,0.262C64.02,100.882,58.361,101.958,52.569,101.958L52.569,101.958z M76.765,103.149c0.277-0.144,0.536-0.308,0.81-0.455
			c0.48-0.255,0.95-0.525,1.415-0.795c0.876-0.505,1.735-1.027,2.573-1.576c0.455-0.297,0.911-0.597,1.355-0.909
			c0.866-0.605,1.708-1.244,2.534-1.899c0.364-0.291,0.735-0.565,1.093-0.863c1.16-0.974,2.288-1.983,3.36-3.059
			c1.15-1.145,2.218-2.361,3.248-3.609c0.288-0.347,0.555-0.705,0.832-1.057c0.742-0.952,1.454-1.929,2.126-2.931
			c0.271-0.399,0.539-0.799,0.799-1.205c0.778-1.227,1.511-2.488,2.19-3.792c0.081-0.154,0.171-0.297,0.248-0.452
			c0.026-0.05,0.057-0.091,0.077-0.14l36.578,36.578L113.3,139.688L76.765,103.149z M63.508,234.841L63.508,234.841
			c-0.034,0.038-0.07,0.065-0.098,0.097l-1.213,1.211c-0.245,0.093-0.483,0.216-0.707,0.359c-2.043,1.342-4.423,2.053-6.887,2.053
			c-3.354,0-6.5-1.3-8.872-3.668c-4.173-4.175-4.861-10.78-1.629-15.711c0.15-0.229,0.265-0.476,0.349-0.732l69.526-69.521
			c0.041,0,0.077,0.024,0.121,0.024c0.929,0,1.822-0.366,2.478-1.027l27.66-27.659c0.715-0.715,1.037-1.662,1.003-2.598
			l42.472-42.467l18.501,16.54C145.123,153.031,63.508,234.841,63.508,234.841z"/>
		<path d="M205.367,243.14c0.66,0.664,1.557,1.026,2.475,1.026c0,0,0,0,0.003,0l0,0c0.305,0,0.612-0.041,0.91-0.119l22.97-6.16
			c1.211-0.325,2.152-1.27,2.478-2.478l6.153-22.973c0.325-1.212-0.021-2.505-0.907-3.388l-16.816-16.811
			c-0.886-0.886-2.17-1.238-3.385-0.906l-22.976,6.152c-1.209,0.325-2.153,1.271-2.479,2.479l-6.152,22.973
			c-0.325,1.211,0.021,2.498,0.906,3.388L205.367,243.14z M233.059,212.573l-5.106,19.064l-19.058,5.113l-13.956-13.952
			l5.106-19.065l19.062-5.105L233.059,212.573z"/>
	</g>
</g>
</svg>