<?xml version="1.0" standalone="no"?><svg xmlns:xlink="http://www.w3.org/1999/xlink" xmlns="http://www.w3.org/2000/svg" viewBox="0 0 700 622.2222222222222" preserveAspectRatio="xMaxYMax slice"><g transform="scale(1.1784511784511784)"><rect x="0" y="0" width="594" height="528" fill="#f6f2ec"/><rect x="198" y="0" width="66" height="66" fill="#f6f2ec"/><path d="M 198 33 A 33 33 0 0 1  231 0 L 198 33 A 33 33 0 0 0 231 0" fill="#f2d3a2"/><path d="M 231 0 A 33 33 0 0 1  264 33 L 231 0 A 33 33 0 0 0 264 33" fill="#f5ebdc"/><path d="M 231 66 A 33 33 0 0 1  264 33 L 231 66 A 33 33 0 0 0 264 33" fill="#f3dbb4"/><rect x="264" y="0" width="66" height="66" fill="#f6f2ec"/><path d="M 297 0 A 33 33 0 0 1  330 33 L 297 0 A 33 33 0 0 0 330 33" fill="#558e9d"/><path d="M 264 33 A 33 33 0 0 1  297 66 L 264 33 A 33 33 0 0 0 297 66" fill="#becad2"/><rect x="330" y="0" width="66" height="66" fill="#f6f2ec"/><path d="M 330 33 A 33 33 0 0 1  363 0 L 330 33 A 33 33 0 0 0 363 0" fill="#f4e0c1"/><path d="M 363 33 A 33 33 0 0 1  396 0 L 363 33 A 33 33 0 0 0 396 0" fill="#db7984"/><path d="M 396 66 A 66 66 0 0 1  462 0 L 396 66 A 66 66 0 0 0 462 0" fill="#b3c8cb"/><rect x="462" y="0" width="66" height="66" fill="#f6f2ec"/><path d="M 462 0 A 33 33 0 0 1  495 33 L 462 0 A 33 33 0 0 0 495 33" fill="#f2d5a6"/><path d="M 495 0 A 33 33 0 0 1  528 33 L 495 0 A 33 33 0 0 0 528 33" fill="#89aeb7"/><path d="M 462 66 A 33 33 0 0 1  495 33 L 462 66 A 33 33 0 0 0 495 33" fill="#f2d5a7"/><path d="M 495 66 A 33 33 0 0 1  528 33 L 495 66 A 33 33 0 0 0 528 33" fill="#dee3e0"/><path d="M 66 66 A 66 66 0 0 1  132 132 L 66 66 A 66 66 0 0 0 132 132" fill="#eecccc"/><rect x="132" y="66" width="66" height="66" fill="#f6f2ec"/><path d="M 132 66 A 33 33 0 0 1  165 99 L 132 66 A 33 33 0 0 0 165 99" fill="#c9d2d7"/><path d="M 165 66 A 33 33 0 0 1  198 99 L 165 66 A 33 33 0 0 0 198 99" fill="#8fb2ba"/><path d="M 132 132 A 33 33 0 0 1  165 99 L 132 132 A 33 33 0 0 0 165 99" fill="#4a769a"/><path d="M 165 132 A 33 33 0 0 1  198 99 L 165 132 A 33 33 0 0 0 198 99" fill="#db7782"/><path d="M 198 66 A 66 66 0 0 1  264 132 L 198 66 A 66 66 0 0 0 264 132" fill="#b4c9cc"/><rect x="264" y="66" width="66" height="66" fill="#f6f2ec"/><path d="M 264 66 A 33 33 0 0 1  297 99 L 264 66 A 33 33 0 0 0 297 99" fill="#508b9b"/><path d="M 297 99 A 33 33 0 0 1  330 66 L 297 99 A 33 33 0 0 0 330 66" fill="#f3e3df"/><rect x="330" y="66" width="66" height="66" fill="#f6f2ec"/><path d="M 330 66 A 33 33 0 0 1  363 99 L 330 66 A 33 33 0 0 0 363 99" fill="#c7d5d5"/><path d="M 363 99 A 33 33 0 0 1  396 66 L 363 99 A 33 33 0 0 0 396 66" fill="#d35162"/><path d="M 330 132 A 33 33 0 0 1  363 99 L 330 132 A 33 33 0 0 0 363 99" fill="#cbd8d7"/><path d="M 396 66 A 66 66 0 0 1  462 132 L 396 66 A 66 66 0 0 0 462 132" fill="#d7dcdd"/><path d="M 462 66 A 66 66 0 0 1  528 132 L 462 66 A 66 66 0 0 0 528 132" fill="#f0c784"/><rect x="528" y="66" width="66" height="66" fill="#f6f2ec"/><path d="M 528 99 A 33 33 0 0 1  561 66 L 528 99 A 33 33 0 0 0 561 66" fill="#efbb68"/><path d="M 528 132 A 33 33 0 0 1  561 99 L 528 132 A 33 33 0 0 0 561 99" fill="#488697"/><path d="M 0 132 A 66 66 0 0 1  66 198 L 0 132 A 66 66 0 0 0 66 198" fill="#90a8bb"/><path d="M 132 132 A 66 66 0 0 1  198 198 L 132 132 A 66 66 0 0 0 198 198" fill="#f5ede7"/><rect x="198" y="132" width="66" height="66" fill="#f6f2ec"/><path d="M 198 132 A 33 33 0 0 1  231 165 L 198 132 A 33 33 0 0 0 231 165" fill="#d0d7da"/><path d="M 231 132 A 33 33 0 0 1  264 165 L 231 132 A 33 33 0 0 0 264 165" fill="#6f9eaa"/><path d="M 231 165 A 33 33 0 0 1  264 198 L 231 165 A 33 33 0 0 0 264 198" fill="#508b9b"/><path d="M 264 198 A 66 66 0 0 1  330 132 L 264 198 A 66 66 0 0 0 330 132" fill="#32648f"/><path d="M 330 198 A 66 66 0 0 1  396 132 L 330 198 A 66 66 0 0 0 396 132" fill="#e2e5e2"/><path d="M 396 132 A 66 66 0 0 1  462 198 L 396 132 A 66 66 0 0 0 462 198" fill="#d55969"/><path d="M 528 198 A 66 66 0 0 1  594 132 L 528 198 A 66 66 0 0 0 594 132" fill="#d5dedc"/><rect x="0" y="198" width="66" height="66" fill="#f6f2ec"/><path d="M 0 231 A 33 33 0 0 1  33 198 L 0 231 A 33 33 0 0 0 33 198" fill="#568e9e"/><path d="M 0 264 A 33 33 0 0 1  33 231 L 0 264 A 33 33 0 0 0 33 231" fill="#eeb456"/><path d="M 33 231 A 33 33 0 0 1  66 264 L 33 231 A 33 33 0 0 0 66 264" fill="#a9c2c6"/><rect x="66" y="198" width="66" height="66" fill="#f6f2ec"/><path d="M 66 231 A 33 33 0 0 1  99 198 L 66 231 A 33 33 0 0 0 99 198" fill="#bfcad2"/><path d="M 66 231 A 33 33 0 0 1  99 264 L 66 231 A 33 33 0 0 0 99 264" fill="#dc7d88"/><path d="M 132 264 A 66 66 0 0 1  198 198 L 132 264 A 66 66 0 0 0 198 198" fill="#376891"/><path d="M 264 264 A 66 66 0 0 1  330 198 L 264 264 A 66 66 0 0 0 330 198" fill="#b5c3cd"/><rect x="330" y="198" width="66" height="66" fill="#f6f2ec"/><path d="M 330 231 A 33 33 0 0 1  363 264 L 330 231 A 33 33 0 0 0 363 264" fill="#f5e8d3"/><path d="M 363 231 A 33 33 0 0 1  396 264 L 363 231 A 33 33 0 0 0 396 264" fill="#9ebbc1"/><path d="M 198 264 A 66 66 0 0 1  264 330 L 198 264 A 66 66 0 0 0 264 330" fill="#e2e5e2"/><rect x="330" y="264" width="66" height="66" fill="#f6f2ec"/><path d="M 330 264 A 33 33 0 0 1  363 297 L 330 264 A 33 33 0 0 0 363 297" fill="#ecebe7"/><path d="M 330 297 A 33 33 0 0 1  363 330 L 330 297 A 33 33 0 0 0 363 330" fill="#699aa7"/><path d="M 0 330 A 66 66 0 0 1  66 396 L 0 330 A 66 66 0 0 0 66 396" fill="#d96e7b"/><rect x="66" y="330" width="66" height="66" fill="#f6f2ec"/><path d="M 66 330 A 33 33 0 0 1  99 363 L 66 330 A 33 33 0 0 0 99 363" fill="#a2b5c4"/><path d="M 66 396 A 33 33 0 0 1  99 363 L 66 396 A 33 33 0 0 0 99 363" fill="#bacdcf"/><path d="M 99 396 A 33 33 0 0 1  132 363 L 99 396 A 33 33 0 0 0 132 363" fill="#f4e5cc"/><path d="M 198 330 A 66 66 0 0 1  264 396 L 198 330 A 66 66 0 0 0 264 396" fill="#a5c0c4"/><rect x="264" y="330" width="66" height="66" fill="#f6f2ec"/><path d="M 264 330 A 33 33 0 0 1  297 363 L 264 330 A 33 33 0 0 0 297 363" fill="#d96f7b"/><path d="M 297 330 A 33 33 0 0 1  330 363 L 297 330 A 33 33 0 0 0 330 363" fill="#f4e4cb"/><path d="M 264 363 A 33 33 0 0 1  297 396 L 264 363 A 33 33 0 0 0 297 396" fill="#f3debd"/><rect x="330" y="330" width="66" height="66" fill="#f6f2ec"/><path d="M 330 363 A 33 33 0 0 1  363 330 L 330 363 A 33 33 0 0 0 363 330" fill="#6186a5"/><path d="M 363 330 A 33 33 0 0 1  396 363 L 363 330 A 33 33 0 0 0 396 363" fill="#9eb2c2"/><path d="M 330 363 A 33 33 0 0 1  363 396 L 330 363 A 33 33 0 0 0 363 396" fill="#eeb253"/><path d="M 363 363 A 33 33 0 0 1  396 396 L 363 363 A 33 33 0 0 0 396 396" fill="#dce2df"/><rect x="396" y="330" width="66" height="66" fill="#f6f2ec"/><path d="M 396 363 A 33 33 0 0 1  429 330 L 396 363 A 33 33 0 0 0 429 330" fill="#f1cc91"/><path d="M 429 363 A 33 33 0 0 1  462 330 L 429 363 A 33 33 0 0 0 462 330" fill="#f3f0ea"/><path d="M 396 396 A 33 33 0 0 1  429 363 L 396 396 A 33 33 0 0 0 429 363" fill="#e8e8e5"/><path d="M 429 396 A 33 33 0 0 1  462 363 L 429 396 A 33 33 0 0 0 462 363" fill="#ecc4c4"/><path d="M 528 330 A 66 66 0 0 1  594 396 L 528 330 A 66 66 0 0 0 594 396" fill="#f0eee9"/><rect x="66" y="396" width="66" height="66" fill="#f6f2ec"/><path d="M 66 462 A 33 33 0 0 1  99 429 L 66 462 A 33 33 0 0 0 99 429" fill="#719fab"/><path d="M 132 462 A 66 66 0 0 1  198 396 L 132 462 A 66 66 0 0 0 198 396" fill="#efbe6f"/><path d="M 264 462 A 66 66 0 0 1  330 396 L 264 462 A 66 66 0 0 0 330 396" fill="#eeb760"/><path d="M 330 396 A 66 66 0 0 1  396 462 L 330 396 A 66 66 0 0 0 396 462" fill="#e7afb2"/><path d="M 462 396 A 66 66 0 0 1  528 462 L 462 396 A 66 66 0 0 0 528 462" fill="#acc4c8"/><rect x="66" y="462" width="66" height="66" fill="#f6f2ec"/><path d="M 66 495 A 33 33 0 0 1  99 462 L 66 495 A 33 33 0 0 0 99 462" fill="#f5e7d3"/><path d="M 99 495 A 33 33 0 0 1  132 462 L 99 495 A 33 33 0 0 0 132 462" fill="#f5f1eb"/><path d="M 66 528 A 33 33 0 0 1  99 495 L 66 528 A 33 33 0 0 0 99 495" fill="#f0c47d"/><rect x="132" y="462" width="66" height="66" fill="#f6f2ec"/><path d="M 132 462 A 33 33 0 0 1  165 495 L 132 462 A 33 33 0 0 0 165 495" fill="#bfd0d1"/><path d="M 165 462 A 33 33 0 0 1  198 495 L 165 462 A 33 33 0 0 0 198 495" fill="#f0c177"/><path d="M 165 495 A 33 33 0 0 1  198 528 L 165 495 A 33 33 0 0 0 198 528" fill="#f2d19c"/><path d="M 264 528 A 66 66 0 0 1  330 462 L 264 528 A 66 66 0 0 0 330 462" fill="#e8b3b6"/><path d="M 330 462 A 66 66 0 0 1  396 528 L 330 462 A 66 66 0 0 0 396 528" fill="#4d789c"/><rect x="396" y="462" width="66" height="66" fill="#f6f2ec"/><path d="M 429 495 A 33 33 0 0 1  462 462 L 429 495 A 33 33 0 0 0 462 462" fill="#f0c47d"/><path d="M 396 528 A 33 33 0 0 1  429 495 L 396 528 A 33 33 0 0 0 429 495" fill="#e5a4a9"/></g></svg>