<?xml version="1.0" standalone="no"?><svg xmlns:xlink="http://www.w3.org/1999/xlink" xmlns="http://www.w3.org/2000/svg" viewBox="0 0 900 810.0147275405008" preserveAspectRatio="xMaxYMax slice"><g transform="scale(1.5341188021600394)"><rect x="0" y="0" width="586.6666666666666" height="528" fill="#f7f4ee"/><rect x="58.666666666666664" y="58.666666666666664" width="58.666666666666664" height="58.666666666666664" fill="#f7f4ee"/><path d="M 410.67 58.67 A 58.67 58.67 0 0 1  469.34000000000003 117.34 L 410.67 58.67 A 58.67 58.67 0 0 0 469.34000000000003 117.34" fill="#eeb65b"/><circle cx="29.335" cy="146.665" r="29.335" fill="#d86b78"/><path d="M 293.33 234.67000000000002 A 58.67 58.67 0 0 1  352 176 L 293.33 234.67000000000002 A 58.67 58.67 0 0 0 352 176" fill="#90a9bc"/><circle cx="381.335" cy="205.335" r="29.335" fill="#e4e6e5"/><rect x="528" y="176" width="58.666666666666664" height="58.666666666666664" fill="#f7f4ee"/><path d="M 528 205.32999999999998 A 29.33 29.33 0 0 1  557.33 176 L 528 205.32999999999998 A 29.33 29.33 0 0 0 557.33 176" fill="#457298"/><g transform="translate(557.33,205.33) scale(1.4665) rotate(0)"><path fill-rule="evenodd" clip-rule="evenodd" d="M10 20C15.5228 20 20 15.5228 20 10C20 4.47715 15.5228 0 10 0C4.47715 0 0 4.47715 0 10C0 15.5228 4.47715 20 10 20ZM10 17C13.866 17 17 13.866 17 10C17 6.13401 13.866 3 10 3C6.13401 3 3 6.13401 3 10C3 13.866 6.13401 17 10 17Z" fill="#5d9f4e"/></g><circle cx="29.335" cy="264.005" r="29.335" fill="#4e8a9a"/><circle cx="146.665" cy="264.005" r="29.335" fill="#6e9eaa"/><g transform="translate(234.67,234.67) scale(2.9335) rotate(0)"><path fill-rule="evenodd" clip-rule="evenodd" d="M10 20C15.5228 20 20 15.5228 20 10C20 4.47715 15.5228 0 10 0C4.47715 0 0 4.47715 0 10C0 15.5228 4.47715 20 10 20ZM10 17C13.866 17 17 13.866 17 10C17 6.13401 13.866 3 10 3C6.13401 3 3 6.13401 3 10C3 13.866 6.13401 17 10 17Z" fill="#438395"/></g><path d="M 410.67 293.34 A 58.67 58.67 0 0 1  469.34000000000003 234.67 L 410.67 293.34 A 58.67 58.67 0 0 0 469.34000000000003 234.67" fill="#f5f3eb"/><path d="M 469.33 234.67 A 58.67 58.67 0 0 1  528 293.34 L 469.33 234.67 A 58.67 58.67 0 0 0 528 293.34" fill="#c5d0d6"/><path d="M 0 352 A 58.67 58.67 0 0 1  58.67 293.33 L 0 352 A 58.67 58.67 0 0 0 58.67 293.33" fill="#eeb75e"/><circle cx="88.005" cy="322.66499999999996" r="29.335" fill="#f6eddd"/><g transform="translate(176,293.33) scale(2.9335) rotate(0)"><path fill-rule="evenodd" clip-rule="evenodd" d="M10 20C15.5228 20 20 15.5228 20 10C20 4.47715 15.5228 0 10 0C4.47715 0 0 4.47715 0 10C0 15.5228 4.47715 20 10 20ZM10 17C13.866 17 17 13.866 17 10C17 6.13401 13.866 3 10 3C6.13401 3 3 6.13401 3 10C3 13.866 6.13401 17 10 17Z" fill="#f6ecdb"/></g><circle cx="264.005" cy="322.66499999999996" r="29.335" fill="#e3e8e4"/><rect x="293.3333333333333" y="293.3333333333333" width="58.666666666666664" height="58.666666666666664" fill="#f7f4ee"/><circle cx="307.995" cy="307.995" r="14.665" fill="#eecbcb"/><path d="M 293.33 352 A 29.33 29.33 0 0 1  322.65999999999997 322.67 L 293.33 352 A 29.33 29.33 0 0 0 322.65999999999997 322.67" fill="#f4dfbd"/><rect x="352" y="293.3333333333333" width="58.666666666666664" height="58.666666666666664" fill="#f7f4ee"/><path d="M 352 322.65999999999997 A 29.33 29.33 0 0 1  381.33 293.33 L 352 322.65999999999997 A 29.33 29.33 0 0 0 381.33 293.33" fill="#b3c9cc"/><g transform="translate(381.33,293.33) scale(1.4665) rotate(0)"><path fill-rule="evenodd" clip-rule="evenodd" d="M10 20C15.5228 20 20 15.5228 20 10C20 4.47715 15.5228 0 10 0C4.47715 0 0 4.47715 0 10C0 15.5228 4.47715 20 10 20ZM10 17C13.866 17 17 13.866 17 10C17 6.13401 13.866 3 10 3C6.13401 3 3 6.13401 3 10C3 13.866 6.13401 17 10 17Z" fill="#d6dfde"/></g><g transform="translate(352,322.67) scale(1.4665) rotate(0)"><path fill-rule="evenodd" clip-rule="evenodd" d="M10 20C15.5228 20 20 15.5228 20 10C20 4.47715 15.5228 0 10 0C4.47715 0 0 4.47715 0 10C0 15.5228 4.47715 20 10 20ZM10 17C13.866 17 17 13.866 17 10C17 6.13401 13.866 3 10 3C6.13401 3 3 6.13401 3 10C3 13.866 6.13401 17 10 17Z" fill="#eababc"/></g><path d="M 469.33 293.33 A 58.67 58.67 0 0 1  528 352 L 469.33 293.33 A 58.67 58.67 0 0 0 528 352" fill="#dce1e1"/><rect x="0" y="352" width="58.666666666666664" height="58.666666666666664" fill="#f7f4ee"/><path d="M 0 381.33 A 29.33 29.33 0 0 1  29.33 352 L 0 381.33 A 29.33 29.33 0 0 0 29.33 352" fill="#5a91a0"/><path d="M 29.33 352 A 29.33 29.33 0 0 1  58.66 381.33 L 29.33 352 A 29.33 29.33 0 0 0 58.66 381.33" fill="#f2d4a2"/><g transform="translate(29.33,381.33) scale(1.4665) rotate(0)"><path fill-rule="evenodd" clip-rule="evenodd" d="M10 20C15.5228 20 20 15.5228 20 10C20 4.47715 15.5228 0 10 0C4.47715 0 0 4.47715 0 10C0 15.5228 4.47715 20 10 20ZM10 17C13.866 17 17 13.866 17 10C17 6.13401 13.866 3 10 3C6.13401 3 3 6.13401 3 10C3 13.866 6.13401 17 10 17Z" fill="#f0d5d4"/></g><g transform="translate(176,352) scale(2.9335) rotate(0)"><path fill-rule="evenodd" clip-rule="evenodd" d="M10 20C15.5228 20 20 15.5228 20 10C20 4.47715 15.5228 0 10 0C4.47715 0 0 4.47715 0 10C0 15.5228 4.47715 20 10 20ZM10 17C13.866 17 17 13.866 17 10C17 6.13401 13.866 3 10 3C6.13401 3 3 6.13401 3 10C3 13.866 6.13401 17 10 17Z" fill="#9bc18e"/></g><g transform="translate(234.67,352) scale(2.9335) rotate(0)"><path fill-rule="evenodd" clip-rule="evenodd" d="M10 20C15.5228 20 20 15.5228 20 10C20 4.47715 15.5228 0 10 0C4.47715 0 0 4.47715 0 10C0 15.5228 4.47715 20 10 20ZM10 17C13.866 17 17 13.866 17 10C17 6.13401 13.866 3 10 3C6.13401 3 3 6.13401 3 10C3 13.866 6.13401 17 10 17Z" fill="#f5e7cf"/></g><g transform="translate(293.33,352) scale(2.9335) rotate(0)"><path fill-rule="evenodd" clip-rule="evenodd" d="M10 20C15.5228 20 20 15.5228 20 10C20 4.47715 15.5228 0 10 0C4.47715 0 0 4.47715 0 10C0 15.5228 4.47715 20 10 20ZM10 17C13.866 17 17 13.866 17 10C17 6.13401 13.866 3 10 3C6.13401 3 3 6.13401 3 10C3 13.866 6.13401 17 10 17Z" fill="#6fa961"/></g><g transform="translate(352,352) scale(2.9335) rotate(0)"><path fill-rule="evenodd" clip-rule="evenodd" d="M10 20C15.5228 20 20 15.5228 20 10C20 4.47715 15.5228 0 10 0C4.47715 0 0 4.47715 0 10C0 15.5228 4.47715 20 10 20ZM10 17C13.866 17 17 13.866 17 10C17 6.13401 13.866 3 10 3C6.13401 3 3 6.13401 3 10C3 13.866 6.13401 17 10 17Z" fill="#f1c988"/></g><rect x="410.66666666666663" y="352" width="58.666666666666664" height="58.666666666666664" fill="#f7f4ee"/><path d="M 410.67 410.65999999999997 A 29.33 29.33 0 0 1  440 381.33 L 410.67 410.65999999999997 A 29.33 29.33 0 0 0 440 381.33" fill="#becbd3"/><g transform="translate(440,381.33) scale(1.4665) rotate(0)"><path fill-rule="evenodd" clip-rule="evenodd" d="M10 20C15.5228 20 20 15.5228 20 10C20 4.47715 15.5228 0 10 0C4.47715 0 0 4.47715 0 10C0 15.5228 4.47715 20 10 20ZM10 17C13.866 17 17 13.866 17 10C17 6.13401 13.866 3 10 3C6.13401 3 3 6.13401 3 10C3 13.866 6.13401 17 10 17Z" fill="#477499"/></g><rect x="469.3333333333333" y="352" width="58.666666666666664" height="58.666666666666664" fill="#f7f4ee"/><circle cx="483.995" cy="366.665" r="14.665" fill="#edc8c8"/><g transform="translate(498.67,352) scale(1.4665) rotate(0)"><path fill-rule="evenodd" clip-rule="evenodd" d="M10 20C15.5228 20 20 15.5228 20 10C20 4.47715 15.5228 0 10 0C4.47715 0 0 4.47715 0 10C0 15.5228 4.47715 20 10 20ZM10 17C13.866 17 17 13.866 17 10C17 6.13401 13.866 3 10 3C6.13401 3 3 6.13401 3 10C3 13.866 6.13401 17 10 17Z" fill="#d96b78"/></g><circle cx="483.995" cy="395.995" r="14.665" fill="#99b9c0"/><g transform="translate(528,352) scale(2.9335) rotate(0)"><path fill-rule="evenodd" clip-rule="evenodd" d="M10 20C15.5228 20 20 15.5228 20 10C20 4.47715 15.5228 0 10 0C4.47715 0 0 4.47715 0 10C0 15.5228 4.47715 20 10 20ZM10 17C13.866 17 17 13.866 17 10C17 6.13401 13.866 3 10 3C6.13401 3 3 6.13401 3 10C3 13.866 6.13401 17 10 17Z" fill="#c1d2d3"/></g><path d="M 0 410.67 A 58.67 58.67 0 0 1  58.67 469.34000000000003 L 0 410.67 A 58.67 58.67 0 0 0 58.67 469.34000000000003" fill="#d65f6e"/><circle cx="88.005" cy="440.005" r="29.335" fill="#64a356"/><rect x="117.33333333333333" y="410.66666666666663" width="58.666666666666664" height="58.666666666666664" fill="#f7f4ee"/><circle cx="131.995" cy="425.33500000000004" r="14.665" fill="#edc9c9"/><g transform="translate(146.67,410.67) scale(1.4665) rotate(0)"><path fill-rule="evenodd" clip-rule="evenodd" d="M10 20C15.5228 20 20 15.5228 20 10C20 4.47715 15.5228 0 10 0C4.47715 0 0 4.47715 0 10C0 15.5228 4.47715 20 10 20ZM10 17C13.866 17 17 13.866 17 10C17 6.13401 13.866 3 10 3C6.13401 3 3 6.13401 3 10C3 13.866 6.13401 17 10 17Z" fill="#f6f1eb"/></g><circle cx="131.995" cy="454.665" r="14.665" fill="#f0c37b"/><g transform="translate(146.67,440) scale(1.4665) rotate(0)"><path fill-rule="evenodd" clip-rule="evenodd" d="M10 20C15.5228 20 20 15.5228 20 10C20 4.47715 15.5228 0 10 0C4.47715 0 0 4.47715 0 10C0 15.5228 4.47715 20 10 20ZM10 17C13.866 17 17 13.866 17 10C17 6.13401 13.866 3 10 3C6.13401 3 3 6.13401 3 10C3 13.866 6.13401 17 10 17Z" fill="#f3e3df"/></g><circle cx="205.335" cy="440.005" r="29.335" fill="#c5d9bb"/><rect x="234.66666666666666" y="410.66666666666663" width="58.666666666666664" height="58.666666666666664" fill="#f7f4ee"/><g transform="translate(234.67,410.67) scale(1.4665) rotate(0)"><path fill-rule="evenodd" clip-rule="evenodd" d="M10 20C15.5228 20 20 15.5228 20 10C20 4.47715 15.5228 0 10 0C4.47715 0 0 4.47715 0 10C0 15.5228 4.47715 20 10 20ZM10 17C13.866 17 17 13.866 17 10C17 6.13401 13.866 3 10 3C6.13401 3 3 6.13401 3 10C3 13.866 6.13401 17 10 17Z" fill="#a8c2c7"/></g><g transform="translate(264,410.67) scale(1.4665) rotate(0)"><path fill-rule="evenodd" clip-rule="evenodd" d="M10 20C15.5228 20 20 15.5228 20 10C20 4.47715 15.5228 0 10 0C4.47715 0 0 4.47715 0 10C0 15.5228 4.47715 20 10 20ZM10 17C13.866 17 17 13.866 17 10C17 6.13401 13.866 3 10 3C6.13401 3 3 6.13401 3 10C3 13.866 6.13401 17 10 17Z" fill="#99b9bf"/></g><path d="M 234.67 469.33 A 29.33 29.33 0 0 1  264 440 L 234.67 469.33 A 29.33 29.33 0 0 0 264 440" fill="#adc6c9"/><circle cx="278.665" cy="454.665" r="14.665" fill="#f5e6cd"/><rect x="293.3333333333333" y="410.66666666666663" width="58.666666666666664" height="58.666666666666664" fill="#f7f4ee"/><circle cx="337.33500000000004" cy="425.33500000000004" r="14.665" fill="#367b8e"/><path d="M 293.33 469.33 A 29.33 29.33 0 0 1  322.65999999999997 440 L 293.33 469.33 A 29.33 29.33 0 0 0 322.65999999999997 440" fill="#91aabd"/><g transform="translate(322.67,440) scale(1.4665) rotate(0)"><path fill-rule="evenodd" clip-rule="evenodd" d="M10 20C15.5228 20 20 15.5228 20 10C20 4.47715 15.5228 0 10 0C4.47715 0 0 4.47715 0 10C0 15.5228 4.47715 20 10 20ZM10 17C13.866 17 17 13.866 17 10C17 6.13401 13.866 3 10 3C6.13401 3 3 6.13401 3 10C3 13.866 6.13401 17 10 17Z" fill="#b5c4ce"/></g><circle cx="381.335" cy="440.005" r="29.335" fill="#dae4d0"/><g transform="translate(410.67,410.67) scale(2.9335) rotate(0)"><path fill-rule="evenodd" clip-rule="evenodd" d="M10 20C15.5228 20 20 15.5228 20 10C20 4.47715 15.5228 0 10 0C4.47715 0 0 4.47715 0 10C0 15.5228 4.47715 20 10 20ZM10 17C13.866 17 17 13.866 17 10C17 6.13401 13.866 3 10 3C6.13401 3 3 6.13401 3 10C3 13.866 6.13401 17 10 17Z" fill="#f0c680"/></g><rect x="469.3333333333333" y="410.66666666666663" width="58.666666666666664" height="58.666666666666664" fill="#f7f4ee"/><g transform="translate(469.33,410.67) scale(1.4665) rotate(0)"><path fill-rule="evenodd" clip-rule="evenodd" d="M10 20C15.5228 20 20 15.5228 20 10C20 4.47715 15.5228 0 10 0C4.47715 0 0 4.47715 0 10C0 15.5228 4.47715 20 10 20ZM10 17C13.866 17 17 13.866 17 10C17 6.13401 13.866 3 10 3C6.13401 3 3 6.13401 3 10C3 13.866 6.13401 17 10 17Z" fill="#f6ecda"/></g><circle cx="513.335" cy="425.33500000000004" r="14.665" fill="#8aafb8"/><path d="M 469.33 469.33 A 29.33 29.33 0 0 1  498.65999999999997 440 L 469.33 469.33 A 29.33 29.33 0 0 0 498.65999999999997 440" fill="#a4b7c6"/><g transform="translate(498.67,440) scale(1.4665) rotate(0)"><path fill-rule="evenodd" clip-rule="evenodd" d="M10 20C15.5228 20 20 15.5228 20 10C20 4.47715 15.5228 0 10 0C4.47715 0 0 4.47715 0 10C0 15.5228 4.47715 20 10 20ZM10 17C13.866 17 17 13.866 17 10C17 6.13401 13.866 3 10 3C6.13401 3 3 6.13401 3 10C3 13.866 6.13401 17 10 17Z" fill="#efb962"/></g><circle cx="557.335" cy="440.005" r="29.335" fill="#387c8f"/><rect x="0" y="469.3333333333333" width="58.666666666666664" height="58.666666666666664" fill="#f7f4ee"/><g transform="translate(0,469.33) scale(1.4665) rotate(0)"><path fill-rule="evenodd" clip-rule="evenodd" d="M10 20C15.5228 20 20 15.5228 20 10C20 4.47715 15.5228 0 10 0C4.47715 0 0 4.47715 0 10C0 15.5228 4.47715 20 10 20ZM10 17C13.866 17 17 13.866 17 10C17 6.13401 13.866 3 10 3C6.13401 3 3 6.13401 3 10C3 13.866 6.13401 17 10 17Z" fill="#668aa8"/></g><g transform="translate(29.33,469.33) scale(1.4665) rotate(0)"><path fill-rule="evenodd" clip-rule="evenodd" d="M10 20C15.5228 20 20 15.5228 20 10C20 4.47715 15.5228 0 10 0C4.47715 0 0 4.47715 0 10C0 15.5228 4.47715 20 10 20ZM10 17C13.866 17 17 13.866 17 10C17 6.13401 13.866 3 10 3C6.13401 3 3 6.13401 3 10C3 13.866 6.13401 17 10 17Z" fill="#e9b3b6"/></g><g transform="translate(0,498.67) scale(1.4665) rotate(0)"><path fill-rule="evenodd" clip-rule="evenodd" d="M10 20C15.5228 20 20 15.5228 20 10C20 4.47715 15.5228 0 10 0C4.47715 0 0 4.47715 0 10C0 15.5228 4.47715 20 10 20ZM10 17C13.866 17 17 13.866 17 10C17 6.13401 13.866 3 10 3C6.13401 3 3 6.13401 3 10C3 13.866 6.13401 17 10 17Z" fill="#67a559"/></g><g transform="translate(29.33,498.67) scale(1.4665) rotate(0)"><path fill-rule="evenodd" clip-rule="evenodd" d="M10 20C15.5228 20 20 15.5228 20 10C20 4.47715 15.5228 0 10 0C4.47715 0 0 4.47715 0 10C0 15.5228 4.47715 20 10 20ZM10 17C13.866 17 17 13.866 17 10C17 6.13401 13.866 3 10 3C6.13401 3 3 6.13401 3 10C3 13.866 6.13401 17 10 17Z" fill="#477499"/></g><rect x="58.666666666666664" y="469.3333333333333" width="58.666666666666664" height="58.666666666666664" fill="#f7f4ee"/><path d="M 58.67 469.33 A 29.33 29.33 0 0 1  88 498.65999999999997 L 58.67 469.33 A 29.33 29.33 0 0 0 88 498.65999999999997" fill="#d45868"/><g transform="translate(88,469.33) scale(1.4665) rotate(0)"><path fill-rule="evenodd" clip-rule="evenodd" d="M10 20C15.5228 20 20 15.5228 20 10C20 4.47715 15.5228 0 10 0C4.47715 0 0 4.47715 0 10C0 15.5228 4.47715 20 10 20ZM10 17C13.866 17 17 13.866 17 10C17 6.13401 13.866 3 10 3C6.13401 3 3 6.13401 3 10C3 13.866 6.13401 17 10 17Z" fill="#64a356"/></g><path d="M 58.67 528 A 29.33 29.33 0 0 1  88 498.67 L 58.67 528 A 29.33 29.33 0 0 0 88 498.67" fill="#eeb356"/><g transform="translate(88,498.67) scale(1.4665) rotate(0)"><path fill-rule="evenodd" clip-rule="evenodd" d="M10 20C15.5228 20 20 15.5228 20 10C20 4.47715 15.5228 0 10 0C4.47715 0 0 4.47715 0 10C0 15.5228 4.47715 20 10 20ZM10 17C13.866 17 17 13.866 17 10C17 6.13401 13.866 3 10 3C6.13401 3 3 6.13401 3 10C3 13.866 6.13401 17 10 17Z" fill="#a4c698"/></g><circle cx="146.665" cy="498.66499999999996" r="29.335" fill="#f7f4ee"/><path d="M 176 469.33 A 58.67 58.67 0 0 1  234.67000000000002 528 L 176 469.33 A 58.67 58.67 0 0 0 234.67000000000002 528" fill="#f3dab1"/><rect x="234.66666666666666" y="469.3333333333333" width="58.666666666666664" height="58.666666666666664" fill="#f7f4ee"/><g transform="translate(234.67,469.33) scale(1.4665) rotate(0)"><path fill-rule="evenodd" clip-rule="evenodd" d="M10 20C15.5228 20 20 15.5228 20 10C20 4.47715 15.5228 0 10 0C4.47715 0 0 4.47715 0 10C0 15.5228 4.47715 20 10 20ZM10 17C13.866 17 17 13.866 17 10C17 6.13401 13.866 3 10 3C6.13401 3 3 6.13401 3 10C3 13.866 6.13401 17 10 17Z" fill="#3d8092"/></g><circle cx="278.665" cy="483.995" r="14.665" fill="#dce5d2"/><circle cx="249.33499999999998" cy="513.335" r="14.665" fill="#9fbcc2"/><circle cx="278.665" cy="513.335" r="14.665" fill="#edeee3"/><rect x="293.3333333333333" y="469.3333333333333" width="58.666666666666664" height="58.666666666666664" fill="#f7f4ee"/><circle cx="307.995" cy="483.995" r="14.665" fill="#f6f2ec"/><circle cx="337.33500000000004" cy="483.995" r="14.665" fill="#f4dcb6"/><path d="M 293.33 498.67 A 29.33 29.33 0 0 1  322.65999999999997 528 L 293.33 498.67 A 29.33 29.33 0 0 0 322.65999999999997 528" fill="#356791"/><g transform="translate(322.67,498.67) scale(1.4665) rotate(0)"><path fill-rule="evenodd" clip-rule="evenodd" d="M10 20C15.5228 20 20 15.5228 20 10C20 4.47715 15.5228 0 10 0C4.47715 0 0 4.47715 0 10C0 15.5228 4.47715 20 10 20ZM10 17C13.866 17 17 13.866 17 10C17 6.13401 13.866 3 10 3C6.13401 3 3 6.13401 3 10C3 13.866 6.13401 17 10 17Z" fill="#c3d8b8"/></g><rect x="352" y="469.3333333333333" width="58.666666666666664" height="58.666666666666664" fill="#f7f4ee"/><g transform="translate(352,469.33) scale(1.4665) rotate(0)"><path fill-rule="evenodd" clip-rule="evenodd" d="M10 20C15.5228 20 20 15.5228 20 10C20 4.47715 15.5228 0 10 0C4.47715 0 0 4.47715 0 10C0 15.5228 4.47715 20 10 20ZM10 17C13.866 17 17 13.866 17 10C17 6.13401 13.866 3 10 3C6.13401 3 3 6.13401 3 10C3 13.866 6.13401 17 10 17Z" fill="#88b77b"/></g><path d="M 381.33 469.33 A 29.33 29.33 0 0 1  410.65999999999997 498.65999999999997 L 381.33 469.33 A 29.33 29.33 0 0 0 410.65999999999997 498.65999999999997" fill="#ecece9"/><circle cx="366.665" cy="513.335" r="14.665" fill="#478597"/><circle cx="395.995" cy="513.335" r="14.665" fill="#dc7d87"/><circle cx="440.005" cy="498.66499999999996" r="29.335" fill="#efeeea"/><path d="M 469.33 528 A 58.67 58.67 0 0 1  528 469.33 L 469.33 528 A 58.67 58.67 0 0 0 528 469.33" fill="#d35162"/><path d="M 528 469.33 A 58.67 58.67 0 0 1  586.67 528 L 528 469.33 A 58.67 58.67 0 0 0 586.67 528" fill="#f6ecdc"/></g></svg>