<?xml version="1.0" standalone="no"?><svg xmlns:xlink="http://www.w3.org/1999/xlink" xmlns="http://www.w3.org/2000/svg" viewBox="0 0 1200 960" preserveAspectRatio="xMaxYMax slice"><g transform="scale(2.038216560509554)"><rect x="0" y="0" width="588.75" height="471" fill="#f7f4ee"/><path d="M 0 0 A 58.88 58.88 0 0 1  58.88 58.88 L 0 0 A 58.88 58.88 0 0 0 58.88 58.88" fill="#dc7884"/><path d="M 58.88 58.88 A 58.88 58.88 0 0 1  117.76 0 L 58.88 58.88 A 58.88 58.88 0 0 0 117.76 0" fill="#819eb5"/><g transform="translate(117.75,0) scale(2.944) rotate(0)"><path fill-rule="evenodd" clip-rule="evenodd" d="M10 20C15.5228 20 20 15.5228 20 10C20 4.47715 15.5228 0 10 0C4.47715 0 0 4.47715 0 10C0 15.5228 4.47715 20 10 20ZM10 17C13.866 17 17 13.866 17 10C17 6.13401 13.866 3 10 3C6.13401 3 3 6.13401 3 10C3 13.866 6.13401 17 10 17Z" fill="#cbd4d9"/></g><rect x="176.625" y="0" width="58.875" height="58.875" fill="#f7f4ee"/><circle cx="220.78" cy="14.72" r="14.72" fill="#bbcfd0"/><path d="M 206.06 29.44 A 29.44 29.44 0 0 1  235.5 58.88 L 206.06 29.44 A 29.44 29.44 0 0 0 235.5 58.88" fill="#eeb860"/><rect x="294.375" y="0" width="58.875" height="58.875" fill="#f7f4ee"/><g transform="translate(323.81,0) scale(1.472) rotate(0)"><path fill-rule="evenodd" clip-rule="evenodd" d="M10 20C15.5228 20 20 15.5228 20 10C20 4.47715 15.5228 0 10 0C4.47715 0 0 4.47715 0 10C0 15.5228 4.47715 20 10 20ZM10 17C13.866 17 17 13.866 17 10C17 6.13401 13.866 3 10 3C6.13401 3 3 6.13401 3 10C3 13.866 6.13401 17 10 17Z" fill="#c2d7b7"/></g><g transform="translate(353.25,0) scale(2.944) rotate(0)"><path fill-rule="evenodd" clip-rule="evenodd" d="M10 20C15.5228 20 20 15.5228 20 10C20 4.47715 15.5228 0 10 0C4.47715 0 0 4.47715 0 10C0 15.5228 4.47715 20 10 20ZM10 17C13.866 17 17 13.866 17 10C17 6.13401 13.866 3 10 3C6.13401 3 3 6.13401 3 10C3 13.866 6.13401 17 10 17Z" fill="#6ea960"/></g><circle cx="441.57" cy="29.44" r="29.44" fill="#509842"/><path d="M 471 58.88 A 58.88 58.88 0 0 1  529.88 0 L 471 58.88 A 58.88 58.88 0 0 0 529.88 0" fill="#e1e8d7"/><circle cx="559.32" cy="29.44" r="29.44" fill="#e9eae7"/><g transform="translate(0,58.88) scale(2.944) rotate(0)"><path fill-rule="evenodd" clip-rule="evenodd" d="M10 20C15.5228 20 20 15.5228 20 10C20 4.47715 15.5228 0 10 0C4.47715 0 0 4.47715 0 10C0 15.5228 4.47715 20 10 20ZM10 17C13.866 17 17 13.866 17 10C17 6.13401 13.866 3 10 3C6.13401 3 3 6.13401 3 10C3 13.866 6.13401 17 10 17Z" fill="#d35363"/></g><circle cx="88.32000000000001" cy="88.32000000000001" r="29.44" fill="#f5eae5"/><g transform="translate(353.25,58.88) scale(2.944) rotate(0)"><path fill-rule="evenodd" clip-rule="evenodd" d="M10 20C15.5228 20 20 15.5228 20 10C20 4.47715 15.5228 0 10 0C4.47715 0 0 4.47715 0 10C0 15.5228 4.47715 20 10 20ZM10 17C13.866 17 17 13.866 17 10C17 6.13401 13.866 3 10 3C6.13401 3 3 6.13401 3 10C3 13.866 6.13401 17 10 17Z" fill="#7797b0"/></g><circle cx="500.44" cy="88.32000000000001" r="29.44" fill="#c4d8b9"/><rect x="529.875" y="58.875" width="58.875" height="58.875" fill="#f7f4ee"/><g transform="translate(529.88,58.88) scale(1.472) rotate(0)"><path fill-rule="evenodd" clip-rule="evenodd" d="M10 20C15.5228 20 20 15.5228 20 10C20 4.47715 15.5228 0 10 0C4.47715 0 0 4.47715 0 10C0 15.5228 4.47715 20 10 20ZM10 17C13.866 17 17 13.866 17 10C17 6.13401 13.866 3 10 3C6.13401 3 3 6.13401 3 10C3 13.866 6.13401 17 10 17Z" fill="#ecc4c5"/></g><path d="M 559.31 58.88 A 29.44 29.44 0 0 1  588.75 88.32000000000001 L 559.31 58.88 A 29.44 29.44 0 0 0 588.75 88.32000000000001" fill="#f4deb9"/><circle cx="544.6" cy="103.03" r="14.72" fill="#62a254"/><path d="M 559.31 117.75 A 29.44 29.44 0 0 1  588.75 88.31 L 559.31 117.75 A 29.44 29.44 0 0 0 588.75 88.31" fill="#93abbe"/><g transform="translate(0,117.75) scale(2.944) rotate(0)"><path fill-rule="evenodd" clip-rule="evenodd" d="M10 20C15.5228 20 20 15.5228 20 10C20 4.47715 15.5228 0 10 0C4.47715 0 0 4.47715 0 10C0 15.5228 4.47715 20 10 20ZM10 17C13.866 17 17 13.866 17 10C17 6.13401 13.866 3 10 3C6.13401 3 3 6.13401 3 10C3 13.866 6.13401 17 10 17Z" fill="#f3d9ae"/></g><path d="M 58.88 117.75 A 58.88 58.88 0 0 1  117.76 176.63 L 58.88 117.75 A 58.88 58.88 0 0 0 117.76 176.63" fill="#668ba8"/><rect x="353.25" y="117.75" width="58.875" height="58.875" fill="#f7f4ee"/><g transform="translate(353.25,147.19) scale(1.472) rotate(0)"><path fill-rule="evenodd" clip-rule="evenodd" d="M10 20C15.5228 20 20 15.5228 20 10C20 4.47715 15.5228 0 10 0C4.47715 0 0 4.47715 0 10C0 15.5228 4.47715 20 10 20ZM10 17C13.866 17 17 13.866 17 10C17 6.13401 13.866 3 10 3C6.13401 3 3 6.13401 3 10C3 13.866 6.13401 17 10 17Z" fill="#d6e2cb"/></g><g transform="translate(382.69,147.19) scale(1.472) rotate(0)"><path fill-rule="evenodd" clip-rule="evenodd" d="M10 20C15.5228 20 20 15.5228 20 10C20 4.47715 15.5228 0 10 0C4.47715 0 0 4.47715 0 10C0 15.5228 4.47715 20 10 20ZM10 17C13.866 17 17 13.866 17 10C17 6.13401 13.866 3 10 3C6.13401 3 3 6.13401 3 10C3 13.866 6.13401 17 10 17Z" fill="#f0c37b"/></g><g transform="translate(471,117.75) scale(2.944) rotate(0)"><path fill-rule="evenodd" clip-rule="evenodd" d="M10 20C15.5228 20 20 15.5228 20 10C20 4.47715 15.5228 0 10 0C4.47715 0 0 4.47715 0 10C0 15.5228 4.47715 20 10 20ZM10 17C13.866 17 17 13.866 17 10C17 6.13401 13.866 3 10 3C6.13401 3 3 6.13401 3 10C3 13.866 6.13401 17 10 17Z" fill="#c9d2d8"/></g><rect x="529.875" y="117.75" width="58.875" height="58.875" fill="#f7f4ee"/><g transform="translate(529.88,117.75) scale(1.472) rotate(0)"><path fill-rule="evenodd" clip-rule="evenodd" d="M10 20C15.5228 20 20 15.5228 20 10C20 4.47715 15.5228 0 10 0C4.47715 0 0 4.47715 0 10C0 15.5228 4.47715 20 10 20ZM10 17C13.866 17 17 13.866 17 10C17 6.13401 13.866 3 10 3C6.13401 3 3 6.13401 3 10C3 13.866 6.13401 17 10 17Z" fill="#eab8ba"/></g><g transform="translate(559.31,117.75) scale(1.472) rotate(0)"><path fill-rule="evenodd" clip-rule="evenodd" d="M10 20C15.5228 20 20 15.5228 20 10C20 4.47715 15.5228 0 10 0C4.47715 0 0 4.47715 0 10C0 15.5228 4.47715 20 10 20ZM10 17C13.866 17 17 13.866 17 10C17 6.13401 13.866 3 10 3C6.13401 3 3 6.13401 3 10C3 13.866 6.13401 17 10 17Z" fill="#81b374"/></g><rect x="0" y="176.625" width="58.875" height="58.875" fill="#f7f4ee"/><g transform="translate(0,206.06) scale(1.472) rotate(0)"><path fill-rule="evenodd" clip-rule="evenodd" d="M10 20C15.5228 20 20 15.5228 20 10C20 4.47715 15.5228 0 10 0C4.47715 0 0 4.47715 0 10C0 15.5228 4.47715 20 10 20ZM10 17C13.866 17 17 13.866 17 10C17 6.13401 13.866 3 10 3C6.13401 3 3 6.13401 3 10C3 13.866 6.13401 17 10 17Z" fill="#f3d8ad"/></g><circle cx="44.160000000000004" cy="220.78" r="14.72" fill="#c4d8ba"/><rect x="58.875" y="176.625" width="58.875" height="58.875" fill="#f7f4ee"/><path d="M 58.88 176.63 A 29.44 29.44 0 0 1  88.32000000000001 206.07 L 58.88 176.63 A 29.44 29.44 0 0 0 88.32000000000001 206.07" fill="#f1cd92"/><path d="M 88.31 206.07 A 29.44 29.44 0 0 1  117.75 176.63 L 88.31 206.07 A 29.44 29.44 0 0 0 117.75 176.63" fill="#f0d4d2"/><g transform="translate(58.88,206.06) scale(1.472) rotate(0)"><path fill-rule="evenodd" clip-rule="evenodd" d="M10 20C15.5228 20 20 15.5228 20 10C20 4.47715 15.5228 0 10 0C4.47715 0 0 4.47715 0 10C0 15.5228 4.47715 20 10 20ZM10 17C13.866 17 17 13.866 17 10C17 6.13401 13.866 3 10 3C6.13401 3 3 6.13401 3 10C3 13.866 6.13401 17 10 17Z" fill="#91b4bc"/></g><path d="M 88.31 206.06 A 29.44 29.44 0 0 1  117.75 235.5 L 88.31 206.06 A 29.44 29.44 0 0 0 117.75 235.5" fill="#bfd5b4"/><path d="M 235.5 176.63 A 58.88 58.88 0 0 1  294.38 235.51 L 235.5 176.63 A 58.88 58.88 0 0 0 294.38 235.51" fill="#77ad69"/><circle cx="323.82" cy="206.07" r="29.44" fill="#f5eae5"/><path d="M 353.25 235.51 A 58.88 58.88 0 0 1  412.13 176.63 L 353.25 235.51 A 58.88 58.88 0 0 0 412.13 176.63" fill="#f1dad7"/><circle cx="500.44" cy="206.07" r="29.44" fill="#5e94a2"/><rect x="529.875" y="176.625" width="58.875" height="58.875" fill="#f7f4ee"/><g transform="translate(529.88,176.63) scale(1.472) rotate(0)"><path fill-rule="evenodd" clip-rule="evenodd" d="M10 20C15.5228 20 20 15.5228 20 10C20 4.47715 15.5228 0 10 0C4.47715 0 0 4.47715 0 10C0 15.5228 4.47715 20 10 20ZM10 17C13.866 17 17 13.866 17 10C17 6.13401 13.866 3 10 3C6.13401 3 3 6.13401 3 10C3 13.866 6.13401 17 10 17Z" fill="#e7aaaf"/></g><path d="M 529.88 235.5 A 29.44 29.44 0 0 1  559.32 206.06 L 529.88 235.5 A 29.44 29.44 0 0 0 559.32 206.06" fill="#68a65a"/><path d="M 559.31 235.5 A 29.44 29.44 0 0 1  588.75 206.06 L 559.31 235.5 A 29.44 29.44 0 0 0 588.75 206.06" fill="#7eb271"/><path d="M 0 235.5 A 58.88 58.88 0 0 1  58.88 294.38 L 0 235.5 A 58.88 58.88 0 0 0 58.88 294.38" fill="#eab8ba"/><rect x="58.875" y="235.5" width="58.875" height="58.875" fill="#f7f4ee"/><circle cx="73.60000000000001" cy="250.22" r="14.72" fill="#dbe5d1"/><circle cx="103.03" cy="250.22" r="14.72" fill="#f1cd91"/><path d="M 58.88 294.38 A 29.44 29.44 0 0 1  88.32000000000001 264.94 L 58.88 294.38 A 29.44 29.44 0 0 0 88.32000000000001 264.94" fill="#c8d2d7"/><path d="M 88.31 294.38 A 29.44 29.44 0 0 1  117.75 264.94 L 88.31 294.38 A 29.44 29.44 0 0 0 117.75 264.94" fill="#dee2e2"/><rect x="176.625" y="235.5" width="58.875" height="58.875" fill="#f7f4ee"/><circle cx="220.78" cy="279.66" r="14.72" fill="#6aa65c"/><rect x="235.5" y="235.5" width="58.875" height="58.875" fill="#f7f4ee"/><g transform="translate(235.5,235.5) scale(1.472) rotate(0)"><path fill-rule="evenodd" clip-rule="evenodd" d="M10 20C15.5228 20 20 15.5228 20 10C20 4.47715 15.5228 0 10 0C4.47715 0 0 4.47715 0 10C0 15.5228 4.47715 20 10 20ZM10 17C13.866 17 17 13.866 17 10C17 6.13401 13.866 3 10 3C6.13401 3 3 6.13401 3 10C3 13.866 6.13401 17 10 17Z" fill="#dadfe0"/></g><g transform="translate(264.94,235.5) scale(1.472) rotate(0)"><path fill-rule="evenodd" clip-rule="evenodd" d="M10 20C15.5228 20 20 15.5228 20 10C20 4.47715 15.5228 0 10 0C4.47715 0 0 4.47715 0 10C0 15.5228 4.47715 20 10 20ZM10 17C13.866 17 17 13.866 17 10C17 6.13401 13.866 3 10 3C6.13401 3 3 6.13401 3 10C3 13.866 6.13401 17 10 17Z" fill="#9bbac1"/></g><g transform="translate(264.94,264.94) scale(1.472) rotate(0)"><path fill-rule="evenodd" clip-rule="evenodd" d="M10 20C15.5228 20 20 15.5228 20 10C20 4.47715 15.5228 0 10 0C4.47715 0 0 4.47715 0 10C0 15.5228 4.47715 20 10 20ZM10 17C13.866 17 17 13.866 17 10C17 6.13401 13.866 3 10 3C6.13401 3 3 6.13401 3 10C3 13.866 6.13401 17 10 17Z" fill="#4f7a9d"/></g><g transform="translate(294.38,235.5) scale(2.944) rotate(0)"><path fill-rule="evenodd" clip-rule="evenodd" d="M10 20C15.5228 20 20 15.5228 20 10C20 4.47715 15.5228 0 10 0C4.47715 0 0 4.47715 0 10C0 15.5228 4.47715 20 10 20ZM10 17C13.866 17 17 13.866 17 10C17 6.13401 13.866 3 10 3C6.13401 3 3 6.13401 3 10C3 13.866 6.13401 17 10 17Z" fill="#ecede9"/></g><rect x="353.25" y="235.5" width="58.875" height="58.875" fill="#f7f4ee"/><path d="M 353.25 264.94 A 29.44 29.44 0 0 1  382.69 235.5 L 353.25 264.94 A 29.44 29.44 0 0 0 382.69 235.5" fill="#3c7f91"/><circle cx="397.41" cy="250.22" r="14.72" fill="#e9b4b7"/><circle cx="367.97" cy="279.66" r="14.72" fill="#3e8092"/><path d="M 382.69 294.38 A 29.44 29.44 0 0 1  412.13 264.94 L 382.69 294.38 A 29.44 29.44 0 0 0 412.13 264.94" fill="#f2d19b"/><rect x="412.125" y="235.5" width="58.875" height="58.875" fill="#f7f4ee"/><path d="M 441.56 264.94 A 29.44 29.44 0 0 1  471 235.5 L 441.56 264.94 A 29.44 29.44 0 0 0 471 235.5" fill="#91aabd"/><g transform="translate(412.13,264.94) scale(1.472) rotate(0)"><path fill-rule="evenodd" clip-rule="evenodd" d="M10 20C15.5228 20 20 15.5228 20 10C20 4.47715 15.5228 0 10 0C4.47715 0 0 4.47715 0 10C0 15.5228 4.47715 20 10 20ZM10 17C13.866 17 17 13.866 17 10C17 6.13401 13.866 3 10 3C6.13401 3 3 6.13401 3 10C3 13.866 6.13401 17 10 17Z" fill="#f5e8d2"/></g><path d="M 441.56 264.94 A 29.44 29.44 0 0 1  471 294.38 L 441.56 264.94 A 29.44 29.44 0 0 0 471 294.38" fill="#f4e1c0"/><path d="M 471 235.5 A 58.88 58.88 0 0 1  529.88 294.38 L 471 235.5 A 58.88 58.88 0 0 0 529.88 294.38" fill="#dbe2e0"/><path d="M 529.88 235.5 A 58.88 58.88 0 0 1  588.76 294.38 L 529.88 235.5 A 58.88 58.88 0 0 0 588.76 294.38" fill="#8cb97f"/><path d="M 58.88 353.26 A 58.88 58.88 0 0 1  117.76 294.38 L 58.88 353.26 A 58.88 58.88 0 0 0 117.76 294.38" fill="#5d84a4"/><rect x="176.625" y="294.375" width="58.875" height="58.875" fill="#f7f4ee"/><g transform="translate(176.63,294.38) scale(1.472) rotate(0)"><path fill-rule="evenodd" clip-rule="evenodd" d="M10 20C15.5228 20 20 15.5228 20 10C20 4.47715 15.5228 0 10 0C4.47715 0 0 4.47715 0 10C0 15.5228 4.47715 20 10 20ZM10 17C13.866 17 17 13.866 17 10C17 6.13401 13.866 3 10 3C6.13401 3 3 6.13401 3 10C3 13.866 6.13401 17 10 17Z" fill="#60a151"/></g><g transform="translate(206.06,294.38) scale(1.472) rotate(0)"><path fill-rule="evenodd" clip-rule="evenodd" d="M10 20C15.5228 20 20 15.5228 20 10C20 4.47715 15.5228 0 10 0C4.47715 0 0 4.47715 0 10C0 15.5228 4.47715 20 10 20ZM10 17C13.866 17 17 13.866 17 10C17 6.13401 13.866 3 10 3C6.13401 3 3 6.13401 3 10C3 13.866 6.13401 17 10 17Z" fill="#75ac67"/></g><path d="M 353.25 353.26 A 58.88 58.88 0 0 1  412.13 294.38 L 353.25 353.26 A 58.88 58.88 0 0 0 412.13 294.38" fill="#ccd9d9"/><circle cx="441.57" cy="323.82" r="29.44" fill="#f0c37c"/><rect x="0" y="353.25" width="58.875" height="58.875" fill="#f7f4ee"/><g transform="translate(0,353.25) scale(1.472) rotate(0)"><path fill-rule="evenodd" clip-rule="evenodd" d="M10 20C15.5228 20 20 15.5228 20 10C20 4.47715 15.5228 0 10 0C4.47715 0 0 4.47715 0 10C0 15.5228 4.47715 20 10 20ZM10 17C13.866 17 17 13.866 17 10C17 6.13401 13.866 3 10 3C6.13401 3 3 6.13401 3 10C3 13.866 6.13401 17 10 17Z" fill="#f0c073"/></g><circle cx="44.160000000000004" cy="367.97" r="14.72" fill="#4e973f"/><path d="M 0 382.69 A 29.44 29.44 0 0 1  29.44 412.13 L 0 382.69 A 29.44 29.44 0 0 0 29.44 412.13" fill="#e6a6ab"/><path d="M 58.88 353.25 A 58.88 58.88 0 0 1  117.76 412.13 L 58.88 353.25 A 58.88 58.88 0 0 0 117.76 412.13" fill="#8ba5ba"/><rect x="117.75" y="353.25" width="58.875" height="58.875" fill="#f7f4ee"/><path d="M 117.75 412.13 A 29.44 29.44 0 0 1  147.19 382.69 L 117.75 412.13 A 29.44 29.44 0 0 0 147.19 382.69" fill="#8fa8bc"/><g transform="translate(147.19,382.69) scale(1.472) rotate(0)"><path fill-rule="evenodd" clip-rule="evenodd" d="M10 20C15.5228 20 20 15.5228 20 10C20 4.47715 15.5228 0 10 0C4.47715 0 0 4.47715 0 10C0 15.5228 4.47715 20 10 20ZM10 17C13.866 17 17 13.866 17 10C17 6.13401 13.866 3 10 3C6.13401 3 3 6.13401 3 10C3 13.866 6.13401 17 10 17Z" fill="#75ad68"/></g><circle cx="206.07" cy="382.69" r="29.44" fill="#5b92a1"/><rect x="294.375" y="353.25" width="58.875" height="58.875" fill="#f7f4ee"/><g transform="translate(294.38,353.25) scale(1.472) rotate(0)"><path fill-rule="evenodd" clip-rule="evenodd" d="M10 20C15.5228 20 20 15.5228 20 10C20 4.47715 15.5228 0 10 0C4.47715 0 0 4.47715 0 10C0 15.5228 4.47715 20 10 20ZM10 17C13.866 17 17 13.866 17 10C17 6.13401 13.866 3 10 3C6.13401 3 3 6.13401 3 10C3 13.866 6.13401 17 10 17Z" fill="#ceddc3"/></g><circle cx="338.53000000000003" cy="367.97" r="14.72" fill="#6ca75e"/><g transform="translate(323.81,382.69) scale(1.472) rotate(0)"><path fill-rule="evenodd" clip-rule="evenodd" d="M10 20C15.5228 20 20 15.5228 20 10C20 4.47715 15.5228 0 10 0C4.47715 0 0 4.47715 0 10C0 15.5228 4.47715 20 10 20ZM10 17C13.866 17 17 13.866 17 10C17 6.13401 13.866 3 10 3C6.13401 3 3 6.13401 3 10C3 13.866 6.13401 17 10 17Z" fill="#f4ddb8"/></g><path d="M 353.25 353.25 A 58.88 58.88 0 0 1  412.13 412.13 L 353.25 353.25 A 58.88 58.88 0 0 0 412.13 412.13" fill="#dde6d4"/><g transform="translate(117.75,412.13) scale(2.944) rotate(0)"><path fill-rule="evenodd" clip-rule="evenodd" d="M10 20C15.5228 20 20 15.5228 20 10C20 4.47715 15.5228 0 10 0C4.47715 0 0 4.47715 0 10C0 15.5228 4.47715 20 10 20ZM10 17C13.866 17 17 13.866 17 10C17 6.13401 13.866 3 10 3C6.13401 3 3 6.13401 3 10C3 13.866 6.13401 17 10 17Z" fill="#d24e5f"/></g><path d="M 176.63 412.13 A 58.88 58.88 0 0 1  235.51 471.01 L 176.63 412.13 A 58.88 58.88 0 0 0 235.51 471.01" fill="#9bc18f"/><rect x="235.5" y="412.125" width="58.875" height="58.875" fill="#f7f4ee"/><g transform="translate(235.5,412.13) scale(1.472) rotate(0)"><path fill-rule="evenodd" clip-rule="evenodd" d="M10 20C15.5228 20 20 15.5228 20 10C20 4.47715 15.5228 0 10 0C4.47715 0 0 4.47715 0 10C0 15.5228 4.47715 20 10 20ZM10 17C13.866 17 17 13.866 17 10C17 6.13401 13.866 3 10 3C6.13401 3 3 6.13401 3 10C3 13.866 6.13401 17 10 17Z" fill="#7fa9b3"/></g><g transform="translate(264.94,412.13) scale(1.472) rotate(0)"><path fill-rule="evenodd" clip-rule="evenodd" d="M10 20C15.5228 20 20 15.5228 20 10C20 4.47715 15.5228 0 10 0C4.47715 0 0 4.47715 0 10C0 15.5228 4.47715 20 10 20ZM10 17C13.866 17 17 13.866 17 10C17 6.13401 13.866 3 10 3C6.13401 3 3 6.13401 3 10C3 13.866 6.13401 17 10 17Z" fill="#ecece8"/></g><circle cx="279.66" cy="456.28000000000003" r="14.72" fill="#4f7a9d"/><g transform="translate(294.38,412.13) scale(2.944) rotate(0)"><path fill-rule="evenodd" clip-rule="evenodd" d="M10 20C15.5228 20 20 15.5228 20 10C20 4.47715 15.5228 0 10 0C4.47715 0 0 4.47715 0 10C0 15.5228 4.47715 20 10 20ZM10 17C13.866 17 17 13.866 17 10C17 6.13401 13.866 3 10 3C6.13401 3 3 6.13401 3 10C3 13.866 6.13401 17 10 17Z" fill="#c6d5d6"/></g><path d="M 353.25 471.01 A 58.88 58.88 0 0 1  412.13 412.13 L 353.25 471.01 A 58.88 58.88 0 0 0 412.13 412.13" fill="#567fa0"/><rect x="471" y="412.125" width="58.875" height="58.875" fill="#f7f4ee"/><path d="M 471 441.57 A 29.44 29.44 0 0 1  500.44 412.13 L 471 441.57 A 29.44 29.44 0 0 0 500.44 412.13" fill="#e8eae6"/><path d="M 471 471 A 29.44 29.44 0 0 1  500.44 441.56 L 471 471 A 29.44 29.44 0 0 0 500.44 441.56" fill="#ecc2c3"/><path d="M 500.44 441.56 A 29.44 29.44 0 0 1  529.88 471 L 500.44 441.56 A 29.44 29.44 0 0 0 529.88 471" fill="#d9dee0"/></g></svg>