<?xml version="1.0" standalone="no"?><svg xmlns:xlink="http://www.w3.org/1999/xlink" xmlns="http://www.w3.org/2000/svg" viewBox="0 0 600 553.8461538461538" preserveAspectRatio="xMaxYMax slice"><g transform="scale(1.048951048951049)"><rect x="0" y="0" width="572" height="528" fill="#f6f2ec"/><rect x="0" y="0" width="44" height="44" fill="#f6f2ec"/><path d="M 0 22 A 22 22 0 0 1  22 0 L 0 22 A 22 22 0 0 0 22 0" fill="#bcc3e9"/><path d="M 22 0 A 22 22 0 0 1  44 22 L 22 0 A 22 22 0 0 0 44 22" fill="#f3d9b1"/><path d="M 22 22 A 22 22 0 0 1  44 44 L 22 22 A 22 22 0 0 0 44 44" fill="#efbd6e"/><path d="M 484 0 A 44 44 0 0 1  528 44 L 484 0 A 44 44 0 0 0 528 44" fill="#6b8eaa"/><path d="M 176 44 A 44 44 0 0 1  220 88 L 176 44 A 44 44 0 0 0 220 88" fill="#386992"/><path d="M 220 44 A 44 44 0 0 1  264 88 L 220 44 A 44 44 0 0 0 264 88" fill="#c4caea"/><rect x="440" y="44" width="44" height="44" fill="#f6f2ec"/><path d="M 462 44 A 22 22 0 0 1  484 66 L 462 44 A 22 22 0 0 0 484 66" fill="#f3d9af"/><path d="M 528 88 A 44 44 0 0 1  572 44 L 528 88 A 44 44 0 0 0 572 44" fill="#f2d19e"/><path d="M 44 88 A 44 44 0 0 1  88 132 L 44 88 A 44 44 0 0 0 88 132" fill="#efbf73"/><path d="M 132 132 A 44 44 0 0 1  176 88 L 132 132 A 44 44 0 0 0 176 88" fill="#edaf4c"/><path d="M 176 132 A 44 44 0 0 1  220 88 L 176 132 A 44 44 0 0 0 220 88" fill="#f3dcb7"/><path d="M 220 88 A 44 44 0 0 1  264 132 L 220 88 A 44 44 0 0 0 264 132" fill="#dbdceb"/><path d="M 352 132 A 44 44 0 0 1  396 88 L 352 132 A 44 44 0 0 0 396 88" fill="#f5ede0"/><path d="M 396 88 A 44 44 0 0 1  440 132 L 396 88 A 44 44 0 0 0 440 132" fill="#a6b1e8"/><path d="M 440 132 A 44 44 0 0 1  484 88 L 440 132 A 44 44 0 0 0 484 88" fill="#f2d09c"/><path d="M 484 88 A 44 44 0 0 1  528 132 L 484 88 A 44 44 0 0 0 528 132" fill="#c1c7e9"/><path d="M 44 132 A 44 44 0 0 1  88 176 L 44 132 A 44 44 0 0 0 88 176" fill="#a9bac7"/><path d="M 132 132 A 44 44 0 0 1  176 176 L 132 132 A 44 44 0 0 0 176 176" fill="#eeb964"/><rect x="264" y="132" width="44" height="44" fill="#f6f2ec"/><path d="M 264 154 A 22 22 0 0 1  286 176 L 264 154 A 22 22 0 0 0 286 176" fill="#1e44e1"/><rect x="308" y="132" width="44" height="44" fill="#f6f2ec"/><path d="M 308 132 A 22 22 0 0 1  330 154 L 308 132 A 22 22 0 0 0 330 154" fill="#edb150"/><path d="M 352 132 A 44 44 0 0 1  396 176 L 352 132 A 44 44 0 0 0 396 176" fill="#507a9d"/><path d="M 440 176 A 44 44 0 0 1  484 132 L 440 176 A 44 44 0 0 0 484 132" fill="#406e96"/><path d="M 528 176 A 44 44 0 0 1  572 132 L 528 176 A 44 44 0 0 0 572 132" fill="#f1cd92"/><rect x="44" y="176" width="44" height="44" fill="#f6f2ec"/><path d="M 44 198 A 22 22 0 0 1  66 176 L 44 198 A 22 22 0 0 0 66 176" fill="#f6f2eb"/><path d="M 66 198 A 22 22 0 0 1  88 176 L 66 198 A 22 22 0 0 0 88 176" fill="#f3dcb8"/><path d="M 66 198 A 22 22 0 0 1  88 220 L 66 198 A 22 22 0 0 0 88 220" fill="#efbd6c"/><path d="M 132 220 A 44 44 0 0 1  176 176 L 132 220 A 44 44 0 0 0 176 176" fill="#9bb0c1"/><path d="M 176 220 A 44 44 0 0 1  220 176 L 176 220 A 44 44 0 0 0 220 176" fill="#f5ead8"/><path d="M 308 176 A 44 44 0 0 1  352 220 L 308 176 A 44 44 0 0 0 352 220" fill="#f0c786"/><rect x="484" y="176" width="44" height="44" fill="#f6f2ec"/><path d="M 484 220 A 22 22 0 0 1  506 198 L 484 220 A 22 22 0 0 0 506 198" fill="#e0e2e1"/><path d="M 220 264 A 44 44 0 0 1  264 220 L 220 264 A 44 44 0 0 0 264 220" fill="#f2d19d"/><path d="M 264 220 A 44 44 0 0 1  308 264 L 264 220 A 44 44 0 0 0 308 264" fill="#31648e"/><path d="M 440 220 A 44 44 0 0 1  484 264 L 440 220 A 44 44 0 0 0 484 264" fill="#c3cdd4"/><path d="M 44 308 A 44 44 0 0 1  88 264 L 44 308 A 44 44 0 0 0 88 264" fill="#405fe3"/><path d="M 88 264 A 44 44 0 0 1  132 308 L 88 264 A 44 44 0 0 0 132 308" fill="#f6efe6"/><rect x="176" y="264" width="44" height="44" fill="#f6f2ec"/><path d="M 176 286 A 22 22 0 0 1  198 308 L 176 286 A 22 22 0 0 0 198 308" fill="#396a92"/><path d="M 264 308 A 44 44 0 0 1  308 264 L 264 308 A 44 44 0 0 0 308 264" fill="#1940e1"/><path d="M 308 308 A 44 44 0 0 1  352 264 L 308 308 A 44 44 0 0 0 352 264" fill="#90a0e7"/><path d="M 396 264 A 44 44 0 0 1  440 308 L 396 264 A 44 44 0 0 0 440 308" fill="#f2d29f"/><rect x="484" y="264" width="44" height="44" fill="#f6f2ec"/><path d="M 484 264 A 22 22 0 0 1  506 286 L 484 264 A 22 22 0 0 0 506 286" fill="#d6dbdd"/><rect x="44" y="308" width="44" height="44" fill="#f6f2ec"/><path d="M 66 330 A 22 22 0 0 1  88 308 L 66 330 A 22 22 0 0 0 88 308" fill="#f1cc91"/><path d="M 396 352 A 44 44 0 0 1  440 308 L 396 352 A 44 44 0 0 0 440 308" fill="#7091ac"/><rect x="440" y="308" width="44" height="44" fill="#f6f2ec"/><path d="M 440 352 A 22 22 0 0 1  462 330 L 440 352 A 22 22 0 0 0 462 330" fill="#667ee5"/><path d="M 462 330 A 22 22 0 0 1  484 352 L 462 330 A 22 22 0 0 0 484 352" fill="#b9c6cf"/><path d="M 0 352 A 44 44 0 0 1  44 396 L 0 352 A 44 44 0 0 0 44 396" fill="#d8dcde"/><path d="M 44 352 A 44 44 0 0 1  88 396 L 44 352 A 44 44 0 0 0 88 396" fill="#edb151"/><path d="M 88 396 A 44 44 0 0 1  132 352 L 88 396 A 44 44 0 0 0 132 352" fill="#cad2d7"/><path d="M 220 352 A 44 44 0 0 1  264 396 L 220 352 A 44 44 0 0 0 264 396" fill="#f1d09a"/><rect x="484" y="352" width="44" height="44" fill="#f6f2ec"/><path d="M 132 440 A 44 44 0 0 1  176 396 L 132 440 A 44 44 0 0 0 176 396" fill="#5c76e4"/><rect x="264" y="396" width="44" height="44" fill="#f6f2ec"/><path d="M 286 418 A 22 22 0 0 1  308 440 L 286 418 A 22 22 0 0 0 308 440" fill="#f2d2a0"/><rect x="352" y="396" width="44" height="44" fill="#f6f2ec"/><path d="M 440 396 A 44 44 0 0 1  484 440 L 440 396 A 44 44 0 0 0 484 440" fill="#f5ead8"/><path d="M 528 396 A 44 44 0 0 1  572 440 L 528 396 A 44 44 0 0 0 572 440" fill="#c5cbea"/><path d="M 132 440 A 44 44 0 0 1  176 484 L 132 440 A 44 44 0 0 0 176 484" fill="#eeecec"/><rect x="176" y="440" width="44" height="44" fill="#f6f2ec"/><path d="M 176 462 A 22 22 0 0 1  198 440 L 176 462 A 22 22 0 0 0 198 440" fill="#f1ce95"/><path d="M 198 462 A 22 22 0 0 1  220 440 L 198 462 A 22 22 0 0 0 220 440" fill="#f5eddf"/><path d="M 176 484 A 22 22 0 0 1  198 462 L 176 484 A 22 22 0 0 0 198 462" fill="#f5e8d5"/><path d="M 264 440 A 44 44 0 0 1  308 484 L 264 440 A 44 44 0 0 0 308 484" fill="#f1eee9"/><path d="M 352 484 A 44 44 0 0 1  396 440 L 352 484 A 44 44 0 0 0 396 440" fill="#2146e1"/><path d="M 484 440 A 44 44 0 0 1  528 484 L 484 440 A 44 44 0 0 0 528 484" fill="#d4d7ea"/><path d="M 44 484 A 44 44 0 0 1  88 528 L 44 484 A 44 44 0 0 0 88 528" fill="#f0c784"/><path d="M 88 528 A 44 44 0 0 1  132 484 L 88 528 A 44 44 0 0 0 132 484" fill="#f1c98b"/><path d="M 220 484 A 44 44 0 0 1  264 528 L 220 484 A 44 44 0 0 0 264 528" fill="#f4e5ce"/><path d="M 308 528 A 44 44 0 0 1  352 484 L 308 528 A 44 44 0 0 0 352 484" fill="#bfc6e9"/><path d="M 440 484 A 44 44 0 0 1  484 528 L 440 484 A 44 44 0 0 0 484 528" fill="#839fb5"/><path d="M 484 484 A 44 44 0 0 1  528 528 L 484 484 A 44 44 0 0 0 528 528" fill="#f5e8d4"/><path d="M 528 484 A 44 44 0 0 1  572 528 L 528 484 A 44 44 0 0 0 572 528" fill="#698ca9"/></g></svg>