<?xml version="1.0" standalone="no"?><svg xmlns:xlink="http://www.w3.org/1999/xlink" xmlns="http://www.w3.org/2000/svg" viewBox="0 0 600 500.0047348933228" preserveAspectRatio="xMaxYMax slice"><g transform="scale(0.9469786645706871)"><rect x="0" y="0" width="633.5999999999999" height="528" fill="#f5f1ea"/><g transform="translate(0,0) scale(2.6399999999999997) rotate(0)"><path fill-rule="evenodd" clip-rule="evenodd" d="M10 20C15.5228 20 20 15.5228 20 10C20 4.47715 15.5228 0 10 0C4.47715 0 0 4.47715 0 10C0 15.5228 4.47715 20 10 20ZM10 17C13.866 17 17 13.866 17 10C17 6.13401 13.866 3 10 3C6.13401 3 3 6.13401 3 10C3 13.866 6.13401 17 10 17Z" fill="#edae49"/></g><path d="M 52.8 0 A 52.8 52.8 0 0 1  105.6 52.8 L 52.8 0 A 52.8 52.8 0 0 0 105.6 52.8" fill="#d1495b"/><path d="M 158.4 52.8 A 52.8 52.8 0 0 1  211.2 0 L 158.4 52.8 A 52.8 52.8 0 0 0 211.2 0" fill="#edae49"/><g transform="translate(211.2,0) scale(2.6399999999999997) rotate(0)"><path fill-rule="evenodd" clip-rule="evenodd" d="M10 20C15.5228 20 20 15.5228 20 10C20 4.47715 15.5228 0 10 0C4.47715 0 0 4.47715 0 10C0 15.5228 4.47715 20 10 20ZM10 17C13.866 17 17 13.866 17 10C17 6.13401 13.866 3 10 3C6.13401 3 3 6.13401 3 10C3 13.866 6.13401 17 10 17Z" fill="#30638e"/></g><g transform="translate(316.8,0) scale(2.6399999999999997) rotate(0)"><path fill-rule="evenodd" clip-rule="evenodd" d="M10 20C15.5228 20 20 15.5228 20 10C20 4.47715 15.5228 0 10 0C4.47715 0 0 4.47715 0 10C0 15.5228 4.47715 20 10 20ZM10 17C13.866 17 17 13.866 17 10C17 6.13401 13.866 3 10 3C6.13401 3 3 6.13401 3 10C3 13.866 6.13401 17 10 17Z" fill="#40963c"/></g><g transform="translate(475.2,0) scale(2.6399999999999997) rotate(0)"><path d="M10 0L20 10L10 20L0 10L10 0Z" fill="#40963c"/></g><g transform="translate(528,0) scale(2.6399999999999997) rotate(0)"><path fill-rule="evenodd" clip-rule="evenodd" d="M10 20C15.5228 20 20 15.5228 20 10C20 4.47715 15.5228 0 10 0C4.47715 0 0 4.47715 0 10C0 15.5228 4.47715 20 10 20ZM10 17C13.866 17 17 13.866 17 10C17 6.13401 13.866 3 10 3C6.13401 3 3 6.13401 3 10C3 13.866 6.13401 17 10 17Z" fill="#d1495b"/></g><rect x="580.8" y="0" width="52.8" height="52.8" fill="#f5f1ea"/><path d="M 580.8 26.4 A 26.4 26.4 0 0 1  607.1999999999999 0 L 607.1999999999999 26.4" fill="#d1495b"/><g transform="translate(607.2,0) scale(1.3199999999999998) rotate(0)"><path d="M10 0L20 10L10 20L0 10L10 0Z" fill="#00798c"/></g><rect x="0" y="52.8" width="52.8" height="52.8" fill="#edae49"/><path d="M 105.6 52.8 A 52.8 52.8 0 0 0 158.39999999999998 105.6 L 158.39999999999998 52.8" fill="#edae49"/><rect x="158.39999999999998" y="52.8" width="52.8" height="52.8" fill="#f5f1ea"/><path d="M 158.4 79.19999999999999 A 26.4 26.4 0 0 1  184.8 52.8 L 184.8 79.19999999999999" fill="#30638e"/><circle cx="198" cy="66" r="13.2" fill="#00798c"/><rect x="158.4" y="79.2" width="26.4" height="26.4" fill="#edae49"/><rect x="184.8" y="79.2" width="26.4" height="26.4" fill="#d1495b"/><circle cx="237.6" cy="79.19999999999999" r="26.4" fill="#40963c"/><path d="M 264 52.8 A 52.8 52.8 0 0 0 316.8 105.6 L 316.8 52.8" fill="#d1495b"/><circle cx="396" cy="79.19999999999999" r="26.4" fill="#edae49"/><circle cx="501.59999999999997" cy="79.19999999999999" r="26.4" fill="#40963c"/><path d="M 528 52.8 A 52.8 52.8 0 0 1  580.8 105.6 L 528 52.8 A 52.8 52.8 0 0 0 580.8 105.6" fill="#40963c"/><path d="M 580.8 52.8 A 52.8 52.8 0 0 1  633.5999999999999 105.6 L 580.8 52.8 A 52.8 52.8 0 0 0 633.5999999999999 105.6" fill="#40963c"/><path d="M 0 158.39999999999998 A 52.8 52.8 0 0 1  52.8 105.6 L 52.8 158.39999999999998" fill="#d1495b"/><rect x="52.8" y="105.6" width="52.8" height="52.8" fill="#f5f1ea"/><circle cx="92.4" cy="118.8" r="13.2" fill="#d1495b"/><path d="M 52.8 158.4 A 26.4 26.4 0 0 1  79.19999999999999 132 L 52.8 158.4 A 26.4 26.4 0 0 0 79.19999999999999 132" fill="#00798c"/><g transform="translate(105.6,105.6) scale(2.6399999999999997) rotate(0)"><path d="M10 0L20 10L10 20L0 10L10 0Z" fill="#30638e"/></g><path d="M 158.4 158.39999999999998 A 52.8 52.8 0 0 1  211.2 105.6 L 158.4 158.39999999999998 A 52.8 52.8 0 0 0 211.2 105.6" fill="#d1495b"/><rect x="211.2" y="105.6" width="52.8" height="52.8" fill="#30638e"/><rect x="264" y="105.6" width="52.8" height="52.8" fill="#f5f1ea"/><g transform="translate(264,132) scale(1.3199999999999998) rotate(0)"><path d="M10 0L20 10L10 20L0 10L10 0Z" fill="#edae49"/></g><circle cx="303.59999999999997" cy="145.2" r="13.2" fill="#30638e"/><rect x="316.79999999999995" y="105.6" width="52.8" height="52.8" fill="#f5f1ea"/><g transform="translate(316.8,105.6) scale(1.3199999999999998) rotate(0)"><path fill-rule="evenodd" clip-rule="evenodd" d="M10 20C15.5228 20 20 15.5228 20 10C20 4.47715 15.5228 0 10 0C4.47715 0 0 4.47715 0 10C0 15.5228 4.47715 20 10 20ZM10 17C13.866 17 17 13.866 17 10C17 6.13401 13.866 3 10 3C6.13401 3 3 6.13401 3 10C3 13.866 6.13401 17 10 17Z" fill="#d1495b"/></g><circle cx="356.4" cy="118.8" r="13.2" fill="#d1495b"/><g transform="translate(316.8,132) scale(1.3199999999999998) rotate(0)"><path d="M10 0L20 10L10 20L0 10L10 0Z" fill="#edae49"/></g><g transform="translate(343.2,132) scale(1.3199999999999998) rotate(0)"><path fill-rule="evenodd" clip-rule="evenodd" d="M10 20C15.5228 20 20 15.5228 20 10C20 4.47715 15.5228 0 10 0C4.47715 0 0 4.47715 0 10C0 15.5228 4.47715 20 10 20ZM10 17C13.866 17 17 13.866 17 10C17 6.13401 13.866 3 10 3C6.13401 3 3 6.13401 3 10C3 13.866 6.13401 17 10 17Z" fill="#00798c"/></g><rect x="369.6" y="105.6" width="52.8" height="52.8" fill="#30638e"/><path d="M 475.2 158.39999999999998 A 52.8 52.8 0 0 1  528 105.6 L 475.2 158.39999999999998 A 52.8 52.8 0 0 0 528 105.6" fill="#edae49"/><path d="M 528 158.39999999999998 A 52.8 52.8 0 0 1  580.8 105.6 L 580.8 158.39999999999998" fill="#30638e"/><circle cx="607.1999999999999" cy="132" r="26.4" fill="#d1495b"/><rect x="0" y="158.4" width="52.8" height="52.8" fill="#d1495b"/><path d="M 105.6 211.2 A 52.8 52.8 0 0 1  158.39999999999998 158.4 L 105.6 211.2 A 52.8 52.8 0 0 0 158.39999999999998 158.4" fill="#edae49"/><g transform="translate(211.2,158.4) scale(2.6399999999999997) rotate(0)"><path d="M10 0L20 10L10 20L0 10L10 0Z" fill="#30638e"/></g><rect x="264" y="158.39999999999998" width="52.8" height="52.8" fill="#f5f1ea"/><g transform="translate(264,158.4) scale(1.3199999999999998) rotate(0)"><path d="M10 0L20 10L10 20L0 10L10 0Z" fill="#00798c"/></g><rect x="290.4" y="158.4" width="26.4" height="26.4" fill="#00798c"/><path d="M 264 184.8 A 26.4 26.4 0 0 0 290.4 211.20000000000002 L 290.4 184.8" fill="#30638e"/><circle cx="303.59999999999997" cy="198" r="13.2" fill="#00798c"/><rect x="369.59999999999997" y="158.39999999999998" width="52.8" height="52.8" fill="#f5f1ea"/><path d="M 369.6 158.4 A 26.4 26.4 0 0 1  396 184.8 L 369.6 158.4 A 26.4 26.4 0 0 0 396 184.8" fill="#40963c"/><g transform="translate(396,158.4) scale(1.3199999999999998) rotate(0)"><path fill-rule="evenodd" clip-rule="evenodd" d="M10 20C15.5228 20 20 15.5228 20 10C20 4.47715 15.5228 0 10 0C4.47715 0 0 4.47715 0 10C0 15.5228 4.47715 20 10 20ZM10 17C13.866 17 17 13.866 17 10C17 6.13401 13.866 3 10 3C6.13401 3 3 6.13401 3 10C3 13.866 6.13401 17 10 17Z" fill="#d1495b"/></g><rect x="396" y="184.8" width="26.4" height="26.4" fill="#00798c"/><g transform="translate(422.4,158.4) scale(2.6399999999999997) rotate(0)"><path fill-rule="evenodd" clip-rule="evenodd" d="M10 20C15.5228 20 20 15.5228 20 10C20 4.47715 15.5228 0 10 0C4.47715 0 0 4.47715 0 10C0 15.5228 4.47715 20 10 20ZM10 17C13.866 17 17 13.866 17 10C17 6.13401 13.866 3 10 3C6.13401 3 3 6.13401 3 10C3 13.866 6.13401 17 10 17Z" fill="#40963c"/></g><g transform="translate(528,158.4) scale(2.6399999999999997) rotate(0)"><path d="M10 0L20 10L10 20L0 10L10 0Z" fill="#40963c"/></g><g transform="translate(580.8,158.4) scale(2.6399999999999997) rotate(0)"><path d="M10 0L20 10L10 20L0 10L10 0Z" fill="#00798c"/></g><g transform="translate(0,211.2) scale(2.6399999999999997) rotate(0)"><path fill-rule="evenodd" clip-rule="evenodd" d="M10 20C15.5228 20 20 15.5228 20 10C20 4.47715 15.5228 0 10 0C4.47715 0 0 4.47715 0 10C0 15.5228 4.47715 20 10 20ZM10 17C13.866 17 17 13.866 17 10C17 6.13401 13.866 3 10 3C6.13401 3 3 6.13401 3 10C3 13.866 6.13401 17 10 17Z" fill="#d1495b"/></g><rect x="105.6" y="211.2" width="52.8" height="52.8" fill="#d1495b"/><rect x="158.39999999999998" y="211.2" width="52.8" height="52.8" fill="#f5f1ea"/><path d="M 158.4 237.6 A 26.4 26.4 0 0 0 184.8 211.2 L 158.4 211.2" fill="#edae49"/><circle cx="198" cy="250.79999999999998" r="13.2" fill="#30638e"/><path d="M 211.2 211.2 A 52.8 52.8 0 0 1  264 264 L 211.2 211.2 A 52.8 52.8 0 0 0 264 264" fill="#edae49"/><rect x="264" y="211.2" width="52.8" height="52.8" fill="#f5f1ea"/><g transform="translate(264,211.2) scale(1.3199999999999998) rotate(0)"><path d="M10 0L20 10L10 20L0 10L10 0Z" fill="#d1495b"/></g><rect x="290.4" y="211.2" width="26.4" height="26.4" fill="#d1495b"/><g transform="translate(264,237.6) scale(1.3199999999999998) rotate(0)"><path fill-rule="evenodd" clip-rule="evenodd" d="M10 20C15.5228 20 20 15.5228 20 10C20 4.47715 15.5228 0 10 0C4.47715 0 0 4.47715 0 10C0 15.5228 4.47715 20 10 20ZM10 17C13.866 17 17 13.866 17 10C17 6.13401 13.866 3 10 3C6.13401 3 3 6.13401 3 10C3 13.866 6.13401 17 10 17Z" fill="#00798c"/></g><rect x="290.4" y="237.6" width="26.4" height="26.4" fill="#30638e"/><path d="M 316.8 211.2 A 52.8 52.8 0 0 1  369.6 264 L 316.8 211.2 A 52.8 52.8 0 0 0 369.6 264" fill="#d1495b"/><rect x="369.59999999999997" y="211.2" width="52.8" height="52.8" fill="#f5f1ea"/><circle cx="382.8" cy="250.79999999999998" r="13.2" fill="#40963c"/><rect x="422.4" y="211.2" width="52.8" height="52.8" fill="#00798c"/><path d="M 475.2 211.2 A 52.8 52.8 0 0 1  528 264 L 475.2 211.2 A 52.8 52.8 0 0 0 528 264" fill="#30638e"/><g transform="translate(528,211.2) scale(2.6399999999999997) rotate(0)"><path fill-rule="evenodd" clip-rule="evenodd" d="M10 20C15.5228 20 20 15.5228 20 10C20 4.47715 15.5228 0 10 0C4.47715 0 0 4.47715 0 10C0 15.5228 4.47715 20 10 20ZM10 17C13.866 17 17 13.866 17 10C17 6.13401 13.866 3 10 3C6.13401 3 3 6.13401 3 10C3 13.866 6.13401 17 10 17Z" fill="#edae49"/></g><path d="M 580.8 211.2 A 52.8 52.8 0 0 1  633.5999999999999 264 L 580.8 211.2 A 52.8 52.8 0 0 0 633.5999999999999 264" fill="#40963c"/><rect x="52.8" y="264" width="52.8" height="52.8" fill="#f5f1ea"/><circle cx="66" cy="277.2" r="13.2" fill="#40963c"/><path d="M 79.2 290.4 A 26.4 26.4 0 0 0 105.6 264 L 79.2 264" fill="#40963c"/><path d="M 52.8 316.79999999999995 A 26.4 26.4 0 0 0 79.19999999999999 290.4 L 52.8 290.4" fill="#edae49"/><rect x="211.2" y="264" width="52.8" height="52.8" fill="#f5f1ea"/><g transform="translate(211.2,264) scale(1.3199999999999998) rotate(0)"><path fill-rule="evenodd" clip-rule="evenodd" d="M10 20C15.5228 20 20 15.5228 20 10C20 4.47715 15.5228 0 10 0C4.47715 0 0 4.47715 0 10C0 15.5228 4.47715 20 10 20ZM10 17C13.866 17 17 13.866 17 10C17 6.13401 13.866 3 10 3C6.13401 3 3 6.13401 3 10C3 13.866 6.13401 17 10 17Z" fill="#40963c"/></g><circle cx="224.39999999999998" cy="303.59999999999997" r="13.2" fill="#40963c"/><path d="M 237.6 290.4 A 26.4 26.4 0 0 1  264 316.79999999999995 L 237.6 290.4 A 26.4 26.4 0 0 0 264 316.79999999999995" fill="#00798c"/><path d="M 369.6 316.8 A 52.8 52.8 0 0 1  422.40000000000003 264 L 369.6 316.8 A 52.8 52.8 0 0 0 422.40000000000003 264" fill="#30638e"/><rect x="422.4" y="264" width="52.8" height="52.8" fill="#f5f1ea"/><path d="M 422.4 264 A 26.4 26.4 0 0 1  448.79999999999995 290.4 L 422.4 264 A 26.4 26.4 0 0 0 448.79999999999995 290.4" fill="#d1495b"/><path d="M 448.8 290.4 A 26.4 26.4 0 0 1  475.2 264 L 475.2 290.4" fill="#d1495b"/><rect x="475.2" y="264" width="52.8" height="52.8" fill="#edae49"/><rect x="0" y="316.8" width="52.8" height="52.8" fill="#00798c"/><path d="M 52.8 316.8 A 52.8 52.8 0 0 1 105.6 369.6 L 52.8 369.6" fill="#edae49"/><g transform="translate(105.6,316.8) scale(2.6399999999999997) rotate(0)"><path d="M10 0L20 10L10 20L0 10L10 0Z" fill="#30638e"/></g><rect x="211.2" y="316.79999999999995" width="52.8" height="52.8" fill="#f5f1ea"/><g transform="translate(211.2,316.8) scale(1.3199999999999998) rotate(0)"><path fill-rule="evenodd" clip-rule="evenodd" d="M10 20C15.5228 20 20 15.5228 20 10C20 4.47715 15.5228 0 10 0C4.47715 0 0 4.47715 0 10C0 15.5228 4.47715 20 10 20ZM10 17C13.866 17 17 13.866 17 10C17 6.13401 13.866 3 10 3C6.13401 3 3 6.13401 3 10C3 13.866 6.13401 17 10 17Z" fill="#d1495b"/></g><path d="M 237.6 343.2 A 26.4 26.4 0 0 1  264 316.8 L 237.6 343.2 A 26.4 26.4 0 0 0 264 316.8" fill="#00798c"/><path d="M 211.2 343.2 A 26.4 26.4 0 0 1  237.6 369.59999999999997 L 211.2 343.2 A 26.4 26.4 0 0 0 237.6 369.59999999999997" fill="#00798c"/><g transform="translate(237.6,343.2) scale(1.3199999999999998) rotate(0)"><path fill-rule="evenodd" clip-rule="evenodd" d="M10 20C15.5228 20 20 15.5228 20 10C20 4.47715 15.5228 0 10 0C4.47715 0 0 4.47715 0 10C0 15.5228 4.47715 20 10 20ZM10 17C13.866 17 17 13.866 17 10C17 6.13401 13.866 3 10 3C6.13401 3 3 6.13401 3 10C3 13.866 6.13401 17 10 17Z" fill="#30638e"/></g><rect x="264" y="316.8" width="52.8" height="52.8" fill="#40963c"/><rect x="316.79999999999995" y="316.79999999999995" width="52.8" height="52.8" fill="#f5f1ea"/><g transform="translate(316.8,316.8) scale(1.3199999999999998) rotate(0)"><path fill-rule="evenodd" clip-rule="evenodd" d="M10 20C15.5228 20 20 15.5228 20 10C20 4.47715 15.5228 0 10 0C4.47715 0 0 4.47715 0 10C0 15.5228 4.47715 20 10 20ZM10 17C13.866 17 17 13.866 17 10C17 6.13401 13.866 3 10 3C6.13401 3 3 6.13401 3 10C3 13.866 6.13401 17 10 17Z" fill="#40963c"/></g><g transform="translate(343.2,343.2) scale(1.3199999999999998) rotate(0)"><path d="M10 0L20 10L10 20L0 10L10 0Z" fill="#00798c"/></g><circle cx="396" cy="343.2" r="26.4" fill="#edae49"/><rect x="422.4" y="316.79999999999995" width="52.8" height="52.8" fill="#f5f1ea"/><g transform="translate(448.8,316.8) scale(1.3199999999999998) rotate(0)"><path d="M10 0L20 10L10 20L0 10L10 0Z" fill="#40963c"/></g><circle cx="462" cy="356.4" r="13.2" fill="#edae49"/><rect x="475.2" y="316.8" width="52.8" height="52.8" fill="#30638e"/><path d="M 528 316.8 A 52.8 52.8 0 0 1  580.8 369.6 L 528 316.8 A 52.8 52.8 0 0 0 580.8 369.6" fill="#d1495b"/><g transform="translate(580.8,316.8) scale(2.6399999999999997) rotate(0)"><path d="M10 0L20 10L10 20L0 10L10 0Z" fill="#d1495b"/></g><g transform="translate(52.8,369.6) scale(2.6399999999999997) rotate(0)"><path fill-rule="evenodd" clip-rule="evenodd" d="M10 20C15.5228 20 20 15.5228 20 10C20 4.47715 15.5228 0 10 0C4.47715 0 0 4.47715 0 10C0 15.5228 4.47715 20 10 20ZM10 17C13.866 17 17 13.866 17 10C17 6.13401 13.866 3 10 3C6.13401 3 3 6.13401 3 10C3 13.866 6.13401 17 10 17Z" fill="#30638e"/></g><rect x="105.6" y="369.59999999999997" width="52.8" height="52.8" fill="#f5f1ea"/><g transform="translate(105.6,369.6) scale(1.3199999999999998) rotate(0)"><path d="M10 0L20 10L10 20L0 10L10 0Z" fill="#d1495b"/></g><path d="M 132 396 A 26.4 26.4 0 0 0 158.4 369.6 L 132 369.6" fill="#d1495b"/><path d="M 105.6 396 A 26.4 26.4 0 0 1  132 422.4 L 105.6 396 A 26.4 26.4 0 0 0 132 422.4" fill="#30638e"/><rect x="158.4" y="369.6" width="52.8" height="52.8" fill="#edae49"/><circle cx="237.6" cy="396" r="26.4" fill="#edae49"/><rect x="369.59999999999997" y="369.59999999999997" width="52.8" height="52.8" fill="#f5f1ea"/><path d="M 396 396 A 26.4 26.4 0 0 1  422.4 422.4 L 396 396 A 26.4 26.4 0 0 0 422.4 422.4" fill="#00798c"/><g transform="translate(422.4,369.6) scale(2.6399999999999997) rotate(0)"><path d="M10 0L20 10L10 20L0 10L10 0Z" fill="#00798c"/></g><g transform="translate(475.2,369.6) scale(2.6399999999999997) rotate(0)"><path fill-rule="evenodd" clip-rule="evenodd" d="M10 20C15.5228 20 20 15.5228 20 10C20 4.47715 15.5228 0 10 0C4.47715 0 0 4.47715 0 10C0 15.5228 4.47715 20 10 20ZM10 17C13.866 17 17 13.866 17 10C17 6.13401 13.866 3 10 3C6.13401 3 3 6.13401 3 10C3 13.866 6.13401 17 10 17Z" fill="#edae49"/></g><circle cx="554.4" cy="396" r="26.4" fill="#d1495b"/><circle cx="607.1999999999999" cy="396" r="26.4" fill="#40963c"/><g transform="translate(52.8,422.4) scale(2.6399999999999997) rotate(0)"><path fill-rule="evenodd" clip-rule="evenodd" d="M10 20C15.5228 20 20 15.5228 20 10C20 4.47715 15.5228 0 10 0C4.47715 0 0 4.47715 0 10C0 15.5228 4.47715 20 10 20ZM10 17C13.866 17 17 13.866 17 10C17 6.13401 13.866 3 10 3C6.13401 3 3 6.13401 3 10C3 13.866 6.13401 17 10 17Z" fill="#edae49"/></g><path d="M 105.6 475.2 A 52.8 52.8 0 0 1  158.39999999999998 422.4 L 105.6 475.2 A 52.8 52.8 0 0 0 158.39999999999998 422.4" fill="#00798c"/><circle cx="290.4" cy="448.79999999999995" r="26.4" fill="#40963c"/><rect x="316.8" y="422.4" width="52.8" height="52.8" fill="#edae49"/><circle cx="396" cy="448.79999999999995" r="26.4" fill="#edae49"/><rect x="475.2" y="422.4" width="52.8" height="52.8" fill="#f5f1ea"/><g transform="translate(475.2,422.4) scale(1.3199999999999998) rotate(0)"><path fill-rule="evenodd" clip-rule="evenodd" d="M10 20C15.5228 20 20 15.5228 20 10C20 4.47715 15.5228 0 10 0C4.47715 0 0 4.47715 0 10C0 15.5228 4.47715 20 10 20ZM10 17C13.866 17 17 13.866 17 10C17 6.13401 13.866 3 10 3C6.13401 3 3 6.13401 3 10C3 13.866 6.13401 17 10 17Z" fill="#edae49"/></g><path d="M 501.6 422.4 A 26.4 26.4 0 0 1  528 448.79999999999995 L 501.6 422.4 A 26.4 26.4 0 0 0 528 448.79999999999995" fill="#d1495b"/><path d="M 475.2 448.8 A 26.4 26.4 0 0 1  501.59999999999997 475.2 L 475.2 448.8 A 26.4 26.4 0 0 0 501.59999999999997 475.2" fill="#30638e"/><circle cx="607.1999999999999" cy="448.79999999999995" r="26.4" fill="#d1495b"/><rect x="0" y="475.2" width="52.8" height="52.8" fill="#f5f1ea"/><path d="M 0 475.2 A 26.4 26.4 0 0 0 26.4 501.59999999999997 L 26.4 475.2" fill="#30638e"/><path d="M 26.4 501.59999999999997 A 26.4 26.4 0 0 1  52.8 475.2 L 52.8 501.59999999999997" fill="#00798c"/><path d="M 0 501.6 A 26.4 26.4 0 0 0 26.4 528 L 26.4 501.6" fill="#30638e"/><g transform="translate(26.4,501.6) scale(1.3199999999999998) rotate(0)"><path d="M10 0L20 10L10 20L0 10L10 0Z" fill="#40963c"/></g><rect x="52.8" y="475.2" width="52.8" height="52.8" fill="#00798c"/><g transform="translate(158.4,475.2) scale(2.6399999999999997) rotate(0)"><path fill-rule="evenodd" clip-rule="evenodd" d="M10 20C15.5228 20 20 15.5228 20 10C20 4.47715 15.5228 0 10 0C4.47715 0 0 4.47715 0 10C0 15.5228 4.47715 20 10 20ZM10 17C13.866 17 17 13.866 17 10C17 6.13401 13.866 3 10 3C6.13401 3 3 6.13401 3 10C3 13.866 6.13401 17 10 17Z" fill="#30638e"/></g><g transform="translate(316.8,475.2) scale(2.6399999999999997) rotate(0)"><path d="M10 0L20 10L10 20L0 10L10 0Z" fill="#d1495b"/></g><path d="M 369.6 528 A 52.8 52.8 0 0 1  422.40000000000003 475.2 L 369.6 528 A 52.8 52.8 0 0 0 422.40000000000003 475.2" fill="#00798c"/><path d="M 422.4 528 A 52.8 52.8 0 0 1  475.2 475.2 L 422.4 528 A 52.8 52.8 0 0 0 475.2 475.2" fill="#d1495b"/><rect x="475.2" y="475.2" width="52.8" height="52.8" fill="#30638e"/><circle cx="554.4" cy="501.59999999999997" r="26.4" fill="#30638e"/></g></svg>