<svg xmlns="http://www.w3.org/2000/svg" width="1200" height="600"><path d="M578,285L572,214L507,287Z" fill="rgb(108,106,155)" stroke="rgb(108,106,155)" stroke-width="1.51"/><path d="M572,214L464,218L507,287Z" fill="rgb(94,90,146)" stroke="rgb(94,90,146)" stroke-width="1.51"/><path d="M572,214L486,184L464,218Z" fill="rgb(118,99,135)" stroke="rgb(118,99,135)" stroke-width="1.51"/><path d="M568,391L642,316L578,285Z" fill="rgb(139,144,176)" stroke="rgb(139,144,176)" stroke-width="1.51"/><path d="M464,218L459,304L507,287Z" fill="rgb(99,95,148)" stroke="rgb(99,95,148)" stroke-width="1.51"/><path d="M464,218L352,292L459,304Z" fill="rgb(119,104,141)" stroke="rgb(119,104,141)" stroke-width="1.51"/><path d="M486,184L456,173L464,218Z" fill="rgb(127,99,126)" stroke="rgb(127,99,126)" stroke-width="1.51"/><path d="M500,122L456,173L486,184Z" fill="rgb(143,108,118)" stroke="rgb(143,108,118)" stroke-width="1.51"/><path d="M578,285L666,202L572,214Z" fill="rgb(115,110,154)" stroke="rgb(115,110,154)" stroke-width="1.51"/><path d="M568,391L578,285L507,287Z" fill="rgb(128,131,168)" stroke="rgb(128,131,168)" stroke-width="1.51"/><path d="M572,214L579,128L486,184Z" fill="rgb(144,116,130)" stroke="rgb(144,116,130)" stroke-width="1.51"/><path d="M666,202L579,128L572,214Z" fill="rgb(151,127,139)" stroke="rgb(151,127,139)" stroke-width="1.51"/><path d="M642,316L666,202L578,285Z" fill="rgb(123,124,165)" stroke="rgb(123,124,165)" stroke-width="1.51"/><path d="M579,128L500,122L486,184Z" fill="rgb(159,121,118)" stroke="rgb(159,121,118)" stroke-width="1.51"/><path d="M459,304L454,362L507,287Z" fill="rgb(117,115,159)" stroke="rgb(117,115,159)" stroke-width="1.51"/><path d="M352,292L454,362L459,304Z" fill="rgb(136,124,151)" stroke="rgb(136,124,151)" stroke-width="1.51"/><path d="M497,406L568,391L507,287Z" fill="rgb(136,141,174)" stroke="rgb(136,141,174)" stroke-width="1.51"/><path d="M454,362L497,406L507,287Z" fill="rgb(127,130,168)" stroke="rgb(127,130,168)" stroke-width="1.51"/><path d="M579,128L586,84L500,122Z" fill="rgb(173,136,114)" stroke="rgb(173,136,114)" stroke-width="1.51"/><path d="M663,109L586,84L579,128Z" fill="rgb(180,148,120)" stroke="rgb(180,148,120)" stroke-width="1.51"/><path d="M568,391L661,383L642,316Z" fill="rgb(152,161,185)" stroke="rgb(152,161,185)" stroke-width="1.51"/><path d="M642,316L745,227L666,202Z" fill="rgb(126,128,167)" stroke="rgb(126,128,167)" stroke-width="1.51"/><path d="M629,477L661,383L568,391Z" fill="rgb(125,133,173)" stroke="rgb(125,133,173)" stroke-width="1.51"/><path d="M500,122L390,116L456,173Z" fill="rgb(164,120,106)" stroke="rgb(164,120,106)" stroke-width="1.51"/><path d="M586,84L487,73L500,122Z" fill="rgb(157,130,112)" stroke="rgb(157,130,112)" stroke-width="1.51"/><path d="M666,202L663,109L579,128Z" fill="rgb(177,145,131)" stroke="rgb(177,145,131)" stroke-width="1.51"/><path d="M328,248L352,292L464,218Z" fill="rgb(128,103,131)" stroke="rgb(128,103,131)" stroke-width="1.51"/><path d="M454,362L392,432L497,406Z" fill="rgb(122,118,156)" stroke="rgb(122,118,156)" stroke-width="1.51"/><path d="M328,248L464,218L456,173Z" fill="rgb(130,100,125)" stroke="rgb(130,100,125)" stroke-width="1.51"/><path d="M497,406L548,452L568,391Z" fill="rgb(111,116,163)" stroke="rgb(111,116,163)" stroke-width="1.51"/><path d="M432,490L548,452L497,406Z" fill="rgb(86,92,150)" stroke="rgb(86,92,150)" stroke-width="1.51"/><path d="M487,73L390,116L500,122Z" fill="rgb(162,124,103)" stroke="rgb(162,124,103)" stroke-width="1.51"/><path d="M765,300L745,227L642,316Z" fill="rgb(143,149,178)" stroke="rgb(143,149,178)" stroke-width="1.51"/><path d="M666,202L767,109L663,109Z" fill="rgb(191,162,134)" stroke="rgb(191,162,134)" stroke-width="1.51"/><path d="M352,292L379,387L454,362Z" fill="rgb(155,140,153)" stroke="rgb(155,140,153)" stroke-width="1.51"/><path d="M390,116L328,248L456,173Z" fill="rgb(157,115,111)" stroke="rgb(157,115,111)" stroke-width="1.51"/><path d="M352,292L275,328L379,387Z" fill="rgb(170,146,141)" stroke="rgb(170,146,141)" stroke-width="1.51"/><path d="M661,383L765,300L642,316Z" fill="rgb(156,165,188)" stroke="rgb(156,165,188)" stroke-width="1.51"/><path d="M379,387L392,432L454,362Z" fill="rgb(139,127,151)" stroke="rgb(139,127,151)" stroke-width="1.51"/><path d="M276,457L392,432L379,387Z" fill="rgb(144,121,135)" stroke="rgb(144,121,135)" stroke-width="1.51"/><path d="M487,73L432,43L390,116Z" fill="rgb(153,127,101)" stroke="rgb(153,127,101)" stroke-width="1.51"/><path d="M433,-14L432,43L487,73Z" fill="rgb(124,122,108)" stroke="rgb(124,122,108)" stroke-width="1.51"/><path d="M548,452L629,477L568,391Z" fill="rgb(108,113,163)" stroke="rgb(108,113,163)" stroke-width="1.51"/><path d="M661,383L747,405L765,300Z" fill="rgb(168,181,196)" stroke="rgb(168,181,196)" stroke-width="1.51"/><path d="M580,506L629,477L548,452Z" fill="rgb(88,96,155)" stroke="rgb(88,96,155)" stroke-width="1.51"/><path d="M663,109L700,58L586,84Z" fill="rgb(173,156,126)" stroke="rgb(173,156,126)" stroke-width="1.51"/><path d="M510,-48L433,-14L487,73Z" fill="rgb(96,116,114)" stroke="rgb(96,116,114)" stroke-width="1.51"/><path d="M767,109L700,58L663,109Z" fill="rgb(188,170,131)" stroke="rgb(188,170,131)" stroke-width="1.51"/><path d="M767,109L666,202L745,227Z" fill="rgb(170,151,150)" stroke="rgb(170,151,150)" stroke-width="1.51"/><path d="M328,248L275,328L352,292Z" fill="rgb(160,129,129)" stroke="rgb(160,129,129)" stroke-width="1.51"/><path d="M254,102L288,244L328,248Z" fill="rgb(174,127,100)" stroke="rgb(174,127,100)" stroke-width="1.51"/><path d="M254,102L328,248L390,116Z" fill="rgb(188,135,91)" stroke="rgb(188,135,91)" stroke-width="1.51"/><path d="M649,495L747,405L661,383Z" fill="rgb(131,142,178)" stroke="rgb(131,142,178)" stroke-width="1.51"/><path d="M535,569L580,506L548,452Z" fill="rgb(99,95,153)" stroke="rgb(99,95,153)" stroke-width="1.51"/><path d="M432,43L352,78L390,116Z" fill="rgb(166,134,94)" stroke="rgb(166,134,94)" stroke-width="1.51"/><path d="M392,432L432,490L497,406Z" fill="rgb(104,98,145)" stroke="rgb(104,98,145)" stroke-width="1.51"/><path d="M580,506L649,495L629,477Z" fill="rgb(101,105,159)" stroke="rgb(101,105,159)" stroke-width="1.51"/><path d="M629,477L649,495L661,383Z" fill="rgb(113,122,168)" stroke="rgb(113,122,168)" stroke-width="1.51"/><path d="M865,150L767,109L745,227Z" fill="rgb(165,140,137)" stroke="rgb(165,140,137)" stroke-width="1.51"/><path d="M288,244L275,328L328,248Z" fill="rgb(161,125,121)" stroke="rgb(161,125,121)" stroke-width="1.51"/><path d="M372,529L402,539L432,490Z" fill="rgb(121,94,134)" stroke="rgb(121,94,134)" stroke-width="1.51"/><path d="M765,300L823,254L745,227Z" fill="rgb(122,126,167)" stroke="rgb(122,126,167)" stroke-width="1.51"/><path d="M809,355L823,254L765,300Z" fill="rgb(132,138,175)" stroke="rgb(132,138,175)" stroke-width="1.51"/><path d="M747,405L809,355L765,300Z" fill="rgb(155,167,190)" stroke="rgb(155,167,190)" stroke-width="1.51"/><path d="M794,432L809,355L747,405Z" fill="rgb(137,148,182)" stroke="rgb(137,148,182)" stroke-width="1.51"/><path d="M432,43L392,-49L352,78Z" fill="rgb(134,131,99)" stroke="rgb(134,131,99)" stroke-width="1.51"/><path d="M510,-48L487,73L586,84Z" fill="rgb(124,127,117)" stroke="rgb(124,127,117)" stroke-width="1.51"/><path d="M732,513L794,432L747,405Z" fill="rgb(117,128,173)" stroke="rgb(117,128,173)" stroke-width="1.51"/><path d="M580,506L654,519L649,495Z" fill="rgb(111,110,161)" stroke="rgb(111,110,161)" stroke-width="1.51"/><path d="M594,582L654,519L580,506Z" fill="rgb(125,112,162)" stroke="rgb(125,112,162)" stroke-width="1.51"/><path d="M700,58L676,-8L586,84Z" fill="rgb(149,155,129)" stroke="rgb(149,155,129)" stroke-width="1.51"/><path d="M722,-16L676,-8L700,58Z" fill="rgb(134,162,137)" stroke="rgb(134,162,137)" stroke-width="1.51"/><path d="M275,328L262,348L379,387Z" fill="rgb(185,159,140)" stroke="rgb(185,159,140)" stroke-width="1.51"/><path d="M216,286L262,348L275,328Z" fill="rgb(190,154,124)" stroke="rgb(190,154,124)" stroke-width="1.51"/><path d="M606,-46L510,-48L586,84Z" fill="rgb(105,133,124)" stroke="rgb(105,133,124)" stroke-width="1.51"/><path d="M865,150L786,73L767,109Z" fill="rgb(181,150,122)" stroke="rgb(181,150,122)" stroke-width="1.51"/><path d="M767,109L786,73L700,58Z" fill="rgb(175,163,130)" stroke="rgb(175,163,130)" stroke-width="1.51"/><path d="M676,-8L606,-46L586,84Z" fill="rgb(121,146,129)" stroke="rgb(121,146,129)" stroke-width="1.51"/><path d="M732,513L747,405L649,495Z" fill="rgb(114,125,171)" stroke="rgb(114,125,171)" stroke-width="1.51"/><path d="M432,490L535,569L548,452Z" fill="rgb(87,84,147)" stroke="rgb(87,84,147)" stroke-width="1.51"/><path d="M432,490L402,539L535,569Z" fill="rgb(109,89,142)" stroke="rgb(109,89,142)" stroke-width="1.51"/><path d="M372,529L432,490L392,432Z" fill="rgb(104,87,131)" stroke="rgb(104,87,131)" stroke-width="1.51"/><path d="M606,-46L590,-63L510,-48Z" fill="rgb(105,134,124)" stroke="rgb(105,134,124)" stroke-width="1.51"/><path d="M698,-136L590,-63L606,-46Z" fill="rgb(115,147,131)" stroke="rgb(115,147,131)" stroke-width="1.51"/><path d="M680,607L732,513L654,519Z" fill="rgb(144,131,171)" stroke="rgb(144,131,171)" stroke-width="1.51"/><path d="M654,519L732,513L649,495Z" fill="rgb(122,121,167)" stroke="rgb(122,121,167)" stroke-width="1.51"/><path d="M676,-8L698,-136L606,-46Z" fill="rgb(120,153,133)" stroke="rgb(120,153,133)" stroke-width="1.51"/><path d="M786,73L722,-16L700,58Z" fill="rgb(152,165,135)" stroke="rgb(152,165,135)" stroke-width="1.51"/><path d="M352,78L254,102L390,116Z" fill="rgb(192,145,80)" stroke="rgb(192,145,80)" stroke-width="1.51"/><path d="M288,244L216,286L275,328Z" fill="rgb(175,137,118)" stroke="rgb(175,137,118)" stroke-width="1.51"/><path d="M250,88L254,102L352,78Z" fill="rgb(199,154,70)" stroke="rgb(199,154,70)" stroke-width="1.51"/><path d="M276,457L372,529L392,432Z" fill="rgb(123,98,124)" stroke="rgb(123,98,124)" stroke-width="1.51"/><path d="M262,348L276,457L379,387Z" fill="rgb(171,142,134)" stroke="rgb(171,142,134)" stroke-width="1.51"/><path d="M184,223L216,286L288,244Z" fill="rgb(166,126,108)" stroke="rgb(166,126,108)" stroke-width="1.51"/><path d="M535,569L594,582L580,506Z" fill="rgb(127,107,158)" stroke="rgb(127,107,158)" stroke-width="1.51"/><path d="M254,102L184,223L288,244Z" fill="rgb(191,137,88)" stroke="rgb(191,137,88)" stroke-width="1.51"/><path d="M255,10L250,88L352,78Z" fill="rgb(182,153,74)" stroke="rgb(182,153,74)" stroke-width="1.51"/><path d="M194,440L276,457L262,348Z" fill="rgb(180,144,120)" stroke="rgb(180,144,120)" stroke-width="1.51"/><path d="M433,-14L392,-49L432,43Z" fill="rgb(112,125,105)" stroke="rgb(112,125,105)" stroke-width="1.51"/><path d="M407,-96L392,-49L433,-14Z" fill="rgb(114,127,104)" stroke="rgb(114,127,104)" stroke-width="1.51"/><path d="M407,-96L433,-14L510,-48Z" fill="rgb(102,120,110)" stroke="rgb(102,120,110)" stroke-width="1.51"/><path d="M809,355L873,318L823,254Z" fill="rgb(125,132,173)" stroke="rgb(125,132,173)" stroke-width="1.51"/><path d="M823,254L865,150L745,227Z" fill="rgb(130,119,150)" stroke="rgb(130,119,150)" stroke-width="1.51"/><path d="M905,413L873,318L809,355Z" fill="rgb(135,146,181)" stroke="rgb(135,146,181)" stroke-width="1.51"/><path d="M886,143L865,150L922,218Z" fill="rgb(138,112,129)" stroke="rgb(138,112,129)" stroke-width="1.51"/><path d="M786,73L842,-3L722,-16Z" fill="rgb(128,151,132)" stroke="rgb(128,151,132)" stroke-width="1.51"/><path d="M590,-63L546,-92L510,-48Z" fill="rgb(102,130,122)" stroke="rgb(102,130,122)" stroke-width="1.51"/><path d="M698,-136L546,-92L590,-63Z" fill="rgb(112,143,128)" stroke="rgb(112,143,128)" stroke-width="1.51"/><path d="M165,145L184,223L254,102Z" fill="rgb(198,149,76)" stroke="rgb(198,149,76)" stroke-width="1.51"/><path d="M216,286L165,356L262,348Z" fill="rgb(188,160,124)" stroke="rgb(188,160,124)" stroke-width="1.51"/><path d="M888,46L869,22L786,73Z" fill="rgb(133,136,123)" stroke="rgb(133,136,123)" stroke-width="1.51"/><path d="M922,218L865,150L823,254Z" fill="rgb(118,105,143)" stroke="rgb(118,105,143)" stroke-width="1.51"/><path d="M250,88L216,76L254,102Z" fill="rgb(210,162,59)" stroke="rgb(210,162,59)" stroke-width="1.51"/><path d="M255,10L216,76L250,88Z" fill="rgb(193,160,63)" stroke="rgb(193,160,63)" stroke-width="1.51"/><path d="M392,-49L255,10L352,78Z" fill="rgb(145,141,89)" stroke="rgb(145,141,89)" stroke-width="1.51"/><path d="M546,-92L407,-96L510,-48Z" fill="rgb(93,117,116)" stroke="rgb(93,117,116)" stroke-width="1.51"/><path d="M328,-114L255,10L392,-49Z" fill="rgb(139,142,88)" stroke="rgb(139,142,88)" stroke-width="1.51"/><path d="M794,432L905,413L809,355Z" fill="rgb(122,134,175)" stroke="rgb(122,134,175)" stroke-width="1.51"/><path d="M732,513L837,487L794,432Z" fill="rgb(95,108,163)" stroke="rgb(95,108,163)" stroke-width="1.51"/><path d="M835,522L837,487L732,513Z" fill="rgb(108,109,163)" stroke="rgb(108,109,163)" stroke-width="1.51"/><path d="M594,582L680,607L654,519Z" fill="rgb(149,126,167)" stroke="rgb(149,126,167)" stroke-width="1.51"/><path d="M668,664L680,607L594,582Z" fill="rgb(166,134,170)" stroke="rgb(166,134,170)" stroke-width="1.51"/><path d="M519,633L594,582L535,569Z" fill="rgb(146,112,159)" stroke="rgb(146,112,159)" stroke-width="1.51"/><path d="M445,653L519,633L535,569Z" fill="rgb(140,103,153)" stroke="rgb(140,103,153)" stroke-width="1.51"/><path d="M445,653L535,569L402,539Z" fill="rgb(136,99,147)" stroke="rgb(136,99,147)" stroke-width="1.51"/><path d="M873,318L922,218L823,254Z" fill="rgb(100,105,157)" stroke="rgb(100,105,157)" stroke-width="1.51"/><path d="M954,324L922,218L873,318Z" fill="rgb(96,104,158)" stroke="rgb(96,104,158)" stroke-width="1.51"/><path d="M129,310L165,356L216,286Z" fill="rgb(171,153,124)" stroke="rgb(171,153,124)" stroke-width="1.51"/><path d="M184,223L129,310L216,286Z" fill="rgb(158,133,115)" stroke="rgb(158,133,115)" stroke-width="1.51"/><path d="M216,76L165,145L254,102Z" fill="rgb(212,162,58)" stroke="rgb(212,162,58)" stroke-width="1.51"/><path d="M142,103L165,145L216,76Z" fill="rgb(202,161,61)" stroke="rgb(202,161,61)" stroke-width="1.51"/><path d="M722,-16L698,-136L676,-8Z" fill="rgb(125,161,137)" stroke="rgb(125,161,137)" stroke-width="1.51"/><path d="M869,22L842,-3L786,73Z" fill="rgb(126,139,126)" stroke="rgb(126,139,126)" stroke-width="1.51"/><path d="M786,73L865,150L888,46Z" fill="rgb(160,139,120)" stroke="rgb(160,139,120)" stroke-width="1.51"/><path d="M276,457L273,554L372,529Z" fill="rgb(148,107,119)" stroke="rgb(148,107,119)" stroke-width="1.51"/><path d="M324,628L445,653L402,539Z" fill="rgb(165,113,138)" stroke="rgb(165,113,138)" stroke-width="1.51"/><path d="M165,356L194,440L262,348Z" fill="rgb(186,162,127)" stroke="rgb(186,162,127)" stroke-width="1.51"/><path d="M837,487L905,413L794,432Z" fill="rgb(98,110,164)" stroke="rgb(98,110,164)" stroke-width="1.51"/><path d="M837,487L908,497L905,413Z" fill="rgb(76,91,155)" stroke="rgb(76,91,155)" stroke-width="1.51"/><path d="M780,629L835,522L732,513Z" fill="rgb(139,124,168)" stroke="rgb(139,124,168)" stroke-width="1.51"/><path d="M888,46L865,150L886,143Z" fill="rgb(166,131,115)" stroke="rgb(166,131,115)" stroke-width="1.51"/><path d="M997,109L888,46L886,143Z" fill="rgb(148,120,111)" stroke="rgb(148,120,111)" stroke-width="1.51"/><path d="M198,561L273,554L276,457Z" fill="rgb(170,119,111)" stroke="rgb(170,119,111)" stroke-width="1.51"/><path d="M631,720L668,664L594,582Z" fill="rgb(163,130,168)" stroke="rgb(163,130,168)" stroke-width="1.51"/><path d="M324,628L402,539L372,529Z" fill="rgb(156,109,132)" stroke="rgb(156,109,132)" stroke-width="1.51"/><path d="M165,356L148,399L194,440Z" fill="rgb(168,151,126)" stroke="rgb(168,151,126)" stroke-width="1.51"/><path d="M95,184L129,310L184,223Z" fill="rgb(136,120,109)" stroke="rgb(136,120,109)" stroke-width="1.51"/><path d="M905,413L954,324L873,318Z" fill="rgb(121,132,174)" stroke="rgb(121,132,174)" stroke-width="1.51"/><path d="M922,218L997,109L886,143Z" fill="rgb(137,106,121)" stroke="rgb(137,106,121)" stroke-width="1.51"/><path d="M783,-118L698,-136L722,-16Z" fill="rgb(125,162,138)" stroke="rgb(125,162,138)" stroke-width="1.51"/><path d="M546,-92L698,-136L407,-96Z" fill="rgb(103,130,122)" stroke="rgb(103,130,122)" stroke-width="1.51"/><path d="M129,310L148,399L165,356Z" fill="rgb(177,169,132)" stroke="rgb(177,169,132)" stroke-width="1.51"/><path d="M194,440L198,561L276,457Z" fill="rgb(150,112,108)" stroke="rgb(150,112,108)" stroke-width="1.51"/><path d="M407,-96L328,-114L392,-49Z" fill="rgb(125,133,98)" stroke="rgb(125,133,98)" stroke-width="1.51"/><path d="M128,0L142,103L216,76Z" fill="rgb(172,158,68)" stroke="rgb(172,158,68)" stroke-width="1.51"/><path d="M698,-136L328,-114L407,-96Z" fill="rgb(93,116,114)" stroke="rgb(93,116,114)" stroke-width="1.51"/><path d="M842,-3L804,-81L722,-16Z" fill="rgb(113,148,133)" stroke="rgb(113,148,133)" stroke-width="1.51"/><path d="M893,-53L804,-81L842,-3Z" fill="rgb(101,134,127)" stroke="rgb(101,134,127)" stroke-width="1.51"/><path d="M893,-53L842,-3L869,22Z" fill="rgb(96,128,125)" stroke="rgb(96,128,125)" stroke-width="1.51"/><path d="M217,-31L216,76L255,10Z" fill="rgb(168,158,69)" stroke="rgb(168,158,69)" stroke-width="1.51"/><path d="M165,145L95,184L184,223Z" fill="rgb(170,138,89)" stroke="rgb(170,138,89)" stroke-width="1.51"/><path d="M680,607L780,629L732,513Z" fill="rgb(167,143,176)" stroke="rgb(167,143,176)" stroke-width="1.51"/><path d="M631,720L594,582L519,633Z" fill="rgb(154,120,162)" stroke="rgb(154,120,162)" stroke-width="1.51"/><path d="M328,-114L217,-31L255,10Z" fill="rgb(154,152,77)" stroke="rgb(154,152,77)" stroke-width="1.51"/><path d="M284,640L324,628L273,554Z" fill="rgb(193,129,122)" stroke="rgb(193,129,122)" stroke-width="1.51"/><path d="M273,554L324,628L372,529Z" fill="rgb(171,117,125)" stroke="rgb(171,117,125)" stroke-width="1.51"/><path d="M835,522L908,497L837,487Z" fill="rgb(89,94,155)" stroke="rgb(89,94,155)" stroke-width="1.51"/><path d="M1011,405L995,325L954,324Z" fill="rgb(116,122,169)" stroke="rgb(116,122,169)" stroke-width="1.51"/><path d="M927,541L908,497L835,522Z" fill="rgb(92,91,153)" stroke="rgb(92,91,153)" stroke-width="1.51"/><path d="M804,-81L783,-118L722,-16Z" fill="rgb(118,153,135)" stroke="rgb(118,153,135)" stroke-width="1.51"/><path d="M915,-70L783,-118L804,-81Z" fill="rgb(103,137,128)" stroke="rgb(103,137,128)" stroke-width="1.51"/><path d="M995,325L984,225L954,324Z" fill="rgb(92,97,154)" stroke="rgb(92,97,154)" stroke-width="1.51"/><path d="M954,324L984,225L922,218Z" fill="rgb(75,82,147)" stroke="rgb(75,82,147)" stroke-width="1.51"/><path d="M668,664L780,629L680,607Z" fill="rgb(176,147,177)" stroke="rgb(176,147,177)" stroke-width="1.51"/><path d="M60,143L95,184L142,103Z" fill="rgb(177,151,75)" stroke="rgb(177,151,75)" stroke-width="1.51"/><path d="M142,103L95,184L165,145Z" fill="rgb(186,152,74)" stroke="rgb(186,152,74)" stroke-width="1.51"/><path d="M39,424L119,459L148,399Z" fill="rgb(134,135,122)" stroke="rgb(134,135,122)" stroke-width="1.51"/><path d="M445,653L504,704L519,633Z" fill="rgb(138,101,152)" stroke="rgb(138,101,152)" stroke-width="1.51"/><path d="M403,700L504,704L445,653Z" fill="rgb(146,103,147)" stroke="rgb(146,103,147)" stroke-width="1.51"/><path d="M1011,405L954,324L905,413Z" fill="rgb(102,113,166)" stroke="rgb(102,113,166)" stroke-width="1.51"/><path d="M107,519L198,561L194,440Z" fill="rgb(144,117,111)" stroke="rgb(144,117,111)" stroke-width="1.51"/><path d="M324,628L403,700L445,653Z" fill="rgb(165,113,138)" stroke="rgb(165,113,138)" stroke-width="1.51"/><path d="M198,561L284,640L273,554Z" fill="rgb(197,133,114)" stroke="rgb(197,133,114)" stroke-width="1.51"/><path d="M915,-70L893,-53L1001,53Z" fill="rgb(81,112,118)" stroke="rgb(81,112,118)" stroke-width="1.51"/><path d="M888,46L893,-53L869,22Z" fill="rgb(97,125,123)" stroke="rgb(97,125,123)" stroke-width="1.51"/><path d="M927,541L962,457L908,497Z" fill="rgb(66,77,146)" stroke="rgb(66,77,146)" stroke-width="1.51"/><path d="M908,497L962,457L905,413Z" fill="rgb(69,86,152)" stroke="rgb(69,86,152)" stroke-width="1.51"/><path d="M334,701L403,700L324,628Z" fill="rgb(176,119,132)" stroke="rgb(176,119,132)" stroke-width="1.51"/><path d="M31,384L148,399L129,310Z" fill="rgb(162,167,135)" stroke="rgb(162,167,135)" stroke-width="1.51"/><path d="M148,399L119,459L194,440Z" fill="rgb(148,133,119)" stroke="rgb(148,133,119)" stroke-width="1.51"/><path d="M328,-114L266,-130L217,-31Z" fill="rgb(153,151,78)" stroke="rgb(153,151,78)" stroke-width="1.51"/><path d="M128,0L87,88L142,103Z" fill="rgb(163,157,71)" stroke="rgb(163,157,71)" stroke-width="1.51"/><path d="M698,-136L266,-130L328,-114Z" fill="rgb(109,124,107)" stroke="rgb(109,124,107)" stroke-width="1.51"/><path d="M668,664L742,736L780,629Z" fill="rgb(176,147,177)" stroke="rgb(176,147,177)" stroke-width="1.51"/><path d="M504,704L631,720L519,633Z" fill="rgb(149,114,159)" stroke="rgb(149,114,159)" stroke-width="1.51"/><path d="M225,732L631,720L504,704Z" fill="rgb(145,103,147)" stroke="rgb(145,103,147)" stroke-width="1.51"/><path d="M984,225L997,109L922,218Z" fill="rgb(115,92,127)" stroke="rgb(115,92,127)" stroke-width="1.51"/><path d="M1048,131L997,109L984,225Z" fill="rgb(143,105,119)" stroke="rgb(143,105,119)" stroke-width="1.51"/><path d="M225,732L291,663L284,640Z" fill="rgb(201,133,118)" stroke="rgb(201,133,118)" stroke-width="1.51"/><path d="M284,640L291,663L324,628Z" fill="rgb(192,128,123)" stroke="rgb(192,128,123)" stroke-width="1.51"/><path d="M886,626L927,541L835,522Z" fill="rgb(119,101,158)" stroke="rgb(119,101,158)" stroke-width="1.51"/><path d="M846,647L835,522L780,629Z" fill="rgb(154,124,167)" stroke="rgb(154,124,167)" stroke-width="1.51"/><path d="M128,0L216,76L217,-31Z" fill="rgb(154,156,72)" stroke="rgb(154,156,72)" stroke-width="1.51"/><path d="M87,-84L128,0L217,-31Z" fill="rgb(132,153,76)" stroke="rgb(132,153,76)" stroke-width="1.51"/><path d="M266,-130L228,-117L217,-31Z" fill="rgb(160,157,71)" stroke="rgb(160,157,71)" stroke-width="1.51"/><path d="M893,-53L915,-70L804,-81Z" fill="rgb(96,128,125)" stroke="rgb(96,128,125)" stroke-width="1.51"/><path d="M1001,53L893,-53L888,46Z" fill="rgb(95,115,118)" stroke="rgb(95,115,118)" stroke-width="1.51"/><path d="M995,325L1050,285L984,225Z" fill="rgb(98,95,153)" stroke="rgb(98,95,153)" stroke-width="1.51"/><path d="M962,457L1011,405L905,413Z" fill="rgb(77,92,155)" stroke="rgb(77,92,155)" stroke-width="1.51"/><path d="M1042,495L1011,405L962,457Z" fill="rgb(77,84,150)" stroke="rgb(77,84,150)" stroke-width="1.51"/><path d="M87,88L60,143L142,103Z" fill="rgb(183,159,66)" stroke="rgb(183,159,66)" stroke-width="1.51"/><path d="M15,321L31,384L129,310Z" fill="rgb(142,159,133)" stroke="rgb(142,159,133)" stroke-width="1.51"/><path d="M56,79L60,143L87,88Z" fill="rgb(170,158,69)" stroke="rgb(170,158,69)" stroke-width="1.51"/><path d="M291,663L334,701L324,628Z" fill="rgb(187,125,126)" stroke="rgb(187,125,126)" stroke-width="1.51"/><path d="M403,700L225,732L504,704Z" fill="rgb(169,115,135)" stroke="rgb(169,115,135)" stroke-width="1.51"/><path d="M850,700L846,647L780,629Z" fill="rgb(153,123,166)" stroke="rgb(153,123,166)" stroke-width="1.51"/><path d="M997,109L1001,53L888,46Z" fill="rgb(123,110,111)" stroke="rgb(123,110,111)" stroke-width="1.51"/><path d="M1059,48L1001,53L997,109Z" fill="rgb(138,116,112)" stroke="rgb(138,116,112)" stroke-width="1.51"/><path d="M198,561L173,592L284,640Z" fill="rgb(201,137,114)" stroke="rgb(201,137,114)" stroke-width="1.51"/><path d="M291,663L225,732L334,701Z" fill="rgb(196,130,120)" stroke="rgb(196,130,120)" stroke-width="1.51"/><path d="M144,595L173,592L198,561Z" fill="rgb(181,134,115)" stroke="rgb(181,134,115)" stroke-width="1.51"/><path d="M846,647L886,626L835,522Z" fill="rgb(145,115,163)" stroke="rgb(145,115,163)" stroke-width="1.51"/><path d="M927,541L976,576L962,457Z" fill="rgb(77,76,146)" stroke="rgb(77,76,146)" stroke-width="1.51"/><path d="M1090,346L1050,285L995,325Z" fill="rgb(122,115,164)" stroke="rgb(122,115,164)" stroke-width="1.51"/><path d="M119,459L107,519L194,440Z" fill="rgb(126,113,112)" stroke="rgb(126,113,112)" stroke-width="1.51"/><path d="M39,424L107,519L119,459Z" fill="rgb(112,114,115)" stroke="rgb(112,114,115)" stroke-width="1.51"/><path d="M8,-23L56,79L128,0Z" fill="rgb(119,152,79)" stroke="rgb(119,152,79)" stroke-width="1.51"/><path d="M128,0L56,79L87,88Z" fill="rgb(150,156,73)" stroke="rgb(150,156,73)" stroke-width="1.51"/><path d="M1050,285L1061,252L984,225Z" fill="rgb(95,87,148)" stroke="rgb(95,87,148)" stroke-width="1.51"/><path d="M1122,329L1061,252L1050,285Z" fill="rgb(120,106,158)" stroke="rgb(120,106,158)" stroke-width="1.51"/><path d="M1061,252L1048,131L984,225Z" fill="rgb(118,93,134)" stroke="rgb(118,93,134)" stroke-width="1.51"/><path d="M631,720L742,736L668,664Z" fill="rgb(171,141,174)" stroke="rgb(171,141,174)" stroke-width="1.51"/><path d="M846,647L917,670L886,626Z" fill="rgb(139,108,160)" stroke="rgb(139,108,160)" stroke-width="1.51"/><path d="M225,732L742,736L631,720Z" fill="rgb(146,109,157)" stroke="rgb(146,109,157)" stroke-width="1.51"/><path d="M107,519L144,595L198,561Z" fill="rgb(163,128,114)" stroke="rgb(163,128,114)" stroke-width="1.51"/><path d="M173,592L225,732L284,640Z" fill="rgb(204,138,113)" stroke="rgb(204,138,113)" stroke-width="1.51"/><path d="M129,310L95,184L6,239Z" fill="rgb(119,119,113)" stroke="rgb(119,119,113)" stroke-width="1.51"/><path d="M15,321L129,310L6,239Z" fill="rgb(125,138,123)" stroke="rgb(125,138,123)" stroke-width="1.51"/><path d="M107,519L69,550L144,595Z" fill="rgb(149,126,116)" stroke="rgb(149,126,116)" stroke-width="1.51"/><path d="M6,239L95,184L60,143Z" fill="rgb(141,134,95)" stroke="rgb(141,134,95)" stroke-width="1.51"/><path d="M-16,371L39,424L31,384Z" fill="rgb(121,150,132)" stroke="rgb(121,150,132)" stroke-width="1.51"/><path d="M31,384L39,424L148,399Z" fill="rgb(136,146,128)" stroke="rgb(136,146,128)" stroke-width="1.51"/><path d="M-18,205L6,239L60,143Z" fill="rgb(125,130,100)" stroke="rgb(125,130,100)" stroke-width="1.51"/><path d="M981,594L976,576L886,626Z" fill="rgb(123,92,153)" stroke="rgb(123,92,153)" stroke-width="1.51"/><path d="M886,626L976,576L927,541Z" fill="rgb(118,93,153)" stroke="rgb(118,93,153)" stroke-width="1.51"/><path d="M1011,405L1090,346L995,325Z" fill="rgb(132,130,172)" stroke="rgb(132,130,172)" stroke-width="1.51"/><path d="M742,736L850,700L780,629Z" fill="rgb(161,131,170)" stroke="rgb(161,131,170)" stroke-width="1.51"/><path d="M976,576L1042,495L962,457Z" fill="rgb(77,75,146)" stroke="rgb(77,75,146)" stroke-width="1.51"/><path d="M1048,131L1059,48L997,109Z" fill="rgb(156,119,111)" stroke="rgb(156,119,111)" stroke-width="1.51"/><path d="M1001,53L1033,-25L915,-70Z" fill="rgb(82,109,116)" stroke="rgb(82,109,116)" stroke-width="1.51"/><path d="M1135,15L1059,48L1048,131Z" fill="rgb(149,123,114)" stroke="rgb(149,123,114)" stroke-width="1.51"/><path d="M1042,495L1090,346L1011,405Z" fill="rgb(110,105,160)" stroke="rgb(110,105,160)" stroke-width="1.51"/><path d="M1061,252L1159,232L1048,131Z" fill="rgb(132,98,137)" stroke="rgb(132,98,137)" stroke-width="1.51"/><path d="M976,576L1117,557L1042,495Z" fill="rgb(112,87,151)" stroke="rgb(112,87,151)" stroke-width="1.51"/><path d="M917,670L981,594L886,626Z" fill="rgb(128,97,155)" stroke="rgb(128,97,155)" stroke-width="1.51"/><path d="M39,424L69,550L107,519Z" fill="rgb(111,112,114)" stroke="rgb(111,112,114)" stroke-width="1.51"/><path d="M-23,167L-18,205L60,143Z" fill="rgb(136,139,92)" stroke="rgb(136,139,92)" stroke-width="1.51"/><path d="M-73,311L-16,371L15,321Z" fill="rgb(120,155,134)" stroke="rgb(120,155,134)" stroke-width="1.51"/><path d="M15,321L-16,371L31,384Z" fill="rgb(132,166,139)" stroke="rgb(132,166,139)" stroke-width="1.51"/><path d="M-48,486L6,583L69,550Z" fill="rgb(111,120,119)" stroke="rgb(111,120,119)" stroke-width="1.51"/><path d="M850,700L917,670L846,647Z" fill="rgb(142,112,162)" stroke="rgb(142,112,162)" stroke-width="1.51"/><path d="M1059,48L1033,-25L1001,53Z" fill="rgb(113,115,116)" stroke="rgb(113,115,116)" stroke-width="1.51"/><path d="M228,-117L87,-84L217,-31Z" fill="rgb(143,154,74)" stroke="rgb(143,154,74)" stroke-width="1.51"/><path d="M56,79L-23,167L60,143Z" fill="rgb(165,154,73)" stroke="rgb(165,154,73)" stroke-width="1.51"/><path d="M29,-101L87,-84L228,-117Z" fill="rgb(124,152,78)" stroke="rgb(124,152,78)" stroke-width="1.51"/><path d="M-73,311L15,321L6,239Z" fill="rgb(107,136,125)" stroke="rgb(107,136,125)" stroke-width="1.51"/><path d="M-84,235L-73,311L6,239Z" fill="rgb(98,124,119)" stroke="rgb(98,124,119)" stroke-width="1.51"/><path d="M-78,51L-23,167L56,79Z" fill="rgb(149,155,73)" stroke="rgb(149,155,73)" stroke-width="1.51"/><path d="M334,701L225,732L403,700Z" fill="rgb(186,124,127)" stroke="rgb(186,124,127)" stroke-width="1.51"/><path d="M106,726L225,732L173,592Z" fill="rgb(188,137,116)" stroke="rgb(188,137,116)" stroke-width="1.51"/><path d="M106,726L173,592L144,595Z" fill="rgb(181,137,117)" stroke="rgb(181,137,117)" stroke-width="1.51"/><path d="M915,-70L995,-116L783,-118Z" fill="rgb(90,121,122)" stroke="rgb(90,121,122)" stroke-width="1.51"/><path d="M783,-118L995,-116L698,-136Z" fill="rgb(106,139,129)" stroke="rgb(106,139,129)" stroke-width="1.51"/><path d="M1033,-25L995,-116L915,-70Z" fill="rgb(82,109,116)" stroke="rgb(82,109,116)" stroke-width="1.51"/><path d="M1161,386L1122,329L1090,346Z" fill="rgb(156,139,174)" stroke="rgb(156,139,174)" stroke-width="1.51"/><path d="M1090,346L1122,329L1050,285Z" fill="rgb(134,120,166)" stroke="rgb(134,120,166)" stroke-width="1.51"/><path d="M1033,-25L1087,-104L995,-116Z" fill="rgb(97,115,118)" stroke="rgb(97,115,118)" stroke-width="1.51"/><path d="M1059,48L1071,-4L1033,-25Z" fill="rgb(106,117,118)" stroke="rgb(106,117,118)" stroke-width="1.51"/><path d="M1135,15L1071,-4L1059,48Z" fill="rgb(124,122,118)" stroke="rgb(124,122,118)" stroke-width="1.51"/><path d="M87,-84L8,-23L128,0Z" fill="rgb(110,150,80)" stroke="rgb(110,150,80)" stroke-width="1.51"/><path d="M-48,486L69,550L39,424Z" fill="rgb(87,108,115)" stroke="rgb(87,108,115)" stroke-width="1.51"/><path d="M-84,235L6,239L-18,205Z" fill="rgb(102,120,110)" stroke="rgb(102,120,110)" stroke-width="1.51"/><path d="M-84,235L-18,205L-23,167Z" fill="rgb(116,128,103)" stroke="rgb(116,128,103)" stroke-width="1.51"/><path d="M1122,329L1159,232L1061,252Z" fill="rgb(124,102,155)" stroke="rgb(124,102,155)" stroke-width="1.51"/><path d="M266,-130L29,-101L228,-117Z" fill="rgb(142,154,75)" stroke="rgb(142,154,75)" stroke-width="1.51"/><path d="M87,-84L29,-101L8,-23Z" fill="rgb(99,149,82)" stroke="rgb(99,149,82)" stroke-width="1.51"/><path d="M-45,3L56,79L8,-23Z" fill="rgb(100,150,82)" stroke="rgb(100,150,82)" stroke-width="1.51"/><path d="M-121,106L-84,235L-23,167Z" fill="rgb(135,139,91)" stroke="rgb(135,139,91)" stroke-width="1.51"/><path d="M69,550L6,583L144,595Z" fill="rgb(149,130,118)" stroke="rgb(149,130,118)" stroke-width="1.51"/><path d="M-48,486L39,424L-16,371Z" fill="rgb(99,132,127)" stroke="rgb(99,132,127)" stroke-width="1.51"/><path d="M1042,495L1161,386L1090,346Z" fill="rgb(127,114,164)" stroke="rgb(127,114,164)" stroke-width="1.51"/><path d="M1122,329L1226,296L1159,232Z" fill="rgb(144,115,160)" stroke="rgb(144,115,160)" stroke-width="1.51"/><path d="M1185,449L1161,386L1042,495Z" fill="rgb(119,100,157)" stroke="rgb(119,100,157)" stroke-width="1.51"/><path d="M1117,557L976,576L981,594Z" fill="rgb(125,91,152)" stroke="rgb(125,91,152)" stroke-width="1.51"/><path d="M-92,358L-16,371L-73,311Z" fill="rgb(125,160,137)" stroke="rgb(125,160,137)" stroke-width="1.51"/><path d="M-92,358L-48,486L-16,371Z" fill="rgb(109,143,131)" stroke="rgb(109,143,131)" stroke-width="1.51"/><path d="M-89,-26L-45,3L8,-23Z" fill="rgb(83,147,84)" stroke="rgb(83,147,84)" stroke-width="1.51"/><path d="M1071,-4L1087,-104L1033,-25Z" fill="rgb(105,118,119)" stroke="rgb(105,118,119)" stroke-width="1.51"/><path d="M1171,27L1135,15L1048,131Z" fill="rgb(153,127,116)" stroke="rgb(153,127,116)" stroke-width="1.51"/><path d="M-118,291L-92,358L-73,311Z" fill="rgb(117,149,132)" stroke="rgb(117,149,132)" stroke-width="1.51"/><path d="M2,690L106,726L144,595Z" fill="rgb(164,136,119)" stroke="rgb(164,136,119)" stroke-width="1.51"/><path d="M1159,232L1186,167L1048,131Z" fill="rgb(160,111,129)" stroke="rgb(160,111,129)" stroke-width="1.51"/><path d="M1213,201L1186,167L1159,232Z" fill="rgb(159,110,139)" stroke="rgb(159,110,139)" stroke-width="1.51"/><path d="M1077,652L1117,557L981,594Z" fill="rgb(146,99,155)" stroke="rgb(146,99,155)" stroke-width="1.51"/><path d="M-84,235L-118,291L-73,311Z" fill="rgb(104,131,123)" stroke="rgb(104,131,123)" stroke-width="1.51"/><path d="M-45,3L-78,51L56,79Z" fill="rgb(115,151,80)" stroke="rgb(115,151,80)" stroke-width="1.51"/><path d="M1135,15L1087,-104L1071,-4Z" fill="rgb(113,122,120)" stroke="rgb(113,122,120)" stroke-width="1.51"/><path d="M-78,51L-121,106L-23,167Z" fill="rgb(154,156,72)" stroke="rgb(154,156,72)" stroke-width="1.51"/><path d="M-45,3L-86,49L-78,51Z" fill="rgb(109,150,81)" stroke="rgb(109,150,81)" stroke-width="1.51"/><path d="M-89,-26L-86,49L-45,3Z" fill="rgb(90,148,83)" stroke="rgb(90,148,83)" stroke-width="1.51"/><path d="M-92,512L-58,530L-48,486Z" fill="rgb(92,113,118)" stroke="rgb(92,113,118)" stroke-width="1.51"/><path d="M-121,106L-118,291L-84,235Z" fill="rgb(112,125,105)" stroke="rgb(112,125,105)" stroke-width="1.51"/><path d="M6,583L2,690L144,595Z" fill="rgb(154,135,121)" stroke="rgb(154,135,121)" stroke-width="1.51"/><path d="M-48,486L-58,530L6,583Z" fill="rgb(105,118,119)" stroke="rgb(105,118,119)" stroke-width="1.51"/><path d="M-92,512L-48,486L-144,478Z" fill="rgb(83,109,116)" stroke="rgb(83,109,116)" stroke-width="1.51"/><path d="M1023,718L1077,652L981,594Z" fill="rgb(138,96,154)" stroke="rgb(138,96,154)" stroke-width="1.51"/><path d="M1023,718L981,594L917,670Z" fill="rgb(124,91,152)" stroke="rgb(124,91,152)" stroke-width="1.51"/><path d="M1023,718L917,670L850,700Z" fill="rgb(128,97,155)" stroke="rgb(128,97,155)" stroke-width="1.51"/><path d="M1135,15L1180,-91L1087,-104Z" fill="rgb(123,126,121)" stroke="rgb(123,126,121)" stroke-width="1.51"/><path d="M1186,167L1171,27L1048,131Z" fill="rgb(186,131,112)" stroke="rgb(186,131,112)" stroke-width="1.51"/><path d="M742,736L1023,718L850,700Z" fill="rgb(142,111,162)" stroke="rgb(142,111,162)" stroke-width="1.51"/><path d="M1117,557L1185,449L1042,495Z" fill="rgb(108,85,150)" stroke="rgb(108,85,150)" stroke-width="1.51"/><path d="M1226,296L1213,201L1159,232Z" fill="rgb(137,99,152)" stroke="rgb(137,99,152)" stroke-width="1.51"/><path d="M1204,561L1185,449L1117,557Z" fill="rgb(134,95,154)" stroke="rgb(134,95,154)" stroke-width="1.51"/><path d="M1186,167L1217,81L1171,27Z" fill="rgb(190,136,115)" stroke="rgb(190,136,115)" stroke-width="1.51"/><path d="M1218,352L1122,329L1161,386Z" fill="rgb(168,144,176)" stroke="rgb(168,144,176)" stroke-width="1.51"/><path d="M-86,49L-121,106L-78,51Z" fill="rgb(131,153,77)" stroke="rgb(131,153,77)" stroke-width="1.51"/><path d="M1185,449L1218,352L1161,386Z" fill="rgb(158,130,170)" stroke="rgb(158,130,170)" stroke-width="1.51"/><path d="M-41,632L2,690L6,583Z" fill="rgb(139,134,123)" stroke="rgb(139,134,123)" stroke-width="1.51"/><path d="M-144,478L-48,486L-92,358Z" fill="rgb(93,125,123)" stroke="rgb(93,125,123)" stroke-width="1.51"/><path d="M1218,352L1226,296L1122,329Z" fill="rgb(163,134,170)" stroke="rgb(163,134,170)" stroke-width="1.51"/><path d="M-73,-123L-89,-26L8,-23Z" fill="rgb(83,147,84)" stroke="rgb(83,147,84)" stroke-width="1.51"/><path d="M-86,49L-89,-26L-121,106Z" fill="rgb(114,151,80)" stroke="rgb(114,151,80)" stroke-width="1.51"/><path d="M-41,632L6,583L-58,530Z" fill="rgb(130,129,121)" stroke="rgb(130,129,121)" stroke-width="1.51"/><path d="M-90,634L-41,632L-58,530Z" fill="rgb(138,133,123)" stroke="rgb(138,133,123)" stroke-width="1.51"/><path d="M1224,-38L1180,-91L1135,15Z" fill="rgb(134,132,122)" stroke="rgb(134,132,122)" stroke-width="1.51"/><path d="M1257,154L1217,81L1186,167Z" fill="rgb(200,133,118)" stroke="rgb(200,133,118)" stroke-width="1.51"/><path d="M1257,154L1186,167L1213,201Z" fill="rgb(178,120,131)" stroke="rgb(178,120,131)" stroke-width="1.51"/><path d="M-89,722L-15,703L-41,632Z" fill="rgb(139,134,123)" stroke="rgb(139,134,123)" stroke-width="1.51"/><path d="M-41,632L-15,703L2,690Z" fill="rgb(139,134,123)" stroke="rgb(139,134,123)" stroke-width="1.51"/><path d="M2,690L-15,703L106,726Z" fill="rgb(148,135,121)" stroke="rgb(148,135,121)" stroke-width="1.51"/><path d="M29,-101L-73,-123L8,-23Z" fill="rgb(83,147,84)" stroke="rgb(83,147,84)" stroke-width="1.51"/><path d="M-89,-26L-113,-79L-121,106Z" fill="rgb(84,147,84)" stroke="rgb(84,147,84)" stroke-width="1.51"/><path d="M266,-130L-73,-123L29,-101Z" fill="rgb(110,150,80)" stroke="rgb(110,150,80)" stroke-width="1.51"/><path d="M1164,654L1189,571L1117,557Z" fill="rgb(168,108,158)" stroke="rgb(168,108,158)" stroke-width="1.51"/><path d="M1023,718L1086,724L1077,652Z" fill="rgb(147,100,155)" stroke="rgb(147,100,155)" stroke-width="1.51"/><path d="M742,736L1086,724L1023,718Z" fill="rgb(123,92,152)" stroke="rgb(123,92,152)" stroke-width="1.51"/><path d="M1185,449L1258,436L1218,352Z" fill="rgb(153,123,166)" stroke="rgb(153,123,166)" stroke-width="1.51"/><path d="M1287,299L1213,201L1226,296Z" fill="rgb(145,109,157)" stroke="rgb(145,109,157)" stroke-width="1.51"/><path d="M1164,654L1117,557L1077,652Z" fill="rgb(162,106,157)" stroke="rgb(162,106,157)" stroke-width="1.51"/><path d="M-118,291L-144,478L-92,358Z" fill="rgb(122,158,137)" stroke="rgb(122,158,137)" stroke-width="1.51"/><path d="M-92,512L-90,634L-58,530Z" fill="rgb(118,124,120)" stroke="rgb(118,124,120)" stroke-width="1.51"/><path d="M-121,106L-144,478L-118,291Z" fill="rgb(108,137,126)" stroke="rgb(108,137,126)" stroke-width="1.51"/><path d="M1323,205L1257,154L1213,201Z" fill="rgb(170,115,135)" stroke="rgb(170,115,135)" stroke-width="1.51"/><path d="M1287,299L1226,296L1218,352Z" fill="rgb(163,130,168)" stroke="rgb(163,130,168)" stroke-width="1.51"/><path d="M1224,-38L1135,15L1171,27Z" fill="rgb(134,131,122)" stroke="rgb(134,131,122)" stroke-width="1.51"/><path d="M1224,-38L1171,27L1217,81Z" fill="rgb(153,135,121)" stroke="rgb(153,135,121)" stroke-width="1.51"/><path d="M1189,571L1204,561L1117,557Z" fill="rgb(156,103,157)" stroke="rgb(156,103,157)" stroke-width="1.51"/><path d="M1249,628L1204,561L1189,571Z" fill="rgb(176,111,159)" stroke="rgb(176,111,159)" stroke-width="1.51"/><path d="M-73,-123L-113,-79L-89,-26Z" fill="rgb(83,147,84)" stroke="rgb(83,147,84)" stroke-width="1.51"/><path d="M-121,106L-113,-79L-144,478Z" fill="rgb(136,140,91)" stroke="rgb(136,140,91)" stroke-width="1.51"/><path d="M-144,478L-90,634L-92,512Z" fill="rgb(109,120,119)" stroke="rgb(109,120,119)" stroke-width="1.51"/><path d="M1204,561L1258,436L1185,449Z" fill="rgb(121,90,151)" stroke="rgb(121,90,151)" stroke-width="1.51"/><path d="M1204,561L1320,462L1258,436Z" fill="rgb(124,91,152)" stroke="rgb(124,91,152)" stroke-width="1.51"/><path d="M1086,724L1164,654L1077,652Z" fill="rgb(159,104,157)" stroke="rgb(159,104,157)" stroke-width="1.51"/><path d="M1324,88L1224,-38L1217,81Z" fill="rgb(165,136,119)" stroke="rgb(165,136,119)" stroke-width="1.51"/><path d="M1257,154L1324,88L1217,81Z" fill="rgb(201,138,114)" stroke="rgb(201,138,114)" stroke-width="1.51"/><path d="M1345,375L1287,299L1218,352Z" fill="rgb(172,142,174)" stroke="rgb(172,142,174)" stroke-width="1.51"/><path d="M1287,299L1323,205L1213,201Z" fill="rgb(140,100,150)" stroke="rgb(140,100,150)" stroke-width="1.51"/><path d="M1345,375L1323,205L1287,299Z" fill="rgb(155,121,163)" stroke="rgb(155,121,163)" stroke-width="1.51"/><path d="M-90,634L-89,722L-41,632Z" fill="rgb(139,134,123)" stroke="rgb(139,134,123)" stroke-width="1.51"/><path d="M-15,703L-89,722L106,726Z" fill="rgb(139,134,123)" stroke="rgb(139,134,123)" stroke-width="1.51"/><path d="M106,726L-89,722L225,732Z" fill="rgb(163,136,119)" stroke="rgb(163,136,119)" stroke-width="1.51"/><path d="M-144,478L-89,722L-90,634Z" fill="rgb(139,134,123)" stroke="rgb(139,134,123)" stroke-width="1.51"/><path d="M1086,724L1191,698L1164,654Z" fill="rgb(169,108,158)" stroke="rgb(169,108,158)" stroke-width="1.51"/><path d="M1164,654L1249,628L1189,571Z" fill="rgb(182,114,160)" stroke="rgb(182,114,160)" stroke-width="1.51"/><path d="M1258,436L1345,375L1218,352Z" fill="rgb(165,135,172)" stroke="rgb(165,135,172)" stroke-width="1.51"/><path d="M1351,147L1324,88L1257,154Z" fill="rgb(203,135,116)" stroke="rgb(203,135,116)" stroke-width="1.51"/><path d="M1191,698L1249,628L1164,654Z" fill="rgb(182,114,160)" stroke="rgb(182,114,160)" stroke-width="1.51"/><path d="M1354,552L1320,462L1204,561Z" fill="rgb(144,99,155)" stroke="rgb(144,99,155)" stroke-width="1.51"/><path d="M1309,-108L1254,-132L1224,-38Z" fill="rgb(139,134,123)" stroke="rgb(139,134,123)" stroke-width="1.51"/><path d="M1224,-38L1254,-132L1180,-91Z" fill="rgb(139,134,123)" stroke="rgb(139,134,123)" stroke-width="1.51"/><path d="M1180,-91L1254,-132L1087,-104Z" fill="rgb(132,131,122)" stroke="rgb(132,131,122)" stroke-width="1.51"/><path d="M1087,-104L1254,-132L995,-116Z" fill="rgb(117,124,120)" stroke="rgb(117,124,120)" stroke-width="1.51"/><path d="M995,-116L1254,-132L698,-136Z" fill="rgb(82,109,116)" stroke="rgb(82,109,116)" stroke-width="1.51"/><path d="M1323,205L1351,147L1257,154Z" fill="rgb(181,121,129)" stroke="rgb(181,121,129)" stroke-width="1.51"/><path d="M1320,462L1345,375L1258,436Z" fill="rgb(148,117,164)" stroke="rgb(148,117,164)" stroke-width="1.51"/><path d="M1345,375L1351,147L1323,205Z" fill="rgb(137,99,152)" stroke="rgb(137,99,152)" stroke-width="1.51"/><path d="M1341,-37L1309,-108L1224,-38Z" fill="rgb(139,134,123)" stroke="rgb(139,134,123)" stroke-width="1.51"/><path d="M1341,-37L1224,-38L1324,88Z" fill="rgb(142,134,122)" stroke="rgb(142,134,122)" stroke-width="1.51"/><path d="M1351,147L1341,-37L1324,88Z" fill="rgb(178,136,117)" stroke="rgb(178,136,117)" stroke-width="1.51"/><path d="M1320,462L1354,552L1345,375Z" fill="rgb(129,98,155)" stroke="rgb(129,98,155)" stroke-width="1.51"/><path d="M1349,583L1354,552L1204,561Z" fill="rgb(165,107,158)" stroke="rgb(165,107,158)" stroke-width="1.51"/><path d="M1191,698L1261,708L1249,628Z" fill="rgb(182,114,160)" stroke="rgb(182,114,160)" stroke-width="1.51"/><path d="M1086,724L1261,708L1191,698Z" fill="rgb(177,112,160)" stroke="rgb(177,112,160)" stroke-width="1.51"/><path d="M1349,583L1204,561L1249,628Z" fill="rgb(178,112,160)" stroke="rgb(178,112,160)" stroke-width="1.51"/><path d="M1345,375L1354,552L1351,147Z" fill="rgb(178,149,178)" stroke="rgb(178,149,178)" stroke-width="1.51"/><path d="M1305,686L1349,583L1249,628Z" fill="rgb(182,114,160)" stroke="rgb(182,114,160)" stroke-width="1.51"/><path d="M1261,708L1305,686L1249,628Z" fill="rgb(182,114,160)" stroke="rgb(182,114,160)" stroke-width="1.51"/></svg>