<svg xmlns="http://www.w3.org/2000/svg" width="700" height="600"><path d="M320,298L247,253L260,331Z" fill="rgb(190,179,166)" stroke="rgb(190,179,166)" stroke-width="1.51"/><path d="M320,298L333,218L247,253Z" fill="rgb(194,178,158)" stroke="rgb(194,178,158)" stroke-width="1.51"/><path d="M128,297L227,365L260,331Z" fill="rgb(190,162,136)" stroke="rgb(190,162,136)" stroke-width="1.51"/><path d="M260,331L331,378L320,298Z" fill="rgb(168,166,173)" stroke="rgb(168,166,173)" stroke-width="1.51"/><path d="M255,429L331,378L260,331Z" fill="rgb(158,147,157)" stroke="rgb(158,147,157)" stroke-width="1.51"/><path d="M320,298L409,282L333,218Z" fill="rgb(179,180,181)" stroke="rgb(179,180,181)" stroke-width="1.51"/><path d="M331,378L374,378L320,298Z" fill="rgb(153,162,185)" stroke="rgb(153,162,185)" stroke-width="1.51"/><path d="M374,378L409,282L320,298Z" fill="rgb(156,169,191)" stroke="rgb(156,169,191)" stroke-width="1.51"/><path d="M409,282L386,213L333,218Z" fill="rgb(179,170,165)" stroke="rgb(179,170,165)" stroke-width="1.51"/><path d="M227,365L255,429L260,331Z" fill="rgb(166,146,145)" stroke="rgb(166,146,145)" stroke-width="1.51"/><path d="M331,378L342,475L374,378Z" fill="rgb(128,139,177)" stroke="rgb(128,139,177)" stroke-width="1.51"/><path d="M128,297L173,384L227,365Z" fill="rgb(188,153,122)" stroke="rgb(188,153,122)" stroke-width="1.51"/><path d="M173,384L255,429L227,365Z" fill="rgb(166,137,131)" stroke="rgb(166,137,131)" stroke-width="1.51"/><path d="M247,253L128,297L260,331Z" fill="rgb(202,175,140)" stroke="rgb(202,175,140)" stroke-width="1.51"/><path d="M170,163L159,205L247,253Z" fill="rgb(218,168,93)" stroke="rgb(218,168,93)" stroke-width="1.51"/><path d="M305,136L247,253L333,218Z" fill="rgb(205,173,132)" stroke="rgb(205,173,132)" stroke-width="1.51"/><path d="M159,205L128,297L247,253Z" fill="rgb(213,170,108)" stroke="rgb(213,170,108)" stroke-width="1.51"/><path d="M386,213L305,136L333,218Z" fill="rgb(200,175,144)" stroke="rgb(200,175,144)" stroke-width="1.51"/><path d="M159,205L90,238L128,297Z" fill="rgb(209,163,120)" stroke="rgb(209,163,120)" stroke-width="1.51"/><path d="M235,112L170,163L247,253Z" fill="rgb(219,167,88)" stroke="rgb(219,167,88)" stroke-width="1.51"/><path d="M305,136L235,112L247,253Z" fill="rgb(215,169,102)" stroke="rgb(215,169,102)" stroke-width="1.51"/><path d="M409,282L452,237L386,213Z" fill="rgb(165,157,163)" stroke="rgb(165,157,163)" stroke-width="1.51"/><path d="M386,213L408,122L305,136Z" fill="rgb(200,168,130)" stroke="rgb(200,168,130)" stroke-width="1.51"/><path d="M463,281L452,237L409,282Z" fill="rgb(151,149,169)" stroke="rgb(151,149,169)" stroke-width="1.51"/><path d="M374,378L463,281L409,282Z" fill="rgb(143,155,185)" stroke="rgb(143,155,185)" stroke-width="1.51"/><path d="M46,167L90,238L159,205Z" fill="rgb(212,156,108)" stroke="rgb(212,156,108)" stroke-width="1.51"/><path d="M45,342L125,434L173,384Z" fill="rgb(166,129,133)" stroke="rgb(166,129,133)" stroke-width="1.51"/><path d="M255,429L342,475L331,378Z" fill="rgb(133,129,159)" stroke="rgb(133,129,159)" stroke-width="1.51"/><path d="M374,378L479,413L463,281Z" fill="rgb(118,129,173)" stroke="rgb(118,129,173)" stroke-width="1.51"/><path d="M173,384L125,434L255,429Z" fill="rgb(163,126,116)" stroke="rgb(163,126,116)" stroke-width="1.51"/><path d="M255,429L313,555L342,475Z" fill="rgb(130,122,153)" stroke="rgb(130,122,153)" stroke-width="1.51"/><path d="M45,342L173,384L128,297Z" fill="rgb(183,148,140)" stroke="rgb(183,148,140)" stroke-width="1.51"/><path d="M438,124L408,122L386,213Z" fill="rgb(186,151,123)" stroke="rgb(186,151,123)" stroke-width="1.51"/><path d="M305,136L281,46L235,112Z" fill="rgb(209,161,117)" stroke="rgb(209,161,117)" stroke-width="1.51"/><path d="M342,475L378,478L374,378Z" fill="rgb(109,120,168)" stroke="rgb(109,120,168)" stroke-width="1.51"/><path d="M90,238L59,283L128,297Z" fill="rgb(200,160,141)" stroke="rgb(200,160,141)" stroke-width="1.51"/><path d="M513,144L438,124L452,237Z" fill="rgb(166,132,122)" stroke="rgb(166,132,122)" stroke-width="1.51"/><path d="M452,237L438,124L386,213Z" fill="rgb(175,149,138)" stroke="rgb(175,149,138)" stroke-width="1.51"/><path d="M59,283L45,342L128,297Z" fill="rgb(189,157,156)" stroke="rgb(189,157,156)" stroke-width="1.51"/><path d="M378,478L479,413L374,378Z" fill="rgb(101,113,165)" stroke="rgb(101,113,165)" stroke-width="1.51"/><path d="M393,35L305,136L408,122Z" fill="rgb(192,159,144)" stroke="rgb(192,159,144)" stroke-width="1.51"/><path d="M393,35L281,46L305,136Z" fill="rgb(197,159,147)" stroke="rgb(197,159,147)" stroke-width="1.51"/><path d="M235,112L132,68L170,163Z" fill="rgb(222,157,72)" stroke="rgb(222,157,72)" stroke-width="1.51"/><path d="M170,163L46,167L159,205Z" fill="rgb(218,158,88)" stroke="rgb(218,158,88)" stroke-width="1.51"/><path d="M281,46L252,45L235,112Z" fill="rgb(207,154,121)" stroke="rgb(207,154,121)" stroke-width="1.51"/><path d="M132,68L46,167L170,163Z" fill="rgb(218,151,84)" stroke="rgb(218,151,84)" stroke-width="1.51"/><path d="M90,238L17,251L59,283Z" fill="rgb(197,154,145)" stroke="rgb(197,154,145)" stroke-width="1.51"/><path d="M59,283L-32,319L45,342Z" fill="rgb(177,147,169)" stroke="rgb(177,147,169)" stroke-width="1.51"/><path d="M46,167L17,251L90,238Z" fill="rgb(203,150,128)" stroke="rgb(203,150,128)" stroke-width="1.51"/><path d="M252,45L132,68L235,112Z" fill="rgb(214,153,99)" stroke="rgb(214,153,99)" stroke-width="1.51"/><path d="M463,281L535,236L452,237Z" fill="rgb(142,133,155)" stroke="rgb(142,133,155)" stroke-width="1.51"/><path d="M548,288L535,236L463,281Z" fill="rgb(126,124,158)" stroke="rgb(126,124,158)" stroke-width="1.51"/><path d="M438,124L439,78L408,122Z" fill="rgb(175,139,133)" stroke="rgb(175,139,133)" stroke-width="1.51"/><path d="M513,144L439,78L438,124Z" fill="rgb(165,127,126)" stroke="rgb(165,127,126)" stroke-width="1.51"/><path d="M342,475L313,555L378,478Z" fill="rgb(119,125,168)" stroke="rgb(119,125,168)" stroke-width="1.51"/><path d="M378,478L483,471L479,413Z" fill="rgb(77,91,155)" stroke="rgb(77,91,155)" stroke-width="1.51"/><path d="M204,564L313,555L255,429Z" fill="rgb(144,121,136)" stroke="rgb(144,121,136)" stroke-width="1.51"/><path d="M573,345L548,288L463,281Z" fill="rgb(110,121,169)" stroke="rgb(110,121,169)" stroke-width="1.51"/><path d="M479,413L573,345L463,281Z" fill="rgb(99,112,164)" stroke="rgb(99,112,164)" stroke-width="1.51"/><path d="M415,539L483,471L378,478Z" fill="rgb(91,101,158)" stroke="rgb(91,101,158)" stroke-width="1.51"/><path d="M647,154L513,144L535,236Z" fill="rgb(150,116,118)" stroke="rgb(150,116,118)" stroke-width="1.51"/><path d="M535,236L513,144L452,237Z" fill="rgb(148,124,133)" stroke="rgb(148,124,133)" stroke-width="1.51"/><path d="M222,-48L153,-17L252,45Z" fill="rgb(204,140,126)" stroke="rgb(204,140,126)" stroke-width="1.51"/><path d="M439,78L393,35L408,122Z" fill="rgb(174,139,144)" stroke="rgb(174,139,144)" stroke-width="1.51"/><path d="M438,17L393,35L439,78Z" fill="rgb(164,130,154)" stroke="rgb(164,130,154)" stroke-width="1.51"/><path d="M125,434L204,564L255,429Z" fill="rgb(151,114,113)" stroke="rgb(151,114,113)" stroke-width="1.51"/><path d="M112,530L204,564L125,434Z" fill="rgb(153,111,114)" stroke="rgb(153,111,114)" stroke-width="1.51"/><path d="M313,555L415,539L378,478Z" fill="rgb(114,121,167)" stroke="rgb(114,121,167)" stroke-width="1.51"/><path d="M38,460L112,530L125,434Z" fill="rgb(142,102,128)" stroke="rgb(142,102,128)" stroke-width="1.51"/><path d="M-19,361L38,460L45,342Z" fill="rgb(149,117,157)" stroke="rgb(149,117,157)" stroke-width="1.51"/><path d="M45,342L38,460L125,434Z" fill="rgb(149,113,140)" stroke="rgb(149,113,140)" stroke-width="1.51"/><path d="M518,528L518,469L483,471Z" fill="rgb(58,74,145)" stroke="rgb(58,74,145)" stroke-width="1.51"/><path d="M483,471L518,469L479,413Z" fill="rgb(57,76,147)" stroke="rgb(57,76,147)" stroke-width="1.51"/><path d="M518,469L573,345L479,413Z" fill="rgb(65,82,150)" stroke="rgb(65,82,150)" stroke-width="1.51"/><path d="M548,288L651,228L535,236Z" fill="rgb(133,122,149)" stroke="rgb(133,122,149)" stroke-width="1.51"/><path d="M-32,319L-19,361L45,342Z" fill="rgb(163,133,171)" stroke="rgb(163,133,171)" stroke-width="1.51"/><path d="M-100,292L-32,319L17,251Z" fill="rgb(182,149,173)" stroke="rgb(182,149,173)" stroke-width="1.51"/><path d="M17,251L-32,319L59,283Z" fill="rgb(185,151,167)" stroke="rgb(185,151,167)" stroke-width="1.51"/><path d="M204,564L212,628L313,555Z" fill="rgb(153,124,131)" stroke="rgb(153,124,131)" stroke-width="1.51"/><path d="M492,567L483,471L415,539Z" fill="rgb(80,90,152)" stroke="rgb(80,90,152)" stroke-width="1.51"/><path d="M112,530L170,584L204,564Z" fill="rgb(160,117,109)" stroke="rgb(160,117,109)" stroke-width="1.51"/><path d="M534,36L438,17L439,78Z" fill="rgb(149,114,146)" stroke="rgb(149,114,146)" stroke-width="1.51"/><path d="M393,35L327,-42L281,46Z" fill="rgb(185,151,168)" stroke="rgb(185,151,168)" stroke-width="1.51"/><path d="M112,530L40,613L170,584Z" fill="rgb(153,110,124)" stroke="rgb(153,110,124)" stroke-width="1.51"/><path d="M38,460L71,531L112,530Z" fill="rgb(141,102,133)" stroke="rgb(141,102,133)" stroke-width="1.51"/><path d="M-38,515L71,531L38,460Z" fill="rgb(131,95,145)" stroke="rgb(131,95,145)" stroke-width="1.51"/><path d="M46,167L0,127L17,251Z" fill="rgb(206,143,121)" stroke="rgb(206,143,121)" stroke-width="1.51"/><path d="M132,68L0,127L46,167Z" fill="rgb(211,141,105)" stroke="rgb(211,141,105)" stroke-width="1.51"/><path d="M438,17L408,-7L393,35Z" fill="rgb(161,130,164)" stroke="rgb(161,130,164)" stroke-width="1.51"/><path d="M252,45L153,-17L132,68Z" fill="rgb(211,143,103)" stroke="rgb(211,143,103)" stroke-width="1.51"/><path d="M222,-48L252,45L281,46Z" fill="rgb(200,145,137)" stroke="rgb(200,145,137)" stroke-width="1.51"/><path d="M132,68L54,23L0,127Z" fill="rgb(204,134,121)" stroke="rgb(204,134,121)" stroke-width="1.51"/><path d="M408,-7L327,-42L393,35Z" fill="rgb(170,140,174)" stroke="rgb(170,140,174)" stroke-width="1.51"/><path d="M327,-42L222,-48L281,46Z" fill="rgb(193,145,151)" stroke="rgb(193,145,151)" stroke-width="1.51"/><path d="M651,384L627,322L573,345Z" fill="rgb(101,108,161)" stroke="rgb(101,108,161)" stroke-width="1.51"/><path d="M492,567L518,528L483,471Z" fill="rgb(67,79,146)" stroke="rgb(67,79,146)" stroke-width="1.51"/><path d="M492,567L415,539L484,604Z" fill="rgb(86,92,152)" stroke="rgb(86,92,152)" stroke-width="1.51"/><path d="M170,584L212,628L204,564Z" fill="rgb(161,121,113)" stroke="rgb(161,121,113)" stroke-width="1.51"/><path d="M167,666L212,628L170,584Z" fill="rgb(164,121,109)" stroke="rgb(164,121,109)" stroke-width="1.51"/><path d="M75,-3L132,68L153,-17Z" fill="rgb(203,133,123)" stroke="rgb(203,133,123)" stroke-width="1.51"/><path d="M75,-3L54,23L132,68Z" fill="rgb(201,130,128)" stroke="rgb(201,130,128)" stroke-width="1.51"/><path d="M403,649L415,539L313,555Z" fill="rgb(118,122,165)" stroke="rgb(118,122,165)" stroke-width="1.51"/><path d="M573,345L627,322L548,288Z" fill="rgb(110,119,166)" stroke="rgb(110,119,166)" stroke-width="1.51"/><path d="M513,144L534,36L439,78Z" fill="rgb(150,112,130)" stroke="rgb(150,112,130)" stroke-width="1.51"/><path d="M609,460L573,345L518,469Z" fill="rgb(62,78,146)" stroke="rgb(62,78,146)" stroke-width="1.51"/><path d="M99,-129L75,-3L153,-17Z" fill="rgb(199,129,131)" stroke="rgb(199,129,131)" stroke-width="1.51"/><path d="M40,613L167,666L170,584Z" fill="rgb(158,114,119)" stroke="rgb(158,114,119)" stroke-width="1.51"/><path d="M-19,361L-35,465L38,460Z" fill="rgb(129,98,155)" stroke="rgb(129,98,155)" stroke-width="1.51"/><path d="M-79,414L-35,465L-19,361Z" fill="rgb(135,104,158)" stroke="rgb(135,104,158)" stroke-width="1.51"/><path d="M438,17L480,-88L408,-7Z" fill="rgb(148,118,164)" stroke="rgb(148,118,164)" stroke-width="1.51"/><path d="M311,-117L261,-105L327,-42Z" fill="rgb(189,146,159)" stroke="rgb(189,146,159)" stroke-width="1.51"/><path d="M613,77L534,36L513,144Z" fill="rgb(143,104,126)" stroke="rgb(143,104,126)" stroke-width="1.51"/><path d="M212,628L338,651L313,555Z" fill="rgb(145,128,147)" stroke="rgb(145,128,147)" stroke-width="1.51"/><path d="M-64,84L0,127L-45,29Z" fill="rgb(197,127,135)" stroke="rgb(197,127,135)" stroke-width="1.51"/><path d="M-64,84L-65,141L0,127Z" fill="rgb(203,133,124)" stroke="rgb(203,133,124)" stroke-width="1.51"/><path d="M0,127L-65,141L17,251Z" fill="rgb(204,140,123)" stroke="rgb(204,140,123)" stroke-width="1.51"/><path d="M-32,319L-79,414L-19,361Z" fill="rgb(154,123,167)" stroke="rgb(154,123,167)" stroke-width="1.51"/><path d="M518,528L609,460L518,469Z" fill="rgb(52,70,142)" stroke="rgb(52,70,142)" stroke-width="1.51"/><path d="M624,565L609,460L518,528Z" fill="rgb(63,73,142)" stroke="rgb(63,73,142)" stroke-width="1.51"/><path d="M-123,198L-100,292L17,251Z" fill="rgb(191,145,155)" stroke="rgb(191,145,155)" stroke-width="1.51"/><path d="M-100,292L-79,414L-32,319Z" fill="rgb(162,132,171)" stroke="rgb(162,132,171)" stroke-width="1.51"/><path d="M492,567L552,633L518,528Z" fill="rgb(65,75,143)" stroke="rgb(65,75,143)" stroke-width="1.51"/><path d="M403,649L484,604L415,539Z" fill="rgb(100,104,156)" stroke="rgb(100,104,156)" stroke-width="1.51"/><path d="M627,322L651,228L548,288Z" fill="rgb(127,125,161)" stroke="rgb(127,125,161)" stroke-width="1.51"/><path d="M726,302L651,228L627,322Z" fill="rgb(131,129,163)" stroke="rgb(131,129,163)" stroke-width="1.51"/><path d="M222,-48L170,-77L153,-17Z" fill="rgb(207,139,115)" stroke="rgb(207,139,115)" stroke-width="1.51"/><path d="M261,-105L170,-77L222,-48Z" fill="rgb(202,141,129)" stroke="rgb(202,141,129)" stroke-width="1.51"/><path d="M338,651L403,649L313,555Z" fill="rgb(128,131,169)" stroke="rgb(128,131,169)" stroke-width="1.51"/><path d="M-35,465L-38,515L38,460Z" fill="rgb(124,91,151)" stroke="rgb(124,91,151)" stroke-width="1.51"/><path d="M-111,513L-38,515L-35,465Z" fill="rgb(126,92,151)" stroke="rgb(126,92,151)" stroke-width="1.51"/><path d="M609,460L651,384L573,345Z" fill="rgb(81,90,152)" stroke="rgb(81,90,152)" stroke-width="1.51"/><path d="M212,628L238,689L338,651Z" fill="rgb(150,126,137)" stroke="rgb(150,126,137)" stroke-width="1.51"/><path d="M338,651L358,713L403,649Z" fill="rgb(123,126,167)" stroke="rgb(123,126,167)" stroke-width="1.51"/><path d="M40,613L112,530L71,531Z" fill="rgb(146,105,132)" stroke="rgb(146,105,132)" stroke-width="1.51"/><path d="M311,-117L327,-42L410,-122Z" fill="rgb(178,150,178)" stroke="rgb(178,150,178)" stroke-width="1.51"/><path d="M327,-42L261,-105L222,-48Z" fill="rgb(194,144,148)" stroke="rgb(194,144,148)" stroke-width="1.51"/><path d="M651,228L647,154L535,236Z" fill="rgb(148,120,130)" stroke="rgb(148,120,130)" stroke-width="1.51"/><path d="M-45,29L0,127L54,23Z" fill="rgb(194,124,141)" stroke="rgb(194,124,141)" stroke-width="1.51"/><path d="M-65,141L-123,198L17,251Z" fill="rgb(200,141,133)" stroke="rgb(200,141,133)" stroke-width="1.51"/><path d="M-45,29L54,23L-17,-30Z" fill="rgb(184,115,158)" stroke="rgb(184,115,158)" stroke-width="1.51"/><path d="M647,154L613,77L513,144Z" fill="rgb(153,111,114)" stroke="rgb(153,111,114)" stroke-width="1.51"/><path d="M-38,515L40,613L71,531Z" fill="rgb(136,99,145)" stroke="rgb(136,99,145)" stroke-width="1.51"/><path d="M167,666L238,689L212,628Z" fill="rgb(161,123,117)" stroke="rgb(161,123,117)" stroke-width="1.51"/><path d="M651,384L676,356L627,322Z" fill="rgb(103,108,159)" stroke="rgb(103,108,159)" stroke-width="1.51"/><path d="M721,213L682,126L647,154Z" fill="rgb(161,121,112)" stroke="rgb(161,121,112)" stroke-width="1.51"/><path d="M714,442L676,356L651,384Z" fill="rgb(90,94,152)" stroke="rgb(90,94,152)" stroke-width="1.51"/><path d="M480,-88L438,17L555,-41Z" fill="rgb(132,101,157)" stroke="rgb(132,101,157)" stroke-width="1.51"/><path d="M410,-122L327,-42L408,-7Z" fill="rgb(168,138,173)" stroke="rgb(168,138,173)" stroke-width="1.51"/><path d="M-64,84L-123,198L-65,141Z" fill="rgb(206,137,116)" stroke="rgb(206,137,116)" stroke-width="1.51"/><path d="M-100,292L-112,433L-79,414Z" fill="rgb(148,117,164)" stroke="rgb(148,117,164)" stroke-width="1.51"/><path d="M-64,84L-95,8L-123,198Z" fill="rgb(200,129,130)" stroke="rgb(200,129,130)" stroke-width="1.51"/><path d="M-17,-30L54,23L75,-3Z" fill="rgb(188,119,150)" stroke="rgb(188,119,150)" stroke-width="1.51"/><path d="M-79,414L-112,433L-35,465Z" fill="rgb(125,95,154)" stroke="rgb(125,95,154)" stroke-width="1.51"/><path d="M-38,515L-26,630L40,613Z" fill="rgb(135,97,151)" stroke="rgb(135,97,151)" stroke-width="1.51"/><path d="M-123,198L-112,433L-100,292Z" fill="rgb(175,147,177)" stroke="rgb(175,147,177)" stroke-width="1.51"/><path d="M238,689L312,703L338,651Z" fill="rgb(143,128,150)" stroke="rgb(143,128,150)" stroke-width="1.51"/><path d="M542,667L552,633L484,604Z" fill="rgb(67,75,142)" stroke="rgb(67,75,142)" stroke-width="1.51"/><path d="M555,-41L438,17L534,36Z" fill="rgb(127,96,153)" stroke="rgb(127,96,153)" stroke-width="1.51"/><path d="M480,-88L410,-122L408,-7Z" fill="rgb(151,121,165)" stroke="rgb(151,121,165)" stroke-width="1.51"/><path d="M613,77L555,-41L534,36Z" fill="rgb(130,95,144)" stroke="rgb(130,95,144)" stroke-width="1.51"/><path d="M99,-129L153,-17L170,-77Z" fill="rgb(203,133,122)" stroke="rgb(203,133,122)" stroke-width="1.51"/><path d="M-6,-70L-17,-30L75,-3Z" fill="rgb(185,116,156)" stroke="rgb(185,116,156)" stroke-width="1.51"/><path d="M312,703L358,713L338,651Z" fill="rgb(133,131,164)" stroke="rgb(133,131,164)" stroke-width="1.51"/><path d="M22,727L358,713L312,703Z" fill="rgb(157,124,126)" stroke="rgb(157,124,126)" stroke-width="1.51"/><path d="M647,154L677,96L613,77Z" fill="rgb(154,112,119)" stroke="rgb(154,112,119)" stroke-width="1.51"/><path d="M613,77L663,-50L555,-41Z" fill="rgb(128,94,151)" stroke="rgb(128,94,151)" stroke-width="1.51"/><path d="M721,213L647,154L651,228Z" fill="rgb(154,123,127)" stroke="rgb(154,123,127)" stroke-width="1.51"/><path d="M609,460L714,442L651,384Z" fill="rgb(72,81,146)" stroke="rgb(72,81,146)" stroke-width="1.51"/><path d="M484,604L552,633L492,567Z" fill="rgb(73,79,145)" stroke="rgb(73,79,145)" stroke-width="1.51"/><path d="M542,667L484,604L497,720Z" fill="rgb(74,80,145)" stroke="rgb(74,80,145)" stroke-width="1.51"/><path d="M552,633L624,565L518,528Z" fill="rgb(68,75,142)" stroke="rgb(68,75,142)" stroke-width="1.51"/><path d="M682,126L677,96L647,154Z" fill="rgb(159,115,113)" stroke="rgb(159,115,113)" stroke-width="1.51"/><path d="M-112,433L-111,513L-35,465Z" fill="rgb(123,91,151)" stroke="rgb(123,91,151)" stroke-width="1.51"/><path d="M-123,198L-111,513L-112,433Z" fill="rgb(147,117,164)" stroke="rgb(147,117,164)" stroke-width="1.51"/><path d="M676,356L726,302L627,322Z" fill="rgb(116,120,164)" stroke="rgb(116,120,164)" stroke-width="1.51"/><path d="M786,88L707,12L677,96Z" fill="rgb(151,108,132)" stroke="rgb(151,108,132)" stroke-width="1.51"/><path d="M765,381L726,302L676,356Z" fill="rgb(111,114,161)" stroke="rgb(111,114,161)" stroke-width="1.51"/><path d="M663,-50L553,-67L555,-41Z" fill="rgb(126,93,151)" stroke="rgb(126,93,151)" stroke-width="1.51"/><path d="M555,-41L553,-67L480,-88Z" fill="rgb(121,90,151)" stroke="rgb(121,90,151)" stroke-width="1.51"/><path d="M480,-88L605,-125L410,-122Z" fill="rgb(129,98,156)" stroke="rgb(129,98,156)" stroke-width="1.51"/><path d="M726,302L721,213L651,228Z" fill="rgb(145,128,147)" stroke="rgb(145,128,147)" stroke-width="1.51"/><path d="M261,-105L99,-129L170,-77Z" fill="rgb(208,138,113)" stroke="rgb(208,138,113)" stroke-width="1.51"/><path d="M311,-117L99,-129L261,-105Z" fill="rgb(201,141,131)" stroke="rgb(201,141,131)" stroke-width="1.51"/><path d="M410,-122L99,-129L311,-117Z" fill="rgb(194,145,150)" stroke="rgb(194,145,150)" stroke-width="1.51"/><path d="M-17,-30L-95,8L-45,29Z" fill="rgb(183,114,160)" stroke="rgb(183,114,160)" stroke-width="1.51"/><path d="M-45,29L-95,8L-64,84Z" fill="rgb(190,120,148)" stroke="rgb(190,120,148)" stroke-width="1.51"/><path d="M99,-129L-6,-70L75,-3Z" fill="rgb(192,121,145)" stroke="rgb(192,121,145)" stroke-width="1.51"/><path d="M-59,622L-26,630L-38,515Z" fill="rgb(135,98,151)" stroke="rgb(135,98,151)" stroke-width="1.51"/><path d="M40,613L33,683L167,666Z" fill="rgb(151,108,131)" stroke="rgb(151,108,131)" stroke-width="1.51"/><path d="M167,666L22,727L238,689Z" fill="rgb(161,117,114)" stroke="rgb(161,117,114)" stroke-width="1.51"/><path d="M497,720L484,604L403,649Z" fill="rgb(91,95,152)" stroke="rgb(91,95,152)" stroke-width="1.51"/><path d="M664,608L676,572L624,565Z" fill="rgb(80,80,142)" stroke="rgb(80,80,142)" stroke-width="1.51"/><path d="M-26,630L33,683L40,613Z" fill="rgb(139,100,147)" stroke="rgb(139,100,147)" stroke-width="1.51"/><path d="M238,689L22,727L312,703Z" fill="rgb(163,122,112)" stroke="rgb(163,122,112)" stroke-width="1.51"/><path d="M676,572L714,442L609,460Z" fill="rgb(69,75,142)" stroke="rgb(69,75,142)" stroke-width="1.51"/><path d="M-90,-66L-95,8L-17,-30Z" fill="rgb(182,114,160)" stroke="rgb(182,114,160)" stroke-width="1.51"/><path d="M-81,673L22,727L33,683Z" fill="rgb(136,98,151)" stroke="rgb(136,98,151)" stroke-width="1.51"/><path d="M-111,513L-59,622L-38,515Z" fill="rgb(131,96,151)" stroke="rgb(131,96,151)" stroke-width="1.51"/><path d="M358,713L497,720L403,649Z" fill="rgb(106,109,159)" stroke="rgb(106,109,159)" stroke-width="1.51"/><path d="M624,565L552,633L642,664Z" fill="rgb(77,78,142)" stroke="rgb(77,78,142)" stroke-width="1.51"/><path d="M664,608L624,565L642,664Z" fill="rgb(81,80,142)" stroke="rgb(81,80,142)" stroke-width="1.51"/><path d="M624,565L676,572L609,460Z" fill="rgb(71,76,142)" stroke="rgb(71,76,142)" stroke-width="1.51"/><path d="M714,442L765,381L676,356Z" fill="rgb(92,96,152)" stroke="rgb(92,96,152)" stroke-width="1.51"/><path d="M726,302L822,208L721,213Z" fill="rgb(147,127,144)" stroke="rgb(147,127,144)" stroke-width="1.51"/><path d="M753,473L765,381L714,442Z" fill="rgb(75,81,146)" stroke="rgb(75,81,146)" stroke-width="1.51"/><path d="M676,572L753,473L714,442Z" fill="rgb(74,77,142)" stroke="rgb(74,77,142)" stroke-width="1.51"/><path d="M642,664L552,633L542,667Z" fill="rgb(74,77,142)" stroke="rgb(74,77,142)" stroke-width="1.51"/><path d="M-81,673L33,683L-26,630Z" fill="rgb(136,98,151)" stroke="rgb(136,98,151)" stroke-width="1.51"/><path d="M33,683L22,727L167,666Z" fill="rgb(150,107,132)" stroke="rgb(150,107,132)" stroke-width="1.51"/><path d="M358,713L22,727L497,720Z" fill="rgb(144,128,148)" stroke="rgb(144,128,148)" stroke-width="1.51"/><path d="M-6,-70L-90,-66L-17,-30Z" fill="rgb(182,114,160)" stroke="rgb(182,114,160)" stroke-width="1.51"/><path d="M-95,8L-90,-66L-123,198Z" fill="rgb(191,121,146)" stroke="rgb(191,121,146)" stroke-width="1.51"/><path d="M99,-129L-90,-66L-6,-70Z" fill="rgb(182,114,159)" stroke="rgb(182,114,159)" stroke-width="1.51"/><path d="M781,510L753,473L676,572Z" fill="rgb(77,78,142)" stroke="rgb(77,78,142)" stroke-width="1.51"/><path d="M786,88L682,126L721,213Z" fill="rgb(164,119,108)" stroke="rgb(164,119,108)" stroke-width="1.51"/><path d="M786,88L677,96L682,126Z" fill="rgb(157,113,120)" stroke="rgb(157,113,120)" stroke-width="1.51"/><path d="M677,96L707,12L613,77Z" fill="rgb(147,106,133)" stroke="rgb(147,106,133)" stroke-width="1.51"/><path d="M707,12L663,-50L613,77Z" fill="rgb(136,98,147)" stroke="rgb(136,98,147)" stroke-width="1.51"/><path d="M553,-67L605,-125L480,-88Z" fill="rgb(122,91,151)" stroke="rgb(122,91,151)" stroke-width="1.51"/><path d="M-59,622L-81,673L-26,630Z" fill="rgb(136,98,151)" stroke="rgb(136,98,151)" stroke-width="1.51"/><path d="M-111,513L-81,673L-59,622Z" fill="rgb(136,98,151)" stroke="rgb(136,98,151)" stroke-width="1.51"/><path d="M741,588L781,510L676,572Z" fill="rgb(82,80,142)" stroke="rgb(82,80,142)" stroke-width="1.51"/><path d="M672,716L642,664L542,667Z" fill="rgb(78,79,142)" stroke="rgb(78,79,142)" stroke-width="1.51"/><path d="M663,-50L605,-125L553,-67Z" fill="rgb(128,94,151)" stroke="rgb(128,94,151)" stroke-width="1.51"/><path d="M410,-122L605,-125L99,-129Z" fill="rgb(171,142,175)" stroke="rgb(171,142,175)" stroke-width="1.51"/><path d="M765,381L804,317L726,302Z" fill="rgb(116,119,163)" stroke="rgb(116,119,163)" stroke-width="1.51"/><path d="M781,510L804,317L765,381Z" fill="rgb(88,92,151)" stroke="rgb(88,92,151)" stroke-width="1.51"/><path d="M824,151L786,88L721,213Z" fill="rgb(165,121,106)" stroke="rgb(165,121,106)" stroke-width="1.51"/><path d="M757,-83L691,-92L663,-50Z" fill="rgb(136,98,151)" stroke="rgb(136,98,151)" stroke-width="1.51"/><path d="M663,-50L691,-92L605,-125Z" fill="rgb(132,96,151)" stroke="rgb(132,96,151)" stroke-width="1.51"/><path d="M741,588L676,572L664,608Z" fill="rgb(85,82,142)" stroke="rgb(85,82,142)" stroke-width="1.51"/><path d="M753,473L781,510L765,381Z" fill="rgb(68,75,142)" stroke="rgb(68,75,142)" stroke-width="1.51"/><path d="M779,586L822,208L804,317Z" fill="rgb(101,104,157)" stroke="rgb(101,104,157)" stroke-width="1.51"/><path d="M804,317L822,208L726,302Z" fill="rgb(137,130,159)" stroke="rgb(137,130,159)" stroke-width="1.51"/><path d="M758,696L741,588L664,608Z" fill="rgb(87,83,142)" stroke="rgb(87,83,142)" stroke-width="1.51"/><path d="M786,88L754,6L707,12Z" fill="rgb(144,103,140)" stroke="rgb(144,103,140)" stroke-width="1.51"/><path d="M757,-83L663,-50L707,12Z" fill="rgb(136,98,151)" stroke="rgb(136,98,151)" stroke-width="1.51"/><path d="M786,88L757,-83L754,6Z" fill="rgb(137,99,150)" stroke="rgb(137,99,150)" stroke-width="1.51"/><path d="M822,208L824,151L721,213Z" fill="rgb(158,123,123)" stroke="rgb(158,123,123)" stroke-width="1.51"/><path d="M642,664L758,696L664,608Z" fill="rgb(86,82,142)" stroke="rgb(86,82,142)" stroke-width="1.51"/><path d="M497,720L672,716L542,667Z" fill="rgb(73,77,142)" stroke="rgb(73,77,142)" stroke-width="1.51"/><path d="M758,696L779,586L741,588Z" fill="rgb(87,83,142)" stroke="rgb(87,83,142)" stroke-width="1.51"/><path d="M741,588L779,586L781,510Z" fill="rgb(82,81,142)" stroke="rgb(82,81,142)" stroke-width="1.51"/><path d="M781,510L779,586L804,317Z" fill="rgb(70,76,142)" stroke="rgb(70,76,142)" stroke-width="1.51"/><path d="M754,6L757,-83L707,12Z" fill="rgb(136,98,151)" stroke="rgb(136,98,151)" stroke-width="1.51"/><path d="M691,-92L757,-83L605,-125Z" fill="rgb(135,98,151)" stroke="rgb(135,98,151)" stroke-width="1.51"/><path d="M824,151L757,-83L786,88Z" fill="rgb(148,106,136)" stroke="rgb(148,106,136)" stroke-width="1.51"/><path d="M672,716L758,696L642,664Z" fill="rgb(86,82,142)" stroke="rgb(86,82,142)" stroke-width="1.51"/></svg>