<svg xmlns="http://www.w3.org/2000/svg" width="700" height="800"><path d="M367,415L308,358L308,437Z" fill="rgb(175,120,134)" stroke="rgb(175,120,134)" stroke-width="1.51"/><path d="M367,415L420,377L308,358Z" fill="rgb(169,113,140)" stroke="rgb(169,113,140)" stroke-width="1.51"/><path d="M206,382L250,471L308,437Z" fill="rgb(188,140,116)" stroke="rgb(188,140,116)" stroke-width="1.51"/><path d="M308,437L323,513L367,415Z" fill="rgb(160,101,149)" stroke="rgb(160,101,149)" stroke-width="1.51"/><path d="M308,358L206,382L308,437Z" fill="rgb(191,145,111)" stroke="rgb(191,145,111)" stroke-width="1.51"/><path d="M386,262L277,298L308,358Z" fill="rgb(197,155,102)" stroke="rgb(197,155,102)" stroke-width="1.51"/><path d="M250,471L323,513L308,437Z" fill="rgb(167,110,142)" stroke="rgb(167,110,142)" stroke-width="1.51"/><path d="M367,415L468,439L420,377Z" fill="rgb(143,84,164)" stroke="rgb(143,84,164)" stroke-width="1.51"/><path d="M277,298L206,382L308,358Z" fill="rgb(202,165,91)" stroke="rgb(202,165,91)" stroke-width="1.51"/><path d="M464,507L468,439L367,415Z" fill="rgb(121,63,180)" stroke="rgb(121,63,180)" stroke-width="1.51"/><path d="M420,377L386,262L308,358Z" fill="rgb(180,128,127)" stroke="rgb(180,128,127)" stroke-width="1.51"/><path d="M470,255L386,262L420,377Z" fill="rgb(174,118,135)" stroke="rgb(174,118,135)" stroke-width="1.51"/><path d="M468,439L490,363L420,377Z" fill="rgb(133,74,171)" stroke="rgb(133,74,171)" stroke-width="1.51"/><path d="M323,513L411,544L367,415Z" fill="rgb(136,76,169)" stroke="rgb(136,76,169)" stroke-width="1.51"/><path d="M250,471L207,522L323,513Z" fill="rgb(170,113,140)" stroke="rgb(170,113,140)" stroke-width="1.51"/><path d="M323,513L365,568L411,544Z" fill="rgb(119,65,179)" stroke="rgb(119,65,179)" stroke-width="1.51"/><path d="M149,468L207,522L250,471Z" fill="rgb(176,118,137)" stroke="rgb(176,118,137)" stroke-width="1.51"/><path d="M300,623L365,568L323,513Z" fill="rgb(136,86,166)" stroke="rgb(136,86,166)" stroke-width="1.51"/><path d="M468,439L520,469L490,363Z" fill="rgb(118,69,179)" stroke="rgb(118,69,179)" stroke-width="1.51"/><path d="M411,544L464,507L367,415Z" fill="rgb(114,59,183)" stroke="rgb(114,59,183)" stroke-width="1.51"/><path d="M206,382L149,468L250,471Z" fill="rgb(187,134,123)" stroke="rgb(187,134,123)" stroke-width="1.51"/><path d="M200,256L140,379L206,382Z" fill="rgb(206,162,97)" stroke="rgb(206,162,97)" stroke-width="1.51"/><path d="M277,298L200,256L206,382Z" fill="rgb(213,186,64)" stroke="rgb(213,186,64)" stroke-width="1.51"/><path d="M330,202L200,256L277,298Z" fill="rgb(214,185,65)" stroke="rgb(214,185,65)" stroke-width="1.51"/><path d="M140,379L149,468L206,382Z" fill="rgb(189,132,126)" stroke="rgb(189,132,126)" stroke-width="1.51"/><path d="M258,629L300,623L323,513Z" fill="rgb(150,105,154)" stroke="rgb(150,105,154)" stroke-width="1.51"/><path d="M149,468L177,518L207,522Z" fill="rgb(168,105,149)" stroke="rgb(168,105,149)" stroke-width="1.51"/><path d="M386,262L330,202L277,298Z" fill="rgb(201,162,95)" stroke="rgb(201,162,95)" stroke-width="1.51"/><path d="M387,175L330,202L386,262Z" fill="rgb(190,136,122)" stroke="rgb(190,136,122)" stroke-width="1.51"/><path d="M490,363L470,255L420,377Z" fill="rgb(153,94,155)" stroke="rgb(153,94,155)" stroke-width="1.51"/><path d="M464,507L520,469L468,439Z" fill="rgb(92,50,192)" stroke="rgb(92,50,192)" stroke-width="1.51"/><path d="M490,363L522,251L470,255Z" fill="rgb(163,113,144)" stroke="rgb(163,113,144)" stroke-width="1.51"/><path d="M548,521L520,469L464,507Z" fill="rgb(75,51,197)" stroke="rgb(75,51,197)" stroke-width="1.51"/><path d="M258,629L323,513L207,522Z" fill="rgb(160,108,147)" stroke="rgb(160,108,147)" stroke-width="1.51"/><path d="M365,568L443,612L411,544Z" fill="rgb(98,59,189)" stroke="rgb(98,59,189)" stroke-width="1.51"/><path d="M411,544L443,612L464,507Z" fill="rgb(70,41,199)" stroke="rgb(70,41,199)" stroke-width="1.51"/><path d="M158,182L132,250L200,256Z" fill="rgb(215,170,91)" stroke="rgb(215,170,91)" stroke-width="1.51"/><path d="M470,255L387,175L386,262Z" fill="rgb(180,123,133)" stroke="rgb(180,123,133)" stroke-width="1.51"/><path d="M130,621L258,629L207,522Z" fill="rgb(163,116,146)" stroke="rgb(163,116,146)" stroke-width="1.51"/><path d="M310,662L365,568L300,623Z" fill="rgb(138,100,162)" stroke="rgb(138,100,162)" stroke-width="1.51"/><path d="M391,704L443,612L365,568Z" fill="rgb(104,76,183)" stroke="rgb(104,76,183)" stroke-width="1.51"/><path d="M570,354L522,251L490,363Z" fill="rgb(153,112,150)" stroke="rgb(153,112,150)" stroke-width="1.51"/><path d="M470,255L439,147L387,175Z" fill="rgb(169,105,149)" stroke="rgb(169,105,149)" stroke-width="1.51"/><path d="M200,256L132,250L140,379Z" fill="rgb(212,169,90)" stroke="rgb(212,169,90)" stroke-width="1.51"/><path d="M198,183L200,256L330,202Z" fill="rgb(217,185,68)" stroke="rgb(217,185,68)" stroke-width="1.51"/><path d="M520,469L570,354L490,363Z" fill="rgb(130,89,169)" stroke="rgb(130,89,169)" stroke-width="1.51"/><path d="M246,108L198,183L330,202Z" fill="rgb(211,164,96)" stroke="rgb(211,164,96)" stroke-width="1.51"/><path d="M522,251L502,218L470,255Z" fill="rgb(165,115,144)" stroke="rgb(165,115,144)" stroke-width="1.51"/><path d="M520,469L639,427L570,354Z" fill="rgb(122,96,171)" stroke="rgb(122,96,171)" stroke-width="1.51"/><path d="M554,596L548,521L464,507Z" fill="rgb(41,47,205)" stroke="rgb(41,47,205)" stroke-width="1.51"/><path d="M149,468L89,513L177,518Z" fill="rgb(162,92,160)" stroke="rgb(162,92,160)" stroke-width="1.51"/><path d="M177,518L130,621L207,522Z" fill="rgb(158,98,157)" stroke="rgb(158,98,157)" stroke-width="1.51"/><path d="M140,379L67,441L149,468Z" fill="rgb(178,110,147)" stroke="rgb(178,110,147)" stroke-width="1.51"/><path d="M60,333L67,441L140,379Z" fill="rgb(185,115,144)" stroke="rgb(185,115,144)" stroke-width="1.51"/><path d="M67,441L89,513L149,468Z" fill="rgb(163,89,164)" stroke="rgb(163,89,164)" stroke-width="1.51"/><path d="M258,629L310,662L300,623Z" fill="rgb(150,118,149)" stroke="rgb(150,118,149)" stroke-width="1.51"/><path d="M140,90L158,182L198,183Z" fill="rgb(209,148,116)" stroke="rgb(209,148,116)" stroke-width="1.51"/><path d="M198,183L158,182L200,256Z" fill="rgb(215,171,90)" stroke="rgb(215,171,90)" stroke-width="1.51"/><path d="M502,218L439,147L470,255Z" fill="rgb(160,97,156)" stroke="rgb(160,97,156)" stroke-width="1.51"/><path d="M387,175L382,111L330,202Z" fill="rgb(185,122,136)" stroke="rgb(185,122,136)" stroke-width="1.51"/><path d="M68,292L140,379L132,250Z" fill="rgb(206,150,112)" stroke="rgb(206,150,112)" stroke-width="1.51"/><path d="M68,292L60,333L140,379Z" fill="rgb(197,132,129)" stroke="rgb(197,132,129)" stroke-width="1.51"/><path d="M64,228L68,292L132,250Z" fill="rgb(210,152,111)" stroke="rgb(210,152,111)" stroke-width="1.51"/><path d="M502,218L525,195L439,147Z" fill="rgb(157,96,160)" stroke="rgb(157,96,160)" stroke-width="1.51"/><path d="M522,251L525,195L502,218Z" fill="rgb(162,115,148)" stroke="rgb(162,115,148)" stroke-width="1.51"/><path d="M613,211L525,195L522,251Z" fill="rgb(161,124,145)" stroke="rgb(161,124,145)" stroke-width="1.51"/><path d="M453,40L382,111L439,147Z" fill="rgb(155,79,171)" stroke="rgb(155,79,171)" stroke-width="1.51"/><path d="M439,147L382,111L387,175Z" fill="rgb(171,102,153)" stroke="rgb(171,102,153)" stroke-width="1.51"/><path d="M89,513L130,621L177,518Z" fill="rgb(150,84,169)" stroke="rgb(150,84,169)" stroke-width="1.51"/><path d="M258,629L237,708L310,662Z" fill="rgb(155,133,140)" stroke="rgb(155,133,140)" stroke-width="1.51"/><path d="M306,88L246,108L330,202Z" fill="rgb(200,141,120)" stroke="rgb(200,141,120)" stroke-width="1.51"/><path d="M443,612L554,596L464,507Z" fill="rgb(39,44,205)" stroke="rgb(39,44,205)" stroke-width="1.51"/><path d="M625,496L639,427L520,469Z" fill="rgb(101,87,181)" stroke="rgb(101,87,181)" stroke-width="1.51"/><path d="M499,708L554,596L443,612Z" fill="rgb(51,66,200)" stroke="rgb(51,66,200)" stroke-width="1.51"/><path d="M130,621L175,666L258,629Z" fill="rgb(160,125,146)" stroke="rgb(160,125,146)" stroke-width="1.51"/><path d="M382,111L306,88L330,202Z" fill="rgb(189,123,135)" stroke="rgb(189,123,135)" stroke-width="1.51"/><path d="M158,182L64,228L132,250Z" fill="rgb(210,152,111)" stroke="rgb(210,152,111)" stroke-width="1.51"/><path d="M68,292L20,302L60,333Z" fill="rgb(198,128,135)" stroke="rgb(198,128,135)" stroke-width="1.51"/><path d="M63,136L64,228L158,182Z" fill="rgb(204,132,131)" stroke="rgb(204,132,131)" stroke-width="1.51"/><path d="M310,662L391,704L365,568Z" fill="rgb(125,96,169)" stroke="rgb(125,96,169)" stroke-width="1.51"/><path d="M313,738L391,704L310,662Z" fill="rgb(131,116,159)" stroke="rgb(131,116,159)" stroke-width="1.51"/><path d="M570,354L632,247L522,251Z" fill="rgb(161,138,134)" stroke="rgb(161,138,134)" stroke-width="1.51"/><path d="M625,496L520,469L548,521Z" fill="rgb(81,69,192)" stroke="rgb(81,69,192)" stroke-width="1.51"/><path d="M554,596L625,496L548,521Z" fill="rgb(49,63,200)" stroke="rgb(49,63,200)" stroke-width="1.51"/><path d="M64,228L20,302L68,292Z" fill="rgb(206,140,123)" stroke="rgb(206,140,123)" stroke-width="1.51"/><path d="M-8,383L7,447L67,441Z" fill="rgb(162,77,175)" stroke="rgb(162,77,175)" stroke-width="1.51"/><path d="M67,441L10,506L89,513Z" fill="rgb(147,67,181)" stroke="rgb(147,67,181)" stroke-width="1.51"/><path d="M175,666L237,708L258,629Z" fill="rgb(163,143,131)" stroke="rgb(163,143,131)" stroke-width="1.51"/><path d="M-8,383L67,441L60,333Z" fill="rgb(177,97,159)" stroke="rgb(177,97,159)" stroke-width="1.51"/><path d="M89,513L47,593L130,621Z" fill="rgb(139,76,180)" stroke="rgb(139,76,180)" stroke-width="1.51"/><path d="M382,111L304,72L306,88Z" fill="rgb(186,114,145)" stroke="rgb(186,114,145)" stroke-width="1.51"/><path d="M306,88L304,72L246,108Z" fill="rgb(198,131,130)" stroke="rgb(198,131,130)" stroke-width="1.51"/><path d="M639,427L651,331L570,354Z" fill="rgb(136,123,154)" stroke="rgb(136,123,154)" stroke-width="1.51"/><path d="M7,447L10,506L67,441Z" fill="rgb(148,64,183)" stroke="rgb(148,64,183)" stroke-width="1.51"/><path d="M130,621L44,711L175,666Z" fill="rgb(146,109,165)" stroke="rgb(146,109,165)" stroke-width="1.51"/><path d="M20,302L-8,383L60,333Z" fill="rgb(187,108,151)" stroke="rgb(187,108,151)" stroke-width="1.51"/><path d="M-113,542L-12,582L10,506Z" fill="rgb(105,26,209)" stroke="rgb(105,26,209)" stroke-width="1.51"/><path d="M651,331L632,247L570,354Z" fill="rgb(153,141,137)" stroke="rgb(153,141,137)" stroke-width="1.51"/><path d="M525,195L556,139L439,147Z" fill="rgb(152,94,165)" stroke="rgb(152,94,165)" stroke-width="1.51"/><path d="M237,708L313,738L310,662Z" fill="rgb(149,134,143)" stroke="rgb(149,134,143)" stroke-width="1.51"/><path d="M10,506L47,593L89,513Z" fill="rgb(125,47,194)" stroke="rgb(125,47,194)" stroke-width="1.51"/><path d="M135,776L249,764L237,708Z" fill="rgb(157,157,129)" stroke="rgb(157,157,129)" stroke-width="1.51"/><path d="M632,247L613,211L522,251Z" fill="rgb(161,139,136)" stroke="rgb(161,139,136)" stroke-width="1.51"/><path d="M382,111L358,-10L304,72Z" fill="rgb(175,97,159)" stroke="rgb(175,97,159)" stroke-width="1.51"/><path d="M613,211L556,139L525,195Z" fill="rgb(155,117,154)" stroke="rgb(155,117,154)" stroke-width="1.51"/><path d="M313,738L370,744L391,704Z" fill="rgb(123,115,163)" stroke="rgb(123,115,163)" stroke-width="1.51"/><path d="M391,704L499,708L443,612Z" fill="rgb(74,73,193)" stroke="rgb(74,73,193)" stroke-width="1.51"/><path d="M717,511L695,423L625,496Z" fill="rgb(94,106,178)" stroke="rgb(94,106,178)" stroke-width="1.51"/><path d="M459,770L499,708L391,704Z" fill="rgb(72,84,191)" stroke="rgb(72,84,191)" stroke-width="1.51"/><path d="M246,108L140,90L198,183Z" fill="rgb(210,150,113)" stroke="rgb(210,150,113)" stroke-width="1.51"/><path d="M64,228L1,222L20,302Z" fill="rgb(203,130,133)" stroke="rgb(203,130,133)" stroke-width="1.51"/><path d="M197,17L140,90L246,108Z" fill="rgb(205,133,130)" stroke="rgb(205,133,130)" stroke-width="1.51"/><path d="M639,427L695,423L651,331Z" fill="rgb(127,126,157)" stroke="rgb(127,126,157)" stroke-width="1.51"/><path d="M734,293L700,215L632,247Z" fill="rgb(156,170,121)" stroke="rgb(156,170,121)" stroke-width="1.51"/><path d="M625,496L695,423L639,427Z" fill="rgb(107,108,172)" stroke="rgb(107,108,172)" stroke-width="1.51"/><path d="M630,611L625,496L554,596Z" fill="rgb(55,78,197)" stroke="rgb(55,78,197)" stroke-width="1.51"/><path d="M63,136L1,222L64,228Z" fill="rgb(198,118,145)" stroke="rgb(198,118,145)" stroke-width="1.51"/><path d="M-77,351L-74,413L-8,383Z" fill="rgb(170,84,170)" stroke="rgb(170,84,170)" stroke-width="1.51"/><path d="M499,708L569,678L554,596Z" fill="rgb(56,83,195)" stroke="rgb(56,83,195)" stroke-width="1.51"/><path d="M569,678L630,611L554,596Z" fill="rgb(56,87,194)" stroke="rgb(56,87,194)" stroke-width="1.51"/><path d="M140,90L63,136L158,182Z" fill="rgb(202,128,137)" stroke="rgb(202,128,137)" stroke-width="1.51"/><path d="M237,708L249,764L313,738Z" fill="rgb(153,150,133)" stroke="rgb(153,150,133)" stroke-width="1.51"/><path d="M313,738L336,865L370,744Z" fill="rgb(128,134,153)" stroke="rgb(128,134,153)" stroke-width="1.51"/><path d="M135,776L237,708L175,666Z" fill="rgb(156,142,140)" stroke="rgb(156,142,140)" stroke-width="1.51"/><path d="M556,139L453,40L439,147Z" fill="rgb(140,71,180)" stroke="rgb(140,71,180)" stroke-width="1.51"/><path d="M304,72L197,17L246,108Z" fill="rgb(205,139,124)" stroke="rgb(205,139,124)" stroke-width="1.51"/><path d="M47,593L44,711L130,621Z" fill="rgb(136,89,180)" stroke="rgb(136,89,180)" stroke-width="1.51"/><path d="M10,506L-12,582L47,593Z" fill="rgb(113,42,203)" stroke="rgb(113,42,203)" stroke-width="1.51"/><path d="M-74,413L10,506L7,447Z" fill="rgb(144,56,189)" stroke="rgb(144,56,189)" stroke-width="1.51"/><path d="M453,40L421,18L382,111Z" fill="rgb(148,68,181)" stroke="rgb(148,68,181)" stroke-width="1.51"/><path d="M453,40L444,-18L421,18Z" fill="rgb(127,42,198)" stroke="rgb(127,42,198)" stroke-width="1.51"/><path d="M556,139L556,46L453,40Z" fill="rgb(133,74,186)" stroke="rgb(133,74,186)" stroke-width="1.51"/><path d="M613,211L597,114L556,139Z" fill="rgb(150,116,159)" stroke="rgb(150,116,159)" stroke-width="1.51"/><path d="M700,215L597,114L613,211Z" fill="rgb(152,137,147)" stroke="rgb(152,137,147)" stroke-width="1.51"/><path d="M700,215L613,211L632,247Z" fill="rgb(156,151,134)" stroke="rgb(156,151,134)" stroke-width="1.51"/><path d="M485,814L459,770L417,861Z" fill="rgb(69,99,187)" stroke="rgb(69,99,187)" stroke-width="1.51"/><path d="M370,744L459,770L391,704Z" fill="rgb(100,101,178)" stroke="rgb(100,101,178)" stroke-width="1.51"/><path d="M499,708L546,734L569,678Z" fill="rgb(57,92,192)" stroke="rgb(57,92,192)" stroke-width="1.51"/><path d="M-8,383L-74,413L7,447Z" fill="rgb(159,72,179)" stroke="rgb(159,72,179)" stroke-width="1.51"/><path d="M-77,351L-8,383L20,302Z" fill="rgb(181,97,160)" stroke="rgb(181,97,160)" stroke-width="1.51"/><path d="M459,770L546,734L499,708Z" fill="rgb(57,90,193)" stroke="rgb(57,90,193)" stroke-width="1.51"/><path d="M690,656L695,617L630,611Z" fill="rgb(56,108,186)" stroke="rgb(56,108,186)" stroke-width="1.51"/><path d="M140,90L54,17L63,136Z" fill="rgb(190,98,163)" stroke="rgb(190,98,163)" stroke-width="1.51"/><path d="M227,-20L197,17L304,72Z" fill="rgb(202,129,135)" stroke="rgb(202,129,135)" stroke-width="1.51"/><path d="M197,17L159,29L140,90Z" fill="rgb(197,116,147)" stroke="rgb(197,116,147)" stroke-width="1.51"/><path d="M630,611L717,511L625,496Z" fill="rgb(56,85,194)" stroke="rgb(56,85,194)" stroke-width="1.51"/><path d="M695,617L717,511L630,611Z" fill="rgb(57,100,190)" stroke="rgb(57,100,190)" stroke-width="1.51"/><path d="M-107,294L-77,351L20,302Z" fill="rgb(189,108,152)" stroke="rgb(189,108,152)" stroke-width="1.51"/><path d="M421,18L358,-10L382,111Z" fill="rgb(158,75,176)" stroke="rgb(158,75,176)" stroke-width="1.51"/><path d="M695,423L740,369L651,331Z" fill="rgb(131,141,148)" stroke="rgb(131,141,148)" stroke-width="1.51"/><path d="M785,388L740,369L695,423Z" fill="rgb(125,136,153)" stroke="rgb(125,136,153)" stroke-width="1.51"/><path d="M734,293L632,247L651,331Z" fill="rgb(153,162,126)" stroke="rgb(153,162,126)" stroke-width="1.51"/><path d="M597,114L556,46L556,139Z" fill="rgb(139,96,175)" stroke="rgb(139,96,175)" stroke-width="1.51"/><path d="M421,18L444,-18L358,-10Z" fill="rgb(139,52,192)" stroke="rgb(139,52,192)" stroke-width="1.51"/><path d="M605,42L556,46L597,114Z" fill="rgb(132,92,182)" stroke="rgb(132,92,182)" stroke-width="1.51"/><path d="M740,369L734,293L651,331Z" fill="rgb(142,156,135)" stroke="rgb(142,156,135)" stroke-width="1.51"/><path d="M-7,694L44,711L47,593Z" fill="rgb(122,81,191)" stroke="rgb(122,81,191)" stroke-width="1.51"/><path d="M417,861L459,770L370,744Z" fill="rgb(95,110,176)" stroke="rgb(95,110,176)" stroke-width="1.51"/><path d="M44,711L135,776L175,666Z" fill="rgb(146,122,161)" stroke="rgb(146,122,161)" stroke-width="1.51"/><path d="M640,695L630,611L569,678Z" fill="rgb(57,101,189)" stroke="rgb(57,101,189)" stroke-width="1.51"/><path d="M197,17L149,-32L159,29Z" fill="rgb(192,104,158)" stroke="rgb(192,104,158)" stroke-width="1.51"/><path d="M310,-35L227,-20L304,72Z" fill="rgb(188,108,152)" stroke="rgb(188,108,152)" stroke-width="1.51"/><path d="M358,-10L310,-35L304,72Z" fill="rgb(175,91,165)" stroke="rgb(175,91,165)" stroke-width="1.51"/><path d="M566,-12L444,-18L453,40Z" fill="rgb(108,35,207)" stroke="rgb(108,35,207)" stroke-width="1.51"/><path d="M546,734L640,695L569,678Z" fill="rgb(57,103,189)" stroke="rgb(57,103,189)" stroke-width="1.51"/><path d="M331,-109L310,-35L358,-10Z" fill="rgb(170,85,170)" stroke="rgb(170,85,170)" stroke-width="1.51"/><path d="M546,734L661,748L640,695Z" fill="rgb(55,116,185)" stroke="rgb(55,116,185)" stroke-width="1.51"/><path d="M459,770L532,812L546,734Z" fill="rgb(57,100,189)" stroke="rgb(57,100,189)" stroke-width="1.51"/><path d="M336,865L313,738L249,764Z" fill="rgb(140,150,140)" stroke="rgb(140,150,140)" stroke-width="1.51"/><path d="M786,548L777,473L717,511Z" fill="rgb(75,101,185)" stroke="rgb(75,101,185)" stroke-width="1.51"/><path d="M640,695L690,656L630,611Z" fill="rgb(56,109,186)" stroke="rgb(56,109,186)" stroke-width="1.51"/><path d="M-77,351L-107,294L-74,413Z" fill="rgb(179,95,162)" stroke="rgb(179,95,162)" stroke-width="1.51"/><path d="M1,222L-107,294L20,302Z" fill="rgb(200,123,140)" stroke="rgb(200,123,140)" stroke-width="1.51"/><path d="M-88,176L-107,294L1,222Z" fill="rgb(197,114,148)" stroke="rgb(197,114,148)" stroke-width="1.51"/><path d="M-88,176L1,222L-36,92Z" fill="rgb(187,92,166)" stroke="rgb(187,92,166)" stroke-width="1.51"/><path d="M44,711L41,788L135,776Z" fill="rgb(135,118,171)" stroke="rgb(135,118,171)" stroke-width="1.51"/><path d="M-12,582L-7,694L47,593Z" fill="rgb(114,62,200)" stroke="rgb(114,62,200)" stroke-width="1.51"/><path d="M-91,615L-7,694L-12,582Z" fill="rgb(111,60,202)" stroke="rgb(111,60,202)" stroke-width="1.51"/><path d="M-113,542L10,506L-74,413Z" fill="rgb(129,43,197)" stroke="rgb(129,43,197)" stroke-width="1.51"/><path d="M556,46L566,-12L453,40Z" fill="rgb(118,59,198)" stroke="rgb(118,59,198)" stroke-width="1.51"/><path d="M736,144L605,42L597,114Z" fill="rgb(139,117,169)" stroke="rgb(139,117,169)" stroke-width="1.51"/><path d="M740,369L817,300L734,293Z" fill="rgb(144,159,132)" stroke="rgb(144,159,132)" stroke-width="1.51"/><path d="M717,511L777,473L695,423Z" fill="rgb(97,113,174)" stroke="rgb(97,113,174)" stroke-width="1.51"/><path d="M786,548L717,511L695,617Z" fill="rgb(57,100,189)" stroke="rgb(57,100,189)" stroke-width="1.51"/><path d="M777,473L785,388L695,423Z" fill="rgb(114,125,163)" stroke="rgb(114,125,163)" stroke-width="1.51"/><path d="M734,293L767,203L700,215Z" fill="rgb(153,169,124)" stroke="rgb(153,169,124)" stroke-width="1.51"/><path d="M640,695L661,748L690,656Z" fill="rgb(53,122,182)" stroke="rgb(53,122,182)" stroke-width="1.51"/><path d="M485,814L532,812L459,770Z" fill="rgb(57,101,189)" stroke="rgb(57,101,189)" stroke-width="1.51"/><path d="M-107,294L-113,542L-74,413Z" fill="rgb(158,71,179)" stroke="rgb(158,71,179)" stroke-width="1.51"/><path d="M159,29L54,17L140,90Z" fill="rgb(190,98,162)" stroke="rgb(190,98,162)" stroke-width="1.51"/><path d="M227,-20L149,-32L197,17Z" fill="rgb(195,110,152)" stroke="rgb(195,110,152)" stroke-width="1.51"/><path d="M166,-90L149,-32L227,-20Z" fill="rgb(194,106,155)" stroke="rgb(194,106,155)" stroke-width="1.51"/><path d="M253,868L336,865L249,764Z" fill="rgb(145,160,131)" stroke="rgb(145,160,131)" stroke-width="1.51"/><path d="M485,814L494,889L532,812Z" fill="rgb(57,104,188)" stroke="rgb(57,104,188)" stroke-width="1.51"/><path d="M149,-32L54,17L159,29Z" fill="rgb(184,85,172)" stroke="rgb(184,85,172)" stroke-width="1.51"/><path d="M-36,92L1,222L63,136Z" fill="rgb(186,92,167)" stroke="rgb(186,92,167)" stroke-width="1.51"/><path d="M-113,542L-91,615L-12,582Z" fill="rgb(108,43,206)" stroke="rgb(108,43,206)" stroke-width="1.51"/><path d="M336,865L417,861L370,744Z" fill="rgb(114,126,163)" stroke="rgb(114,126,163)" stroke-width="1.51"/><path d="M-103,743L17,755L-7,694Z" fill="rgb(114,89,196)" stroke="rgb(114,89,196)" stroke-width="1.51"/><path d="M-7,694L17,755L44,711Z" fill="rgb(120,92,191)" stroke="rgb(120,92,191)" stroke-width="1.51"/><path d="M175,869L253,868L249,764Z" fill="rgb(155,174,117)" stroke="rgb(155,174,117)" stroke-width="1.51"/><path d="M605,42L566,-12L556,46Z" fill="rgb(120,76,194)" stroke="rgb(120,76,194)" stroke-width="1.51"/><path d="M375,-126L331,-109L358,-10Z" fill="rgb(162,76,176)" stroke="rgb(162,76,176)" stroke-width="1.51"/><path d="M54,17L-36,92L63,136Z" fill="rgb(177,75,180)" stroke="rgb(177,75,180)" stroke-width="1.51"/><path d="M175,869L249,764L135,776Z" fill="rgb(152,162,131)" stroke="rgb(152,162,131)" stroke-width="1.51"/><path d="M700,215L736,144L597,114Z" fill="rgb(147,141,150)" stroke="rgb(147,141,150)" stroke-width="1.51"/><path d="M605,42L600,-72L566,-12Z" fill="rgb(112,74,199)" stroke="rgb(112,74,199)" stroke-width="1.51"/><path d="M817,300L767,203L734,293Z" fill="rgb(156,176,115)" stroke="rgb(156,176,115)" stroke-width="1.51"/><path d="M767,203L736,144L700,215Z" fill="rgb(149,155,139)" stroke="rgb(149,155,139)" stroke-width="1.51"/><path d="M781,628L786,548L695,617Z" fill="rgb(56,109,187)" stroke="rgb(56,109,187)" stroke-width="1.51"/><path d="M777,473L817,300L785,388Z" fill="rgb(127,138,151)" stroke="rgb(127,138,151)" stroke-width="1.51"/><path d="M17,755L41,788L44,711Z" fill="rgb(125,104,184)" stroke="rgb(125,104,184)" stroke-width="1.51"/><path d="M-2,850L41,788L17,755Z" fill="rgb(120,111,185)" stroke="rgb(120,111,185)" stroke-width="1.51"/><path d="M609,833L661,748L546,734Z" fill="rgb(52,123,182)" stroke="rgb(52,123,182)" stroke-width="1.51"/><path d="M690,656L781,628L695,617Z" fill="rgb(55,116,184)" stroke="rgb(55,116,184)" stroke-width="1.51"/><path d="M103,863L175,869L135,776Z" fill="rgb(145,147,148)" stroke="rgb(145,147,148)" stroke-width="1.51"/><path d="M786,548L817,300L777,473Z" fill="rgb(109,122,167)" stroke="rgb(109,122,167)" stroke-width="1.51"/><path d="M785,388L817,300L740,369Z" fill="rgb(137,149,141)" stroke="rgb(137,149,141)" stroke-width="1.51"/><path d="M310,-35L219,-142L227,-20Z" fill="rgb(196,118,144)" stroke="rgb(196,118,144)" stroke-width="1.51"/><path d="M375,-126L358,-10L444,-18Z" fill="rgb(146,59,187)" stroke="rgb(146,59,187)" stroke-width="1.51"/><path d="M54,17L-7,14L-36,92Z" fill="rgb(162,47,198)" stroke="rgb(162,47,198)" stroke-width="1.51"/><path d="M-36,92L-124,101L-88,176Z" fill="rgb(180,79,177)" stroke="rgb(180,79,177)" stroke-width="1.51"/><path d="M-26,-20L-7,14L54,17Z" fill="rgb(154,30,206)" stroke="rgb(154,30,206)" stroke-width="1.51"/><path d="M83,-74L54,17L149,-32Z" fill="rgb(177,74,181)" stroke="rgb(177,74,181)" stroke-width="1.51"/><path d="M-103,743L-89,691L-91,615Z" fill="rgb(113,76,199)" stroke="rgb(113,76,199)" stroke-width="1.51"/><path d="M-91,615L-89,691L-7,694Z" fill="rgb(112,72,200)" stroke="rgb(112,72,200)" stroke-width="1.51"/><path d="M786,548L793,667L817,300Z" fill="rgb(78,103,184)" stroke="rgb(78,103,184)" stroke-width="1.51"/><path d="M793,667L781,628L690,656Z" fill="rgb(53,120,182)" stroke="rgb(53,120,182)" stroke-width="1.51"/><path d="M219,-142L166,-90L227,-20Z" fill="rgb(197,115,148)" stroke="rgb(197,115,148)" stroke-width="1.51"/><path d="M336,865L374,935L417,861Z" fill="rgb(113,125,163)" stroke="rgb(113,125,163)" stroke-width="1.51"/><path d="M253,868L291,911L336,865Z" fill="rgb(141,155,136)" stroke="rgb(141,155,136)" stroke-width="1.51"/><path d="M226,929L291,911L253,868Z" fill="rgb(150,168,123)" stroke="rgb(150,168,123)" stroke-width="1.51"/><path d="M175,869L226,929L253,868Z" fill="rgb(154,172,120)" stroke="rgb(154,172,120)" stroke-width="1.51"/><path d="M41,788L103,863L135,776Z" fill="rgb(138,133,162)" stroke="rgb(138,133,162)" stroke-width="1.51"/><path d="M-2,850L103,863L41,788Z" fill="rgb(128,120,176)" stroke="rgb(128,120,176)" stroke-width="1.51"/><path d="M661,748L730,737L690,656Z" fill="rgb(47,132,178)" stroke="rgb(47,132,178)" stroke-width="1.51"/><path d="M532,812L609,833L546,734Z" fill="rgb(54,117,183)" stroke="rgb(54,117,183)" stroke-width="1.51"/><path d="M494,889L609,833L532,812Z" fill="rgb(55,114,185)" stroke="rgb(55,114,185)" stroke-width="1.51"/><path d="M494,889L485,814L417,861Z" fill="rgb(58,95,191)" stroke="rgb(58,95,191)" stroke-width="1.51"/><path d="M374,935L494,889L417,861Z" fill="rgb(87,107,180)" stroke="rgb(87,107,180)" stroke-width="1.51"/><path d="M554,-111L469,-102L566,-12Z" fill="rgb(109,53,204)" stroke="rgb(109,53,204)" stroke-width="1.51"/><path d="M566,-12L469,-102L444,-18Z" fill="rgb(107,36,207)" stroke="rgb(107,36,207)" stroke-width="1.51"/><path d="M469,-102L375,-126L444,-18Z" fill="rgb(128,41,198)" stroke="rgb(128,41,198)" stroke-width="1.51"/><path d="M331,-109L219,-142L310,-35Z" fill="rgb(186,104,155)" stroke="rgb(186,104,155)" stroke-width="1.51"/><path d="M738,810L730,737L661,748Z" fill="rgb(35,144,174)" stroke="rgb(35,144,174)" stroke-width="1.51"/><path d="M95,-91L83,-74L149,-32Z" fill="rgb(180,79,177)" stroke="rgb(180,79,177)" stroke-width="1.51"/><path d="M-7,14L-64,33L-36,92Z" fill="rgb(162,49,197)" stroke="rgb(162,49,197)" stroke-width="1.51"/><path d="M-26,-20L-64,33L-7,14Z" fill="rgb(153,28,207)" stroke="rgb(153,28,207)" stroke-width="1.51"/><path d="M730,737L793,667L690,656Z" fill="rgb(50,128,180)" stroke="rgb(50,128,180)" stroke-width="1.51"/><path d="M781,628L793,667L786,548Z" fill="rgb(55,112,185)" stroke="rgb(55,112,185)" stroke-width="1.51"/><path d="M291,911L374,935L336,865Z" fill="rgb(129,140,150)" stroke="rgb(129,140,150)" stroke-width="1.51"/><path d="M226,929L374,935L291,911Z" fill="rgb(140,153,138)" stroke="rgb(140,153,138)" stroke-width="1.51"/><path d="M-64,33L-124,101L-36,92Z" fill="rgb(170,61,190)" stroke="rgb(170,61,190)" stroke-width="1.51"/><path d="M-88,176L-124,101L-107,294Z" fill="rgb(191,101,159)" stroke="rgb(191,101,159)" stroke-width="1.51"/><path d="M-107,294L-124,101L-113,542Z" fill="rgb(190,109,151)" stroke="rgb(190,109,151)" stroke-width="1.51"/><path d="M736,144L740,11L605,42Z" fill="rgb(130,121,174)" stroke="rgb(130,121,174)" stroke-width="1.51"/><path d="M767,203L769,88L736,144Z" fill="rgb(144,144,151)" stroke="rgb(144,144,151)" stroke-width="1.51"/><path d="M817,300L769,88L767,203Z" fill="rgb(150,158,136)" stroke="rgb(150,158,136)" stroke-width="1.51"/><path d="M83,-74L-26,-20L54,17Z" fill="rgb(162,46,198)" stroke="rgb(162,46,198)" stroke-width="1.51"/><path d="M166,-90L95,-91L149,-32Z" fill="rgb(185,90,168)" stroke="rgb(185,90,168)" stroke-width="1.51"/><path d="M219,-142L95,-91L166,-90Z" fill="rgb(190,99,161)" stroke="rgb(190,99,161)" stroke-width="1.51"/><path d="M178,948L226,929L175,869Z" fill="rgb(152,164,129)" stroke="rgb(152,164,129)" stroke-width="1.51"/><path d="M698,-30L600,-72L605,42Z" fill="rgb(114,87,196)" stroke="rgb(114,87,196)" stroke-width="1.51"/><path d="M469,-102L616,-147L375,-126Z" fill="rgb(106,33,208)" stroke="rgb(106,33,208)" stroke-width="1.51"/><path d="M-64,33L-67,-41L-124,101Z" fill="rgb(158,41,201)" stroke="rgb(158,41,201)" stroke-width="1.51"/><path d="M-67,-41L-26,-20L-42,-123Z" fill="rgb(150,21,209)" stroke="rgb(150,21,209)" stroke-width="1.51"/><path d="M375,-126L219,-142L331,-109Z" fill="rgb(179,95,162)" stroke="rgb(179,95,162)" stroke-width="1.51"/><path d="M-89,691L-103,743L-7,694Z" fill="rgb(113,83,197)" stroke="rgb(113,83,197)" stroke-width="1.51"/><path d="M-113,542L-103,743L-91,615Z" fill="rgb(111,62,202)" stroke="rgb(111,62,202)" stroke-width="1.51"/><path d="M600,-72L554,-111L566,-12Z" fill="rgb(112,68,201)" stroke="rgb(112,68,201)" stroke-width="1.51"/><path d="M375,-126L616,-147L219,-142Z" fill="rgb(141,54,190)" stroke="rgb(141,54,190)" stroke-width="1.51"/><path d="M-106,813L-2,850L17,755Z" fill="rgb(114,106,191)" stroke="rgb(114,106,191)" stroke-width="1.51"/><path d="M83,926L178,948L175,869Z" fill="rgb(146,150,145)" stroke="rgb(146,150,145)" stroke-width="1.51"/><path d="M600,-72L616,-147L554,-111Z" fill="rgb(112,74,199)" stroke="rgb(112,74,199)" stroke-width="1.51"/><path d="M769,88L740,11L736,144Z" fill="rgb(134,127,169)" stroke="rgb(134,127,169)" stroke-width="1.51"/><path d="M740,11L698,-30L605,42Z" fill="rgb(116,102,190)" stroke="rgb(116,102,190)" stroke-width="1.51"/><path d="M83,926L175,869L103,863Z" fill="rgb(142,142,153)" stroke="rgb(142,142,153)" stroke-width="1.51"/><path d="M226,929L178,948L374,935Z" fill="rgb(150,167,124)" stroke="rgb(150,167,124)" stroke-width="1.51"/><path d="M730,737L800,729L793,667Z" fill="rgb(46,133,178)" stroke="rgb(46,133,178)" stroke-width="1.51"/><path d="M793,667L800,729L817,300Z" fill="rgb(57,102,189)" stroke="rgb(57,102,189)" stroke-width="1.51"/><path d="M738,810L800,729L730,737Z" fill="rgb(37,143,175)" stroke="rgb(37,143,175)" stroke-width="1.51"/><path d="M-2,850L83,926L103,863Z" fill="rgb(131,124,172)" stroke="rgb(131,124,172)" stroke-width="1.51"/><path d="M609,833L738,810L661,748Z" fill="rgb(36,143,174)" stroke="rgb(36,143,174)" stroke-width="1.51"/><path d="M660,901L738,810L609,833Z" fill="rgb(35,144,174)" stroke="rgb(35,144,174)" stroke-width="1.51"/><path d="M555,942L609,833L494,889Z" fill="rgb(55,116,184)" stroke="rgb(55,116,184)" stroke-width="1.51"/><path d="M-26,-20L-67,-41L-64,33Z" fill="rgb(150,21,209)" stroke="rgb(150,21,209)" stroke-width="1.51"/><path d="M-42,-123L-26,-20L83,-74Z" fill="rgb(152,25,208)" stroke="rgb(152,25,208)" stroke-width="1.51"/><path d="M-42,-123L83,-74L95,-91Z" fill="rgb(164,51,196)" stroke="rgb(164,51,196)" stroke-width="1.51"/><path d="M178,948L555,942L374,935Z" fill="rgb(116,128,161)" stroke="rgb(116,128,161)" stroke-width="1.51"/><path d="M374,935L555,942L494,889Z" fill="rgb(57,97,191)" stroke="rgb(57,97,191)" stroke-width="1.51"/><path d="M769,88L786,19L740,11Z" fill="rgb(124,116,180)" stroke="rgb(124,116,180)" stroke-width="1.51"/><path d="M740,11L772,-97L698,-30Z" fill="rgb(114,106,191)" stroke="rgb(114,106,191)" stroke-width="1.51"/><path d="M700,-141L616,-147L600,-72Z" fill="rgb(114,88,196)" stroke="rgb(114,88,196)" stroke-width="1.51"/><path d="M817,300L786,19L769,88Z" fill="rgb(142,142,154)" stroke="rgb(142,142,154)" stroke-width="1.51"/><path d="M-2,850L-11,914L83,926Z" fill="rgb(121,112,183)" stroke="rgb(121,112,183)" stroke-width="1.51"/><path d="M-103,743L-106,813L17,755Z" fill="rgb(114,99,193)" stroke="rgb(114,99,193)" stroke-width="1.51"/><path d="M-124,948L-106,813L-103,743Z" fill="rgb(114,106,191)" stroke="rgb(114,106,191)" stroke-width="1.51"/><path d="M555,942L660,901L609,833Z" fill="rgb(49,129,179)" stroke="rgb(49,129,179)" stroke-width="1.51"/><path d="M700,-141L600,-72L698,-30Z" fill="rgb(114,96,193)" stroke="rgb(114,96,193)" stroke-width="1.51"/><path d="M554,-111L616,-147L469,-102Z" fill="rgb(110,59,203)" stroke="rgb(110,59,203)" stroke-width="1.51"/><path d="M-106,813L-11,914L-2,850Z" fill="rgb(114,106,191)" stroke="rgb(114,106,191)" stroke-width="1.51"/><path d="M83,926L-124,948L178,948Z" fill="rgb(128,119,177)" stroke="rgb(128,119,177)" stroke-width="1.51"/><path d="M714,897L784,832L738,810Z" fill="rgb(23,151,171)" stroke="rgb(23,151,171)" stroke-width="1.51"/><path d="M738,810L784,832L800,729Z" fill="rgb(27,149,172)" stroke="rgb(27,149,172)" stroke-width="1.51"/><path d="M660,901L714,897L738,810Z" fill="rgb(23,151,171)" stroke="rgb(23,151,171)" stroke-width="1.51"/><path d="M796,949L714,897L660,901Z" fill="rgb(23,151,171)" stroke="rgb(23,151,171)" stroke-width="1.51"/><path d="M-67,-41L-123,-144L-124,101Z" fill="rgb(150,21,209)" stroke="rgb(150,21,209)" stroke-width="1.51"/><path d="M219,-142L-42,-123L95,-91Z" fill="rgb(176,72,182)" stroke="rgb(176,72,182)" stroke-width="1.51"/><path d="M817,300L810,-39L786,19Z" fill="rgb(136,130,165)" stroke="rgb(136,130,165)" stroke-width="1.51"/><path d="M786,19L810,-39L740,11Z" fill="rgb(114,106,191)" stroke="rgb(114,106,191)" stroke-width="1.51"/><path d="M772,-97L700,-141L698,-30Z" fill="rgb(114,106,191)" stroke="rgb(114,106,191)" stroke-width="1.51"/><path d="M810,-39L772,-97L740,11Z" fill="rgb(114,106,191)" stroke="rgb(114,106,191)" stroke-width="1.51"/><path d="M-42,-123L-123,-144L-67,-41Z" fill="rgb(150,21,209)" stroke="rgb(150,21,209)" stroke-width="1.51"/><path d="M219,-142L-123,-144L-42,-123Z" fill="rgb(156,35,204)" stroke="rgb(156,35,204)" stroke-width="1.51"/><path d="M616,-147L-123,-144L219,-142Z" fill="rgb(200,124,140)" stroke="rgb(200,124,140)" stroke-width="1.51"/><path d="M-106,813L-124,948L-11,914Z" fill="rgb(114,106,191)" stroke="rgb(114,106,191)" stroke-width="1.51"/><path d="M-11,914L-124,948L83,926Z" fill="rgb(114,106,191)" stroke="rgb(114,106,191)" stroke-width="1.51"/><path d="M-113,542L-124,948L-103,743Z" fill="rgb(114,92,195)" stroke="rgb(114,92,195)" stroke-width="1.51"/><path d="M-124,101L-124,948L-113,542Z" fill="rgb(106,21,208)" stroke="rgb(106,21,208)" stroke-width="1.51"/><path d="M555,942L796,949L660,901Z" fill="rgb(35,144,174)" stroke="rgb(35,144,174)" stroke-width="1.51"/><path d="M714,897L796,949L784,832Z" fill="rgb(23,151,171)" stroke="rgb(23,151,171)" stroke-width="1.51"/><path d="M784,832L796,949L800,729Z" fill="rgb(23,151,171)" stroke="rgb(23,151,171)" stroke-width="1.51"/><path d="M800,729L796,949L817,300Z" fill="rgb(53,122,182)" stroke="rgb(53,122,182)" stroke-width="1.51"/><path d="M178,948L796,949L555,942Z" fill="rgb(57,106,188)" stroke="rgb(57,106,188)" stroke-width="1.51"/><path d="M-124,948L796,949L178,948Z" fill="rgb(144,158,133)" stroke="rgb(144,158,133)" stroke-width="1.51"/></svg>