<svg xmlns="http://www.w3.org/2000/svg" width="500" height="700"><path d="M284,352L267,392L323,356Z" fill="rgb(72,54,145)" stroke="rgb(72,54,145)" stroke-width="1.51"/><path d="M267,392L331,422L323,356Z" fill="rgb(82,54,143)" stroke="rgb(82,54,143)" stroke-width="1.51"/><path d="M267,392L266,463L331,422Z" fill="rgb(85,55,142)" stroke="rgb(85,55,142)" stroke-width="1.51"/><path d="M208,353L223,412L267,392Z" fill="rgb(69,59,146)" stroke="rgb(69,59,146)" stroke-width="1.51"/><path d="M284,352L208,353L267,392Z" fill="rgb(56,54,148)" stroke="rgb(56,54,148)" stroke-width="1.51"/><path d="M323,356L281,300L284,352Z" fill="rgb(74,58,144)" stroke="rgb(74,58,144)" stroke-width="1.51"/><path d="M223,412L266,463L267,392Z" fill="rgb(72,54,145)" stroke="rgb(72,54,145)" stroke-width="1.51"/><path d="M331,422L384,418L323,356Z" fill="rgb(96,56,140)" stroke="rgb(96,56,140)" stroke-width="1.51"/><path d="M323,356L348,280L281,300Z" fill="rgb(87,63,141)" stroke="rgb(87,63,141)" stroke-width="1.51"/><path d="M351,478L384,418L331,422Z" fill="rgb(106,56,136)" stroke="rgb(106,56,136)" stroke-width="1.51"/><path d="M281,300L208,353L284,352Z" fill="rgb(59,57,148)" stroke="rgb(59,57,148)" stroke-width="1.51"/><path d="M266,463L351,478L331,422Z" fill="rgb(99,55,139)" stroke="rgb(99,55,139)" stroke-width="1.51"/><path d="M386,290L348,280L323,356Z" fill="rgb(98,65,139)" stroke="rgb(98,65,139)" stroke-width="1.51"/><path d="M223,412L212,454L266,463Z" fill="rgb(83,60,142)" stroke="rgb(83,60,142)" stroke-width="1.51"/><path d="M266,463L267,524L351,478Z" fill="rgb(99,56,138)" stroke="rgb(99,56,138)" stroke-width="1.51"/><path d="M174,398L212,454L223,412Z" fill="rgb(89,69,141)" stroke="rgb(89,69,141)" stroke-width="1.51"/><path d="M384,418L418,350L323,356Z" fill="rgb(99,55,138)" stroke="rgb(99,55,138)" stroke-width="1.51"/><path d="M418,350L386,290L323,356Z" fill="rgb(99,60,138)" stroke="rgb(99,60,138)" stroke-width="1.51"/><path d="M208,353L174,398L223,412Z" fill="rgb(82,69,143)" stroke="rgb(82,69,143)" stroke-width="1.51"/><path d="M208,353L166,368L174,398Z" fill="rgb(86,74,142)" stroke="rgb(86,74,142)" stroke-width="1.51"/><path d="M158,289L166,368L208,353Z" fill="rgb(86,79,142)" stroke="rgb(86,79,142)" stroke-width="1.51"/><path d="M281,300L213,278L208,353Z" fill="rgb(71,67,145)" stroke="rgb(71,67,145)" stroke-width="1.51"/><path d="M295,214L213,278L281,300Z" fill="rgb(83,73,143)" stroke="rgb(83,73,143)" stroke-width="1.51"/><path d="M384,418L447,404L418,350Z" fill="rgb(113,55,135)" stroke="rgb(113,55,135)" stroke-width="1.51"/><path d="M351,478L416,458L384,418Z" fill="rgb(116,56,134)" stroke="rgb(116,56,134)" stroke-width="1.51"/><path d="M214,513L267,524L266,463Z" fill="rgb(89,56,141)" stroke="rgb(89,56,141)" stroke-width="1.51"/><path d="M351,478L388,518L416,458Z" fill="rgb(121,56,132)" stroke="rgb(121,56,132)" stroke-width="1.51"/><path d="M416,458L447,404L384,418Z" fill="rgb(119,56,133)" stroke="rgb(119,56,133)" stroke-width="1.51"/><path d="M454,280L405,243L386,290Z" fill="rgb(122,74,131)" stroke="rgb(122,74,131)" stroke-width="1.51"/><path d="M157,484L214,513L212,454Z" fill="rgb(104,73,137)" stroke="rgb(104,73,137)" stroke-width="1.51"/><path d="M212,454L214,513L266,463Z" fill="rgb(91,61,140)" stroke="rgb(91,61,140)" stroke-width="1.51"/><path d="M334,548L388,518L351,478Z" fill="rgb(120,56,132)" stroke="rgb(120,56,132)" stroke-width="1.51"/><path d="M416,458L455,487L447,404Z" fill="rgb(128,56,129)" stroke="rgb(128,56,129)" stroke-width="1.51"/><path d="M348,582L334,548L269,598Z" fill="rgb(121,56,132)" stroke="rgb(121,56,132)" stroke-width="1.51"/><path d="M267,524L334,548L351,478Z" fill="rgb(111,56,135)" stroke="rgb(111,56,135)" stroke-width="1.51"/><path d="M348,280L295,214L281,300Z" fill="rgb(96,74,139)" stroke="rgb(96,74,139)" stroke-width="1.51"/><path d="M332,213L295,214L348,280Z" fill="rgb(107,80,136)" stroke="rgb(107,80,136)" stroke-width="1.51"/><path d="M213,278L158,289L208,353Z" fill="rgb(87,81,142)" stroke="rgb(87,81,142)" stroke-width="1.51"/><path d="M202,243L158,289L213,278Z" fill="rgb(97,89,139)" stroke="rgb(97,89,139)" stroke-width="1.51"/><path d="M295,214L202,243L213,278Z" fill="rgb(88,81,142)" stroke="rgb(88,81,142)" stroke-width="1.51"/><path d="M405,243L332,213L348,280Z" fill="rgb(114,80,134)" stroke="rgb(114,80,134)" stroke-width="1.51"/><path d="M454,280L386,290L418,350Z" fill="rgb(116,66,133)" stroke="rgb(116,66,133)" stroke-width="1.51"/><path d="M386,290L405,243L348,280Z" fill="rgb(114,74,134)" stroke="rgb(114,74,134)" stroke-width="1.51"/><path d="M174,398L157,484L212,454Z" fill="rgb(101,76,138)" stroke="rgb(101,76,138)" stroke-width="1.51"/><path d="M88,426L157,484L174,398Z" fill="rgb(111,90,135)" stroke="rgb(111,90,135)" stroke-width="1.51"/><path d="M94,367L174,398L166,368Z" fill="rgb(99,87,138)" stroke="rgb(99,87,138)" stroke-width="1.51"/><path d="M447,404L476,351L418,350Z" fill="rgb(116,56,133)" stroke="rgb(116,56,133)" stroke-width="1.51"/><path d="M534,393L476,351L447,404Z" fill="rgb(128,56,130)" stroke="rgb(128,56,130)" stroke-width="1.51"/><path d="M476,351L454,280L418,350Z" fill="rgb(118,62,133)" stroke="rgb(118,62,133)" stroke-width="1.51"/><path d="M388,518L455,487L416,458Z" fill="rgb(130,56,129)" stroke="rgb(130,56,129)" stroke-width="1.51"/><path d="M464,537L455,487L388,518Z" fill="rgb(137,57,126)" stroke="rgb(137,57,126)" stroke-width="1.51"/><path d="M295,214L292,187L202,243Z" fill="rgb(94,84,140)" stroke="rgb(94,84,140)" stroke-width="1.51"/><path d="M332,213L292,187L295,214Z" fill="rgb(108,87,136)" stroke="rgb(108,87,136)" stroke-width="1.51"/><path d="M331,163L292,187L332,213Z" fill="rgb(115,92,134)" stroke="rgb(115,92,134)" stroke-width="1.51"/><path d="M152,165L162,243L202,243Z" fill="rgb(113,107,133)" stroke="rgb(113,107,133)" stroke-width="1.51"/><path d="M202,243L162,243L158,289Z" fill="rgb(104,97,136)" stroke="rgb(104,97,136)" stroke-width="1.51"/><path d="M334,548L348,582L388,518Z" fill="rgb(125,56,131)" stroke="rgb(125,56,131)" stroke-width="1.51"/><path d="M269,598L334,548L267,524Z" fill="rgb(111,56,135)" stroke="rgb(111,56,135)" stroke-width="1.51"/><path d="M269,598L267,524L202,588Z" fill="rgb(105,56,137)" stroke="rgb(105,56,137)" stroke-width="1.51"/><path d="M157,484L161,534L214,513Z" fill="rgb(114,79,134)" stroke="rgb(114,79,134)" stroke-width="1.51"/><path d="M85,291L94,367L158,289Z" fill="rgb(110,104,134)" stroke="rgb(110,104,134)" stroke-width="1.51"/><path d="M158,289L94,367L166,368Z" fill="rgb(97,90,139)" stroke="rgb(97,90,139)" stroke-width="1.51"/><path d="M157,484L101,533L161,534Z" fill="rgb(125,91,130)" stroke="rgb(125,91,130)" stroke-width="1.51"/><path d="M94,367L88,426L174,398Z" fill="rgb(110,96,135)" stroke="rgb(110,96,135)" stroke-width="1.51"/><path d="M202,588L267,524L214,513Z" fill="rgb(105,62,136)" stroke="rgb(105,62,136)" stroke-width="1.51"/><path d="M292,187L227,153L202,243Z" fill="rgb(98,91,138)" stroke="rgb(98,91,138)" stroke-width="1.51"/><path d="M407,185L331,163L332,213Z" fill="rgb(124,93,131)" stroke="rgb(124,93,131)" stroke-width="1.51"/><path d="M407,185L332,213L405,243Z" fill="rgb(125,88,130)" stroke="rgb(125,88,130)" stroke-width="1.51"/><path d="M88,426L96,475L157,484Z" fill="rgb(123,98,131)" stroke="rgb(123,98,131)" stroke-width="1.51"/><path d="M470,213L407,185L405,243Z" fill="rgb(135,89,127)" stroke="rgb(135,89,127)" stroke-width="1.51"/><path d="M531,471L534,393L447,404Z" fill="rgb(137,56,126)" stroke="rgb(137,56,126)" stroke-width="1.51"/><path d="M411,596L464,537L388,518Z" fill="rgb(140,56,125)" stroke="rgb(140,56,125)" stroke-width="1.51"/><path d="M175,604L202,588L161,534Z" fill="rgb(125,79,130)" stroke="rgb(125,79,130)" stroke-width="1.51"/><path d="M161,534L202,588L214,513Z" fill="rgb(116,74,133)" stroke="rgb(116,74,133)" stroke-width="1.51"/><path d="M531,471L447,404L455,487Z" fill="rgb(137,56,126)" stroke="rgb(137,56,126)" stroke-width="1.51"/><path d="M476,351L534,285L454,280Z" fill="rgb(132,67,128)" stroke="rgb(132,67,128)" stroke-width="1.51"/><path d="M454,280L470,213L405,243Z" fill="rgb(133,82,128)" stroke="rgb(133,82,128)" stroke-width="1.51"/><path d="M110,226L85,291L158,289Z" fill="rgb(117,113,132)" stroke="rgb(117,113,132)" stroke-width="1.51"/><path d="M94,367L20,398L88,426Z" fill="rgb(124,112,130)" stroke="rgb(124,112,130)" stroke-width="1.51"/><path d="M534,393L537,369L476,351Z" fill="rgb(129,56,129)" stroke="rgb(129,56,129)" stroke-width="1.51"/><path d="M534,285L470,213L454,280Z" fill="rgb(140,79,125)" stroke="rgb(140,79,125)" stroke-width="1.51"/><path d="M348,582L411,596L388,518Z" fill="rgb(134,56,128)" stroke="rgb(134,56,128)" stroke-width="1.51"/><path d="M352,645L411,596L348,582Z" fill="rgb(138,57,126)" stroke="rgb(138,57,126)" stroke-width="1.51"/><path d="M295,111L227,153L292,187Z" fill="rgb(110,98,135)" stroke="rgb(110,98,135)" stroke-width="1.51"/><path d="M162,243L110,226L158,289Z" fill="rgb(113,109,133)" stroke="rgb(113,109,133)" stroke-width="1.51"/><path d="M85,291L59,336L94,367Z" fill="rgb(115,111,132)" stroke="rgb(115,111,132)" stroke-width="1.51"/><path d="M88,426L22,453L96,475Z" fill="rgb(132,113,126)" stroke="rgb(132,113,126)" stroke-width="1.51"/><path d="M85,291L38,299L59,336Z" fill="rgb(124,122,128)" stroke="rgb(124,122,128)" stroke-width="1.51"/><path d="M152,165L110,226L162,243Z" fill="rgb(122,119,130)" stroke="rgb(122,119,130)" stroke-width="1.51"/><path d="M597,419L591,337L537,369Z" fill="rgb(130,56,129)" stroke="rgb(130,56,129)" stroke-width="1.51"/><path d="M506,535L531,471L455,487Z" fill="rgb(148,57,122)" stroke="rgb(148,57,122)" stroke-width="1.51"/><path d="M506,535L455,487L464,537Z" fill="rgb(146,57,123)" stroke="rgb(146,57,123)" stroke-width="1.51"/><path d="M96,475L101,533L157,484Z" fill="rgb(128,98,129)" stroke="rgb(128,98,129)" stroke-width="1.51"/><path d="M30,536L101,533L96,475Z" fill="rgb(141,113,123)" stroke="rgb(141,113,123)" stroke-width="1.51"/><path d="M537,369L534,285L476,351Z" fill="rgb(129,60,129)" stroke="rgb(129,60,129)" stroke-width="1.51"/><path d="M207,656L277,643L269,598Z" fill="rgb(115,56,134)" stroke="rgb(115,56,134)" stroke-width="1.51"/><path d="M269,598L277,643L348,582Z" fill="rgb(122,56,132)" stroke="rgb(122,56,132)" stroke-width="1.51"/><path d="M86,580L175,604L161,534Z" fill="rgb(135,92,127)" stroke="rgb(135,92,127)" stroke-width="1.51"/><path d="M510,591L506,535L464,537Z" fill="rgb(155,57,120)" stroke="rgb(155,57,120)" stroke-width="1.51"/><path d="M207,656L269,598L202,588Z" fill="rgb(118,64,133)" stroke="rgb(118,64,133)" stroke-width="1.51"/><path d="M227,153L152,165L202,243Z" fill="rgb(113,107,133)" stroke="rgb(113,107,133)" stroke-width="1.51"/><path d="M411,596L465,598L464,537Z" fill="rgb(149,56,122)" stroke="rgb(149,56,122)" stroke-width="1.51"/><path d="M277,643L352,645L348,582Z" fill="rgb(131,56,129)" stroke="rgb(131,56,129)" stroke-width="1.51"/><path d="M331,163L295,111L292,187Z" fill="rgb(118,99,132)" stroke="rgb(118,99,132)" stroke-width="1.51"/><path d="M227,153L175,105L152,165Z" fill="rgb(123,121,128)" stroke="rgb(123,121,128)" stroke-width="1.51"/><path d="M390,119L343,118L331,163Z" fill="rgb(133,106,126)" stroke="rgb(133,106,126)" stroke-width="1.51"/><path d="M390,119L331,163L407,185Z" fill="rgb(134,101,126)" stroke="rgb(134,101,126)" stroke-width="1.51"/><path d="M470,213L446,157L407,185Z" fill="rgb(144,96,123)" stroke="rgb(144,96,123)" stroke-width="1.51"/><path d="M522,162L446,157L470,213Z" fill="rgb(153,100,120)" stroke="rgb(153,100,120)" stroke-width="1.51"/><path d="M445,666L465,598L411,596Z" fill="rgb(155,57,120)" stroke="rgb(155,57,120)" stroke-width="1.51"/><path d="M343,118L295,111L331,163Z" fill="rgb(126,105,129)" stroke="rgb(126,105,129)" stroke-width="1.51"/><path d="M59,336L20,398L94,367Z" fill="rgb(120,114,130)" stroke="rgb(120,114,130)" stroke-width="1.51"/><path d="M27,246L38,299L85,291Z" fill="rgb(131,133,125)" stroke="rgb(131,133,125)" stroke-width="1.51"/><path d="M27,246L85,291L110,226Z" fill="rgb(130,131,125)" stroke="rgb(130,131,125)" stroke-width="1.51"/><path d="M534,285L517,210L470,213Z" fill="rgb(147,85,122)" stroke="rgb(147,85,122)" stroke-width="1.51"/><path d="M446,157L390,119L407,185Z" fill="rgb(143,103,123)" stroke="rgb(143,103,123)" stroke-width="1.51"/><path d="M343,118L334,60L295,111Z" fill="rgb(133,113,126)" stroke="rgb(133,113,126)" stroke-width="1.51"/><path d="M352,645L400,643L411,596Z" fill="rgb(144,57,124)" stroke="rgb(144,57,124)" stroke-width="1.51"/><path d="M295,111L220,114L227,153Z" fill="rgb(110,104,134)" stroke="rgb(110,104,134)" stroke-width="1.51"/><path d="M-27,362L20,398L59,336Z" fill="rgb(130,128,126)" stroke="rgb(130,128,126)" stroke-width="1.51"/><path d="M20,398L22,453L88,426Z" fill="rgb(134,121,125)" stroke="rgb(134,121,125)" stroke-width="1.51"/><path d="M531,471L579,458L534,393Z" fill="rgb(140,56,125)" stroke="rgb(140,56,125)" stroke-width="1.51"/><path d="M537,369L591,337L534,285Z" fill="rgb(130,61,129)" stroke="rgb(130,61,129)" stroke-width="1.51"/><path d="M534,285L563,238L517,210Z" fill="rgb(146,83,123)" stroke="rgb(146,83,123)" stroke-width="1.51"/><path d="M568,517L579,458L531,471Z" fill="rgb(146,57,123)" stroke="rgb(146,57,123)" stroke-width="1.51"/><path d="M568,517L531,471L506,535Z" fill="rgb(150,57,122)" stroke="rgb(150,57,122)" stroke-width="1.51"/><path d="M175,604L207,656L202,588Z" fill="rgb(127,75,129)" stroke="rgb(127,75,129)" stroke-width="1.51"/><path d="M277,643L287,697L352,645Z" fill="rgb(132,56,128)" stroke="rgb(132,56,128)" stroke-width="1.51"/><path d="M380,691L445,666L400,643Z" fill="rgb(154,57,120)" stroke="rgb(154,57,120)" stroke-width="1.51"/><path d="M165,657L207,656L175,604Z" fill="rgb(134,79,127)" stroke="rgb(134,79,127)" stroke-width="1.51"/><path d="M86,580L161,534L101,533Z" fill="rgb(137,100,126)" stroke="rgb(137,100,126)" stroke-width="1.51"/><path d="M30,536L86,580L101,533Z" fill="rgb(147,115,121)" stroke="rgb(147,115,121)" stroke-width="1.51"/><path d="M80,114L92,176L152,165Z" fill="rgb(138,144,120)" stroke="rgb(138,144,120)" stroke-width="1.51"/><path d="M152,165L92,176L110,226Z" fill="rgb(130,131,125)" stroke="rgb(130,131,125)" stroke-width="1.51"/><path d="M597,419L537,369L534,393Z" fill="rgb(133,56,128)" stroke="rgb(133,56,128)" stroke-width="1.51"/><path d="M465,598L510,591L464,537Z" fill="rgb(155,57,120)" stroke="rgb(155,57,120)" stroke-width="1.51"/><path d="M527,648L510,591L465,598Z" fill="rgb(165,57,116)" stroke="rgb(165,57,116)" stroke-width="1.51"/><path d="M446,157L444,124L390,119Z" fill="rgb(149,108,120)" stroke="rgb(149,108,120)" stroke-width="1.51"/><path d="M521,122L444,124L446,157Z" fill="rgb(158,110,117)" stroke="rgb(158,110,117)" stroke-width="1.51"/><path d="M579,458L597,419L534,393Z" fill="rgb(137,56,126)" stroke="rgb(137,56,126)" stroke-width="1.51"/><path d="M510,591L568,517L506,535Z" fill="rgb(156,57,120)" stroke="rgb(156,57,120)" stroke-width="1.51"/><path d="M579,458L589,596L597,419Z" fill="rgb(147,57,123)" stroke="rgb(147,57,123)" stroke-width="1.51"/><path d="M517,210L522,162L470,213Z" fill="rgb(155,95,119)" stroke="rgb(155,95,119)" stroke-width="1.51"/><path d="M581,270L563,238L534,285Z" fill="rgb(142,78,124)" stroke="rgb(142,78,124)" stroke-width="1.51"/><path d="M591,337L581,270L534,285Z" fill="rgb(136,70,127)" stroke="rgb(136,70,127)" stroke-width="1.51"/><path d="M220,114L175,105L227,153Z" fill="rgb(121,118,130)" stroke="rgb(121,118,130)" stroke-width="1.51"/><path d="M228,57L175,105L220,114Z" fill="rgb(126,125,127)" stroke="rgb(126,125,127)" stroke-width="1.51"/><path d="M92,176L27,246L110,226Z" fill="rgb(135,139,122)" stroke="rgb(135,139,122)" stroke-width="1.51"/><path d="M-27,362L-15,412L20,398Z" fill="rgb(138,134,122)" stroke="rgb(138,134,122)" stroke-width="1.51"/><path d="M103,662L165,657L175,604Z" fill="rgb(144,92,124)" stroke="rgb(144,92,124)" stroke-width="1.51"/><path d="M86,580L103,662L175,604Z" fill="rgb(146,100,122)" stroke="rgb(146,100,122)" stroke-width="1.51"/><path d="M22,453L30,536L96,475Z" fill="rgb(142,121,122)" stroke="rgb(142,121,122)" stroke-width="1.51"/><path d="M521,122L522,162L590,167Z" fill="rgb(162,107,116)" stroke="rgb(162,107,116)" stroke-width="1.51"/><path d="M590,167L522,162L517,210Z" fill="rgb(157,99,118)" stroke="rgb(157,99,118)" stroke-width="1.51"/><path d="M236,715L277,643L207,656Z" fill="rgb(124,60,131)" stroke="rgb(124,60,131)" stroke-width="1.51"/><path d="M236,715L287,697L277,643Z" fill="rgb(127,56,130)" stroke="rgb(127,56,130)" stroke-width="1.51"/><path d="M400,643L445,666L411,596Z" fill="rgb(152,56,121)" stroke="rgb(152,56,121)" stroke-width="1.51"/><path d="M22,453L-31,489L30,536Z" fill="rgb(153,135,117)" stroke="rgb(153,135,117)" stroke-width="1.51"/><path d="M20,398L-15,412L22,453Z" fill="rgb(141,132,121)" stroke="rgb(141,132,121)" stroke-width="1.51"/><path d="M-27,362L59,336L38,299Z" fill="rgb(129,129,126)" stroke="rgb(129,129,126)" stroke-width="1.51"/><path d="M380,691L400,643L352,645Z" fill="rgb(147,57,123)" stroke="rgb(147,57,123)" stroke-width="1.51"/><path d="M359,725L380,691L352,645Z" fill="rgb(148,57,122)" stroke="rgb(148,57,122)" stroke-width="1.51"/><path d="M295,111L228,57L220,114Z" fill="rgb(116,111,132)" stroke="rgb(116,111,132)" stroke-width="1.51"/><path d="M390,119L334,60L343,118Z" fill="rgb(140,114,124)" stroke="rgb(140,114,124)" stroke-width="1.51"/><path d="M411,51L334,60L390,119Z" fill="rgb(148,120,120)" stroke="rgb(148,120,120)" stroke-width="1.51"/><path d="M411,51L390,119L444,124Z" fill="rgb(152,116,118)" stroke="rgb(152,116,118)" stroke-width="1.51"/><path d="M-31,284L-27,362L38,299Z" fill="rgb(137,141,122)" stroke="rgb(137,141,122)" stroke-width="1.51"/><path d="M175,105L80,114L152,165Z" fill="rgb(136,140,122)" stroke="rgb(136,140,122)" stroke-width="1.51"/><path d="M264,42L228,57L295,111Z" fill="rgb(123,117,129)" stroke="rgb(123,117,129)" stroke-width="1.51"/><path d="M179,708L236,715L207,656Z" fill="rgb(136,72,127)" stroke="rgb(136,72,127)" stroke-width="1.51"/><path d="M287,697L359,725L352,645Z" fill="rgb(142,56,125)" stroke="rgb(142,56,125)" stroke-width="1.51"/><path d="M522,162L521,122L446,157Z" fill="rgb(162,108,116)" stroke="rgb(162,108,116)" stroke-width="1.51"/><path d="M590,167L517,210L563,238Z" fill="rgb(153,93,120)" stroke="rgb(153,93,120)" stroke-width="1.51"/><path d="M30,536L24,584L86,580Z" fill="rgb(156,124,117)" stroke="rgb(156,124,117)" stroke-width="1.51"/><path d="M165,657L179,708L207,656Z" fill="rgb(140,80,125)" stroke="rgb(140,80,125)" stroke-width="1.51"/><path d="M-16,536L24,584L30,536Z" fill="rgb(160,135,113)" stroke="rgb(160,135,113)" stroke-width="1.51"/><path d="M-31,489L22,453L-15,412Z" fill="rgb(148,136,118)" stroke="rgb(148,136,118)" stroke-width="1.51"/><path d="M36,635L103,662L86,580Z" fill="rgb(158,116,116)" stroke="rgb(158,116,116)" stroke-width="1.51"/><path d="M334,60L264,42L295,111Z" fill="rgb(131,118,126)" stroke="rgb(131,118,126)" stroke-width="1.51"/><path d="M-34,224L-31,284L27,246Z" fill="rgb(145,156,115)" stroke="rgb(145,156,115)" stroke-width="1.51"/><path d="M27,246L-31,284L38,299Z" fill="rgb(140,147,120)" stroke="rgb(140,147,120)" stroke-width="1.51"/><path d="M380,691L470,693L445,666Z" fill="rgb(161,57,118)" stroke="rgb(161,57,118)" stroke-width="1.51"/><path d="M337,756L359,725L287,697Z" fill="rgb(143,56,124)" stroke="rgb(143,56,124)" stroke-width="1.51"/><path d="M103,662L179,708L165,657Z" fill="rgb(148,92,122)" stroke="rgb(148,92,122)" stroke-width="1.51"/><path d="M92,176L24,153L27,246Z" fill="rgb(145,155,116)" stroke="rgb(145,155,116)" stroke-width="1.51"/><path d="M145,62L80,114L175,105Z" fill="rgb(141,149,118)" stroke="rgb(141,149,118)" stroke-width="1.51"/><path d="M145,62L175,105L228,57Z" fill="rgb(134,137,123)" stroke="rgb(134,137,123)" stroke-width="1.51"/><path d="M-65,363L-15,412L-27,362Z" fill="rgb(136,134,123)" stroke="rgb(136,134,123)" stroke-width="1.51"/><path d="M-79,468L-31,489L-15,412Z" fill="rgb(149,136,118)" stroke="rgb(149,136,118)" stroke-width="1.51"/><path d="M510,591L589,596L568,517Z" fill="rgb(159,57,119)" stroke="rgb(159,57,119)" stroke-width="1.51"/><path d="M445,666L527,648L465,598Z" fill="rgb(165,57,116)" stroke="rgb(165,57,116)" stroke-width="1.51"/><path d="M470,693L527,648L445,666Z" fill="rgb(169,57,114)" stroke="rgb(169,57,114)" stroke-width="1.51"/><path d="M452,38L411,51L444,124Z" fill="rgb(161,124,115)" stroke="rgb(161,124,115)" stroke-width="1.51"/><path d="M334,60L272,-8L264,42Z" fill="rgb(135,127,124)" stroke="rgb(135,127,124)" stroke-width="1.51"/><path d="M-31,489L-16,536L30,536Z" fill="rgb(158,138,114)" stroke="rgb(158,138,114)" stroke-width="1.51"/><path d="M448,778L470,693L380,691Z" fill="rgb(164,57,116)" stroke="rgb(164,57,116)" stroke-width="1.51"/><path d="M141,-4L145,62L228,57Z" fill="rgb(142,150,118)" stroke="rgb(142,150,118)" stroke-width="1.51"/><path d="M527,648L589,596L510,591Z" fill="rgb(165,57,116)" stroke="rgb(165,57,116)" stroke-width="1.51"/><path d="M568,517L589,596L579,458Z" fill="rgb(152,57,121)" stroke="rgb(152,57,121)" stroke-width="1.51"/><path d="M42,121L24,153L92,176Z" fill="rgb(149,163,113)" stroke="rgb(149,163,113)" stroke-width="1.51"/><path d="M42,121L92,176L80,114Z" fill="rgb(147,160,114)" stroke="rgb(147,160,114)" stroke-width="1.51"/><path d="M597,419L590,167L591,337Z" fill="rgb(134,67,127)" stroke="rgb(134,67,127)" stroke-width="1.51"/><path d="M591,337L590,167L581,270Z" fill="rgb(143,80,124)" stroke="rgb(143,80,124)" stroke-width="1.51"/><path d="M581,270L590,167L563,238Z" fill="rgb(149,88,122)" stroke="rgb(149,88,122)" stroke-width="1.51"/><path d="M-12,596L36,635L24,584Z" fill="rgb(167,136,111)" stroke="rgb(167,136,111)" stroke-width="1.51"/><path d="M24,584L36,635L86,580Z" fill="rgb(160,125,115)" stroke="rgb(160,125,115)" stroke-width="1.51"/><path d="M103,662L81,700L179,708Z" fill="rgb(157,102,118)" stroke="rgb(157,102,118)" stroke-width="1.51"/><path d="M-70,305L-65,363L-27,362Z" fill="rgb(132,134,124)" stroke="rgb(132,134,124)" stroke-width="1.51"/><path d="M-70,305L-27,362L-31,284Z" fill="rgb(136,140,122)" stroke="rgb(136,140,122)" stroke-width="1.51"/><path d="M32,31L42,121L80,114Z" fill="rgb(158,178,105)" stroke="rgb(158,178,105)" stroke-width="1.51"/><path d="M-8,162L27,246L24,153Z" fill="rgb(152,167,111)" stroke="rgb(152,167,111)" stroke-width="1.51"/><path d="M-8,162L-34,224L27,246Z" fill="rgb(151,166,111)" stroke="rgb(151,166,111)" stroke-width="1.51"/><path d="M271,784L287,697L236,715Z" fill="rgb(129,56,129)" stroke="rgb(129,56,129)" stroke-width="1.51"/><path d="M271,784L337,756L287,697Z" fill="rgb(136,56,127)" stroke="rgb(136,56,127)" stroke-width="1.51"/><path d="M359,725L448,778L380,691Z" fill="rgb(157,57,119)" stroke="rgb(157,57,119)" stroke-width="1.51"/><path d="M350,-28L272,-8L334,60Z" fill="rgb(146,134,119)" stroke="rgb(146,134,119)" stroke-width="1.51"/><path d="M526,65L452,38L444,124Z" fill="rgb(168,124,111)" stroke="rgb(168,124,111)" stroke-width="1.51"/><path d="M526,65L444,124L521,122Z" fill="rgb(168,118,112)" stroke="rgb(168,118,112)" stroke-width="1.51"/><path d="M-16,536L-12,596L24,584Z" fill="rgb(166,140,110)" stroke="rgb(166,140,110)" stroke-width="1.51"/><path d="M-65,576L-12,596L-16,536Z" fill="rgb(166,140,110)" stroke="rgb(166,140,110)" stroke-width="1.51"/><path d="M-61,512L-16,536L-31,489Z" fill="rgb(157,138,114)" stroke="rgb(157,138,114)" stroke-width="1.51"/><path d="M-97,237L-70,305L-31,284Z" fill="rgb(142,150,118)" stroke="rgb(142,150,118)" stroke-width="1.51"/><path d="M-34,224L-97,237L-31,284Z" fill="rgb(146,157,115)" stroke="rgb(146,157,115)" stroke-width="1.51"/><path d="M-10,100L-8,162L24,153Z" fill="rgb(160,184,103)" stroke="rgb(160,184,103)" stroke-width="1.51"/><path d="M-85,422L-15,412L-65,363Z" fill="rgb(139,135,122)" stroke="rgb(139,135,122)" stroke-width="1.51"/><path d="M-79,468L-61,512L-31,489Z" fill="rgb(154,138,116)" stroke="rgb(154,138,116)" stroke-width="1.51"/><path d="M179,708L169,750L236,715Z" fill="rgb(141,76,125)" stroke="rgb(141,76,125)" stroke-width="1.51"/><path d="M52,700L81,700L103,662Z" fill="rgb(167,117,113)" stroke="rgb(167,117,113)" stroke-width="1.51"/><path d="M52,700L103,662L36,635Z" fill="rgb(167,121,113)" stroke="rgb(167,121,113)" stroke-width="1.51"/><path d="M-70,305L-85,422L-65,363Z" fill="rgb(133,133,124)" stroke="rgb(133,133,124)" stroke-width="1.51"/><path d="M-85,422L-79,468L-15,412Z" fill="rgb(145,136,119)" stroke="rgb(145,136,119)" stroke-width="1.51"/><path d="M587,99L526,65L521,122Z" fill="rgb(171,120,111)" stroke="rgb(171,120,111)" stroke-width="1.51"/><path d="M81,700L169,750L179,708Z" fill="rgb(154,94,120)" stroke="rgb(154,94,120)" stroke-width="1.51"/><path d="M264,42L230,-15L228,57Z" fill="rgb(128,129,126)" stroke="rgb(128,129,126)" stroke-width="1.51"/><path d="M350,-28L334,60L394,-24Z" fill="rgb(155,137,115)" stroke="rgb(155,137,115)" stroke-width="1.51"/><path d="M525,750L530,706L470,693Z" fill="rgb(177,57,111)" stroke="rgb(177,57,111)" stroke-width="1.51"/><path d="M470,693L530,706L527,648Z" fill="rgb(175,57,112)" stroke="rgb(175,57,112)" stroke-width="1.51"/><path d="M527,648L597,653L589,596Z" fill="rgb(168,57,115)" stroke="rgb(168,57,115)" stroke-width="1.51"/><path d="M530,706L597,653L527,648Z" fill="rgb(173,57,113)" stroke="rgb(173,57,113)" stroke-width="1.51"/><path d="M589,596L597,653L597,419Z" fill="rgb(157,57,119)" stroke="rgb(157,57,119)" stroke-width="1.51"/><path d="M337,756L391,789L359,725Z" fill="rgb(150,57,122)" stroke="rgb(150,57,122)" stroke-width="1.51"/><path d="M202,789L271,784L236,715Z" fill="rgb(130,61,129)" stroke="rgb(130,61,129)" stroke-width="1.51"/><path d="M-12,666L52,700L36,635Z" fill="rgb(175,135,108)" stroke="rgb(175,135,108)" stroke-width="1.51"/><path d="M81,700L85,783L169,750Z" fill="rgb(161,106,116)" stroke="rgb(161,106,116)" stroke-width="1.51"/><path d="M590,167L587,99L521,122Z" fill="rgb(165,112,114)" stroke="rgb(165,112,114)" stroke-width="1.51"/><path d="M145,62L100,30L80,114Z" fill="rgb(150,164,112)" stroke="rgb(150,164,112)" stroke-width="1.51"/><path d="M272,-8L230,-15L264,42Z" fill="rgb(131,131,124)" stroke="rgb(131,131,124)" stroke-width="1.51"/><path d="M141,-4L100,30L145,62Z" fill="rgb(151,166,111)" stroke="rgb(151,166,111)" stroke-width="1.51"/><path d="M42,121L-10,100L24,153Z" fill="rgb(159,181,104)" stroke="rgb(159,181,104)" stroke-width="1.51"/><path d="M-12,596L-12,666L36,635Z" fill="rgb(174,141,107)" stroke="rgb(174,141,107)" stroke-width="1.51"/><path d="M-61,512L-65,576L-16,536Z" fill="rgb(161,139,112)" stroke="rgb(161,139,112)" stroke-width="1.51"/><path d="M-79,468L-65,576L-61,512Z" fill="rgb(158,138,114)" stroke="rgb(158,138,114)" stroke-width="1.51"/><path d="M-61,644L-65,576L-69,693Z" fill="rgb(176,142,106)" stroke="rgb(176,142,106)" stroke-width="1.51"/><path d="M272,-8L264,-52L230,-15Z" fill="rgb(132,133,124)" stroke="rgb(132,133,124)" stroke-width="1.51"/><path d="M394,-24L334,60L411,51Z" fill="rgb(156,132,115)" stroke="rgb(156,132,115)" stroke-width="1.51"/><path d="M394,-24L411,51L452,38Z" fill="rgb(165,135,112)" stroke="rgb(165,135,112)" stroke-width="1.51"/><path d="M271,784L391,789L337,756Z" fill="rgb(144,56,124)" stroke="rgb(144,56,124)" stroke-width="1.51"/><path d="M469,-23L394,-24L452,38Z" fill="rgb(172,142,108)" stroke="rgb(172,142,108)" stroke-width="1.51"/><path d="M469,-23L452,38L535,3Z" fill="rgb(181,142,103)" stroke="rgb(181,142,103)" stroke-width="1.51"/><path d="M169,750L202,789L236,715Z" fill="rgb(139,73,126)" stroke="rgb(139,73,126)" stroke-width="1.51"/><path d="M271,784L202,789L391,789Z" fill="rgb(134,56,127)" stroke="rgb(134,56,127)" stroke-width="1.51"/><path d="M85,783L202,789L169,750Z" fill="rgb(151,91,121)" stroke="rgb(151,91,121)" stroke-width="1.51"/><path d="M230,-15L141,-4L228,57Z" fill="rgb(140,147,119)" stroke="rgb(140,147,119)" stroke-width="1.51"/><path d="M32,31L80,114L100,30Z" fill="rgb(158,179,105)" stroke="rgb(158,179,105)" stroke-width="1.51"/><path d="M32,31L-10,100L42,121Z" fill="rgb(163,190,99)" stroke="rgb(163,190,99)" stroke-width="1.51"/><path d="M-86,170L-97,237L-34,224Z" fill="rgb(151,166,111)" stroke="rgb(151,166,111)" stroke-width="1.51"/><path d="M48,762L85,783L81,700Z" fill="rgb(170,119,111)" stroke="rgb(170,119,111)" stroke-width="1.51"/><path d="M-61,644L-12,666L-12,596Z" fill="rgb(175,142,106)" stroke="rgb(175,142,106)" stroke-width="1.51"/><path d="M391,789L448,778L359,725Z" fill="rgb(158,57,119)" stroke="rgb(158,57,119)" stroke-width="1.51"/><path d="M530,706L585,727L597,653Z" fill="rgb(177,57,112)" stroke="rgb(177,57,112)" stroke-width="1.51"/><path d="M-70,305L-97,237L-85,422Z" fill="rgb(136,139,122)" stroke="rgb(136,139,122)" stroke-width="1.51"/><path d="M-86,170L-34,224L-8,162Z" fill="rgb(154,173,108)" stroke="rgb(154,173,108)" stroke-width="1.51"/><path d="M448,778L525,750L470,693Z" fill="rgb(174,57,113)" stroke="rgb(174,57,113)" stroke-width="1.51"/><path d="M350,-28L264,-52L272,-8Z" fill="rgb(141,135,120)" stroke="rgb(141,135,120)" stroke-width="1.51"/><path d="M230,-15L155,-63L141,-4Z" fill="rgb(146,158,115)" stroke="rgb(146,158,115)" stroke-width="1.51"/><path d="M330,-78L264,-52L350,-28Z" fill="rgb(146,136,119)" stroke="rgb(146,136,119)" stroke-width="1.51"/><path d="M394,-24L411,-64L350,-28Z" fill="rgb(161,139,113)" stroke="rgb(161,139,113)" stroke-width="1.51"/><path d="M535,3L452,38L526,65Z" fill="rgb(179,135,105)" stroke="rgb(179,135,105)" stroke-width="1.51"/><path d="M-82,117L-86,170L-8,162Z" fill="rgb(159,181,104)" stroke="rgb(159,181,104)" stroke-width="1.51"/><path d="M587,99L576,37L526,65Z" fill="rgb(175,127,108)" stroke="rgb(175,127,108)" stroke-width="1.51"/><path d="M-10,100L-82,117L-8,162Z" fill="rgb(161,187,101)" stroke="rgb(161,187,101)" stroke-width="1.51"/><path d="M86,-5L32,31L100,30Z" fill="rgb(162,188,100)" stroke="rgb(162,188,100)" stroke-width="1.51"/><path d="M86,-5L100,30L141,-4Z" fill="rgb(157,178,105)" stroke="rgb(157,178,105)" stroke-width="1.51"/><path d="M94,-73L86,-5L141,-4Z" fill="rgb(159,181,104)" stroke="rgb(159,181,104)" stroke-width="1.51"/><path d="M-65,576L-61,644L-12,596Z" fill="rgb(171,141,108)" stroke="rgb(171,141,108)" stroke-width="1.51"/><path d="M48,762L81,700L52,700Z" fill="rgb(172,123,110)" stroke="rgb(172,123,110)" stroke-width="1.51"/><path d="M-69,693L-65,576L-92,783Z" fill="rgb(183,144,103)" stroke="rgb(183,144,103)" stroke-width="1.51"/><path d="M576,37L535,3L526,65Z" fill="rgb(179,135,105)" stroke="rgb(179,135,105)" stroke-width="1.51"/><path d="M525,750L585,727L530,706Z" fill="rgb(177,57,111)" stroke="rgb(177,57,111)" stroke-width="1.51"/><path d="M48,762L52,700L-5,724Z" fill="rgb(178,134,106)" stroke="rgb(178,134,106)" stroke-width="1.51"/><path d="M-5,724L52,700L-12,666Z" fill="rgb(182,140,103)" stroke="rgb(182,140,103)" stroke-width="1.51"/><path d="M-69,693L-5,724L-12,666Z" fill="rgb(184,144,102)" stroke="rgb(184,144,102)" stroke-width="1.51"/><path d="M458,-80L411,-64L469,-23Z" fill="rgb(174,142,106)" stroke="rgb(174,142,106)" stroke-width="1.51"/><path d="M469,-23L411,-64L394,-24Z" fill="rgb(169,141,109)" stroke="rgb(169,141,109)" stroke-width="1.51"/><path d="M264,-52L225,-77L230,-15Z" fill="rgb(133,136,123)" stroke="rgb(133,136,123)" stroke-width="1.51"/><path d="M411,-64L330,-78L350,-28Z" fill="rgb(157,138,114)" stroke="rgb(157,138,114)" stroke-width="1.51"/><path d="M-61,37L-82,117L-10,100Z" fill="rgb(166,197,95)" stroke="rgb(166,197,95)" stroke-width="1.51"/><path d="M-86,170L-94,-9L-97,237Z" fill="rgb(161,186,102)" stroke="rgb(161,186,102)" stroke-width="1.51"/><path d="M330,-78L225,-77L264,-52Z" fill="rgb(136,134,123)" stroke="rgb(136,134,123)" stroke-width="1.51"/><path d="M34,-24L-21,38L32,31Z" fill="rgb(172,209,87)" stroke="rgb(172,209,87)" stroke-width="1.51"/><path d="M32,31L-21,38L-10,100Z" fill="rgb(170,205,91)" stroke="rgb(170,205,91)" stroke-width="1.51"/><path d="M225,-77L155,-63L230,-15Z" fill="rgb(141,148,119)" stroke="rgb(141,148,119)" stroke-width="1.51"/><path d="M34,-24L32,31L86,-5Z" fill="rgb(168,201,93)" stroke="rgb(168,201,93)" stroke-width="1.51"/><path d="M597,419L587,-3L590,167Z" fill="rgb(155,96,119)" stroke="rgb(155,96,119)" stroke-width="1.51"/><path d="M590,167L587,-3L587,99Z" fill="rgb(172,122,110)" stroke="rgb(172,122,110)" stroke-width="1.51"/><path d="M587,99L587,-3L576,37Z" fill="rgb(178,134,106)" stroke="rgb(178,134,106)" stroke-width="1.51"/><path d="M576,37L587,-3L535,3Z" fill="rgb(183,141,103)" stroke="rgb(183,141,103)" stroke-width="1.51"/><path d="M532,-60L458,-80L469,-23Z" fill="rgb(182,144,103)" stroke="rgb(182,144,103)" stroke-width="1.51"/><path d="M525,750L569,782L585,727Z" fill="rgb(177,57,111)" stroke="rgb(177,57,111)" stroke-width="1.51"/><path d="M448,778L569,782L525,750Z" fill="rgb(177,57,111)" stroke="rgb(177,57,111)" stroke-width="1.51"/><path d="M391,789L569,782L448,778Z" fill="rgb(171,57,114)" stroke="rgb(171,57,114)" stroke-width="1.51"/><path d="M-61,644L-69,693L-12,666Z" fill="rgb(180,143,104)" stroke="rgb(180,143,104)" stroke-width="1.51"/><path d="M-5,724L-39,759L48,762Z" fill="rgb(185,144,102)" stroke="rgb(185,144,102)" stroke-width="1.51"/><path d="M-92,783L-65,576L-79,468Z" fill="rgb(171,141,108)" stroke="rgb(171,141,108)" stroke-width="1.51"/><path d="M-92,783L-79,468L-85,422Z" fill="rgb(164,140,111)" stroke="rgb(164,140,111)" stroke-width="1.51"/><path d="M94,-73L34,-24L86,-5Z" fill="rgb(165,194,97)" stroke="rgb(165,194,97)" stroke-width="1.51"/><path d="M532,-60L469,-23L535,3Z" fill="rgb(185,144,101)" stroke="rgb(185,144,101)" stroke-width="1.51"/><path d="M411,-64L458,-80L330,-78Z" fill="rgb(164,140,111)" stroke="rgb(164,140,111)" stroke-width="1.51"/><path d="M330,-78L458,-80L225,-77Z" fill="rgb(151,137,117)" stroke="rgb(151,137,117)" stroke-width="1.51"/><path d="M568,-55L532,-60L535,3Z" fill="rgb(185,144,101)" stroke="rgb(185,144,101)" stroke-width="1.51"/><path d="M-21,38L-61,37L-10,100Z" fill="rgb(170,204,91)" stroke="rgb(170,204,91)" stroke-width="1.51"/><path d="M-33,-30L-61,37L-21,38Z" fill="rgb(175,215,84)" stroke="rgb(175,215,84)" stroke-width="1.51"/><path d="M34,-24L-33,-30L-21,38Z" fill="rgb(176,219,81)" stroke="rgb(176,219,81)" stroke-width="1.51"/><path d="M155,-63L94,-73L141,-4Z" fill="rgb(155,173,108)" stroke="rgb(155,173,108)" stroke-width="1.51"/><path d="M225,-77L94,-73L155,-63Z" fill="rgb(149,164,112)" stroke="rgb(149,164,112)" stroke-width="1.51"/><path d="M-69,693L-39,759L-5,724Z" fill="rgb(185,144,101)" stroke="rgb(185,144,101)" stroke-width="1.51"/><path d="M48,762L-39,759L85,783Z" fill="rgb(178,134,106)" stroke="rgb(178,134,106)" stroke-width="1.51"/><path d="M587,-3L568,-55L535,3Z" fill="rgb(185,144,101)" stroke="rgb(185,144,101)" stroke-width="1.51"/><path d="M532,-60L568,-55L458,-80Z" fill="rgb(185,144,101)" stroke="rgb(185,144,101)" stroke-width="1.51"/><path d="M94,-73L26,-60L34,-24Z" fill="rgb(168,201,93)" stroke="rgb(168,201,93)" stroke-width="1.51"/><path d="M26,-60L-33,-30L34,-24Z" fill="rgb(175,216,84)" stroke="rgb(175,216,84)" stroke-width="1.51"/><path d="M-33,-30L-94,-9L-61,37Z" fill="rgb(176,219,81)" stroke="rgb(176,219,81)" stroke-width="1.51"/><path d="M26,-60L-36,-56L-33,-30Z" fill="rgb(176,219,81)" stroke="rgb(176,219,81)" stroke-width="1.51"/><path d="M-71,-64L-36,-56L26,-60Z" fill="rgb(176,219,81)" stroke="rgb(176,219,81)" stroke-width="1.51"/><path d="M-71,-64L-94,-9L-33,-30Z" fill="rgb(176,219,81)" stroke="rgb(176,219,81)" stroke-width="1.51"/><path d="M-61,37L-94,-9L-82,117Z" fill="rgb(171,207,90)" stroke="rgb(171,207,90)" stroke-width="1.51"/><path d="M-82,117L-94,-9L-86,170Z" fill="rgb(166,195,96)" stroke="rgb(166,195,96)" stroke-width="1.51"/><path d="M-69,693L-92,783L-39,759Z" fill="rgb(185,144,101)" stroke="rgb(185,144,101)" stroke-width="1.51"/><path d="M-39,759L-92,783L85,783Z" fill="rgb(185,144,101)" stroke="rgb(185,144,101)" stroke-width="1.51"/><path d="M85,783L-92,783L202,789Z" fill="rgb(171,121,111)" stroke="rgb(171,121,111)" stroke-width="1.51"/><path d="M-97,237L-92,783L-85,422Z" fill="rgb(152,137,116)" stroke="rgb(152,137,116)" stroke-width="1.51"/><path d="M-36,-56L-71,-64L-33,-30Z" fill="rgb(176,219,81)" stroke="rgb(176,219,81)" stroke-width="1.51"/><path d="M94,-73L-71,-64L26,-60Z" fill="rgb(174,213,85)" stroke="rgb(174,213,85)" stroke-width="1.51"/></svg>