<svg xmlns="http://www.w3.org/2000/svg" width="500" height="700"><path d="M253,364L300,368L320,328Z" fill="rgb(72,114,200)" stroke="rgb(72,114,200)" stroke-width="1.51"/><path d="M320,328L267,293L253,364Z" fill="rgb(69,118,199)" stroke="rgb(69,118,199)" stroke-width="1.51"/><path d="M320,328L298,245L267,293Z" fill="rgb(90,121,188)" stroke="rgb(90,121,188)" stroke-width="1.51"/><path d="M267,293L174,304L253,364Z" fill="rgb(57,124,198)" stroke="rgb(57,124,198)" stroke-width="1.51"/><path d="M298,245L267,242L267,293Z" fill="rgb(87,126,185)" stroke="rgb(87,126,185)" stroke-width="1.51"/><path d="M320,328L403,231L298,245Z" fill="rgb(115,119,175)" stroke="rgb(115,119,175)" stroke-width="1.51"/><path d="M385,365L379,337L320,328Z" fill="rgb(110,107,186)" stroke="rgb(110,107,186)" stroke-width="1.51"/><path d="M267,242L174,304L267,293Z" fill="rgb(69,129,191)" stroke="rgb(69,129,191)" stroke-width="1.51"/><path d="M300,368L385,365L320,328Z" fill="rgb(98,109,192)" stroke="rgb(98,109,192)" stroke-width="1.51"/><path d="M174,304L163,370L253,364Z" fill="rgb(65,127,193)" stroke="rgb(65,127,193)" stroke-width="1.51"/><path d="M253,364L235,467L300,368Z" fill="rgb(76,113,200)" stroke="rgb(76,113,200)" stroke-width="1.51"/><path d="M163,370L203,434L253,364Z" fill="rgb(80,123,191)" stroke="rgb(80,123,191)" stroke-width="1.51"/><path d="M300,368L395,446L385,365Z" fill="rgb(121,103,182)" stroke="rgb(121,103,182)" stroke-width="1.51"/><path d="M203,434L235,467L253,364Z" fill="rgb(85,116,194)" stroke="rgb(85,116,194)" stroke-width="1.51"/><path d="M267,242L159,258L174,304Z" fill="rgb(85,136,178)" stroke="rgb(85,136,178)" stroke-width="1.51"/><path d="M174,304L109,324L163,370Z" fill="rgb(86,138,176)" stroke="rgb(86,138,176)" stroke-width="1.51"/><path d="M235,467L309,474L300,368Z" fill="rgb(101,108,191)" stroke="rgb(101,108,191)" stroke-width="1.51"/><path d="M267,242L196,196L159,258Z" fill="rgb(90,140,172)" stroke="rgb(90,140,172)" stroke-width="1.51"/><path d="M298,245L232,182L267,242Z" fill="rgb(89,132,179)" stroke="rgb(89,132,179)" stroke-width="1.51"/><path d="M232,182L196,196L267,242Z" fill="rgb(89,139,173)" stroke="rgb(89,139,173)" stroke-width="1.51"/><path d="M379,337L403,231L320,328Z" fill="rgb(121,112,176)" stroke="rgb(121,112,176)" stroke-width="1.51"/><path d="M298,245L341,168L232,182Z" fill="rgb(105,133,170)" stroke="rgb(105,133,170)" stroke-width="1.51"/><path d="M447,303L403,231L379,337Z" fill="rgb(137,109,167)" stroke="rgb(137,109,167)" stroke-width="1.51"/><path d="M309,474L395,446L300,368Z" fill="rgb(122,103,182)" stroke="rgb(122,103,182)" stroke-width="1.51"/><path d="M385,365L447,303L379,337Z" fill="rgb(128,103,177)" stroke="rgb(128,103,177)" stroke-width="1.51"/><path d="M450,398L447,303L385,365Z" fill="rgb(135,97,175)" stroke="rgb(135,97,175)" stroke-width="1.51"/><path d="M159,258L109,324L174,304Z" fill="rgb(94,142,167)" stroke="rgb(94,142,167)" stroke-width="1.51"/><path d="M163,370L115,380L203,434Z" fill="rgb(97,130,177)" stroke="rgb(97,130,177)" stroke-width="1.51"/><path d="M62,260L109,324L159,258Z" fill="rgb(103,151,153)" stroke="rgb(103,151,153)" stroke-width="1.51"/><path d="M109,324L115,380L163,370Z" fill="rgb(92,139,173)" stroke="rgb(92,139,173)" stroke-width="1.51"/><path d="M169,520L239,545L235,467Z" fill="rgb(119,112,177)" stroke="rgb(119,112,177)" stroke-width="1.51"/><path d="M403,231L341,168L298,245Z" fill="rgb(126,125,162)" stroke="rgb(126,125,162)" stroke-width="1.51"/><path d="M395,446L450,398L385,365Z" fill="rgb(141,95,172)" stroke="rgb(141,95,172)" stroke-width="1.51"/><path d="M456,224L397,188L403,231Z" fill="rgb(148,118,150)" stroke="rgb(148,118,150)" stroke-width="1.51"/><path d="M403,231L397,188L341,168Z" fill="rgb(139,125,152)" stroke="rgb(139,125,152)" stroke-width="1.51"/><path d="M196,196L124,223L159,258Z" fill="rgb(102,149,157)" stroke="rgb(102,149,157)" stroke-width="1.51"/><path d="M102,193L124,223L196,196Z" fill="rgb(107,156,146)" stroke="rgb(107,156,146)" stroke-width="1.51"/><path d="M309,474L322,518L395,446Z" fill="rgb(137,97,174)" stroke="rgb(137,97,174)" stroke-width="1.51"/><path d="M395,446L466,476L450,398Z" fill="rgb(156,87,162)" stroke="rgb(156,87,162)" stroke-width="1.51"/><path d="M239,545L322,518L309,474Z" fill="rgb(127,101,180)" stroke="rgb(127,101,180)" stroke-width="1.51"/><path d="M447,303L456,224L403,231Z" fill="rgb(149,111,154)" stroke="rgb(149,111,154)" stroke-width="1.51"/><path d="M532,292L456,224L447,303Z" fill="rgb(159,102,150)" stroke="rgb(159,102,150)" stroke-width="1.51"/><path d="M232,182L237,127L196,196Z" fill="rgb(97,146,162)" stroke="rgb(97,146,162)" stroke-width="1.51"/><path d="M341,168L237,127L232,182Z" fill="rgb(102,140,165)" stroke="rgb(102,140,165)" stroke-width="1.51"/><path d="M303,98L237,127L341,168Z" fill="rgb(116,142,155)" stroke="rgb(116,142,155)" stroke-width="1.51"/><path d="M235,467L239,545L309,474Z" fill="rgb(111,106,187)" stroke="rgb(111,106,187)" stroke-width="1.51"/><path d="M169,520L235,467L203,434Z" fill="rgb(112,117,179)" stroke="rgb(112,117,179)" stroke-width="1.51"/><path d="M126,510L169,520L203,434Z" fill="rgb(124,123,166)" stroke="rgb(124,123,166)" stroke-width="1.51"/><path d="M322,518L383,532L395,446Z" fill="rgb(148,92,167)" stroke="rgb(148,92,167)" stroke-width="1.51"/><path d="M322,576L383,532L322,518Z" fill="rgb(150,91,166)" stroke="rgb(150,91,166)" stroke-width="1.51"/><path d="M124,223L62,260L159,258Z" fill="rgb(106,155,147)" stroke="rgb(106,155,147)" stroke-width="1.51"/><path d="M157,115L102,193L196,196Z" fill="rgb(109,158,141)" stroke="rgb(109,158,141)" stroke-width="1.51"/><path d="M109,324L26,363L115,380Z" fill="rgb(101,147,159)" stroke="rgb(101,147,159)" stroke-width="1.51"/><path d="M115,380L91,464L203,434Z" fill="rgb(112,132,165)" stroke="rgb(112,132,165)" stroke-width="1.51"/><path d="M102,193L62,260L124,223Z" fill="rgb(111,161,137)" stroke="rgb(111,161,137)" stroke-width="1.51"/><path d="M26,363L91,464L115,380Z" fill="rgb(116,145,151)" stroke="rgb(116,145,151)" stroke-width="1.51"/><path d="M91,464L126,510L203,434Z" fill="rgb(124,129,161)" stroke="rgb(124,129,161)" stroke-width="1.51"/><path d="M181,594L255,583L239,545Z" fill="rgb(133,105,172)" stroke="rgb(133,105,172)" stroke-width="1.51"/><path d="M540,393L532,292L447,303Z" fill="rgb(158,91,158)" stroke="rgb(158,91,158)" stroke-width="1.51"/><path d="M383,532L466,476L395,446Z" fill="rgb(159,86,160)" stroke="rgb(159,86,160)" stroke-width="1.51"/><path d="M371,94L303,98L341,168Z" fill="rgb(133,139,144)" stroke="rgb(133,139,144)" stroke-width="1.51"/><path d="M371,94L341,168L397,188Z" fill="rgb(140,132,145)" stroke="rgb(140,132,145)" stroke-width="1.51"/><path d="M239,545L322,576L322,518Z" fill="rgb(137,97,174)" stroke="rgb(137,97,174)" stroke-width="1.51"/><path d="M383,532L467,542L466,476Z" fill="rgb(171,78,152)" stroke="rgb(171,78,152)" stroke-width="1.51"/><path d="M255,583L322,576L239,545Z" fill="rgb(134,97,176)" stroke="rgb(134,97,176)" stroke-width="1.51"/><path d="M237,127L157,115L196,196Z" fill="rgb(104,153,150)" stroke="rgb(104,153,150)" stroke-width="1.51"/><path d="M229,16L157,115L237,127Z" fill="rgb(109,158,140)" stroke="rgb(109,158,140)" stroke-width="1.51"/><path d="M62,260L29,317L109,324Z" fill="rgb(107,156,144)" stroke="rgb(107,156,144)" stroke-width="1.51"/><path d="M181,594L239,545L169,520Z" fill="rgb(134,112,166)" stroke="rgb(134,112,166)" stroke-width="1.51"/><path d="M29,317L26,363L109,324Z" fill="rgb(106,155,148)" stroke="rgb(106,155,148)" stroke-width="1.51"/><path d="M461,86L371,94L397,188Z" fill="rgb(154,131,132)" stroke="rgb(154,131,132)" stroke-width="1.51"/><path d="M540,393L447,303L450,398Z" fill="rgb(153,89,164)" stroke="rgb(153,89,164)" stroke-width="1.51"/><path d="M456,224L476,160L397,188Z" fill="rgb(157,118,140)" stroke="rgb(157,118,140)" stroke-width="1.51"/><path d="M529,234L476,160L456,224Z" fill="rgb(167,111,135)" stroke="rgb(167,111,135)" stroke-width="1.51"/><path d="M466,476L526,435L450,398Z" fill="rgb(167,81,155)" stroke="rgb(167,81,155)" stroke-width="1.51"/><path d="M542,519L526,435L466,476Z" fill="rgb(178,72,146)" stroke="rgb(178,72,146)" stroke-width="1.51"/><path d="M526,435L540,393L450,398Z" fill="rgb(167,81,155)" stroke="rgb(167,81,155)" stroke-width="1.51"/><path d="M532,292L529,234L456,224Z" fill="rgb(166,103,142)" stroke="rgb(166,103,142)" stroke-width="1.51"/><path d="M545,193L529,234L602,235Z" fill="rgb(169,107,136)" stroke="rgb(169,107,136)" stroke-width="1.51"/><path d="M322,576L377,586L383,532Z" fill="rgb(160,85,160)" stroke="rgb(160,85,160)" stroke-width="1.51"/><path d="M328,684L377,586L322,576Z" fill="rgb(165,83,156)" stroke="rgb(165,83,156)" stroke-width="1.51"/><path d="M102,193L23,155L62,260Z" fill="rgb(115,170,121)" stroke="rgb(115,170,121)" stroke-width="1.51"/><path d="M62,260L-31,310L29,317Z" fill="rgb(114,166,128)" stroke="rgb(114,166,128)" stroke-width="1.51"/><path d="M157,115L97,126L102,193Z" fill="rgb(115,167,125)" stroke="rgb(115,167,125)" stroke-width="1.51"/><path d="M255,583L260,668L322,576Z" fill="rgb(146,93,169)" stroke="rgb(146,93,169)" stroke-width="1.51"/><path d="M120,604L181,594L169,520Z" fill="rgb(145,118,152)" stroke="rgb(145,118,152)" stroke-width="1.51"/><path d="M120,604L169,520L126,510Z" fill="rgb(141,124,150)" stroke="rgb(141,124,150)" stroke-width="1.51"/><path d="M91,464L62,535L126,510Z" fill="rgb(139,135,142)" stroke="rgb(139,135,142)" stroke-width="1.51"/><path d="M26,363L37,475L91,464Z" fill="rgb(128,148,139)" stroke="rgb(128,148,139)" stroke-width="1.51"/><path d="M377,586L467,542L383,532Z" fill="rgb(170,79,152)" stroke="rgb(170,79,152)" stroke-width="1.51"/><path d="M37,475L62,535L91,464Z" fill="rgb(140,142,135)" stroke="rgb(140,142,135)" stroke-width="1.51"/><path d="M529,234L545,193L476,160Z" fill="rgb(171,111,131)" stroke="rgb(171,111,131)" stroke-width="1.51"/><path d="M476,160L461,86L397,188Z" fill="rgb(161,125,129)" stroke="rgb(161,125,129)" stroke-width="1.51"/><path d="M602,235L529,234L532,292Z" fill="rgb(166,102,143)" stroke="rgb(166,102,143)" stroke-width="1.51"/><path d="M540,393L582,305L532,292Z" fill="rgb(158,91,158)" stroke="rgb(158,91,158)" stroke-width="1.51"/><path d="M592,393L582,305L540,393Z" fill="rgb(158,86,160)" stroke="rgb(158,86,160)" stroke-width="1.51"/><path d="M517,122L461,86L476,160Z" fill="rgb(172,124,118)" stroke="rgb(172,124,118)" stroke-width="1.51"/><path d="M339,17L229,16L303,98Z" fill="rgb(123,153,137)" stroke="rgb(123,153,137)" stroke-width="1.51"/><path d="M29,317L-31,310L26,363Z" fill="rgb(112,164,132)" stroke="rgb(112,164,132)" stroke-width="1.51"/><path d="M26,363L-8,461L37,475Z" fill="rgb(131,154,129)" stroke="rgb(131,154,129)" stroke-width="1.51"/><path d="M-38,226L-31,310L62,260Z" fill="rgb(117,174,115)" stroke="rgb(117,174,115)" stroke-width="1.51"/><path d="M97,126L23,155L102,193Z" fill="rgb(117,174,114)" stroke="rgb(117,174,114)" stroke-width="1.51"/><path d="M181,594L197,650L255,583Z" fill="rgb(144,104,163)" stroke="rgb(144,104,163)" stroke-width="1.51"/><path d="M62,535L120,604L126,510Z" fill="rgb(147,131,139)" stroke="rgb(147,131,139)" stroke-width="1.51"/><path d="M62,535L47,590L120,604Z" fill="rgb(155,134,128)" stroke="rgb(155,134,128)" stroke-width="1.51"/><path d="M37,475L-13,535L62,535Z" fill="rgb(148,147,121)" stroke="rgb(148,147,121)" stroke-width="1.51"/><path d="M-41,385L-8,461L26,363Z" fill="rgb(126,159,127)" stroke="rgb(126,159,127)" stroke-width="1.51"/><path d="M545,193L517,122L476,160Z" fill="rgb(173,117,123)" stroke="rgb(173,117,123)" stroke-width="1.51"/><path d="M526,435L592,393L540,393Z" fill="rgb(166,81,155)" stroke="rgb(166,81,155)" stroke-width="1.51"/><path d="M610,441L592,393L526,435Z" fill="rgb(169,79,153)" stroke="rgb(169,79,153)" stroke-width="1.51"/><path d="M467,542L542,519L466,476Z" fill="rgb(182,68,143)" stroke="rgb(182,68,143)" stroke-width="1.51"/><path d="M377,586L475,584L467,542Z" fill="rgb(180,71,145)" stroke="rgb(180,71,145)" stroke-width="1.51"/><path d="M471,659L475,584L377,586Z" fill="rgb(186,65,140)" stroke="rgb(186,65,140)" stroke-width="1.51"/><path d="M157,115L130,32L97,126Z" fill="rgb(116,173,116)" stroke="rgb(116,173,116)" stroke-width="1.51"/><path d="M97,126L38,93L23,155Z" fill="rgb(119,183,98)" stroke="rgb(119,183,98)" stroke-width="1.51"/><path d="M303,98L229,16L237,127Z" fill="rgb(107,151,151)" stroke="rgb(107,151,151)" stroke-width="1.51"/><path d="M339,17L303,98L371,94Z" fill="rgb(137,146,133)" stroke="rgb(137,146,133)" stroke-width="1.51"/><path d="M367,15L339,17L371,94Z" fill="rgb(145,147,123)" stroke="rgb(145,147,123)" stroke-width="1.51"/><path d="M475,584L542,519L467,542Z" fill="rgb(188,62,138)" stroke="rgb(188,62,138)" stroke-width="1.51"/><path d="M-31,310L-41,385L26,363Z" fill="rgb(112,162,134)" stroke="rgb(112,162,134)" stroke-width="1.51"/><path d="M126,665L197,650L181,594Z" fill="rgb(156,111,147)" stroke="rgb(156,111,147)" stroke-width="1.51"/><path d="M339,17L246,-41L229,16Z" fill="rgb(120,161,130)" stroke="rgb(120,161,130)" stroke-width="1.51"/><path d="M461,86L367,15L371,94Z" fill="rgb(155,141,121)" stroke="rgb(155,141,121)" stroke-width="1.51"/><path d="M394,-24L367,15L478,13Z" fill="rgb(162,149,104)" stroke="rgb(162,149,104)" stroke-width="1.51"/><path d="M-31,310L-113,372L-41,385Z" fill="rgb(113,162,133)" stroke="rgb(113,162,133)" stroke-width="1.51"/><path d="M23,155L-38,226L62,260Z" fill="rgb(118,178,107)" stroke="rgb(118,178,107)" stroke-width="1.51"/><path d="M165,17L130,32L157,115Z" fill="rgb(117,174,114)" stroke="rgb(117,174,114)" stroke-width="1.51"/><path d="M229,16L165,17L157,115Z" fill="rgb(115,168,124)" stroke="rgb(115,168,124)" stroke-width="1.51"/><path d="M197,650L260,668L255,583Z" fill="rgb(145,97,167)" stroke="rgb(145,97,167)" stroke-width="1.51"/><path d="M545,193L577,105L517,122Z" fill="rgb(175,120,119)" stroke="rgb(175,120,119)" stroke-width="1.51"/><path d="M582,305L602,235L532,292Z" fill="rgb(164,99,148)" stroke="rgb(164,99,148)" stroke-width="1.51"/><path d="M592,393L602,235L582,305Z" fill="rgb(160,93,155)" stroke="rgb(160,93,155)" stroke-width="1.51"/><path d="M23,155L-32,187L-38,226Z" fill="rgb(119,184,96)" stroke="rgb(119,184,96)" stroke-width="1.51"/><path d="M130,32L38,93L97,126Z" fill="rgb(119,181,100)" stroke="rgb(119,181,100)" stroke-width="1.51"/><path d="M-41,122L-32,187L23,155Z" fill="rgb(120,189,86)" stroke="rgb(120,189,86)" stroke-width="1.51"/><path d="M-13,535L47,590L62,535Z" fill="rgb(155,144,117)" stroke="rgb(155,144,117)" stroke-width="1.51"/><path d="M120,604L126,665L181,594Z" fill="rgb(156,117,142)" stroke="rgb(156,117,142)" stroke-width="1.51"/><path d="M-13,535L37,475L-8,461Z" fill="rgb(145,153,117)" stroke="rgb(145,153,117)" stroke-width="1.51"/><path d="M592,393L610,441L602,235Z" fill="rgb(157,87,161)" stroke="rgb(157,87,161)" stroke-width="1.51"/><path d="M596,505L610,441L526,435Z" fill="rgb(175,74,148)" stroke="rgb(175,74,148)" stroke-width="1.51"/><path d="M260,668L328,684L322,576Z" fill="rgb(159,85,160)" stroke="rgb(159,85,160)" stroke-width="1.51"/><path d="M-54,576L-13,535L-102,504Z" fill="rgb(154,151,109)" stroke="rgb(154,151,109)" stroke-width="1.51"/><path d="M542,519L596,505L526,435Z" fill="rgb(180,70,145)" stroke="rgb(180,70,145)" stroke-width="1.51"/><path d="M603,586L596,505L542,519Z" fill="rgb(187,63,138)" stroke="rgb(187,63,138)" stroke-width="1.51"/><path d="M542,617L542,519L475,584Z" fill="rgb(193,56,134)" stroke="rgb(193,56,134)" stroke-width="1.51"/><path d="M328,684L391,677L377,586Z" fill="rgb(176,74,148)" stroke="rgb(176,74,148)" stroke-width="1.51"/><path d="M602,235L614,187L545,193Z" fill="rgb(170,110,133)" stroke="rgb(170,110,133)" stroke-width="1.51"/><path d="M478,13L367,15L461,86Z" fill="rgb(166,141,108)" stroke="rgb(166,141,108)" stroke-width="1.51"/><path d="M610,441L614,187L602,235Z" fill="rgb(163,97,150)" stroke="rgb(163,97,150)" stroke-width="1.51"/><path d="M246,756L304,723L260,668Z" fill="rgb(161,85,158)" stroke="rgb(161,85,158)" stroke-width="1.51"/><path d="M260,668L304,723L328,684Z" fill="rgb(167,81,155)" stroke="rgb(167,81,155)" stroke-width="1.51"/><path d="M32,651L126,665L120,604Z" fill="rgb(165,126,124)" stroke="rgb(165,126,124)" stroke-width="1.51"/><path d="M173,717L126,665L91,754Z" fill="rgb(172,114,127)" stroke="rgb(172,114,127)" stroke-width="1.51"/><path d="M478,13L461,86L513,30Z" fill="rgb(176,136,100)" stroke="rgb(176,136,100)" stroke-width="1.51"/><path d="M367,15L394,-24L339,17Z" fill="rgb(149,152,113)" stroke="rgb(149,152,113)" stroke-width="1.51"/><path d="M229,16L172,-29L165,17Z" fill="rgb(117,174,115)" stroke="rgb(117,174,115)" stroke-width="1.51"/><path d="M614,187L577,105L545,193Z" fill="rgb(173,116,123)" stroke="rgb(173,116,123)" stroke-width="1.51"/><path d="M302,-53L246,-41L339,17Z" fill="rgb(128,159,126)" stroke="rgb(128,159,126)" stroke-width="1.51"/><path d="M165,17L107,-18L130,32Z" fill="rgb(119,183,98)" stroke="rgb(119,183,98)" stroke-width="1.51"/><path d="M513,30L461,86L517,122Z" fill="rgb(178,129,106)" stroke="rgb(178,129,106)" stroke-width="1.51"/><path d="M246,-41L172,-29L229,16Z" fill="rgb(115,169,123)" stroke="rgb(115,169,123)" stroke-width="1.51"/><path d="M130,32L27,32L38,93Z" fill="rgb(120,190,83)" stroke="rgb(120,190,83)" stroke-width="1.51"/><path d="M391,677L471,659L377,586Z" fill="rgb(185,66,141)" stroke="rgb(185,66,141)" stroke-width="1.51"/><path d="M577,105L513,30L517,122Z" fill="rgb(178,127,107)" stroke="rgb(178,127,107)" stroke-width="1.51"/><path d="M38,93L-41,122L23,155Z" fill="rgb(120,191,79)" stroke="rgb(120,191,79)" stroke-width="1.51"/><path d="M-122,252L-31,310L-38,226Z" fill="rgb(117,174,114)" stroke="rgb(117,174,114)" stroke-width="1.51"/><path d="M-123,320L-113,372L-31,310Z" fill="rgb(113,165,131)" stroke="rgb(113,165,131)" stroke-width="1.51"/><path d="M-20,31L-41,122L38,93Z" fill="rgb(120,198,63)" stroke="rgb(120,198,63)" stroke-width="1.51"/><path d="M394,-24L302,-53L339,17Z" fill="rgb(143,155,116)" stroke="rgb(143,155,116)" stroke-width="1.51"/><path d="M246,-41L233,-98L172,-29Z" fill="rgb(115,168,124)" stroke="rgb(115,168,124)" stroke-width="1.51"/><path d="M471,659L542,617L475,584Z" fill="rgb(199,48,128)" stroke="rgb(199,48,128)" stroke-width="1.51"/><path d="M172,-29L107,-18L165,17Z" fill="rgb(119,182,100)" stroke="rgb(119,182,100)" stroke-width="1.51"/><path d="M99,-91L107,-18L172,-29Z" fill="rgb(119,186,92)" stroke="rgb(119,186,92)" stroke-width="1.51"/><path d="M328,684L369,740L391,677Z" fill="rgb(183,67,142)" stroke="rgb(183,67,142)" stroke-width="1.51"/><path d="M391,677L456,720L471,659Z" fill="rgb(196,51,130)" stroke="rgb(196,51,130)" stroke-width="1.51"/><path d="M173,717L260,668L197,650Z" fill="rgb(158,98,154)" stroke="rgb(158,98,154)" stroke-width="1.51"/><path d="M107,-18L27,32L130,32Z" fill="rgb(120,191,81)" stroke="rgb(120,191,81)" stroke-width="1.51"/><path d="M-121,460L-102,504L-8,461Z" fill="rgb(142,155,117)" stroke="rgb(142,155,117)" stroke-width="1.51"/><path d="M-123,320L-31,310L-122,252Z" fill="rgb(115,170,122)" stroke="rgb(115,170,122)" stroke-width="1.51"/><path d="M126,665L173,717L197,650Z" fill="rgb(164,108,141)" stroke="rgb(164,108,141)" stroke-width="1.51"/><path d="M32,651L120,604L47,590Z" fill="rgb(163,133,120)" stroke="rgb(163,133,120)" stroke-width="1.51"/><path d="M-122,252L-38,226L-110,165Z" fill="rgb(119,181,102)" stroke="rgb(119,181,102)" stroke-width="1.51"/><path d="M-54,576L32,651L47,590Z" fill="rgb(166,145,103)" stroke="rgb(166,145,103)" stroke-width="1.51"/><path d="M-54,576L47,590L-13,535Z" fill="rgb(160,150,105)" stroke="rgb(160,150,105)" stroke-width="1.51"/><path d="M-110,165L-38,226L-32,187Z" fill="rgb(119,184,96)" stroke="rgb(119,184,96)" stroke-width="1.51"/><path d="M546,651L603,586L542,617Z" fill="rgb(199,47,128)" stroke="rgb(199,47,128)" stroke-width="1.51"/><path d="M542,617L603,586L542,519Z" fill="rgb(193,56,134)" stroke="rgb(193,56,134)" stroke-width="1.51"/><path d="M596,505L603,586L610,441Z" fill="rgb(183,67,142)" stroke="rgb(183,67,142)" stroke-width="1.51"/><path d="M-102,504L-13,535L-8,461Z" fill="rgb(147,154,114)" stroke="rgb(147,154,114)" stroke-width="1.51"/><path d="M471,659L546,651L542,617Z" fill="rgb(202,41,125)" stroke="rgb(202,41,125)" stroke-width="1.51"/><path d="M532,745L546,651L471,659Z" fill="rgb(208,27,120)" stroke="rgb(208,27,120)" stroke-width="1.51"/><path d="M304,723L369,740L328,684Z" fill="rgb(177,73,147)" stroke="rgb(177,73,147)" stroke-width="1.51"/><path d="M370,802L369,740L334,818Z" fill="rgb(182,69,143)" stroke="rgb(182,69,143)" stroke-width="1.51"/><path d="M-121,460L-41,385L-113,372Z" fill="rgb(126,159,127)" stroke="rgb(126,159,127)" stroke-width="1.51"/><path d="M-121,460L-8,461L-41,385Z" fill="rgb(133,158,123)" stroke="rgb(133,158,123)" stroke-width="1.51"/><path d="M-123,320L-121,460L-113,372Z" fill="rgb(121,160,130)" stroke="rgb(121,160,130)" stroke-width="1.51"/><path d="M394,-24L395,-110L302,-53Z" fill="rgb(149,153,112)" stroke="rgb(149,153,112)" stroke-width="1.51"/><path d="M478,13L463,-58L394,-24Z" fill="rgb(170,146,97)" stroke="rgb(170,146,97)" stroke-width="1.51"/><path d="M523,-35L463,-58L478,13Z" fill="rgb(179,142,89)" stroke="rgb(179,142,89)" stroke-width="1.51"/><path d="M577,105L577,32L513,30Z" fill="rgb(179,132,100)" stroke="rgb(179,132,100)" stroke-width="1.51"/><path d="M616,-43L577,32L577,105Z" fill="rgb(181,136,94)" stroke="rgb(181,136,94)" stroke-width="1.51"/><path d="M-122,122L-110,165L-41,122Z" fill="rgb(120,191,80)" stroke="rgb(120,191,80)" stroke-width="1.51"/><path d="M-41,122L-110,165L-32,187Z" fill="rgb(120,188,87)" stroke="rgb(120,188,87)" stroke-width="1.51"/><path d="M237,784L246,756L173,717Z" fill="rgb(161,95,154)" stroke="rgb(161,95,154)" stroke-width="1.51"/><path d="M173,717L246,756L260,668Z" fill="rgb(160,93,155)" stroke="rgb(160,93,155)" stroke-width="1.51"/><path d="M27,32L-20,31L38,93Z" fill="rgb(120,200,60)" stroke="rgb(120,200,60)" stroke-width="1.51"/><path d="M19,-37L-20,31L27,32Z" fill="rgb(119,207,36)" stroke="rgb(119,207,36)" stroke-width="1.51"/><path d="M369,740L456,720L391,677Z" fill="rgb(192,58,134)" stroke="rgb(192,58,134)" stroke-width="1.51"/><path d="M523,-35L478,13L513,30Z" fill="rgb(182,140,87)" stroke="rgb(182,140,87)" stroke-width="1.51"/><path d="M107,-18L19,-37L27,32Z" fill="rgb(120,200,59)" stroke="rgb(120,200,59)" stroke-width="1.51"/><path d="M302,-53L233,-98L246,-41Z" fill="rgb(115,162,132)" stroke="rgb(115,162,132)" stroke-width="1.51"/><path d="M315,-128L233,-98L302,-53Z" fill="rgb(124,160,128)" stroke="rgb(124,160,128)" stroke-width="1.51"/><path d="M577,32L523,-35L513,30Z" fill="rgb(182,139,89)" stroke="rgb(182,139,89)" stroke-width="1.51"/><path d="M32,651L91,754L126,665Z" fill="rgb(174,124,115)" stroke="rgb(174,124,115)" stroke-width="1.51"/><path d="M-54,576L-15,666L32,651Z" fill="rgb(171,145,96)" stroke="rgb(171,145,96)" stroke-width="1.51"/><path d="M-97,617L-15,666L-54,576Z" fill="rgb(169,146,98)" stroke="rgb(169,146,98)" stroke-width="1.51"/><path d="M-117,42L-122,122L-41,122Z" fill="rgb(120,197,68)" stroke="rgb(120,197,68)" stroke-width="1.51"/><path d="M58,-89L19,-37L107,-18Z" fill="rgb(120,198,65)" stroke="rgb(120,198,65)" stroke-width="1.51"/><path d="M-117,42L-41,122L-20,31Z" fill="rgb(120,201,57)" stroke="rgb(120,201,57)" stroke-width="1.51"/><path d="M-110,165L-122,122L-122,252Z" fill="rgb(120,185,93)" stroke="rgb(120,185,93)" stroke-width="1.51"/><path d="M-122,252L-122,122L-123,320Z" fill="rgb(118,178,106)" stroke="rgb(118,178,106)" stroke-width="1.51"/><path d="M187,818L237,784L173,717Z" fill="rgb(164,99,148)" stroke="rgb(164,99,148)" stroke-width="1.51"/><path d="M246,756L334,818L304,723Z" fill="rgb(167,80,154)" stroke="rgb(167,80,154)" stroke-width="1.51"/><path d="M369,740L453,812L456,720Z" fill="rgb(196,52,131)" stroke="rgb(196,52,131)" stroke-width="1.51"/><path d="M451,-122L395,-110L463,-58Z" fill="rgb(167,146,99)" stroke="rgb(167,146,99)" stroke-width="1.51"/><path d="M463,-58L395,-110L394,-24Z" fill="rgb(163,148,102)" stroke="rgb(163,148,102)" stroke-width="1.51"/><path d="M179,-120L99,-91L172,-29Z" fill="rgb(119,181,101)" stroke="rgb(119,181,101)" stroke-width="1.51"/><path d="M179,-120L172,-29L233,-98Z" fill="rgb(117,173,117)" stroke="rgb(117,173,117)" stroke-width="1.51"/><path d="M18,723L91,754L32,651Z" fill="rgb(179,131,102)" stroke="rgb(179,131,102)" stroke-width="1.51"/><path d="M395,-110L315,-128L302,-53Z" fill="rgb(141,155,118)" stroke="rgb(141,155,118)" stroke-width="1.51"/><path d="M315,-128L179,-120L233,-98Z" fill="rgb(112,164,132)" stroke="rgb(112,164,132)" stroke-width="1.51"/><path d="M-15,666L18,723L32,651Z" fill="rgb(178,139,93)" stroke="rgb(178,139,93)" stroke-width="1.51"/><path d="M532,745L605,673L546,651Z" fill="rgb(209,25,119)" stroke="rgb(209,25,119)" stroke-width="1.51"/><path d="M546,651L605,673L603,586Z" fill="rgb(202,42,126)" stroke="rgb(202,42,126)" stroke-width="1.51"/><path d="M603,586L605,673L610,441Z" fill="rgb(192,58,135)" stroke="rgb(192,58,135)" stroke-width="1.51"/><path d="M-15,666L-26,750L18,723Z" fill="rgb(182,140,87)" stroke="rgb(182,140,87)" stroke-width="1.51"/><path d="M-102,504L-97,617L-54,576Z" fill="rgb(160,150,105)" stroke="rgb(160,150,105)" stroke-width="1.51"/><path d="M-121,460L-97,617L-102,504Z" fill="rgb(153,152,110)" stroke="rgb(153,152,110)" stroke-width="1.51"/><path d="M179,-120L58,-89L99,-91Z" fill="rgb(120,188,87)" stroke="rgb(120,188,87)" stroke-width="1.51"/><path d="M99,-91L58,-89L107,-18Z" fill="rgb(120,193,77)" stroke="rgb(120,193,77)" stroke-width="1.51"/><path d="M19,-37L-32,-42L-20,31Z" fill="rgb(118,210,20)" stroke="rgb(118,210,20)" stroke-width="1.51"/><path d="M334,818L369,740L304,723Z" fill="rgb(177,73,147)" stroke="rgb(177,73,147)" stroke-width="1.51"/><path d="M456,720L532,745L471,659Z" fill="rgb(208,28,120)" stroke="rgb(208,28,120)" stroke-width="1.51"/><path d="M453,812L532,745L456,720Z" fill="rgb(207,32,121)" stroke="rgb(207,32,121)" stroke-width="1.51"/><path d="M535,-103L451,-122L463,-58Z" fill="rgb(178,142,90)" stroke="rgb(178,142,90)" stroke-width="1.51"/><path d="M395,-110L451,-122L315,-128Z" fill="rgb(155,151,108)" stroke="rgb(155,151,108)" stroke-width="1.51"/><path d="M-36,-109L-32,-42L19,-37Z" fill="rgb(118,210,20)" stroke="rgb(118,210,20)" stroke-width="1.51"/><path d="M370,802L453,812L369,740Z" fill="rgb(190,59,136)" stroke="rgb(190,59,136)" stroke-width="1.51"/><path d="M237,784L334,818L246,756Z" fill="rgb(162,84,159)" stroke="rgb(162,84,159)" stroke-width="1.51"/><path d="M187,818L334,818L237,784Z" fill="rgb(157,87,162)" stroke="rgb(157,87,162)" stroke-width="1.51"/><path d="M-81,-27L-117,42L-20,31Z" fill="rgb(119,208,32)" stroke="rgb(119,208,32)" stroke-width="1.51"/><path d="M125,824L187,818L173,717Z" fill="rgb(168,107,137)" stroke="rgb(168,107,137)" stroke-width="1.51"/><path d="M125,824L173,717L91,754Z" fill="rgb(172,114,127)" stroke="rgb(172,114,127)" stroke-width="1.51"/><path d="M523,-35L535,-103L463,-58Z" fill="rgb(182,140,87)" stroke="rgb(182,140,87)" stroke-width="1.51"/><path d="M577,32L616,-43L523,-35Z" fill="rgb(182,140,87)" stroke="rgb(182,140,87)" stroke-width="1.51"/><path d="M614,187L616,-43L577,105Z" fill="rgb(178,128,106)" stroke="rgb(178,128,106)" stroke-width="1.51"/><path d="M616,-43L535,-103L523,-35Z" fill="rgb(182,140,87)" stroke="rgb(182,140,87)" stroke-width="1.51"/><path d="M-32,-42L-81,-27L-20,31Z" fill="rgb(118,210,20)" stroke="rgb(118,210,20)" stroke-width="1.51"/><path d="M-83,-117L-81,-27L-32,-42Z" fill="rgb(118,210,20)" stroke="rgb(118,210,20)" stroke-width="1.51"/><path d="M334,818L453,812L370,802Z" fill="rgb(188,62,138)" stroke="rgb(188,62,138)" stroke-width="1.51"/><path d="M187,818L125,824L334,818Z" fill="rgb(161,95,153)" stroke="rgb(161,95,153)" stroke-width="1.51"/><path d="M38,813L125,824L91,754Z" fill="rgb(176,123,114)" stroke="rgb(176,123,114)" stroke-width="1.51"/><path d="M38,813L91,754L18,723Z" fill="rgb(179,130,103)" stroke="rgb(179,130,103)" stroke-width="1.51"/><path d="M-100,716L-26,750L-15,666Z" fill="rgb(182,140,87)" stroke="rgb(182,140,87)" stroke-width="1.51"/><path d="M453,812L543,782L532,745Z" fill="rgb(210,20,118)" stroke="rgb(210,20,118)" stroke-width="1.51"/><path d="M532,745L591,756L605,673Z" fill="rgb(210,20,118)" stroke="rgb(210,20,118)" stroke-width="1.51"/><path d="M-97,617L-114,680L-15,666Z" fill="rgb(175,144,93)" stroke="rgb(175,144,93)" stroke-width="1.51"/><path d="M-121,460L-114,680L-97,617Z" fill="rgb(163,148,102)" stroke="rgb(163,148,102)" stroke-width="1.51"/><path d="M543,782L591,756L532,745Z" fill="rgb(210,20,118)" stroke="rgb(210,20,118)" stroke-width="1.51"/><path d="M-52,825L38,813L-26,750Z" fill="rgb(182,140,87)" stroke="rgb(182,140,87)" stroke-width="1.51"/><path d="M-26,750L38,813L18,723Z" fill="rgb(181,138,90)" stroke="rgb(181,138,90)" stroke-width="1.51"/><path d="M-114,680L-100,716L-15,666Z" fill="rgb(180,141,88)" stroke="rgb(180,141,88)" stroke-width="1.51"/><path d="M-83,-117L-36,-109L179,-120Z" fill="rgb(119,206,40)" stroke="rgb(119,206,40)" stroke-width="1.51"/><path d="M179,-120L-36,-109L58,-89Z" fill="rgb(120,197,67)" stroke="rgb(120,197,67)" stroke-width="1.51"/><path d="M58,-89L-36,-109L19,-37Z" fill="rgb(119,207,35)" stroke="rgb(119,207,35)" stroke-width="1.51"/><path d="M616,-43L587,-124L535,-103Z" fill="rgb(182,140,87)" stroke="rgb(182,140,87)" stroke-width="1.51"/><path d="M535,-103L587,-124L451,-122Z" fill="rgb(182,140,87)" stroke="rgb(182,140,87)" stroke-width="1.51"/><path d="M451,-122L587,-124L315,-128Z" fill="rgb(171,145,96)" stroke="rgb(171,145,96)" stroke-width="1.51"/><path d="M543,782L599,804L591,756Z" fill="rgb(210,20,118)" stroke="rgb(210,20,118)" stroke-width="1.51"/><path d="M591,756L599,804L605,673Z" fill="rgb(210,20,118)" stroke="rgb(210,20,118)" stroke-width="1.51"/><path d="M453,812L599,804L543,782Z" fill="rgb(210,20,118)" stroke="rgb(210,20,118)" stroke-width="1.51"/><path d="M-36,-109L-83,-117L-32,-42Z" fill="rgb(118,210,20)" stroke="rgb(118,210,20)" stroke-width="1.51"/><path d="M-81,-27L-83,-117L-117,42Z" fill="rgb(118,210,20)" stroke="rgb(118,210,20)" stroke-width="1.51"/><path d="M315,-128L-83,-117L179,-120Z" fill="rgb(119,184,96)" stroke="rgb(119,184,96)" stroke-width="1.51"/><path d="M-103,812L-52,825L-26,750Z" fill="rgb(182,140,87)" stroke="rgb(182,140,87)" stroke-width="1.51"/><path d="M38,813L-52,825L125,824Z" fill="rgb(180,133,99)" stroke="rgb(180,133,99)" stroke-width="1.51"/><path d="M-100,716L-103,812L-26,750Z" fill="rgb(182,140,87)" stroke="rgb(182,140,87)" stroke-width="1.51"/><path d="M-114,680L-103,812L-100,716Z" fill="rgb(182,140,87)" stroke="rgb(182,140,87)" stroke-width="1.51"/></svg>