<svg xmlns="http://www.w3.org/2000/svg" width="600" height="600"><path d="M317,279L393,311L326,230Z" fill="rgb(148,174,120)" stroke="rgb(148,174,120)" stroke-width="1.51"/><path d="M393,311L408,222L326,230Z" fill="rgb(144,173,124)" stroke="rgb(144,173,124)" stroke-width="1.51"/><path d="M393,311L433,227L408,222Z" fill="rgb(136,166,132)" stroke="rgb(136,166,132)" stroke-width="1.51"/><path d="M393,311L446,317L433,227Z" fill="rgb(123,159,142)" stroke="rgb(123,159,142)" stroke-width="1.51"/><path d="M317,279L315,380L393,311Z" fill="rgb(129,168,134)" stroke="rgb(129,168,134)" stroke-width="1.51"/><path d="M393,311L359,411L446,317Z" fill="rgb(85,158,157)" stroke="rgb(85,158,157)" stroke-width="1.51"/><path d="M326,230L240,200L317,279Z" fill="rgb(180,186,92)" stroke="rgb(180,186,92)" stroke-width="1.51"/><path d="M317,279L227,330L315,380Z" fill="rgb(149,174,119)" stroke="rgb(149,174,119)" stroke-width="1.51"/><path d="M269,121L240,200L326,230Z" fill="rgb(196,187,82)" stroke="rgb(196,187,82)" stroke-width="1.51"/><path d="M315,380L359,411L393,311Z" fill="rgb(100,160,150)" stroke="rgb(100,160,150)" stroke-width="1.51"/><path d="M408,222L388,115L326,230Z" fill="rgb(164,176,111)" stroke="rgb(164,176,111)" stroke-width="1.51"/><path d="M439,121L388,115L408,222Z" fill="rgb(151,156,136)" stroke="rgb(151,156,136)" stroke-width="1.51"/><path d="M240,200L227,330L317,279Z" fill="rgb(180,186,92)" stroke="rgb(180,186,92)" stroke-width="1.51"/><path d="M315,380L270,486L359,411Z" fill="rgb(108,154,150)" stroke="rgb(108,154,150)" stroke-width="1.51"/><path d="M512,131L439,121L433,227Z" fill="rgb(157,144,139)" stroke="rgb(157,144,139)" stroke-width="1.51"/><path d="M433,227L439,121L408,222Z" fill="rgb(158,165,123)" stroke="rgb(158,165,123)" stroke-width="1.51"/><path d="M227,330L227,350L315,380Z" fill="rgb(152,175,118)" stroke="rgb(152,175,118)" stroke-width="1.51"/><path d="M359,411L477,395L446,317Z" fill="rgb(68,146,167)" stroke="rgb(68,146,167)" stroke-width="1.51"/><path d="M446,317L551,215L433,227Z" fill="rgb(143,146,140)" stroke="rgb(143,146,140)" stroke-width="1.51"/><path d="M388,115L269,121L326,230Z" fill="rgb(177,170,112)" stroke="rgb(177,170,112)" stroke-width="1.51"/><path d="M269,121L251,125L240,200Z" fill="rgb(202,177,91)" stroke="rgb(202,177,91)" stroke-width="1.51"/><path d="M388,115L324,83L269,121Z" fill="rgb(172,152,132)" stroke="rgb(172,152,132)" stroke-width="1.51"/><path d="M269,121L213,52L251,125Z" fill="rgb(199,160,111)" stroke="rgb(199,160,111)" stroke-width="1.51"/><path d="M387,78L324,83L388,115Z" fill="rgb(155,142,148)" stroke="rgb(155,142,148)" stroke-width="1.51"/><path d="M439,121L387,78L388,115Z" fill="rgb(143,141,153)" stroke="rgb(143,141,153)" stroke-width="1.51"/><path d="M477,395L523,370L446,317Z" fill="rgb(87,133,170)" stroke="rgb(87,133,170)" stroke-width="1.51"/><path d="M573,283L551,215L446,317Z" fill="rgb(138,130,150)" stroke="rgb(138,130,150)" stroke-width="1.51"/><path d="M551,215L512,131L433,227Z" fill="rgb(163,143,132)" stroke="rgb(163,143,132)" stroke-width="1.51"/><path d="M439,121L474,78L387,78Z" fill="rgb(142,128,161)" stroke="rgb(142,128,161)" stroke-width="1.51"/><path d="M477,395L549,430L523,370Z" fill="rgb(56,119,182)" stroke="rgb(56,119,182)" stroke-width="1.51"/><path d="M359,411L413,456L477,395Z" fill="rgb(39,141,175)" stroke="rgb(39,141,175)" stroke-width="1.51"/><path d="M357,542L413,456L359,411Z" fill="rgb(73,134,172)" stroke="rgb(73,134,172)" stroke-width="1.51"/><path d="M523,370L573,283L446,317Z" fill="rgb(112,128,163)" stroke="rgb(112,128,163)" stroke-width="1.51"/><path d="M512,131L474,78L439,121Z" fill="rgb(148,121,159)" stroke="rgb(148,121,159)" stroke-width="1.51"/><path d="M413,456L487,446L477,395Z" fill="rgb(51,126,181)" stroke="rgb(51,126,181)" stroke-width="1.51"/><path d="M601,369L609,297L573,283Z" fill="rgb(119,104,169)" stroke="rgb(119,104,169)" stroke-width="1.51"/><path d="M512,131L515,89L474,78Z" fill="rgb(146,109,166)" stroke="rgb(146,109,166)" stroke-width="1.51"/><path d="M618,117L515,89L512,131Z" fill="rgb(150,97,166)" stroke="rgb(150,97,166)" stroke-width="1.51"/><path d="M610,194L512,131L551,215Z" fill="rgb(165,120,143)" stroke="rgb(165,120,143)" stroke-width="1.51"/><path d="M227,350L229,445L315,380Z" fill="rgb(136,170,129)" stroke="rgb(136,170,129)" stroke-width="1.51"/><path d="M573,283L610,194L551,215Z" fill="rgb(157,117,145)" stroke="rgb(157,117,145)" stroke-width="1.51"/><path d="M601,369L573,283L523,370Z" fill="rgb(105,110,172)" stroke="rgb(105,110,172)" stroke-width="1.51"/><path d="M229,445L270,486L315,380Z" fill="rgb(131,156,140)" stroke="rgb(131,156,140)" stroke-width="1.51"/><path d="M413,456L464,541L487,446Z" fill="rgb(56,114,185)" stroke="rgb(56,114,185)" stroke-width="1.51"/><path d="M227,330L125,289L227,350Z" fill="rgb(181,185,92)" stroke="rgb(181,185,92)" stroke-width="1.51"/><path d="M227,350L158,437L229,445Z" fill="rgb(155,173,117)" stroke="rgb(155,173,117)" stroke-width="1.51"/><path d="M240,200L125,289L227,330Z" fill="rgb(198,193,71)" stroke="rgb(198,193,71)" stroke-width="1.51"/><path d="M113,190L125,289L240,200Z" fill="rgb(210,185,75)" stroke="rgb(210,185,75)" stroke-width="1.51"/><path d="M487,446L549,430L477,395Z" fill="rgb(55,115,184)" stroke="rgb(55,115,184)" stroke-width="1.51"/><path d="M609,297L610,194L573,283Z" fill="rgb(147,108,155)" stroke="rgb(147,108,155)" stroke-width="1.51"/><path d="M549,430L601,369L523,370Z" fill="rgb(68,108,184)" stroke="rgb(68,108,184)" stroke-width="1.51"/><path d="M251,125L144,123L240,200Z" fill="rgb(214,183,75)" stroke="rgb(214,183,75)" stroke-width="1.51"/><path d="M324,83L213,52L269,121Z" fill="rgb(190,151,124)" stroke="rgb(190,151,124)" stroke-width="1.51"/><path d="M309,-32L213,52L324,83Z" fill="rgb(178,130,147)" stroke="rgb(178,130,147)" stroke-width="1.51"/><path d="M309,-32L324,83L387,78Z" fill="rgb(156,127,159)" stroke="rgb(156,127,159)" stroke-width="1.51"/><path d="M213,52L144,123L251,125Z" fill="rgb(213,164,97)" stroke="rgb(213,164,97)" stroke-width="1.51"/><path d="M144,123L113,190L240,200Z" fill="rgb(217,179,77)" stroke="rgb(217,179,77)" stroke-width="1.51"/><path d="M229,445L225,520L270,486Z" fill="rgb(148,146,137)" stroke="rgb(148,146,137)" stroke-width="1.51"/><path d="M114,407L158,437L227,350Z" fill="rgb(153,165,128)" stroke="rgb(153,165,128)" stroke-width="1.51"/><path d="M225,520L306,533L270,486Z" fill="rgb(139,134,148)" stroke="rgb(139,134,148)" stroke-width="1.51"/><path d="M270,486L306,533L359,411Z" fill="rgb(116,140,156)" stroke="rgb(116,140,156)" stroke-width="1.51"/><path d="M487,446L568,522L549,430Z" fill="rgb(57,95,191)" stroke="rgb(57,95,191)" stroke-width="1.51"/><path d="M306,533L357,542L359,411Z" fill="rgb(101,131,165)" stroke="rgb(101,131,165)" stroke-width="1.51"/><path d="M125,289L114,407L227,350Z" fill="rgb(170,167,118)" stroke="rgb(170,167,118)" stroke-width="1.51"/><path d="M72,208L88,313L125,289Z" fill="rgb(191,155,120)" stroke="rgb(191,155,120)" stroke-width="1.51"/><path d="M610,194L618,117L512,131Z" fill="rgb(158,100,157)" stroke="rgb(158,100,157)" stroke-width="1.51"/><path d="M670,197L618,117L610,194Z" fill="rgb(164,101,151)" stroke="rgb(164,101,151)" stroke-width="1.51"/><path d="M88,313L114,407L125,289Z" fill="rgb(169,151,133)" stroke="rgb(169,151,133)" stroke-width="1.51"/><path d="M357,542L464,541L413,456Z" fill="rgb(54,117,184)" stroke="rgb(54,117,184)" stroke-width="1.51"/><path d="M549,430L629,434L601,369Z" fill="rgb(57,94,191)" stroke="rgb(57,94,191)" stroke-width="1.51"/><path d="M158,437L225,520L229,445Z" fill="rgb(161,156,125)" stroke="rgb(161,156,125)" stroke-width="1.51"/><path d="M301,639L366,624L357,542Z" fill="rgb(105,100,176)" stroke="rgb(105,100,176)" stroke-width="1.51"/><path d="M148,520L225,520L158,437Z" fill="rgb(161,140,136)" stroke="rgb(161,140,136)" stroke-width="1.51"/><path d="M400,-37L309,-32L387,78Z" fill="rgb(135,110,180)" stroke="rgb(135,110,180)" stroke-width="1.51"/><path d="M400,-37L387,78L474,78Z" fill="rgb(128,113,179)" stroke="rgb(128,113,179)" stroke-width="1.51"/><path d="M400,-37L474,78L481,-44Z" fill="rgb(114,89,196)" stroke="rgb(114,89,196)" stroke-width="1.51"/><path d="M65,124L72,208L113,190Z" fill="rgb(210,148,116)" stroke="rgb(210,148,116)" stroke-width="1.51"/><path d="M213,52L168,38L144,123Z" fill="rgb(208,144,120)" stroke="rgb(208,144,120)" stroke-width="1.51"/><path d="M205,9L168,38L213,52Z" fill="rgb(206,136,127)" stroke="rgb(206,136,127)" stroke-width="1.51"/><path d="M113,190L72,208L125,289Z" fill="rgb(205,163,104)" stroke="rgb(205,163,104)" stroke-width="1.51"/><path d="M65,124L113,190L144,123Z" fill="rgb(209,147,117)" stroke="rgb(209,147,117)" stroke-width="1.51"/><path d="M481,-44L474,78L515,89Z" fill="rgb(129,91,185)" stroke="rgb(129,91,185)" stroke-width="1.51"/><path d="M309,-32L205,9L213,52Z" fill="rgb(188,124,146)" stroke="rgb(188,124,146)" stroke-width="1.51"/><path d="M609,297L670,197L610,194Z" fill="rgb(159,110,148)" stroke="rgb(159,110,148)" stroke-width="1.51"/><path d="M696,282L670,197L609,297Z" fill="rgb(146,107,155)" stroke="rgb(146,107,155)" stroke-width="1.51"/><path d="M680,389L696,282L609,297Z" fill="rgb(116,102,171)" stroke="rgb(116,102,171)" stroke-width="1.51"/><path d="M568,522L629,434L549,430Z" fill="rgb(55,82,195)" stroke="rgb(55,82,195)" stroke-width="1.51"/><path d="M464,541L568,522L487,446Z" fill="rgb(57,92,192)" stroke="rgb(57,92,192)" stroke-width="1.51"/><path d="M393,-123L267,-98L309,-32Z" fill="rgb(154,113,171)" stroke="rgb(154,113,171)" stroke-width="1.51"/><path d="M548,-49L481,-44L515,89Z" fill="rgb(111,66,201)" stroke="rgb(111,66,201)" stroke-width="1.51"/><path d="M680,389L609,297L601,369Z" fill="rgb(99,99,179)" stroke="rgb(99,99,179)" stroke-width="1.51"/><path d="M38,486L148,520L158,437Z" fill="rgb(149,121,158)" stroke="rgb(149,121,158)" stroke-width="1.51"/><path d="M88,313L55,372L114,407Z" fill="rgb(155,140,150)" stroke="rgb(155,140,150)" stroke-width="1.51"/><path d="M-35,330L55,372L88,313Z" fill="rgb(156,125,161)" stroke="rgb(156,125,161)" stroke-width="1.51"/><path d="M-35,330L12,403L55,372Z" fill="rgb(135,112,179)" stroke="rgb(135,112,179)" stroke-width="1.51"/><path d="M75,85L65,124L144,123Z" fill="rgb(203,128,136)" stroke="rgb(203,128,136)" stroke-width="1.51"/><path d="M629,434L680,389L601,369Z" fill="rgb(60,95,191)" stroke="rgb(60,95,191)" stroke-width="1.51"/><path d="M718,443L680,389L629,434Z" fill="rgb(56,88,193)" stroke="rgb(56,88,193)" stroke-width="1.51"/><path d="M301,639L357,542L306,533Z" fill="rgb(116,111,168)" stroke="rgb(116,111,168)" stroke-width="1.51"/><path d="M38,486L158,437L114,407Z" fill="rgb(145,129,158)" stroke="rgb(145,129,158)" stroke-width="1.51"/><path d="M618,117L632,48L515,89Z" fill="rgb(141,71,179)" stroke="rgb(141,71,179)" stroke-width="1.51"/><path d="M713,56L632,48L618,117Z" fill="rgb(137,61,184)" stroke="rgb(137,61,184)" stroke-width="1.51"/><path d="M731,146L618,117L670,197Z" fill="rgb(160,95,156)" stroke="rgb(160,95,156)" stroke-width="1.51"/><path d="M168,38L75,85L144,123Z" fill="rgb(203,129,134)" stroke="rgb(203,129,134)" stroke-width="1.51"/><path d="M125,10L75,85L168,38Z" fill="rgb(196,111,150)" stroke="rgb(196,111,150)" stroke-width="1.51"/><path d="M205,9L125,10L168,38Z" fill="rgb(199,119,144)" stroke="rgb(199,119,144)" stroke-width="1.51"/><path d="M145,-81L125,10L205,9Z" fill="rgb(194,108,153)" stroke="rgb(194,108,153)" stroke-width="1.51"/><path d="M481,-44L449,-87L400,-37Z" fill="rgb(114,92,195)" stroke="rgb(114,92,195)" stroke-width="1.51"/><path d="M309,-32L267,-98L205,9Z" fill="rgb(180,119,154)" stroke="rgb(180,119,154)" stroke-width="1.51"/><path d="M544,-109L449,-87L481,-44Z" fill="rgb(112,75,199)" stroke="rgb(112,75,199)" stroke-width="1.51"/><path d="M599,-29L548,-49L515,89Z" fill="rgb(111,50,203)" stroke="rgb(111,50,203)" stroke-width="1.51"/><path d="M357,542L437,629L464,541Z" fill="rgb(57,98,190)" stroke="rgb(57,98,190)" stroke-width="1.51"/><path d="M560,638L616,532L568,522Z" fill="rgb(41,47,205)" stroke="rgb(41,47,205)" stroke-width="1.51"/><path d="M301,639L306,533L193,613Z" fill="rgb(143,108,157)" stroke="rgb(143,108,157)" stroke-width="1.51"/><path d="M560,638L568,522L464,541Z" fill="rgb(50,65,200)" stroke="rgb(50,65,200)" stroke-width="1.51"/><path d="M568,522L616,532L629,434Z" fill="rgb(50,65,200)" stroke="rgb(50,65,200)" stroke-width="1.51"/><path d="M632,48L599,-29L515,89Z" fill="rgb(124,52,195)" stroke="rgb(124,52,195)" stroke-width="1.51"/><path d="M366,624L437,629L357,542Z" fill="rgb(71,96,188)" stroke="rgb(71,96,188)" stroke-width="1.51"/><path d="M393,-123L309,-32L400,-37Z" fill="rgb(133,108,182)" stroke="rgb(133,108,182)" stroke-width="1.51"/><path d="M632,48L683,-5L599,-29Z" fill="rgb(107,23,208)" stroke="rgb(107,23,208)" stroke-width="1.51"/><path d="M696,282L731,146L670,197Z" fill="rgb(166,113,142)" stroke="rgb(166,113,142)" stroke-width="1.51"/><path d="M718,443L731,146L696,282Z" fill="rgb(132,104,163)" stroke="rgb(132,104,163)" stroke-width="1.51"/><path d="M366,624L406,725L437,629Z" fill="rgb(57,94,192)" stroke="rgb(57,94,192)" stroke-width="1.51"/><path d="M193,613L306,533L225,520Z" fill="rgb(152,124,146)" stroke="rgb(152,124,146)" stroke-width="1.51"/><path d="M55,372L12,403L114,407Z" fill="rgb(136,127,167)" stroke="rgb(136,127,167)" stroke-width="1.51"/><path d="M-35,330L88,313L72,208Z" fill="rgb(178,132,145)" stroke="rgb(178,132,145)" stroke-width="1.51"/><path d="M544,-109L481,-44L548,-49Z" fill="rgb(111,62,202)" stroke="rgb(111,62,202)" stroke-width="1.51"/><path d="M544,-109L393,-123L449,-87Z" fill="rgb(114,85,197)" stroke="rgb(114,85,197)" stroke-width="1.51"/><path d="M449,-87L393,-123L400,-37Z" fill="rgb(114,101,192)" stroke="rgb(114,101,192)" stroke-width="1.51"/><path d="M79,-104L199,-88L267,-98Z" fill="rgb(198,118,145)" stroke="rgb(198,118,145)" stroke-width="1.51"/><path d="M267,-98L199,-88L205,9Z" fill="rgb(193,122,144)" stroke="rgb(193,122,144)" stroke-width="1.51"/><path d="M148,520L193,613L225,520Z" fill="rgb(166,125,138)" stroke="rgb(166,125,138)" stroke-width="1.51"/><path d="M149,609L193,613L148,520Z" fill="rgb(162,105,151)" stroke="rgb(162,105,151)" stroke-width="1.51"/><path d="M680,389L718,443L696,282Z" fill="rgb(84,97,184)" stroke="rgb(84,97,184)" stroke-width="1.51"/><path d="M616,532L718,443L629,434Z" fill="rgb(53,74,197)" stroke="rgb(53,74,197)" stroke-width="1.51"/><path d="M12,403L38,486L114,407Z" fill="rgb(133,115,174)" stroke="rgb(133,115,174)" stroke-width="1.51"/><path d="M731,146L713,56L618,117Z" fill="rgb(148,76,173)" stroke="rgb(148,76,173)" stroke-width="1.51"/><path d="M65,124L-13,132L72,208Z" fill="rgb(201,124,139)" stroke="rgb(201,124,139)" stroke-width="1.51"/><path d="M-16,65L-13,132L65,124Z" fill="rgb(186,91,168)" stroke="rgb(186,91,168)" stroke-width="1.51"/><path d="M-16,65L65,124L75,85Z" fill="rgb(189,97,163)" stroke="rgb(189,97,163)" stroke-width="1.51"/><path d="M-16,65L75,85L32,-21Z" fill="rgb(175,70,184)" stroke="rgb(175,70,184)" stroke-width="1.51"/><path d="M-13,132L-31,187L72,208Z" fill="rgb(199,119,144)" stroke="rgb(199,119,144)" stroke-width="1.51"/><path d="M12,403L-25,464L38,486Z" fill="rgb(117,92,193)" stroke="rgb(117,92,193)" stroke-width="1.51"/><path d="M-71,269L-35,330L72,208Z" fill="rgb(176,118,156)" stroke="rgb(176,118,156)" stroke-width="1.51"/><path d="M58,538L149,609L148,520Z" fill="rgb(151,97,164)" stroke="rgb(151,97,164)" stroke-width="1.51"/><path d="M216,675L269,680L301,639Z" fill="rgb(145,107,156)" stroke="rgb(145,107,156)" stroke-width="1.51"/><path d="M199,-88L145,-81L205,9Z" fill="rgb(199,118,145)" stroke="rgb(199,118,145)" stroke-width="1.51"/><path d="M79,-104L145,-81L199,-88Z" fill="rgb(191,101,160)" stroke="rgb(191,101,160)" stroke-width="1.51"/><path d="M599,-29L544,-109L548,-49Z" fill="rgb(108,44,206)" stroke="rgb(108,44,206)" stroke-width="1.51"/><path d="M649,-91L544,-109L599,-29Z" fill="rgb(105,22,209)" stroke="rgb(105,22,209)" stroke-width="1.51"/><path d="M713,56L683,-5L632,48Z" fill="rgb(121,42,198)" stroke="rgb(121,42,198)" stroke-width="1.51"/><path d="M38,486L58,538L148,520Z" fill="rgb(141,97,173)" stroke="rgb(141,97,173)" stroke-width="1.51"/><path d="M-20,523L58,538L38,486Z" fill="rgb(123,76,193)" stroke="rgb(123,76,193)" stroke-width="1.51"/><path d="M437,629L560,638L464,541Z" fill="rgb(51,68,199)" stroke="rgb(51,68,199)" stroke-width="1.51"/><path d="M616,532L708,551L718,443Z" fill="rgb(48,61,201)" stroke="rgb(48,61,201)" stroke-width="1.51"/><path d="M608,653L560,638L557,717Z" fill="rgb(32,35,207)" stroke="rgb(32,35,207)" stroke-width="1.51"/><path d="M301,639L406,725L366,624Z" fill="rgb(94,99,180)" stroke="rgb(94,99,180)" stroke-width="1.51"/><path d="M216,675L301,639L193,613Z" fill="rgb(156,110,149)" stroke="rgb(156,110,149)" stroke-width="1.51"/><path d="M32,-21L75,85L125,10Z" fill="rgb(181,83,174)" stroke="rgb(181,83,174)" stroke-width="1.51"/><path d="M-110,109L-97,200L-31,187Z" fill="rgb(195,111,151)" stroke="rgb(195,111,151)" stroke-width="1.51"/><path d="M146,691L193,613L149,609Z" fill="rgb(162,99,153)" stroke="rgb(162,99,153)" stroke-width="1.51"/><path d="M146,691L216,675L193,613Z" fill="rgb(167,107,145)" stroke="rgb(167,107,145)" stroke-width="1.51"/><path d="M-114,387L-25,464L12,403Z" fill="rgb(114,100,192)" stroke="rgb(114,100,192)" stroke-width="1.51"/><path d="M-31,187L-71,269L72,208Z" fill="rgb(194,123,144)" stroke="rgb(194,123,144)" stroke-width="1.51"/><path d="M-97,200L-71,269L-31,187Z" fill="rgb(195,123,143)" stroke="rgb(195,123,143)" stroke-width="1.51"/><path d="M79,-104L32,-21L125,10Z" fill="rgb(176,72,182)" stroke="rgb(176,72,182)" stroke-width="1.51"/><path d="M-114,387L12,403L-35,330Z" fill="rgb(130,108,184)" stroke="rgb(130,108,184)" stroke-width="1.51"/><path d="M702,604L708,551L616,532Z" fill="rgb(36,40,206)" stroke="rgb(36,40,206)" stroke-width="1.51"/><path d="M687,-75L649,-91L683,-5Z" fill="rgb(104,19,209)" stroke="rgb(104,19,209)" stroke-width="1.51"/><path d="M683,-5L649,-91L599,-29Z" fill="rgb(104,19,209)" stroke="rgb(104,19,209)" stroke-width="1.51"/><path d="M560,638L608,653L616,532Z" fill="rgb(24,25,209)" stroke="rgb(24,25,209)" stroke-width="1.51"/><path d="M489,720L560,638L437,629Z" fill="rgb(50,66,200)" stroke="rgb(50,66,200)" stroke-width="1.51"/><path d="M269,680L406,725L301,639Z" fill="rgb(114,101,172)" stroke="rgb(114,101,172)" stroke-width="1.51"/><path d="M80,729L406,725L269,680Z" fill="rgb(150,108,153)" stroke="rgb(150,108,153)" stroke-width="1.51"/><path d="M713,56L687,-75L683,-5Z" fill="rgb(104,19,209)" stroke="rgb(104,19,209)" stroke-width="1.51"/><path d="M731,146L687,-75L713,56Z" fill="rgb(125,46,195)" stroke="rgb(125,46,195)" stroke-width="1.51"/><path d="M46,642L146,691L149,609Z" fill="rgb(150,79,170)" stroke="rgb(150,79,170)" stroke-width="1.51"/><path d="M-25,464L-20,523L38,486Z" fill="rgb(112,75,199)" stroke="rgb(112,75,199)" stroke-width="1.51"/><path d="M-104,459L-20,523L-25,464Z" fill="rgb(113,78,199)" stroke="rgb(113,78,199)" stroke-width="1.51"/><path d="M145,-81L79,-104L125,10Z" fill="rgb(185,89,168)" stroke="rgb(185,89,168)" stroke-width="1.51"/><path d="M393,-123L79,-104L267,-98Z" fill="rgb(185,120,150)" stroke="rgb(185,120,150)" stroke-width="1.51"/><path d="M-110,109L-31,187L-13,132Z" fill="rgb(191,101,159)" stroke="rgb(191,101,159)" stroke-width="1.51"/><path d="M-71,269L-114,387L-35,330Z" fill="rgb(152,112,172)" stroke="rgb(152,112,172)" stroke-width="1.51"/><path d="M-110,109L-13,132L-16,65Z" fill="rgb(182,83,174)" stroke="rgb(182,83,174)" stroke-width="1.51"/><path d="M-15,-28L-16,65L32,-21Z" fill="rgb(152,27,207)" stroke="rgb(152,27,207)" stroke-width="1.51"/><path d="M406,725L489,720L437,629Z" fill="rgb(55,82,195)" stroke="rgb(55,82,195)" stroke-width="1.51"/><path d="M653,711L702,604L608,653Z" fill="rgb(21,21,209)" stroke="rgb(21,21,209)" stroke-width="1.51"/><path d="M608,653L702,604L616,532Z" fill="rgb(23,24,209)" stroke="rgb(23,24,209)" stroke-width="1.51"/><path d="M79,-104L-15,-28L32,-21Z" fill="rgb(162,47,198)" stroke="rgb(162,47,198)" stroke-width="1.51"/><path d="M46,642L149,609L58,538Z" fill="rgb(141,68,180)" stroke="rgb(141,68,180)" stroke-width="1.51"/><path d="M216,675L146,691L269,680Z" fill="rgb(166,112,143)" stroke="rgb(166,112,143)" stroke-width="1.51"/><path d="M489,720L557,717L560,638Z" fill="rgb(43,51,204)" stroke="rgb(43,51,204)" stroke-width="1.51"/><path d="M667,725L557,717L489,720Z" fill="rgb(34,37,207)" stroke="rgb(34,37,207)" stroke-width="1.51"/><path d="M-3,636L46,642L58,538Z" fill="rgb(122,41,198)" stroke="rgb(122,41,198)" stroke-width="1.51"/><path d="M-97,200L-114,387L-71,269Z" fill="rgb(170,117,161)" stroke="rgb(170,117,161)" stroke-width="1.51"/><path d="M-20,523L-3,636L58,538Z" fill="rgb(114,49,202)" stroke="rgb(114,49,202)" stroke-width="1.51"/><path d="M-15,-28L-73,32L-16,65Z" fill="rgb(158,41,201)" stroke="rgb(158,41,201)" stroke-width="1.51"/><path d="M-73,32L-110,109L-16,65Z" fill="rgb(173,67,185)" stroke="rgb(173,67,185)" stroke-width="1.51"/><path d="M-97,200L-110,109L-114,387Z" fill="rgb(190,122,147)" stroke="rgb(190,122,147)" stroke-width="1.51"/><path d="M-114,387L-104,459L-25,464Z" fill="rgb(114,94,194)" stroke="rgb(114,94,194)" stroke-width="1.51"/><path d="M-73,32L-88,3L-110,109Z" fill="rgb(167,56,193)" stroke="rgb(167,56,193)" stroke-width="1.51"/><path d="M-15,-28L-88,3L-73,32Z" fill="rgb(151,24,208)" stroke="rgb(151,24,208)" stroke-width="1.51"/><path d="M-52,-68L-88,3L-15,-28Z" fill="rgb(150,21,209)" stroke="rgb(150,21,209)" stroke-width="1.51"/><path d="M-132,636L-3,636L-20,523Z" fill="rgb(105,21,209)" stroke="rgb(105,21,209)" stroke-width="1.51"/><path d="M46,642L80,729L146,691Z" fill="rgb(143,69,178)" stroke="rgb(143,69,178)" stroke-width="1.51"/><path d="M557,717L653,711L608,653Z" fill="rgb(21,21,209)" stroke="rgb(21,21,209)" stroke-width="1.51"/><path d="M79,-104L-52,-68L-15,-28Z" fill="rgb(152,25,208)" stroke="rgb(152,25,208)" stroke-width="1.51"/><path d="M-5,706L80,729L46,642Z" fill="rgb(124,45,195)" stroke="rgb(124,45,195)" stroke-width="1.51"/><path d="M146,691L80,729L269,680Z" fill="rgb(163,100,152)" stroke="rgb(163,100,152)" stroke-width="1.51"/><path d="M557,717L667,725L653,711Z" fill="rgb(21,21,209)" stroke="rgb(21,21,209)" stroke-width="1.51"/><path d="M653,711L667,725L702,604Z" fill="rgb(21,21,209)" stroke="rgb(21,21,209)" stroke-width="1.51"/><path d="M406,725L667,725L489,720Z" fill="rgb(47,57,202)" stroke="rgb(47,57,202)" stroke-width="1.51"/><path d="M80,729L667,725L406,725Z" fill="rgb(73,96,187)" stroke="rgb(73,96,187)" stroke-width="1.51"/><path d="M-104,459L-126,522L-20,523Z" fill="rgb(112,71,200)" stroke="rgb(112,71,200)" stroke-width="1.51"/><path d="M-3,636L-5,706L46,642Z" fill="rgb(111,29,205)" stroke="rgb(111,29,205)" stroke-width="1.51"/><path d="M-114,387L-126,522L-104,459Z" fill="rgb(114,87,196)" stroke="rgb(114,87,196)" stroke-width="1.51"/><path d="M-127,-91L-126,522L-114,387Z" fill="rgb(175,118,158)" stroke="rgb(175,118,158)" stroke-width="1.51"/><path d="M-125,704L-5,706L-3,636Z" fill="rgb(104,19,209)" stroke="rgb(104,19,209)" stroke-width="1.51"/><path d="M79,-104L-127,-91L-52,-68Z" fill="rgb(150,21,209)" stroke="rgb(150,21,209)" stroke-width="1.51"/><path d="M-52,-68L-127,-91L-88,3Z" fill="rgb(150,21,209)" stroke="rgb(150,21,209)" stroke-width="1.51"/><path d="M-88,3L-127,-91L-110,109Z" fill="rgb(153,28,207)" stroke="rgb(153,28,207)" stroke-width="1.51"/><path d="M-110,109L-127,-91L-114,387Z" fill="rgb(190,98,162)" stroke="rgb(190,98,162)" stroke-width="1.51"/><path d="M-127,-91L-132,636L-126,522Z" fill="rgb(138,110,179)" stroke="rgb(138,110,179)" stroke-width="1.51"/><path d="M-126,522L-132,636L-20,523Z" fill="rgb(108,46,205)" stroke="rgb(108,46,205)" stroke-width="1.51"/><path d="M-132,636L-125,704L-3,636Z" fill="rgb(104,19,209)" stroke="rgb(104,19,209)" stroke-width="1.51"/><path d="M-5,706L-125,704L80,729Z" fill="rgb(104,19,209)" stroke="rgb(104,19,209)" stroke-width="1.51"/></svg>