<svg xmlns="http://www.w3.org/2000/svg" width="900" height="700"><path d="M412,327L392,328L392,379Z" fill="rgb(182,181,179)" stroke="rgb(182,181,179)" stroke-width="1.51"/><path d="M392,379L433,426L412,327Z" fill="rgb(171,173,181)" stroke="rgb(171,173,181)" stroke-width="1.51"/><path d="M392,328L306,302L392,379Z" fill="rgb(190,179,166)" stroke="rgb(190,179,166)" stroke-width="1.51"/><path d="M392,379L315,420L433,426Z" fill="rgb(170,163,167)" stroke="rgb(170,163,167)" stroke-width="1.51"/><path d="M366,197L306,302L392,328Z" fill="rgb(202,175,140)" stroke="rgb(202,175,140)" stroke-width="1.51"/><path d="M306,302L315,420L392,379Z" fill="rgb(187,173,161)" stroke="rgb(187,173,161)" stroke-width="1.51"/><path d="M412,327L366,197L392,328Z" fill="rgb(196,177,154)" stroke="rgb(196,177,154)" stroke-width="1.51"/><path d="M552,339L467,244L412,327Z" fill="rgb(177,174,176)" stroke="rgb(177,174,176)" stroke-width="1.51"/><path d="M433,426L552,339L412,327Z" fill="rgb(164,176,193)" stroke="rgb(164,176,193)" stroke-width="1.51"/><path d="M315,420L397,503L433,426Z" fill="rgb(161,150,162)" stroke="rgb(161,150,162)" stroke-width="1.51"/><path d="M433,426L553,414L552,339Z" fill="rgb(149,156,183)" stroke="rgb(149,156,183)" stroke-width="1.51"/><path d="M397,503L439,505L433,426Z" fill="rgb(146,144,169)" stroke="rgb(146,144,169)" stroke-width="1.51"/><path d="M467,244L366,197L412,327Z" fill="rgb(197,176,150)" stroke="rgb(197,176,150)" stroke-width="1.51"/><path d="M530,500L553,414L433,426Z" fill="rgb(138,142,175)" stroke="rgb(138,142,175)" stroke-width="1.51"/><path d="M366,197L294,207L306,302Z" fill="rgb(212,171,114)" stroke="rgb(212,171,114)" stroke-width="1.51"/><path d="M306,302L216,378L315,420Z" fill="rgb(196,171,144)" stroke="rgb(196,171,144)" stroke-width="1.51"/><path d="M182,335L216,378L306,302Z" fill="rgb(207,173,128)" stroke="rgb(207,173,128)" stroke-width="1.51"/><path d="M315,420L274,507L397,503Z" fill="rgb(163,140,142)" stroke="rgb(163,140,142)" stroke-width="1.51"/><path d="M439,505L530,500L433,426Z" fill="rgb(137,142,175)" stroke="rgb(137,142,175)" stroke-width="1.51"/><path d="M552,339L576,260L467,244Z" fill="rgb(172,160,161)" stroke="rgb(172,160,161)" stroke-width="1.51"/><path d="M467,244L372,150L366,197Z" fill="rgb(208,172,123)" stroke="rgb(208,172,123)" stroke-width="1.51"/><path d="M600,323L576,260L552,339Z" fill="rgb(158,152,165)" stroke="rgb(158,152,165)" stroke-width="1.51"/><path d="M553,414L600,323L552,339Z" fill="rgb(147,154,181)" stroke="rgb(147,154,181)" stroke-width="1.51"/><path d="M643,394L600,323L553,414Z" fill="rgb(137,142,174)" stroke="rgb(137,142,174)" stroke-width="1.51"/><path d="M219,442L274,507L315,420Z" fill="rgb(176,143,128)" stroke="rgb(176,143,128)" stroke-width="1.51"/><path d="M397,503L412,557L439,505Z" fill="rgb(137,131,160)" stroke="rgb(137,131,160)" stroke-width="1.51"/><path d="M274,507L367,553L397,503Z" fill="rgb(150,128,140)" stroke="rgb(150,128,140)" stroke-width="1.51"/><path d="M439,505L453,629L530,500Z" fill="rgb(123,126,167)" stroke="rgb(123,126,167)" stroke-width="1.51"/><path d="M367,553L412,557L397,503Z" fill="rgb(140,128,153)" stroke="rgb(140,128,153)" stroke-width="1.51"/><path d="M216,378L219,442L315,420Z" fill="rgb(188,155,128)" stroke="rgb(188,155,128)" stroke-width="1.51"/><path d="M413,112L372,150L467,244Z" fill="rgb(209,171,121)" stroke="rgb(209,171,121)" stroke-width="1.51"/><path d="M366,197L372,150L294,207Z" fill="rgb(216,169,100)" stroke="rgb(216,169,100)" stroke-width="1.51"/><path d="M576,260L561,212L467,244Z" fill="rgb(180,157,144)" stroke="rgb(180,157,144)" stroke-width="1.51"/><path d="M673,204L561,212L576,260Z" fill="rgb(170,140,132)" stroke="rgb(170,140,132)" stroke-width="1.51"/><path d="M198,209L182,335L306,302Z" fill="rgb(215,169,103)" stroke="rgb(215,169,103)" stroke-width="1.51"/><path d="M107,427L138,494L219,442Z" fill="rgb(174,134,130)" stroke="rgb(174,134,130)" stroke-width="1.51"/><path d="M367,553L338,633L412,557Z" fill="rgb(140,125,147)" stroke="rgb(140,125,147)" stroke-width="1.51"/><path d="M274,507L303,556L367,553Z" fill="rgb(153,124,131)" stroke="rgb(153,124,131)" stroke-width="1.51"/><path d="M321,620L303,556L207,587Z" fill="rgb(154,120,121)" stroke="rgb(154,120,121)" stroke-width="1.51"/><path d="M372,150L258,159L294,207Z" fill="rgb(219,166,86)" stroke="rgb(219,166,86)" stroke-width="1.51"/><path d="M500,127L413,112L467,244Z" fill="rgb(202,169,133)" stroke="rgb(202,169,133)" stroke-width="1.51"/><path d="M294,207L198,209L306,302Z" fill="rgb(217,168,98)" stroke="rgb(217,168,98)" stroke-width="1.51"/><path d="M377,79L258,159L372,150Z" fill="rgb(213,162,108)" stroke="rgb(213,162,108)" stroke-width="1.51"/><path d="M621,464L643,394L553,414Z" fill="rgb(124,126,166)" stroke="rgb(124,126,166)" stroke-width="1.51"/><path d="M600,323L673,204L576,260Z" fill="rgb(161,139,144)" stroke="rgb(161,139,144)" stroke-width="1.51"/><path d="M530,500L621,464L553,414Z" fill="rgb(123,124,166)" stroke="rgb(123,124,166)" stroke-width="1.51"/><path d="M634,539L621,464L530,500Z" fill="rgb(108,106,156)" stroke="rgb(108,106,156)" stroke-width="1.51"/><path d="M561,212L500,127L467,244Z" fill="rgb(192,160,130)" stroke="rgb(192,160,130)" stroke-width="1.51"/><path d="M258,159L198,209L294,207Z" fill="rgb(223,165,72)" stroke="rgb(223,165,72)" stroke-width="1.51"/><path d="M413,112L377,79L372,150Z" fill="rgb(205,162,128)" stroke="rgb(205,162,128)" stroke-width="1.51"/><path d="M480,52L377,79L413,112Z" fill="rgb(196,159,148)" stroke="rgb(196,159,148)" stroke-width="1.51"/><path d="M643,394L688,396L600,323Z" fill="rgb(130,133,170)" stroke="rgb(130,133,170)" stroke-width="1.51"/><path d="M621,464L668,435L643,394Z" fill="rgb(116,116,161)" stroke="rgb(116,116,161)" stroke-width="1.51"/><path d="M453,629L566,579L530,500Z" fill="rgb(112,115,162)" stroke="rgb(112,115,162)" stroke-width="1.51"/><path d="M621,464L634,539L668,435Z" fill="rgb(105,102,153)" stroke="rgb(105,102,153)" stroke-width="1.51"/><path d="M453,629L439,505L412,557Z" fill="rgb(129,129,165)" stroke="rgb(129,129,165)" stroke-width="1.51"/><path d="M303,556L321,620L367,553Z" fill="rgb(148,123,136)" stroke="rgb(148,123,136)" stroke-width="1.51"/><path d="M207,587L303,556L274,507Z" fill="rgb(159,121,116)" stroke="rgb(159,121,116)" stroke-width="1.51"/><path d="M338,633L453,629L412,557Z" fill="rgb(132,125,156)" stroke="rgb(132,125,156)" stroke-width="1.51"/><path d="M321,620L338,633L367,553Z" fill="rgb(143,123,139)" stroke="rgb(143,123,139)" stroke-width="1.51"/><path d="M668,435L688,396L643,394Z" fill="rgb(117,117,161)" stroke="rgb(117,117,161)" stroke-width="1.51"/><path d="M198,209L109,297L182,335Z" fill="rgb(210,162,116)" stroke="rgb(210,162,116)" stroke-width="1.51"/><path d="M173,135L158,193L198,209Z" fill="rgb(222,157,71)" stroke="rgb(222,157,71)" stroke-width="1.51"/><path d="M173,135L198,209L258,159Z" fill="rgb(225,160,62)" stroke="rgb(225,160,62)" stroke-width="1.51"/><path d="M566,579L634,539L530,500Z" fill="rgb(104,104,154)" stroke="rgb(104,104,154)" stroke-width="1.51"/><path d="M668,435L771,492L688,396Z" fill="rgb(104,105,155)" stroke="rgb(104,105,155)" stroke-width="1.51"/><path d="M107,427L219,442L216,378Z" fill="rgb(186,149,130)" stroke="rgb(186,149,130)" stroke-width="1.51"/><path d="M219,442L138,494L274,507Z" fill="rgb(174,132,115)" stroke="rgb(174,132,115)" stroke-width="1.51"/><path d="M158,193L109,297L198,209Z" fill="rgb(215,159,99)" stroke="rgb(215,159,99)" stroke-width="1.51"/><path d="M107,427L216,378L182,335Z" fill="rgb(193,158,138)" stroke="rgb(193,158,138)" stroke-width="1.51"/><path d="M299,742L336,728L338,633Z" fill="rgb(138,116,134)" stroke="rgb(138,116,134)" stroke-width="1.51"/><path d="M138,494L207,587L274,507Z" fill="rgb(163,119,110)" stroke="rgb(163,119,110)" stroke-width="1.51"/><path d="M109,297L107,427L182,335Z" fill="rgb(195,162,150)" stroke="rgb(195,162,150)" stroke-width="1.51"/><path d="M561,212L601,87L500,127Z" fill="rgb(183,145,128)" stroke="rgb(183,145,128)" stroke-width="1.51"/><path d="M726,286L673,204L600,323Z" fill="rgb(150,129,142)" stroke="rgb(150,129,142)" stroke-width="1.51"/><path d="M673,204L634,146L561,212Z" fill="rgb(173,133,116)" stroke="rgb(173,133,116)" stroke-width="1.51"/><path d="M500,127L480,52L413,112Z" fill="rgb(193,159,150)" stroke="rgb(193,159,150)" stroke-width="1.51"/><path d="M549,51L480,52L500,127Z" fill="rgb(181,146,150)" stroke="rgb(181,146,150)" stroke-width="1.51"/><path d="M159,607L205,596L207,587Z" fill="rgb(156,113,113)" stroke="rgb(156,113,113)" stroke-width="1.51"/><path d="M207,587L205,596L321,620Z" fill="rgb(157,118,112)" stroke="rgb(157,118,112)" stroke-width="1.51"/><path d="M158,193L86,249L109,297Z" fill="rgb(210,155,114)" stroke="rgb(210,155,114)" stroke-width="1.51"/><path d="M237,61L173,135L258,159Z" fill="rgb(221,154,77)" stroke="rgb(221,154,77)" stroke-width="1.51"/><path d="M566,579L640,605L634,539Z" fill="rgb(93,93,150)" stroke="rgb(93,93,150)" stroke-width="1.51"/><path d="M453,629L563,636L566,579Z" fill="rgb(106,110,160)" stroke="rgb(106,110,160)" stroke-width="1.51"/><path d="M496,747L563,636L453,629Z" fill="rgb(104,113,163)" stroke="rgb(104,113,163)" stroke-width="1.51"/><path d="M688,396L726,286L600,323Z" fill="rgb(134,132,164)" stroke="rgb(134,132,164)" stroke-width="1.51"/><path d="M657,117L634,146L673,204Z" fill="rgb(166,123,113)" stroke="rgb(166,123,113)" stroke-width="1.51"/><path d="M657,117L601,87L634,146Z" fill="rgb(165,123,126)" stroke="rgb(165,123,126)" stroke-width="1.51"/><path d="M634,146L601,87L561,212Z" fill="rgb(176,135,121)" stroke="rgb(176,135,121)" stroke-width="1.51"/><path d="M49,492L77,547L138,494Z" fill="rgb(153,111,135)" stroke="rgb(153,111,135)" stroke-width="1.51"/><path d="M109,561L159,607L207,587Z" fill="rgb(153,111,120)" stroke="rgb(153,111,120)" stroke-width="1.51"/><path d="M109,297L76,414L107,427Z" fill="rgb(185,151,153)" stroke="rgb(185,151,153)" stroke-width="1.51"/><path d="M109,297L77,277L76,414Z" fill="rgb(195,157,152)" stroke="rgb(195,157,152)" stroke-width="1.51"/><path d="M12,187L86,249L158,193Z" fill="rgb(211,150,107)" stroke="rgb(211,150,107)" stroke-width="1.51"/><path d="M377,79L268,47L258,159Z" fill="rgb(212,155,108)" stroke="rgb(212,155,108)" stroke-width="1.51"/><path d="M386,10L268,47L377,79Z" fill="rgb(202,150,135)" stroke="rgb(202,150,135)" stroke-width="1.51"/><path d="M86,249L77,277L109,297Z" fill="rgb(203,154,130)" stroke="rgb(203,154,130)" stroke-width="1.51"/><path d="M480,52L386,10L377,79Z" fill="rgb(192,154,155)" stroke="rgb(192,154,155)" stroke-width="1.51"/><path d="M601,87L549,51L500,127Z" fill="rgb(176,138,143)" stroke="rgb(176,138,143)" stroke-width="1.51"/><path d="M268,47L237,61L258,159Z" fill="rgb(215,152,95)" stroke="rgb(215,152,95)" stroke-width="1.51"/><path d="M173,135L154,122L158,193Z" fill="rgb(219,152,82)" stroke="rgb(219,152,82)" stroke-width="1.51"/><path d="M237,61L154,122L173,135Z" fill="rgb(217,149,90)" stroke="rgb(217,149,90)" stroke-width="1.51"/><path d="M434,-8L386,10L480,52Z" fill="rgb(184,151,169)" stroke="rgb(184,151,169)" stroke-width="1.51"/><path d="M634,539L771,492L668,435Z" fill="rgb(95,92,148)" stroke="rgb(95,92,148)" stroke-width="1.51"/><path d="M688,396L752,308L726,286Z" fill="rgb(131,129,162)" stroke="rgb(131,129,162)" stroke-width="1.51"/><path d="M563,636L640,605L566,579Z" fill="rgb(95,97,153)" stroke="rgb(95,97,153)" stroke-width="1.51"/><path d="M789,154L657,117L673,204Z" fill="rgb(161,117,110)" stroke="rgb(161,117,110)" stroke-width="1.51"/><path d="M601,87L585,-41L549,51Z" fill="rgb(161,124,155)" stroke="rgb(161,124,155)" stroke-width="1.51"/><path d="M726,286L807,233L673,204Z" fill="rgb(151,123,130)" stroke="rgb(151,123,130)" stroke-width="1.51"/><path d="M796,397L752,308L688,396Z" fill="rgb(120,124,167)" stroke="rgb(120,124,167)" stroke-width="1.51"/><path d="M109,561L207,587L138,494Z" fill="rgb(156,112,121)" stroke="rgb(156,112,121)" stroke-width="1.51"/><path d="M299,742L338,633L321,620Z" fill="rgb(142,118,133)" stroke="rgb(142,118,133)" stroke-width="1.51"/><path d="M77,547L109,561L138,494Z" fill="rgb(151,108,130)" stroke="rgb(151,108,130)" stroke-width="1.51"/><path d="M386,10L272,-3L268,47Z" fill="rgb(201,145,133)" stroke="rgb(201,145,133)" stroke-width="1.51"/><path d="M511,-1L434,-8L480,52Z" fill="rgb(177,146,171)" stroke="rgb(177,146,171)" stroke-width="1.51"/><path d="M338,633L443,717L453,629Z" fill="rgb(125,123,159)" stroke="rgb(125,123,159)" stroke-width="1.51"/><path d="M689,694L721,603L640,605Z" fill="rgb(75,77,142)" stroke="rgb(75,77,142)" stroke-width="1.51"/><path d="M336,728L443,717L338,633Z" fill="rgb(130,120,148)" stroke="rgb(130,120,148)" stroke-width="1.51"/><path d="M657,117L658,85L601,87Z" fill="rgb(161,119,131)" stroke="rgb(161,119,131)" stroke-width="1.51"/><path d="M549,51L511,-1L480,52Z" fill="rgb(173,139,161)" stroke="rgb(173,139,161)" stroke-width="1.51"/><path d="M792,95L658,85L657,117Z" fill="rgb(152,110,126)" stroke="rgb(152,110,126)" stroke-width="1.51"/><path d="M585,-41L511,-1L549,51Z" fill="rgb(161,127,165)" stroke="rgb(161,127,165)" stroke-width="1.51"/><path d="M49,492L138,494L107,427Z" fill="rgb(163,124,140)" stroke="rgb(163,124,140)" stroke-width="1.51"/><path d="M149,713L182,694L159,607Z" fill="rgb(147,107,119)" stroke="rgb(147,107,119)" stroke-width="1.51"/><path d="M237,61L129,89L154,122Z" fill="rgb(213,145,98)" stroke="rgb(213,145,98)" stroke-width="1.51"/><path d="M268,47L272,-3L237,61Z" fill="rgb(208,144,113)" stroke="rgb(208,144,113)" stroke-width="1.51"/><path d="M290,-82L272,-3L386,10Z" fill="rgb(198,143,139)" stroke="rgb(198,143,139)" stroke-width="1.51"/><path d="M76,414L49,492L107,427Z" fill="rgb(167,129,148)" stroke="rgb(167,129,148)" stroke-width="1.51"/><path d="M-67,416L49,492L76,414Z" fill="rgb(159,125,160)" stroke="rgb(159,125,160)" stroke-width="1.51"/><path d="M299,742L321,620L182,694Z" fill="rgb(148,114,118)" stroke="rgb(148,114,118)" stroke-width="1.51"/><path d="M56,101L12,187L158,193Z" fill="rgb(213,144,100)" stroke="rgb(213,144,100)" stroke-width="1.51"/><path d="M86,249L1,295L77,277Z" fill="rgb(200,151,138)" stroke="rgb(200,151,138)" stroke-width="1.51"/><path d="M193,12L129,89L237,61Z" fill="rgb(210,141,106)" stroke="rgb(210,141,106)" stroke-width="1.51"/><path d="M640,605L713,583L634,539Z" fill="rgb(84,83,144)" stroke="rgb(84,83,144)" stroke-width="1.51"/><path d="M721,603L713,583L640,605Z" fill="rgb(78,79,142)" stroke="rgb(78,79,142)" stroke-width="1.51"/><path d="M713,583L771,492L634,539Z" fill="rgb(83,81,142)" stroke="rgb(83,81,142)" stroke-width="1.51"/><path d="M771,492L796,397L688,396Z" fill="rgb(104,106,157)" stroke="rgb(104,106,157)" stroke-width="1.51"/><path d="M752,308L807,233L726,286Z" fill="rgb(142,124,143)" stroke="rgb(142,124,143)" stroke-width="1.51"/><path d="M272,-3L193,12L237,61Z" fill="rgb(210,142,109)" stroke="rgb(210,142,109)" stroke-width="1.51"/><path d="M484,764L496,747L443,717Z" fill="rgb(107,117,167)" stroke="rgb(107,117,167)" stroke-width="1.51"/><path d="M182,694L321,620L205,596Z" fill="rgb(156,116,110)" stroke="rgb(156,116,110)" stroke-width="1.51"/><path d="M182,694L205,596L159,607Z" fill="rgb(152,110,115)" stroke="rgb(152,110,115)" stroke-width="1.51"/><path d="M713,583L748,596L771,492Z" fill="rgb(78,79,142)" stroke="rgb(78,79,142)" stroke-width="1.51"/><path d="M689,694L640,605L563,636Z" fill="rgb(83,87,148)" stroke="rgb(83,87,148)" stroke-width="1.51"/><path d="M443,717L496,747L453,629Z" fill="rgb(109,120,168)" stroke="rgb(109,120,168)" stroke-width="1.51"/><path d="M484,764L443,717L365,788Z" fill="rgb(116,122,164)" stroke="rgb(116,122,164)" stroke-width="1.51"/><path d="M149,713L159,607L79,655Z" fill="rgb(144,104,126)" stroke="rgb(144,104,126)" stroke-width="1.51"/><path d="M77,277L1,295L76,414Z" fill="rgb(190,154,160)" stroke="rgb(190,154,160)" stroke-width="1.51"/><path d="M12,187L1,295L86,249Z" fill="rgb(202,146,131)" stroke="rgb(202,146,131)" stroke-width="1.51"/><path d="M871,374L816,347L796,397Z" fill="rgb(112,119,166)" stroke="rgb(112,119,166)" stroke-width="1.51"/><path d="M796,397L816,347L752,308Z" fill="rgb(120,127,170)" stroke="rgb(120,127,170)" stroke-width="1.51"/><path d="M434,-8L397,-62L386,10Z" fill="rgb(186,148,165)" stroke="rgb(186,148,165)" stroke-width="1.51"/><path d="M272,-3L184,-72L193,12Z" fill="rgb(207,137,115)" stroke="rgb(207,137,115)" stroke-width="1.51"/><path d="M423,-73L397,-62L434,-8Z" fill="rgb(184,148,169)" stroke="rgb(184,148,169)" stroke-width="1.51"/><path d="M496,747L573,737L563,636Z" fill="rgb(94,102,158)" stroke="rgb(94,102,158)" stroke-width="1.51"/><path d="M365,788L443,717L336,728Z" fill="rgb(128,119,150)" stroke="rgb(128,119,150)" stroke-width="1.51"/><path d="M556,806L573,737L496,747Z" fill="rgb(94,103,159)" stroke="rgb(94,103,159)" stroke-width="1.51"/><path d="M834,241L807,233L752,308Z" fill="rgb(143,121,137)" stroke="rgb(143,121,137)" stroke-width="1.51"/><path d="M721,603L748,596L713,583Z" fill="rgb(75,78,142)" stroke="rgb(75,78,142)" stroke-width="1.51"/><path d="M771,492L848,448L796,397Z" fill="rgb(96,100,155)" stroke="rgb(96,100,155)" stroke-width="1.51"/><path d="M773,682L748,596L721,603Z" fill="rgb(69,76,142)" stroke="rgb(69,76,142)" stroke-width="1.51"/><path d="M56,101L158,193L154,122Z" fill="rgb(215,146,95)" stroke="rgb(215,146,95)" stroke-width="1.51"/><path d="M56,101L154,122L129,89Z" fill="rgb(210,140,108)" stroke="rgb(210,140,108)" stroke-width="1.51"/><path d="M397,-62L290,-82L386,10Z" fill="rgb(193,145,152)" stroke="rgb(193,145,152)" stroke-width="1.51"/><path d="M511,-1L423,-73L434,-8Z" fill="rgb(177,148,178)" stroke="rgb(177,148,178)" stroke-width="1.51"/><path d="M567,-91L423,-73L511,-1Z" fill="rgb(169,138,172)" stroke="rgb(169,138,172)" stroke-width="1.51"/><path d="M107,-18L56,101L129,89Z" fill="rgb(203,132,125)" stroke="rgb(203,132,125)" stroke-width="1.51"/><path d="M658,85L585,-41L601,87Z" fill="rgb(156,118,147)" stroke="rgb(156,118,147)" stroke-width="1.51"/><path d="M807,233L789,154L673,204Z" fill="rgb(157,119,114)" stroke="rgb(157,119,114)" stroke-width="1.51"/><path d="M700,-33L585,-41L658,85Z" fill="rgb(142,105,154)" stroke="rgb(142,105,154)" stroke-width="1.51"/><path d="M299,742L365,788L336,728Z" fill="rgb(137,117,137)" stroke="rgb(137,117,137)" stroke-width="1.51"/><path d="M296,806L365,788L299,742Z" fill="rgb(139,116,133)" stroke="rgb(139,116,133)" stroke-width="1.51"/><path d="M182,694L233,784L299,742Z" fill="rgb(150,112,110)" stroke="rgb(150,112,110)" stroke-width="1.51"/><path d="M79,655L159,607L109,561Z" fill="rgb(146,105,128)" stroke="rgb(146,105,128)" stroke-width="1.51"/><path d="M79,655L109,561L77,547Z" fill="rgb(144,104,134)" stroke="rgb(144,104,134)" stroke-width="1.51"/><path d="M-21,551L79,655L77,547Z" fill="rgb(138,99,143)" stroke="rgb(138,99,143)" stroke-width="1.51"/><path d="M-21,551L77,547L49,492Z" fill="rgb(141,102,144)" stroke="rgb(141,102,144)" stroke-width="1.51"/><path d="M56,101L7,153L12,187Z" fill="rgb(207,137,115)" stroke="rgb(207,137,115)" stroke-width="1.51"/><path d="M12,187L-24,201L1,295Z" fill="rgb(200,141,133)" stroke="rgb(200,141,133)" stroke-width="1.51"/><path d="M573,737L689,694L563,636Z" fill="rgb(82,89,150)" stroke="rgb(82,89,150)" stroke-width="1.51"/><path d="M807,233L834,133L789,154Z" fill="rgb(157,115,107)" stroke="rgb(157,115,107)" stroke-width="1.51"/><path d="M816,347L834,241L752,308Z" fill="rgb(134,124,151)" stroke="rgb(134,124,151)" stroke-width="1.51"/><path d="M193,12L107,-18L129,89Z" fill="rgb(203,133,123)" stroke="rgb(203,133,123)" stroke-width="1.51"/><path d="M423,-73L290,-82L397,-62Z" fill="rgb(191,145,155)" stroke="rgb(191,145,155)" stroke-width="1.51"/><path d="M817,632L790,585L748,596Z" fill="rgb(69,75,142)" stroke="rgb(69,75,142)" stroke-width="1.51"/><path d="M748,596L790,585L771,492Z" fill="rgb(75,78,142)" stroke="rgb(75,78,142)" stroke-width="1.51"/><path d="M816,347L904,345L834,241Z" fill="rgb(127,122,156)" stroke="rgb(127,122,156)" stroke-width="1.51"/><path d="M-61,502L-21,551L49,492Z" fill="rgb(139,101,153)" stroke="rgb(139,101,153)" stroke-width="1.51"/><path d="M7,153L-24,201L12,187Z" fill="rgb(207,139,115)" stroke="rgb(207,139,115)" stroke-width="1.51"/><path d="M894,503L848,448L771,492Z" fill="rgb(84,89,149)" stroke="rgb(84,89,149)" stroke-width="1.51"/><path d="M149,713L233,784L182,694Z" fill="rgb(148,108,114)" stroke="rgb(148,108,114)" stroke-width="1.51"/><path d="M97,755L233,784L149,713Z" fill="rgb(144,105,120)" stroke="rgb(144,105,120)" stroke-width="1.51"/><path d="M233,784L296,806L299,742Z" fill="rgb(145,114,121)" stroke="rgb(145,114,121)" stroke-width="1.51"/><path d="M365,788L556,806L484,764Z" fill="rgb(108,119,168)" stroke="rgb(108,119,168)" stroke-width="1.51"/><path d="M789,154L792,95L657,117Z" fill="rgb(154,111,120)" stroke="rgb(154,111,120)" stroke-width="1.51"/><path d="M834,133L792,95L789,154Z" fill="rgb(151,109,119)" stroke="rgb(151,109,119)" stroke-width="1.51"/><path d="M-67,416L76,414L1,295Z" fill="rgb(173,143,174)" stroke="rgb(173,143,174)" stroke-width="1.51"/><path d="M848,448L871,374L796,397Z" fill="rgb(103,109,161)" stroke="rgb(103,109,161)" stroke-width="1.51"/><path d="M585,-41L567,-91L511,-1Z" fill="rgb(159,126,165)" stroke="rgb(159,126,165)" stroke-width="1.51"/><path d="M423,-73L567,-91L290,-82Z" fill="rgb(183,149,172)" stroke="rgb(183,149,172)" stroke-width="1.51"/><path d="M635,-91L567,-91L585,-41Z" fill="rgb(151,116,160)" stroke="rgb(151,116,160)" stroke-width="1.51"/><path d="M-93,291L-67,416L1,295Z" fill="rgb(182,149,173)" stroke="rgb(182,149,173)" stroke-width="1.51"/><path d="M-139,178L-99,220L-109,103Z" fill="rgb(207,137,115)" stroke="rgb(207,137,115)" stroke-width="1.51"/><path d="M56,101L-57,70L7,153Z" fill="rgb(200,129,131)" stroke="rgb(200,129,131)" stroke-width="1.51"/><path d="M184,-72L107,-18L193,12Z" fill="rgb(201,131,127)" stroke="rgb(201,131,127)" stroke-width="1.51"/><path d="M573,737L643,785L689,694Z" fill="rgb(75,83,147)" stroke="rgb(75,83,147)" stroke-width="1.51"/><path d="M484,764L556,806L496,747Z" fill="rgb(99,109,162)" stroke="rgb(99,109,162)" stroke-width="1.51"/><path d="M296,806L556,806L365,788Z" fill="rgb(122,121,157)" stroke="rgb(122,121,157)" stroke-width="1.51"/><path d="M290,-82L184,-72L272,-3Z" fill="rgb(206,139,120)" stroke="rgb(206,139,120)" stroke-width="1.51"/><path d="M940,200L834,133L834,241Z" fill="rgb(151,114,112)" stroke="rgb(151,114,112)" stroke-width="1.51"/><path d="M834,241L834,133L807,233Z" fill="rgb(152,116,116)" stroke="rgb(152,116,116)" stroke-width="1.51"/><path d="M693,-121L700,-33L739,-114Z" fill="rgb(134,97,151)" stroke="rgb(134,97,151)" stroke-width="1.51"/><path d="M792,95L700,-33L658,85Z" fill="rgb(143,103,139)" stroke="rgb(143,103,139)" stroke-width="1.51"/><path d="M-67,416L-61,502L49,492Z" fill="rgb(150,114,160)" stroke="rgb(150,114,160)" stroke-width="1.51"/><path d="M7,701L73,717L79,655Z" fill="rgb(130,95,141)" stroke="rgb(130,95,141)" stroke-width="1.51"/><path d="M79,655L73,717L149,713Z" fill="rgb(137,99,132)" stroke="rgb(137,99,132)" stroke-width="1.51"/><path d="M7,701L79,655L-65,608Z" fill="rgb(126,92,150)" stroke="rgb(126,92,150)" stroke-width="1.51"/><path d="M556,806L643,785L573,737Z" fill="rgb(84,92,153)" stroke="rgb(84,92,153)" stroke-width="1.51"/><path d="M689,694L773,682L721,603Z" fill="rgb(67,75,142)" stroke="rgb(67,75,142)" stroke-width="1.51"/><path d="M790,585L850,575L771,492Z" fill="rgb(73,77,142)" stroke="rgb(73,77,142)" stroke-width="1.51"/><path d="M709,795L773,682L689,694Z" fill="rgb(62,73,142)" stroke="rgb(62,73,142)" stroke-width="1.51"/><path d="M817,632L850,575L790,585Z" fill="rgb(66,74,142)" stroke="rgb(66,74,142)" stroke-width="1.51"/><path d="M959,355L904,345L871,374Z" fill="rgb(109,120,168)" stroke="rgb(109,120,168)" stroke-width="1.51"/><path d="M773,682L817,632L748,596Z" fill="rgb(65,74,142)" stroke="rgb(65,74,142)" stroke-width="1.51"/><path d="M107,-18L87,-34L56,101Z" fill="rgb(195,125,138)" stroke="rgb(195,125,138)" stroke-width="1.51"/><path d="M106,-71L87,-34L107,-18Z" fill="rgb(194,124,139)" stroke="rgb(194,124,139)" stroke-width="1.51"/><path d="M-24,201L-93,291L1,295Z" fill="rgb(195,144,145)" stroke="rgb(195,144,145)" stroke-width="1.51"/><path d="M-67,416L-122,413L-61,502Z" fill="rgb(156,122,164)" stroke="rgb(156,122,164)" stroke-width="1.51"/><path d="M-99,220L-93,291L-24,201Z" fill="rgb(199,142,136)" stroke="rgb(199,142,136)" stroke-width="1.51"/><path d="M871,374L904,345L816,347Z" fill="rgb(113,123,169)" stroke="rgb(113,123,169)" stroke-width="1.51"/><path d="M989,408L871,374L848,448Z" fill="rgb(97,106,160)" stroke="rgb(97,106,160)" stroke-width="1.51"/><path d="M700,-33L635,-91L585,-41Z" fill="rgb(143,106,156)" stroke="rgb(143,106,156)" stroke-width="1.51"/><path d="M73,717L97,755L149,713Z" fill="rgb(138,100,131)" stroke="rgb(138,100,131)" stroke-width="1.51"/><path d="M233,784L60,806L296,806Z" fill="rgb(149,109,113)" stroke="rgb(149,109,113)" stroke-width="1.51"/><path d="M850,575L894,503L771,492Z" fill="rgb(74,77,143)" stroke="rgb(74,77,143)" stroke-width="1.51"/><path d="M918,544L894,503L850,575Z" fill="rgb(67,75,142)" stroke="rgb(67,75,142)" stroke-width="1.51"/><path d="M184,-72L106,-71L107,-18Z" fill="rgb(198,128,133)" stroke="rgb(198,128,133)" stroke-width="1.51"/><path d="M-109,103L-24,201L7,153Z" fill="rgb(205,135,119)" stroke="rgb(205,135,119)" stroke-width="1.51"/><path d="M54,-113L106,-71L184,-72Z" fill="rgb(196,126,137)" stroke="rgb(196,126,137)" stroke-width="1.51"/><path d="M-57,70L56,101L-33,13Z" fill="rgb(192,122,144)" stroke="rgb(192,122,144)" stroke-width="1.51"/><path d="M73,717L60,806L97,755Z" fill="rgb(133,97,136)" stroke="rgb(133,97,136)" stroke-width="1.51"/><path d="M-65,608L79,655L-21,551Z" fill="rgb(129,95,151)" stroke="rgb(129,95,151)" stroke-width="1.51"/><path d="M-61,502L-65,608L-21,551Z" fill="rgb(134,97,151)" stroke="rgb(134,97,151)" stroke-width="1.51"/><path d="M-93,291L-122,413L-67,416Z" fill="rgb(173,143,175)" stroke="rgb(173,143,175)" stroke-width="1.51"/><path d="M-139,178L-122,413L-93,291Z" fill="rgb(190,146,157)" stroke="rgb(190,146,157)" stroke-width="1.51"/><path d="M-113,605L-65,608L-139,575Z" fill="rgb(130,95,151)" stroke="rgb(130,95,151)" stroke-width="1.51"/><path d="M643,785L709,795L689,694Z" fill="rgb(66,75,142)" stroke="rgb(66,75,142)" stroke-width="1.51"/><path d="M773,682L846,675L817,632Z" fill="rgb(58,71,142)" stroke="rgb(58,71,142)" stroke-width="1.51"/><path d="M556,806L709,795L643,785Z" fill="rgb(75,83,147)" stroke="rgb(75,83,147)" stroke-width="1.51"/><path d="M-33,13L56,101L87,-34Z" fill="rgb(191,122,146)" stroke="rgb(191,122,146)" stroke-width="1.51"/><path d="M817,632L846,675L850,575Z" fill="rgb(60,72,142)" stroke="rgb(60,72,142)" stroke-width="1.51"/><path d="M847,794L846,675L773,682Z" fill="rgb(51,69,142)" stroke="rgb(51,69,142)" stroke-width="1.51"/><path d="M989,408L959,355L871,374Z" fill="rgb(104,114,165)" stroke="rgb(104,114,165)" stroke-width="1.51"/><path d="M930,613L918,544L850,575Z" fill="rgb(61,72,142)" stroke="rgb(61,72,142)" stroke-width="1.51"/><path d="M-46,-59L-33,13L87,-34Z" fill="rgb(183,114,160)" stroke="rgb(183,114,160)" stroke-width="1.51"/><path d="M989,408L848,448L894,503Z" fill="rgb(86,94,154)" stroke="rgb(86,94,154)" stroke-width="1.51"/><path d="M904,345L940,200L834,241Z" fill="rgb(136,117,138)" stroke="rgb(136,117,138)" stroke-width="1.51"/><path d="M635,-91L693,-121L567,-91Z" fill="rgb(144,108,157)" stroke="rgb(144,108,157)" stroke-width="1.51"/><path d="M567,-91L693,-121L290,-82Z" fill="rgb(166,134,170)" stroke="rgb(166,134,170)" stroke-width="1.51"/><path d="M290,-82L54,-113L184,-72Z" fill="rgb(203,133,124)" stroke="rgb(203,133,124)" stroke-width="1.51"/><path d="M700,-33L693,-121L635,-91Z" fill="rgb(136,98,151)" stroke="rgb(136,98,151)" stroke-width="1.51"/><path d="M801,-35L700,-33L792,95Z" fill="rgb(132,96,149)" stroke="rgb(132,96,149)" stroke-width="1.51"/><path d="M801,-35L792,95L883,33Z" fill="rgb(132,96,144)" stroke="rgb(132,96,144)" stroke-width="1.51"/><path d="M883,33L792,95L834,133Z" fill="rgb(142,103,129)" stroke="rgb(142,103,129)" stroke-width="1.51"/><path d="M979,335L940,200L904,345Z" fill="rgb(129,119,149)" stroke="rgb(129,119,149)" stroke-width="1.51"/><path d="M556,806L742,802L709,795Z" fill="rgb(68,76,143)" stroke="rgb(68,76,143)" stroke-width="1.51"/><path d="M709,795L742,802L773,682Z" fill="rgb(61,72,142)" stroke="rgb(61,72,142)" stroke-width="1.51"/><path d="M-122,413L-139,503L-61,502Z" fill="rgb(149,114,159)" stroke="rgb(149,114,159)" stroke-width="1.51"/><path d="M-139,178L-139,503L-122,413Z" fill="rgb(175,145,176)" stroke="rgb(175,145,176)" stroke-width="1.51"/><path d="M-41,764L60,806L7,701Z" fill="rgb(122,91,149)" stroke="rgb(122,91,149)" stroke-width="1.51"/><path d="M7,701L60,806L73,717Z" fill="rgb(129,94,142)" stroke="rgb(129,94,142)" stroke-width="1.51"/><path d="M97,755L60,806L233,784Z" fill="rgb(141,102,126)" stroke="rgb(141,102,126)" stroke-width="1.51"/><path d="M-41,764L7,701L-109,731Z" fill="rgb(120,90,151)" stroke="rgb(120,90,151)" stroke-width="1.51"/><path d="M-99,220L-139,178L-93,291Z" fill="rgb(200,141,133)" stroke="rgb(200,141,133)" stroke-width="1.51"/><path d="M-109,103L-99,220L-24,201Z" fill="rgb(208,138,113)" stroke="rgb(208,138,113)" stroke-width="1.51"/><path d="M-109,103L7,153L-57,70Z" fill="rgb(199,129,131)" stroke="rgb(199,129,131)" stroke-width="1.51"/><path d="M-117,-44L-109,103L-57,70Z" fill="rgb(189,120,149)" stroke="rgb(189,120,149)" stroke-width="1.51"/><path d="M-139,575L-65,608L-61,502Z" fill="rgb(133,97,151)" stroke="rgb(133,97,151)" stroke-width="1.51"/><path d="M801,-35L739,-114L700,-33Z" fill="rgb(131,96,151)" stroke="rgb(131,96,151)" stroke-width="1.51"/><path d="M989,408L979,335L959,355Z" fill="rgb(108,118,167)" stroke="rgb(108,118,167)" stroke-width="1.51"/><path d="M959,355L979,335L904,345Z" fill="rgb(113,122,168)" stroke="rgb(113,122,168)" stroke-width="1.51"/><path d="M801,-35L834,-120L739,-114Z" fill="rgb(128,94,151)" stroke="rgb(128,94,151)" stroke-width="1.51"/><path d="M915,34L883,33L834,133Z" fill="rgb(136,99,134)" stroke="rgb(136,99,134)" stroke-width="1.51"/><path d="M106,-71L54,-113L87,-34Z" fill="rgb(193,122,143)" stroke="rgb(193,122,143)" stroke-width="1.51"/><path d="M-33,13L-117,-44L-57,70Z" fill="rgb(184,115,157)" stroke="rgb(184,115,157)" stroke-width="1.51"/><path d="M693,-121L54,-113L290,-82Z" fill="rgb(194,144,148)" stroke="rgb(194,144,148)" stroke-width="1.51"/><path d="M-109,731L7,701L-65,608Z" fill="rgb(122,91,151)" stroke="rgb(122,91,151)" stroke-width="1.51"/><path d="M-139,503L-139,575L-61,502Z" fill="rgb(136,98,151)" stroke="rgb(136,98,151)" stroke-width="1.51"/><path d="M896,706L930,613L846,675Z" fill="rgb(49,69,142)" stroke="rgb(49,69,142)" stroke-width="1.51"/><path d="M846,675L930,613L850,575Z" fill="rgb(57,71,142)" stroke="rgb(57,71,142)" stroke-width="1.51"/><path d="M999,459L989,408L894,503Z" fill="rgb(85,93,153)" stroke="rgb(85,93,153)" stroke-width="1.51"/><path d="M999,459L894,503L918,544Z" fill="rgb(73,81,146)" stroke="rgb(73,81,146)" stroke-width="1.51"/><path d="M940,200L960,156L834,133Z" fill="rgb(150,110,110)" stroke="rgb(150,110,110)" stroke-width="1.51"/><path d="M1004,172L960,156L940,200Z" fill="rgb(152,111,107)" stroke="rgb(152,111,107)" stroke-width="1.51"/><path d="M1004,172L940,200L1020,202Z" fill="rgb(149,113,113)" stroke="rgb(149,113,113)" stroke-width="1.51"/><path d="M883,33L868,-17L801,-35Z" fill="rgb(124,91,151)" stroke="rgb(124,91,151)" stroke-width="1.51"/><path d="M901,-19L868,-17L883,33Z" fill="rgb(121,90,151)" stroke="rgb(121,90,151)" stroke-width="1.51"/><path d="M960,156L915,34L834,133Z" fill="rgb(141,103,124)" stroke="rgb(141,103,124)" stroke-width="1.51"/><path d="M-109,731L-65,608L-113,605Z" fill="rgb(125,92,151)" stroke="rgb(125,92,151)" stroke-width="1.51"/><path d="M1020,202L940,200L979,335Z" fill="rgb(140,116,132)" stroke="rgb(140,116,132)" stroke-width="1.51"/><path d="M1041,586L999,459L918,544Z" fill="rgb(66,75,142)" stroke="rgb(66,75,142)" stroke-width="1.51"/><path d="M930,613L1041,586L918,544Z" fill="rgb(60,72,142)" stroke="rgb(60,72,142)" stroke-width="1.51"/><path d="M847,794L896,706L846,675Z" fill="rgb(46,68,142)" stroke="rgb(46,68,142)" stroke-width="1.51"/><path d="M54,-113L-46,-59L87,-34Z" fill="rgb(186,117,154)" stroke="rgb(186,117,154)" stroke-width="1.51"/><path d="M-109,103L-117,-44L-139,178Z" fill="rgb(195,125,139)" stroke="rgb(195,125,139)" stroke-width="1.51"/><path d="M915,34L901,-19L883,33Z" fill="rgb(124,91,147)" stroke="rgb(124,91,147)" stroke-width="1.51"/><path d="M899,-65L834,-120L801,-35Z" fill="rgb(124,92,151)" stroke="rgb(124,92,151)" stroke-width="1.51"/><path d="M899,-65L901,-19L975,20Z" fill="rgb(120,90,151)" stroke="rgb(120,90,151)" stroke-width="1.51"/><path d="M742,802L847,794L773,682Z" fill="rgb(55,71,142)" stroke="rgb(55,71,142)" stroke-width="1.51"/><path d="M989,41L975,20L915,34Z" fill="rgb(127,94,143)" stroke="rgb(127,94,143)" stroke-width="1.51"/><path d="M1020,202L979,335L989,408Z" fill="rgb(122,121,157)" stroke="rgb(122,121,157)" stroke-width="1.51"/><path d="M999,459L1020,202L989,408Z" fill="rgb(110,121,169)" stroke="rgb(110,121,169)" stroke-width="1.51"/><path d="M-139,575L-109,731L-113,605Z" fill="rgb(126,93,151)" stroke="rgb(126,93,151)" stroke-width="1.51"/><path d="M899,-65L801,-35L868,-17Z" fill="rgb(123,91,151)" stroke="rgb(123,91,151)" stroke-width="1.51"/><path d="M739,-114L834,-120L693,-121Z" fill="rgb(131,95,151)" stroke="rgb(131,95,151)" stroke-width="1.51"/><path d="M901,-19L899,-65L868,-17Z" fill="rgb(121,90,151)" stroke="rgb(121,90,151)" stroke-width="1.51"/><path d="M975,20L901,-19L915,34Z" fill="rgb(123,91,148)" stroke="rgb(123,91,148)" stroke-width="1.51"/><path d="M915,34L960,156L989,41Z" fill="rgb(136,99,132)" stroke="rgb(136,99,132)" stroke-width="1.51"/><path d="M-46,-59L-117,-44L-33,13Z" fill="rgb(182,114,160)" stroke="rgb(182,114,160)" stroke-width="1.51"/><path d="M-110,-94L-117,-44L-46,-59Z" fill="rgb(182,114,160)" stroke="rgb(182,114,160)" stroke-width="1.51"/><path d="M989,41L960,156L1004,172Z" fill="rgb(144,105,120)" stroke="rgb(144,105,120)" stroke-width="1.51"/><path d="M1020,202L989,41L1004,172Z" fill="rgb(147,106,116)" stroke="rgb(147,106,116)" stroke-width="1.51"/><path d="M-139,575L-112,785L-109,731Z" fill="rgb(121,90,151)" stroke="rgb(121,90,151)" stroke-width="1.51"/><path d="M-109,731L-112,785L-41,764Z" fill="rgb(120,90,151)" stroke="rgb(120,90,151)" stroke-width="1.51"/><path d="M-41,764L-112,785L60,806Z" fill="rgb(120,90,151)" stroke="rgb(120,90,151)" stroke-width="1.51"/><path d="M999,459L1041,586L1020,202Z" fill="rgb(95,105,159)" stroke="rgb(95,105,159)" stroke-width="1.51"/><path d="M1023,634L1041,586L930,613Z" fill="rgb(55,71,142)" stroke="rgb(55,71,142)" stroke-width="1.51"/><path d="M1023,634L930,613L987,733Z" fill="rgb(48,69,142)" stroke="rgb(48,69,142)" stroke-width="1.51"/><path d="M987,733L930,613L896,706Z" fill="rgb(44,67,142)" stroke="rgb(44,67,142)" stroke-width="1.51"/><path d="M54,-113L-110,-94L-46,-59Z" fill="rgb(182,114,160)" stroke="rgb(182,114,160)" stroke-width="1.51"/><path d="M847,794L960,768L896,706Z" fill="rgb(41,67,142)" stroke="rgb(41,67,142)" stroke-width="1.51"/><path d="M960,768L987,733L896,706Z" fill="rgb(41,67,142)" stroke="rgb(41,67,142)" stroke-width="1.51"/><path d="M1023,634L1003,787L1041,586Z" fill="rgb(46,68,142)" stroke="rgb(46,68,142)" stroke-width="1.51"/><path d="M960,768L1003,787L987,733Z" fill="rgb(41,67,142)" stroke="rgb(41,67,142)" stroke-width="1.51"/><path d="M987,733L1003,787L1023,634Z" fill="rgb(41,67,142)" stroke="rgb(41,67,142)" stroke-width="1.51"/><path d="M847,794L1003,787L960,768Z" fill="rgb(41,67,142)" stroke="rgb(41,67,142)" stroke-width="1.51"/><path d="M742,802L1003,787L847,794Z" fill="rgb(46,68,142)" stroke="rgb(46,68,142)" stroke-width="1.51"/><path d="M989,41L1047,-73L975,20Z" fill="rgb(120,90,151)" stroke="rgb(120,90,151)" stroke-width="1.51"/><path d="M975,20L1047,-73L899,-65Z" fill="rgb(120,90,151)" stroke="rgb(120,90,151)" stroke-width="1.51"/><path d="M899,-65L1047,-73L834,-120Z" fill="rgb(120,90,151)" stroke="rgb(120,90,151)" stroke-width="1.51"/><path d="M1020,202L1047,-73L989,41Z" fill="rgb(133,96,137)" stroke="rgb(133,96,137)" stroke-width="1.51"/><path d="M1041,586L1047,-73L1020,202Z" fill="rgb(141,115,129)" stroke="rgb(141,115,129)" stroke-width="1.51"/></svg>