<svg xmlns="http://www.w3.org/2000/svg" width="700" height="600"><path d="M369,289L419,324L400,282Z" fill="rgb(100,112,165)" stroke="rgb(100,112,165)" stroke-width="1.51"/><path d="M369,289L332,327L419,324Z" fill="rgb(101,113,165)" stroke="rgb(101,113,165)" stroke-width="1.51"/><path d="M332,327L404,407L419,324Z" fill="rgb(86,99,159)" stroke="rgb(86,99,159)" stroke-width="1.51"/><path d="M369,289L296,261L332,327Z" fill="rgb(118,129,173)" stroke="rgb(118,129,173)" stroke-width="1.51"/><path d="M347,197L296,261L369,289Z" fill="rgb(130,141,179)" stroke="rgb(130,141,179)" stroke-width="1.51"/><path d="M419,324L477,245L400,282Z" fill="rgb(95,107,162)" stroke="rgb(95,107,162)" stroke-width="1.51"/><path d="M404,407L495,339L419,324Z" fill="rgb(68,84,152)" stroke="rgb(68,84,152)" stroke-width="1.51"/><path d="M495,339L477,245L419,324Z" fill="rgb(80,94,156)" stroke="rgb(80,94,156)" stroke-width="1.51"/><path d="M400,282L347,197L369,289Z" fill="rgb(119,130,174)" stroke="rgb(119,130,174)" stroke-width="1.51"/><path d="M405,165L347,197L400,282Z" fill="rgb(128,140,178)" stroke="rgb(128,140,178)" stroke-width="1.51"/><path d="M332,327L339,428L404,407Z" fill="rgb(81,96,157)" stroke="rgb(81,96,157)" stroke-width="1.51"/><path d="M256,363L339,428L332,327Z" fill="rgb(100,112,165)" stroke="rgb(100,112,165)" stroke-width="1.51"/><path d="M495,339L548,312L477,245Z" fill="rgb(94,99,158)" stroke="rgb(94,99,158)" stroke-width="1.51"/><path d="M404,407L505,389L495,339Z" fill="rgb(51,73,145)" stroke="rgb(51,73,145)" stroke-width="1.51"/><path d="M434,487L505,389L404,407Z" fill="rgb(62,75,146)" stroke="rgb(62,75,146)" stroke-width="1.51"/><path d="M296,261L256,363L332,327Z" fill="rgb(121,132,174)" stroke="rgb(121,132,174)" stroke-width="1.51"/><path d="M477,245L405,165L400,282Z" fill="rgb(112,124,170)" stroke="rgb(112,124,170)" stroke-width="1.51"/><path d="M505,389L548,312L495,339Z" fill="rgb(81,86,151)" stroke="rgb(81,86,151)" stroke-width="1.51"/><path d="M477,245L502,186L405,165Z" fill="rgb(112,123,170)" stroke="rgb(112,123,170)" stroke-width="1.51"/><path d="M548,312L555,282L477,245Z" fill="rgb(106,106,161)" stroke="rgb(106,106,161)" stroke-width="1.51"/><path d="M256,363L250,403L339,428Z" fill="rgb(99,111,165)" stroke="rgb(99,111,165)" stroke-width="1.51"/><path d="M563,215L502,186L477,245Z" fill="rgb(121,123,170)" stroke="rgb(121,123,170)" stroke-width="1.51"/><path d="M339,428L434,487L404,407Z" fill="rgb(84,89,153)" stroke="rgb(84,89,153)" stroke-width="1.51"/><path d="M250,403L329,481L339,428Z" fill="rgb(106,109,163)" stroke="rgb(106,109,163)" stroke-width="1.51"/><path d="M329,481L434,487L339,428Z" fill="rgb(100,98,157)" stroke="rgb(100,98,157)" stroke-width="1.51"/><path d="M172,290L191,346L256,363Z" fill="rgb(127,137,176)" stroke="rgb(127,137,176)" stroke-width="1.51"/><path d="M256,363L210,418L250,403Z" fill="rgb(111,123,170)" stroke="rgb(111,123,170)" stroke-width="1.51"/><path d="M347,197L264,174L296,261Z" fill="rgb(150,162,188)" stroke="rgb(150,162,188)" stroke-width="1.51"/><path d="M279,121L264,174L347,197Z" fill="rgb(147,157,185)" stroke="rgb(147,157,185)" stroke-width="1.51"/><path d="M405,165L365,123L347,197Z" fill="rgb(128,138,176)" stroke="rgb(128,138,176)" stroke-width="1.51"/><path d="M423,92L365,123L405,165Z" fill="rgb(114,122,168)" stroke="rgb(114,122,168)" stroke-width="1.51"/><path d="M555,282L563,215L477,245Z" fill="rgb(117,116,166)" stroke="rgb(117,116,166)" stroke-width="1.51"/><path d="M172,290L256,363L296,261Z" fill="rgb(138,149,182)" stroke="rgb(138,149,182)" stroke-width="1.51"/><path d="M250,403L216,466L329,481Z" fill="rgb(121,121,169)" stroke="rgb(121,121,169)" stroke-width="1.51"/><path d="M434,487L487,496L505,389Z" fill="rgb(73,74,145)" stroke="rgb(73,74,145)" stroke-width="1.51"/><path d="M505,389L576,414L548,312Z" fill="rgb(82,82,149)" stroke="rgb(82,82,149)" stroke-width="1.51"/><path d="M473,547L487,496L434,487Z" fill="rgb(91,80,147)" stroke="rgb(91,80,147)" stroke-width="1.51"/><path d="M191,346L210,418L256,363Z" fill="rgb(116,127,172)" stroke="rgb(116,127,172)" stroke-width="1.51"/><path d="M562,463L576,414L505,389Z" fill="rgb(83,77,146)" stroke="rgb(83,77,146)" stroke-width="1.51"/><path d="M548,312L640,311L555,282Z" fill="rgb(115,106,160)" stroke="rgb(115,106,160)" stroke-width="1.51"/><path d="M555,282L662,270L563,215Z" fill="rgb(133,121,167)" stroke="rgb(133,121,167)" stroke-width="1.51"/><path d="M502,186L472,115L405,165Z" fill="rgb(104,113,165)" stroke="rgb(104,113,165)" stroke-width="1.51"/><path d="M599,126L472,115L502,186Z" fill="rgb(117,115,164)" stroke="rgb(117,115,164)" stroke-width="1.51"/><path d="M264,174L216,183L296,261Z" fill="rgb(162,175,193)" stroke="rgb(162,175,193)" stroke-width="1.51"/><path d="M279,121L216,183L264,174Z" fill="rgb(157,167,189)" stroke="rgb(157,167,189)" stroke-width="1.51"/><path d="M216,183L172,290L296,261Z" fill="rgb(156,169,191)" stroke="rgb(156,169,191)" stroke-width="1.51"/><path d="M137,420L216,466L210,418Z" fill="rgb(115,118,166)" stroke="rgb(115,118,166)" stroke-width="1.51"/><path d="M365,123L279,121L347,197Z" fill="rgb(135,144,178)" stroke="rgb(135,144,178)" stroke-width="1.51"/><path d="M287,63L279,121L365,123Z" fill="rgb(131,138,174)" stroke="rgb(131,138,174)" stroke-width="1.51"/><path d="M472,115L423,92L405,165Z" fill="rgb(104,112,163)" stroke="rgb(104,112,163)" stroke-width="1.51"/><path d="M487,496L562,463L505,389Z" fill="rgb(84,78,146)" stroke="rgb(84,78,146)" stroke-width="1.51"/><path d="M210,418L216,466L250,403Z" fill="rgb(120,125,170)" stroke="rgb(120,125,170)" stroke-width="1.51"/><path d="M137,420L210,418L191,346Z" fill="rgb(103,113,164)" stroke="rgb(103,113,164)" stroke-width="1.51"/><path d="M216,466L254,514L329,481Z" fill="rgb(134,126,170)" stroke="rgb(134,126,170)" stroke-width="1.51"/><path d="M433,587L473,547L434,487Z" fill="rgb(106,87,151)" stroke="rgb(106,87,151)" stroke-width="1.51"/><path d="M487,496L585,586L562,463Z" fill="rgb(114,87,151)" stroke="rgb(114,87,151)" stroke-width="1.51"/><path d="M375,577L434,487L329,481Z" fill="rgb(114,101,158)" stroke="rgb(114,101,158)" stroke-width="1.51"/><path d="M576,414L640,311L548,312Z" fill="rgb(105,94,154)" stroke="rgb(105,94,154)" stroke-width="1.51"/><path d="M649,408L640,311L576,414Z" fill="rgb(105,88,151)" stroke="rgb(105,88,151)" stroke-width="1.51"/><path d="M102,365L137,420L191,346Z" fill="rgb(102,111,162)" stroke="rgb(102,111,162)" stroke-width="1.51"/><path d="M216,183L144,262L172,290Z" fill="rgb(147,157,185)" stroke="rgb(147,157,185)" stroke-width="1.51"/><path d="M276,579L375,577L329,481Z" fill="rgb(138,119,165)" stroke="rgb(138,119,165)" stroke-width="1.51"/><path d="M279,121L179,85L216,183Z" fill="rgb(154,163,186)" stroke="rgb(154,163,186)" stroke-width="1.51"/><path d="M216,183L99,201L144,262Z" fill="rgb(151,161,185)" stroke="rgb(151,161,185)" stroke-width="1.51"/><path d="M358,19L287,63L365,123Z" fill="rgb(117,123,167)" stroke="rgb(117,123,167)" stroke-width="1.51"/><path d="M423,92L358,19L365,123Z" fill="rgb(107,114,163)" stroke="rgb(107,114,163)" stroke-width="1.51"/><path d="M472,115L451,46L423,92Z" fill="rgb(91,99,156)" stroke="rgb(91,99,156)" stroke-width="1.51"/><path d="M505,50L451,46L472,115Z" fill="rgb(87,92,152)" stroke="rgb(87,92,152)" stroke-width="1.51"/><path d="M599,126L502,186L563,215Z" fill="rgb(133,127,170)" stroke="rgb(133,127,170)" stroke-width="1.51"/><path d="M640,311L662,270L555,282Z" fill="rgb(131,114,163)" stroke="rgb(131,114,163)" stroke-width="1.51"/><path d="M707,346L662,270L640,311Z" fill="rgb(138,114,162)" stroke="rgb(138,114,162)" stroke-width="1.51"/><path d="M102,365L191,346L172,290Z" fill="rgb(117,126,170)" stroke="rgb(117,126,170)" stroke-width="1.51"/><path d="M191,544L276,579L254,514Z" fill="rgb(159,141,175)" stroke="rgb(159,141,175)" stroke-width="1.51"/><path d="M647,475L649,408L576,414Z" fill="rgb(109,86,150)" stroke="rgb(109,86,150)" stroke-width="1.51"/><path d="M647,475L576,414L562,463Z" fill="rgb(108,85,150)" stroke="rgb(108,85,150)" stroke-width="1.51"/><path d="M375,577L433,587L434,487Z" fill="rgb(117,97,156)" stroke="rgb(117,97,156)" stroke-width="1.51"/><path d="M585,586L647,475L562,463Z" fill="rgb(127,92,152)" stroke="rgb(127,92,152)" stroke-width="1.51"/><path d="M672,186L599,126L563,215Z" fill="rgb(149,133,171)" stroke="rgb(149,133,171)" stroke-width="1.51"/><path d="M599,126L505,50L472,115Z" fill="rgb(108,104,158)" stroke="rgb(108,104,158)" stroke-width="1.51"/><path d="M254,514L276,579L329,481Z" fill="rgb(141,126,169)" stroke="rgb(141,126,169)" stroke-width="1.51"/><path d="M375,577L355,613L433,587Z" fill="rgb(137,109,160)" stroke="rgb(137,109,160)" stroke-width="1.51"/><path d="M191,544L254,514L216,466Z" fill="rgb(146,135,173)" stroke="rgb(146,135,173)" stroke-width="1.51"/><path d="M144,262L102,365L172,290Z" fill="rgb(123,130,172)" stroke="rgb(123,130,172)" stroke-width="1.51"/><path d="M424,-18L358,19L451,46Z" fill="rgb(87,92,150)" stroke="rgb(87,92,150)" stroke-width="1.51"/><path d="M451,46L358,19L423,92Z" fill="rgb(94,100,156)" stroke="rgb(94,100,156)" stroke-width="1.51"/><path d="M296,610L355,613L375,577Z" fill="rgb(151,121,166)" stroke="rgb(151,121,166)" stroke-width="1.51"/><path d="M649,408L707,346L640,311Z" fill="rgb(124,99,156)" stroke="rgb(124,99,156)" stroke-width="1.51"/><path d="M585,586L487,496L473,547Z" fill="rgb(115,88,151)" stroke="rgb(115,88,151)" stroke-width="1.51"/><path d="M142,513L216,466L137,420Z" fill="rgb(123,117,165)" stroke="rgb(123,117,165)" stroke-width="1.51"/><path d="M142,513L191,544L216,466Z" fill="rgb(139,126,168)" stroke="rgb(139,126,168)" stroke-width="1.51"/><path d="M276,579L296,610L375,577Z" fill="rgb(154,126,168)" stroke="rgb(154,126,168)" stroke-width="1.51"/><path d="M662,270L672,186L563,215Z" fill="rgb(153,135,173)" stroke="rgb(153,135,173)" stroke-width="1.51"/><path d="M707,194L672,186L662,270Z" fill="rgb(168,142,176)" stroke="rgb(168,142,176)" stroke-width="1.51"/><path d="M222,12L179,85L287,63Z" fill="rgb(140,145,176)" stroke="rgb(140,145,176)" stroke-width="1.51"/><path d="M287,63L179,85L279,121Z" fill="rgb(144,151,180)" stroke="rgb(144,151,180)" stroke-width="1.51"/><path d="M144,262L62,264L102,365Z" fill="rgb(119,125,169)" stroke="rgb(119,125,169)" stroke-width="1.51"/><path d="M141,95L99,201L216,183Z" fill="rgb(147,155,182)" stroke="rgb(147,155,182)" stroke-width="1.51"/><path d="M203,632L296,610L276,579Z" fill="rgb(172,143,175)" stroke="rgb(172,143,175)" stroke-width="1.51"/><path d="M672,186L654,136L599,126Z" fill="rgb(152,130,169)" stroke="rgb(152,130,169)" stroke-width="1.51"/><path d="M599,126L554,21L505,50Z" fill="rgb(109,100,155)" stroke="rgb(109,100,155)" stroke-width="1.51"/><path d="M707,401L707,346L649,408Z" fill="rgb(122,93,153)" stroke="rgb(122,93,153)" stroke-width="1.51"/><path d="M77,426L142,513L137,420Z" fill="rgb(110,106,159)" stroke="rgb(110,106,159)" stroke-width="1.51"/><path d="M647,475L707,401L649,408Z" fill="rgb(120,90,152)" stroke="rgb(120,90,152)" stroke-width="1.51"/><path d="M179,85L141,95L216,183Z" fill="rgb(144,151,179)" stroke="rgb(144,151,179)" stroke-width="1.51"/><path d="M101,23L141,95L179,85Z" fill="rgb(127,129,168)" stroke="rgb(127,129,168)" stroke-width="1.51"/><path d="M492,-54L424,-18L451,46Z" fill="rgb(71,77,144)" stroke="rgb(71,77,144)" stroke-width="1.51"/><path d="M274,-28L222,12L287,63Z" fill="rgb(125,129,168)" stroke="rgb(125,129,168)" stroke-width="1.51"/><path d="M492,-54L451,46L505,50Z" fill="rgb(76,80,145)" stroke="rgb(76,80,145)" stroke-width="1.51"/><path d="M99,201L62,264L144,262Z" fill="rgb(135,141,176)" stroke="rgb(135,141,176)" stroke-width="1.51"/><path d="M102,365L77,426L137,420Z" fill="rgb(89,97,155)" stroke="rgb(89,97,155)" stroke-width="1.51"/><path d="M28,193L62,264L99,201Z" fill="rgb(135,140,174)" stroke="rgb(135,140,174)" stroke-width="1.51"/><path d="M645,56L554,21L599,126Z" fill="rgb(123,105,157)" stroke="rgb(123,105,157)" stroke-width="1.51"/><path d="M-1,356L77,426L102,365Z" fill="rgb(85,91,152)" stroke="rgb(85,91,152)" stroke-width="1.51"/><path d="M580,625L585,586L473,547Z" fill="rgb(138,96,154)" stroke="rgb(138,96,154)" stroke-width="1.51"/><path d="M647,475L715,510L707,401Z" fill="rgb(138,96,154)" stroke="rgb(138,96,154)" stroke-width="1.51"/><path d="M473,648L473,547L433,587Z" fill="rgb(120,91,152)" stroke="rgb(120,91,152)" stroke-width="1.51"/><path d="M654,136L645,56L599,126Z" fill="rgb(140,118,163)" stroke="rgb(140,118,163)" stroke-width="1.51"/><path d="M672,186L729,124L654,136Z" fill="rgb(163,135,171)" stroke="rgb(163,135,171)" stroke-width="1.51"/><path d="M750,267L707,194L662,270Z" fill="rgb(166,136,172)" stroke="rgb(166,136,172)" stroke-width="1.51"/><path d="M355,613L434,651L433,587Z" fill="rgb(135,105,158)" stroke="rgb(135,105,158)" stroke-width="1.51"/><path d="M440,696L434,651L333,726Z" fill="rgb(136,106,159)" stroke="rgb(136,106,159)" stroke-width="1.51"/><path d="M274,-28L287,63L358,19Z" fill="rgb(115,118,163)" stroke="rgb(115,118,163)" stroke-width="1.51"/><path d="M434,651L473,648L433,587Z" fill="rgb(125,95,154)" stroke="rgb(125,95,154)" stroke-width="1.51"/><path d="M356,-47L274,-28L358,19Z" fill="rgb(105,108,158)" stroke="rgb(105,108,158)" stroke-width="1.51"/><path d="M585,586L631,579L647,475Z" fill="rgb(146,99,155)" stroke="rgb(146,99,155)" stroke-width="1.51"/><path d="M580,625L631,579L585,586Z" fill="rgb(155,103,156)" stroke="rgb(155,103,156)" stroke-width="1.51"/><path d="M405,-103L356,-47L424,-18Z" fill="rgb(87,92,150)" stroke="rgb(87,92,150)" stroke-width="1.51"/><path d="M424,-18L356,-47L358,19Z" fill="rgb(92,95,152)" stroke="rgb(92,95,152)" stroke-width="1.51"/><path d="M729,124L645,56L654,136Z" fill="rgb(152,123,164)" stroke="rgb(152,123,164)" stroke-width="1.51"/><path d="M142,513L126,559L191,544Z" fill="rgb(145,124,166)" stroke="rgb(145,124,166)" stroke-width="1.51"/><path d="M191,544L203,632L276,579Z" fill="rgb(172,145,177)" stroke="rgb(172,145,177)" stroke-width="1.51"/><path d="M31,542L126,559L142,513Z" fill="rgb(134,112,160)" stroke="rgb(134,112,160)" stroke-width="1.51"/><path d="M707,346L750,267L662,270Z" fill="rgb(151,121,165)" stroke="rgb(151,121,165)" stroke-width="1.51"/><path d="M707,194L729,124L672,186Z" fill="rgb(172,141,174)" stroke="rgb(172,141,174)" stroke-width="1.51"/><path d="M774,271L750,267L781,309Z" fill="rgb(155,124,167)" stroke="rgb(155,124,167)" stroke-width="1.51"/><path d="M473,648L580,625L473,547Z" fill="rgb(132,94,153)" stroke="rgb(132,94,153)" stroke-width="1.51"/><path d="M77,426L32,479L142,513Z" fill="rgb(110,100,156)" stroke="rgb(110,100,156)" stroke-width="1.51"/><path d="M62,264L24,322L102,365Z" fill="rgb(106,111,161)" stroke="rgb(106,111,161)" stroke-width="1.51"/><path d="M-14,262L24,322L62,264Z" fill="rgb(109,113,161)" stroke="rgb(109,113,161)" stroke-width="1.51"/><path d="M141,95L73,121L99,201Z" fill="rgb(135,139,174)" stroke="rgb(135,139,174)" stroke-width="1.51"/><path d="M70,56L73,121L141,95Z" fill="rgb(123,124,165)" stroke="rgb(123,124,165)" stroke-width="1.51"/><path d="M197,-11L179,85L222,12Z" fill="rgb(129,132,169)" stroke="rgb(129,132,169)" stroke-width="1.51"/><path d="M333,726L434,651L355,613Z" fill="rgb(144,113,162)" stroke="rgb(144,113,162)" stroke-width="1.51"/><path d="M135,630L203,632L191,544Z" fill="rgb(168,137,172)" stroke="rgb(168,137,172)" stroke-width="1.51"/><path d="M629,-51L554,-24L554,21Z" fill="rgb(103,86,146)" stroke="rgb(103,86,146)" stroke-width="1.51"/><path d="M554,21L554,-24L505,50Z" fill="rgb(94,86,147)" stroke="rgb(94,86,147)" stroke-width="1.51"/><path d="M274,-28L197,-11L222,12Z" fill="rgb(128,131,169)" stroke="rgb(128,131,169)" stroke-width="1.51"/><path d="M118,-26L197,-11L151,-97Z" fill="rgb(115,115,160)" stroke="rgb(115,115,160)" stroke-width="1.51"/><path d="M554,-24L492,-54L505,50Z" fill="rgb(84,80,144)" stroke="rgb(84,80,144)" stroke-width="1.51"/><path d="M781,309L750,267L707,346Z" fill="rgb(147,117,164)" stroke="rgb(147,117,164)" stroke-width="1.51"/><path d="M631,579L715,510L647,475Z" fill="rgb(149,100,155)" stroke="rgb(149,100,155)" stroke-width="1.51"/><path d="M712,563L715,510L631,579Z" fill="rgb(164,106,158)" stroke="rgb(164,106,158)" stroke-width="1.51"/><path d="M73,121L28,193L99,201Z" fill="rgb(135,140,173)" stroke="rgb(135,140,173)" stroke-width="1.51"/><path d="M750,267L819,206L707,194Z" fill="rgb(172,143,175)" stroke="rgb(172,143,175)" stroke-width="1.51"/><path d="M781,309L707,346L816,391Z" fill="rgb(136,105,158)" stroke="rgb(136,105,158)" stroke-width="1.51"/><path d="M819,206L729,124L707,194Z" fill="rgb(173,143,175)" stroke="rgb(173,143,175)" stroke-width="1.51"/><path d="M645,56L629,-51L554,21Z" fill="rgb(114,91,148)" stroke="rgb(114,91,148)" stroke-width="1.51"/><path d="M473,648L519,711L580,625Z" fill="rgb(136,96,154)" stroke="rgb(136,96,154)" stroke-width="1.51"/><path d="M434,651L440,696L473,648Z" fill="rgb(125,94,153)" stroke="rgb(125,94,153)" stroke-width="1.51"/><path d="M295,690L355,613L296,610Z" fill="rgb(158,128,169)" stroke="rgb(158,128,169)" stroke-width="1.51"/><path d="M203,632L295,690L296,610Z" fill="rgb(170,141,175)" stroke="rgb(170,141,175)" stroke-width="1.51"/><path d="M816,391L707,346L707,401Z" fill="rgb(127,96,154)" stroke="rgb(127,96,154)" stroke-width="1.51"/><path d="M24,322L-1,356L102,365Z" fill="rgb(92,97,155)" stroke="rgb(92,97,155)" stroke-width="1.51"/><path d="M-14,262L-1,356L24,322Z" fill="rgb(96,99,154)" stroke="rgb(96,99,154)" stroke-width="1.51"/><path d="M126,559L135,630L191,544Z" fill="rgb(157,128,167)" stroke="rgb(157,128,167)" stroke-width="1.51"/><path d="M-44,425L32,479L77,426Z" fill="rgb(88,84,147)" stroke="rgb(88,84,147)" stroke-width="1.51"/><path d="M28,193L-14,262L62,264Z" fill="rgb(122,125,167)" stroke="rgb(122,125,167)" stroke-width="1.51"/><path d="M54,641L135,630L126,559Z" fill="rgb(155,121,163)" stroke="rgb(155,121,163)" stroke-width="1.51"/><path d="M203,632L223,700L295,690Z" fill="rgb(177,148,177)" stroke="rgb(177,148,177)" stroke-width="1.51"/><path d="M715,510L773,498L707,401Z" fill="rgb(142,98,155)" stroke="rgb(142,98,155)" stroke-width="1.51"/><path d="M630,665L712,563L631,579Z" fill="rgb(171,109,159)" stroke="rgb(171,109,159)" stroke-width="1.51"/><path d="M630,665L631,579L580,625Z" fill="rgb(160,105,157)" stroke="rgb(160,105,157)" stroke-width="1.51"/><path d="M-3,101L-28,210L28,193Z" fill="rgb(122,124,165)" stroke="rgb(122,124,165)" stroke-width="1.51"/><path d="M28,193L-28,210L-14,262Z" fill="rgb(122,125,166)" stroke="rgb(122,125,166)" stroke-width="1.51"/><path d="M197,-11L101,23L179,85Z" fill="rgb(123,124,165)" stroke="rgb(123,124,165)" stroke-width="1.51"/><path d="M101,23L70,56L141,95Z" fill="rgb(118,118,162)" stroke="rgb(118,118,162)" stroke-width="1.51"/><path d="M492,-54L405,-103L424,-18Z" fill="rgb(75,81,145)" stroke="rgb(75,81,145)" stroke-width="1.51"/><path d="M356,-47L251,-111L274,-28Z" fill="rgb(114,117,162)" stroke="rgb(114,117,162)" stroke-width="1.51"/><path d="M197,-11L118,-26L101,23Z" fill="rgb(112,112,158)" stroke="rgb(112,112,158)" stroke-width="1.51"/><path d="M512,-141L405,-103L492,-54Z" fill="rgb(68,75,142)" stroke="rgb(68,75,142)" stroke-width="1.51"/><path d="M223,700L333,726L295,690Z" fill="rgb(166,136,172)" stroke="rgb(166,136,172)" stroke-width="1.51"/><path d="M295,690L333,726L355,613Z" fill="rgb(155,125,167)" stroke="rgb(155,125,167)" stroke-width="1.51"/><path d="M440,696L519,711L473,648Z" fill="rgb(123,91,152)" stroke="rgb(123,91,152)" stroke-width="1.51"/><path d="M333,726L519,711L440,696Z" fill="rgb(129,99,156)" stroke="rgb(129,99,156)" stroke-width="1.51"/><path d="M135,630L223,700L203,632Z" fill="rgb(170,139,173)" stroke="rgb(170,139,173)" stroke-width="1.51"/><path d="M784,567L773,498L715,510Z" fill="rgb(159,105,157)" stroke="rgb(159,105,157)" stroke-width="1.51"/><path d="M-36,547L31,542L32,479Z" fill="rgb(113,91,148)" stroke="rgb(113,91,148)" stroke-width="1.51"/><path d="M32,479L31,542L142,513Z" fill="rgb(121,102,155)" stroke="rgb(121,102,155)" stroke-width="1.51"/><path d="M551,716L630,665L580,625Z" fill="rgb(153,102,156)" stroke="rgb(153,102,156)" stroke-width="1.51"/><path d="M712,563L784,567L715,510Z" fill="rgb(166,107,158)" stroke="rgb(166,107,158)" stroke-width="1.51"/><path d="M554,-24L569,-120L492,-54Z" fill="rgb(91,82,145)" stroke="rgb(91,82,145)" stroke-width="1.51"/><path d="M729,124L708,25L645,56Z" fill="rgb(149,115,160)" stroke="rgb(149,115,160)" stroke-width="1.51"/><path d="M775,57L708,25L729,124Z" fill="rgb(151,116,161)" stroke="rgb(151,116,161)" stroke-width="1.51"/><path d="M-3,101L28,193L73,121Z" fill="rgb(122,124,165)" stroke="rgb(122,124,165)" stroke-width="1.51"/><path d="M-88,357L-44,425L-1,356Z" fill="rgb(74,80,145)" stroke="rgb(74,80,145)" stroke-width="1.51"/><path d="M-1,356L-44,425L77,426Z" fill="rgb(70,77,144)" stroke="rgb(70,77,144)" stroke-width="1.51"/><path d="M773,498L816,391L707,401Z" fill="rgb(130,93,153)" stroke="rgb(130,93,153)" stroke-width="1.51"/><path d="M781,309L819,206L774,271Z" fill="rgb(161,130,170)" stroke="rgb(161,130,170)" stroke-width="1.51"/><path d="M774,271L819,206L750,267Z" fill="rgb(164,135,172)" stroke="rgb(164,135,172)" stroke-width="1.51"/><path d="M70,56L-3,101L73,121Z" fill="rgb(115,115,160)" stroke="rgb(115,115,160)" stroke-width="1.51"/><path d="M101,23L63,-29L70,56Z" fill="rgb(105,103,154)" stroke="rgb(105,103,154)" stroke-width="1.51"/><path d="M251,-111L197,-11L274,-28Z" fill="rgb(127,130,168)" stroke="rgb(127,130,168)" stroke-width="1.51"/><path d="M708,25L629,-51L645,56Z" fill="rgb(128,97,151)" stroke="rgb(128,97,151)" stroke-width="1.51"/><path d="M519,711L551,716L580,625Z" fill="rgb(143,98,155)" stroke="rgb(143,98,155)" stroke-width="1.51"/><path d="M333,726L551,716L519,711Z" fill="rgb(121,90,151)" stroke="rgb(121,90,151)" stroke-width="1.51"/><path d="M816,391L819,206L781,309Z" fill="rgb(149,119,164)" stroke="rgb(149,119,164)" stroke-width="1.51"/><path d="M335,-137L251,-111L356,-47Z" fill="rgb(109,111,160)" stroke="rgb(109,111,160)" stroke-width="1.51"/><path d="M-45,55L-3,101L70,56Z" fill="rgb(104,101,153)" stroke="rgb(104,101,153)" stroke-width="1.51"/><path d="M-88,357L-1,356L-14,262Z" fill="rgb(92,95,152)" stroke="rgb(92,95,152)" stroke-width="1.51"/><path d="M512,-141L335,-137L405,-103Z" fill="rgb(81,87,148)" stroke="rgb(81,87,148)" stroke-width="1.51"/><path d="M405,-103L335,-137L356,-47Z" fill="rgb(95,99,154)" stroke="rgb(95,99,154)" stroke-width="1.51"/><path d="M819,206L808,126L729,124Z" fill="rgb(168,137,172)" stroke="rgb(168,137,172)" stroke-width="1.51"/><path d="M808,126L775,57L729,124Z" fill="rgb(158,124,165)" stroke="rgb(158,124,165)" stroke-width="1.51"/><path d="M708,25L716,-36L629,-51Z" fill="rgb(132,97,151)" stroke="rgb(132,97,151)" stroke-width="1.51"/><path d="M-44,425L-45,478L32,479Z" fill="rgb(91,82,145)" stroke="rgb(91,82,145)" stroke-width="1.51"/><path d="M31,542L54,641L126,559Z" fill="rgb(143,111,158)" stroke="rgb(143,111,158)" stroke-width="1.51"/><path d="M629,-51L569,-120L554,-24Z" fill="rgb(104,87,146)" stroke="rgb(104,87,146)" stroke-width="1.51"/><path d="M675,-130L569,-120L629,-51Z" fill="rgb(116,91,148)" stroke="rgb(116,91,148)" stroke-width="1.51"/><path d="M569,-120L512,-141L492,-54Z" fill="rgb(87,81,145)" stroke="rgb(87,81,145)" stroke-width="1.51"/><path d="M745,656L712,563L630,665Z" fill="rgb(181,113,160)" stroke="rgb(181,113,160)" stroke-width="1.51"/><path d="M783,613L784,567L712,563Z" fill="rgb(177,111,159)" stroke="rgb(177,111,159)" stroke-width="1.51"/><path d="M773,498L784,567L816,391Z" fill="rgb(147,100,155)" stroke="rgb(147,100,155)" stroke-width="1.51"/><path d="M335,-137L175,-106L251,-111Z" fill="rgb(124,127,167)" stroke="rgb(124,127,167)" stroke-width="1.51"/><path d="M251,-111L175,-106L197,-11Z" fill="rgb(124,126,166)" stroke="rgb(124,126,166)" stroke-width="1.51"/><path d="M118,-26L63,-29L101,23Z" fill="rgb(104,102,153)" stroke="rgb(104,102,153)" stroke-width="1.51"/><path d="M-29,627L54,641L31,542Z" fill="rgb(140,103,153)" stroke="rgb(140,103,153)" stroke-width="1.51"/><path d="M135,630L101,715L223,700Z" fill="rgb(164,132,169)" stroke="rgb(164,132,169)" stroke-width="1.51"/><path d="M74,-97L63,-29L118,-26Z" fill="rgb(103,100,152)" stroke="rgb(103,100,152)" stroke-width="1.51"/><path d="M175,-106L151,-97L197,-11Z" fill="rgb(118,119,162)" stroke="rgb(118,119,162)" stroke-width="1.51"/><path d="M775,57L716,-36L708,25Z" fill="rgb(140,102,153)" stroke="rgb(140,102,153)" stroke-width="1.51"/><path d="M-105,255L-14,262L-28,210Z" fill="rgb(116,120,164)" stroke="rgb(116,120,164)" stroke-width="1.51"/><path d="M-105,255L-88,357L-14,262Z" fill="rgb(102,105,157)" stroke="rgb(102,105,157)" stroke-width="1.51"/><path d="M-44,425L-77,503L-45,478Z" fill="rgb(94,83,145)" stroke="rgb(94,83,145)" stroke-width="1.51"/><path d="M-77,503L-36,547L-45,478Z" fill="rgb(107,88,147)" stroke="rgb(107,88,147)" stroke-width="1.51"/><path d="M-45,478L-36,547L32,479Z" fill="rgb(104,87,146)" stroke="rgb(104,87,146)" stroke-width="1.51"/><path d="M673,725L745,656L630,665Z" fill="rgb(178,112,160)" stroke="rgb(178,112,160)" stroke-width="1.51"/><path d="M784,567L783,613L816,391Z" fill="rgb(159,104,157)" stroke="rgb(159,104,157)" stroke-width="1.51"/><path d="M745,656L783,613L712,563Z" fill="rgb(182,114,160)" stroke="rgb(182,114,160)" stroke-width="1.51"/><path d="M59,726L101,715L54,641Z" fill="rgb(149,114,160)" stroke="rgb(149,114,160)" stroke-width="1.51"/><path d="M54,641L101,715L135,630Z" fill="rgb(154,119,162)" stroke="rgb(154,119,162)" stroke-width="1.51"/><path d="M223,700L101,715L333,726Z" fill="rgb(176,146,177)" stroke="rgb(176,146,177)" stroke-width="1.51"/><path d="M-95,173L-105,255L-28,210Z" fill="rgb(125,128,168)" stroke="rgb(125,128,168)" stroke-width="1.51"/><path d="M-95,173L-28,210L-3,101Z" fill="rgb(121,122,164)" stroke="rgb(121,122,164)" stroke-width="1.51"/><path d="M-88,357L-103,389L-44,425Z" fill="rgb(71,77,144)" stroke="rgb(71,77,144)" stroke-width="1.51"/><path d="M-105,255L-103,389L-88,357Z" fill="rgb(89,93,151)" stroke="rgb(89,93,151)" stroke-width="1.51"/><path d="M333,726L673,725L551,716Z" fill="rgb(135,95,153)" stroke="rgb(135,95,153)" stroke-width="1.51"/><path d="M551,716L673,725L630,665Z" fill="rgb(161,105,157)" stroke="rgb(161,105,157)" stroke-width="1.51"/><path d="M-104,124L-95,173L-3,101Z" fill="rgb(115,115,160)" stroke="rgb(115,115,160)" stroke-width="1.51"/><path d="M-103,389L-77,503L-44,425Z" fill="rgb(83,79,144)" stroke="rgb(83,79,144)" stroke-width="1.51"/><path d="M-36,547L-29,627L31,542Z" fill="rgb(127,95,150)" stroke="rgb(127,95,150)" stroke-width="1.51"/><path d="M-27,-13L-45,55L70,56Z" fill="rgb(94,91,146)" stroke="rgb(94,91,146)" stroke-width="1.51"/><path d="M63,-29L-27,-13L70,56Z" fill="rgb(95,91,146)" stroke="rgb(95,91,146)" stroke-width="1.51"/><path d="M151,-97L74,-97L118,-26Z" fill="rgb(108,107,155)" stroke="rgb(108,107,155)" stroke-width="1.51"/><path d="M175,-106L74,-97L151,-97Z" fill="rgb(111,110,157)" stroke="rgb(111,110,157)" stroke-width="1.51"/><path d="M-105,-124L74,-97L175,-106Z" fill="rgb(96,93,148)" stroke="rgb(96,93,148)" stroke-width="1.51"/><path d="M673,725L707,728L745,656Z" fill="rgb(182,114,160)" stroke="rgb(182,114,160)" stroke-width="1.51"/><path d="M745,656L779,692L783,613Z" fill="rgb(182,114,160)" stroke="rgb(182,114,160)" stroke-width="1.51"/><path d="M333,726L707,728L673,725Z" fill="rgb(149,100,155)" stroke="rgb(149,100,155)" stroke-width="1.51"/><path d="M-129,579L-29,627L-36,547Z" fill="rgb(132,96,151)" stroke="rgb(132,96,151)" stroke-width="1.51"/><path d="M716,-36L675,-130L629,-51Z" fill="rgb(129,95,150)" stroke="rgb(129,95,150)" stroke-width="1.51"/><path d="M569,-120L675,-130L512,-141Z" fill="rgb(105,87,146)" stroke="rgb(105,87,146)" stroke-width="1.51"/><path d="M744,-128L675,-130L716,-36Z" fill="rgb(136,98,151)" stroke="rgb(136,98,151)" stroke-width="1.51"/><path d="M-47,-92L-27,-13L63,-29Z" fill="rgb(87,83,142)" stroke="rgb(87,83,142)" stroke-width="1.51"/><path d="M-45,55L-104,124L-3,101Z" fill="rgb(107,106,155)" stroke="rgb(107,106,155)" stroke-width="1.51"/><path d="M-95,173L-104,124L-105,255Z" fill="rgb(125,128,167)" stroke="rgb(125,128,167)" stroke-width="1.51"/><path d="M-94,32L-104,124L-45,55Z" fill="rgb(102,100,151)" stroke="rgb(102,100,151)" stroke-width="1.51"/><path d="M-7,702L59,726L54,641Z" fill="rgb(143,106,155)" stroke="rgb(143,106,155)" stroke-width="1.51"/><path d="M101,715L59,726L333,726Z" fill="rgb(166,134,170)" stroke="rgb(166,134,170)" stroke-width="1.51"/><path d="M333,726L-123,734L707,728Z" fill="rgb(161,130,170)" stroke="rgb(161,130,170)" stroke-width="1.51"/><path d="M822,-117L788,-58L808,126Z" fill="rgb(136,98,151)" stroke="rgb(136,98,151)" stroke-width="1.51"/><path d="M808,126L788,-58L775,57Z" fill="rgb(145,109,157)" stroke="rgb(145,109,157)" stroke-width="1.51"/><path d="M775,57L788,-58L716,-36Z" fill="rgb(136,98,151)" stroke="rgb(136,98,151)" stroke-width="1.51"/><path d="M707,728L779,692L745,656Z" fill="rgb(182,114,160)" stroke="rgb(182,114,160)" stroke-width="1.51"/><path d="M783,613L779,692L816,391Z" fill="rgb(172,109,159)" stroke="rgb(172,109,159)" stroke-width="1.51"/><path d="M-29,627L-7,702L54,641Z" fill="rgb(137,99,152)" stroke="rgb(137,99,152)" stroke-width="1.51"/><path d="M-106,656L-7,702L-29,627Z" fill="rgb(136,98,151)" stroke="rgb(136,98,151)" stroke-width="1.51"/><path d="M-27,-13L-94,32L-45,55Z" fill="rgb(93,89,145)" stroke="rgb(93,89,145)" stroke-width="1.51"/><path d="M-127,-51L-94,32L-27,-13Z" fill="rgb(87,83,142)" stroke="rgb(87,83,142)" stroke-width="1.51"/><path d="M788,-58L744,-128L716,-36Z" fill="rgb(136,98,151)" stroke="rgb(136,98,151)" stroke-width="1.51"/><path d="M675,-130L744,-128L512,-141Z" fill="rgb(121,93,149)" stroke="rgb(121,93,149)" stroke-width="1.51"/><path d="M-127,-51L-129,579L-105,255Z" fill="rgb(111,114,161)" stroke="rgb(111,114,161)" stroke-width="1.51"/><path d="M-105,255L-129,579L-103,389Z" fill="rgb(70,76,143)" stroke="rgb(70,76,143)" stroke-width="1.51"/><path d="M-103,389L-129,579L-77,503Z" fill="rgb(101,85,146)" stroke="rgb(101,85,146)" stroke-width="1.51"/><path d="M-77,503L-129,579L-36,547Z" fill="rgb(118,92,149)" stroke="rgb(118,92,149)" stroke-width="1.51"/><path d="M74,-97L-47,-92L63,-29Z" fill="rgb(93,89,145)" stroke="rgb(93,89,145)" stroke-width="1.51"/><path d="M-105,-124L-47,-92L74,-97Z" fill="rgb(87,83,142)" stroke="rgb(87,83,142)" stroke-width="1.51"/><path d="M-129,579L-106,656L-29,627Z" fill="rgb(136,98,151)" stroke="rgb(136,98,151)" stroke-width="1.51"/><path d="M788,-58L822,-117L744,-128Z" fill="rgb(136,98,151)" stroke="rgb(136,98,151)" stroke-width="1.51"/><path d="M819,206L822,-117L808,126Z" fill="rgb(151,117,161)" stroke="rgb(151,117,161)" stroke-width="1.51"/><path d="M-47,-92L-127,-51L-27,-13Z" fill="rgb(87,83,142)" stroke="rgb(87,83,142)" stroke-width="1.51"/><path d="M-94,32L-127,-51L-104,124Z" fill="rgb(95,91,147)" stroke="rgb(95,91,147)" stroke-width="1.51"/><path d="M-104,124L-127,-51L-105,255Z" fill="rgb(110,109,157)" stroke="rgb(110,109,157)" stroke-width="1.51"/><path d="M-47,-92L-105,-124L-127,-51Z" fill="rgb(87,83,142)" stroke="rgb(87,83,142)" stroke-width="1.51"/><path d="M335,-137L-105,-124L175,-106Z" fill="rgb(111,111,158)" stroke="rgb(111,111,158)" stroke-width="1.51"/><path d="M-129,579L-123,734L-106,656Z" fill="rgb(136,98,151)" stroke="rgb(136,98,151)" stroke-width="1.51"/><path d="M-106,656L-123,734L-7,702Z" fill="rgb(136,98,151)" stroke="rgb(136,98,151)" stroke-width="1.51"/><path d="M-7,702L-123,734L59,726Z" fill="rgb(136,98,151)" stroke="rgb(136,98,151)" stroke-width="1.51"/><path d="M59,726L-123,734L333,726Z" fill="rgb(152,118,161)" stroke="rgb(152,118,161)" stroke-width="1.51"/></svg>